<?xml version="1.0" encoding="utf-8"?>
<!-- Generator: Adobe Illustrator 27.5.0, SVG Export Plug-In . SVG Version: 6.00 Build 0)  -->
<svg version="1.1" xmlns="http://www.w3.org/2000/svg" xmlns:xlink="http://www.w3.org/1999/xlink" x="0px" y="0px"
	 viewBox="0 0 500 500" style="enable-background:new 0 0 500 500;" xml:space="preserve">
<g id="BACKGROUND">
	<rect style="fill:#E1F1FD;" width="500" height="500"/>
</g>
<g id="OBJECTS">
	<path style="fill:#C2DFFD;" d="M434.071,422.104H65.929c-3.756,0-6.8-3.044-6.8-6.8v-4.608c0-3.756,3.044-6.8,6.8-6.8h368.142
		c3.756,0,6.8,3.044,6.8,6.8v4.608C440.871,419.06,437.827,422.104,434.071,422.104z"/>
	<g>
		<path style="fill:#C2DFFD;" d="M285.886,326.448H166.837c-1.721,0-3.116-1.395-3.116-3.116v-222.6
			c0-1.721,1.395-3.116,3.116-3.116h119.049c1.721,0,3.116,1.395,3.116,3.116v222.6
			C289.002,325.052,287.607,326.448,285.886,326.448z"/>
		<rect x="171.22" y="105.115" style="fill:#E1F1FD;" width="110.28" height="213.835"/>
		<path style="fill:#C2DFFD;" d="M417.275,326.448H298.226c-1.721,0-3.116-1.395-3.116-3.116v-222.6
			c0-1.721,1.395-3.116,3.116-3.116h119.049c1.721,0,3.116,1.395,3.116,3.116v222.6
			C420.391,325.052,418.996,326.448,417.275,326.448z"/>
		<rect x="302.61" y="105.115" style="fill:#E1F1FD;" width="110.28" height="213.835"/>
		<g>
			<polygon style="fill:#F2F9FF;" points="281.5,151.42 281.5,164.825 171.22,185.39 171.22,171.985 			"/>
			<polygon style="fill:#F2F9FF;" points="412.89,126.92 412.89,140.325 302.61,160.89 302.61,147.485 			"/>
			<polygon style="fill:#F2F9FF;" points="281.5,255.415 281.5,268.82 171.22,289.385 171.22,275.98 			"/>
			<polygon style="fill:#F2F9FF;" points="412.89,230.91 412.89,244.315 302.61,264.885 302.61,251.475 			"/>
			<polygon style="fill:#F2F9FF;" points="281.5,179.71 281.5,220.245 171.22,240.81 171.22,200.275 			"/>
			<polygon style="fill:#F2F9FF;" points="412.89,155.21 412.89,195.74 302.61,216.31 302.61,175.775 			"/>
		</g>
	</g>
	<g>
		<g>
			<rect x="122.342" y="272.045" style="fill:#97BBF1;" width="23.525" height="35.881"/>
			<g>
				<path style="fill:#97BBF1;" d="M206.14,291.304H81.94c-0.915,0-1.657-0.742-1.657-1.657v-85.57c0-0.915,0.742-1.657,1.657-1.657
					h124.2c0.915,0,1.657,0.742,1.657,1.657v85.57C207.797,290.562,207.055,291.304,206.14,291.304z"/>
				<path style="fill:#C2DFFD;" d="M211.842,291.304h-124.2c-0.915,0-1.657-0.742-1.657-1.657v-85.57
					c0-0.915,0.742-1.657,1.657-1.657h124.2c0.915,0,1.657,0.742,1.657,1.657v85.57
					C213.499,290.562,212.757,291.304,211.842,291.304z"/>
				
					<rect x="108.875" y="186.817" transform="matrix(-1.836970e-16 1 -1 -1.836970e-16 396.6042 97.1202)" style="fill:#FFFFFF;" width="81.734" height="120.09"/>
			</g>
			<path style="fill:#6E9AE6;" d="M167.579,301.451h-52.871c-1.788,0-3.238,1.449-3.238,3.238l0,0c0,1.788,1.45,3.238,3.238,3.238
				h52.871c1.788,0,3.238-1.449,3.238-3.238l0,0C170.817,302.9,169.367,301.451,167.579,301.451z"/>
			<path style="fill:#C2DFFD;" d="M195.38,221.325v55.635c0,0.73-0.59,1.32-1.32,1.32h-90.715c-0.73,0-1.32-0.59-1.32-1.32v-55.635
				c0-0.73,0.59-1.32,1.32-1.32h90.715C194.79,220.005,195.38,220.595,195.38,221.325z"/>
			<path style="fill:#97BBF1;" d="M195.38,265.11v11.85c0,0.73-0.59,1.32-1.32,1.32h-90.715c-0.73,0-1.32-0.59-1.32-1.32v-11.85
				H195.38z"/>
		</g>
		<g>
			<g>
				<g>
					<path style="fill:#C2DFFD;" d="M236.363,395.846H72.878c-1.882,0-3.408-1.526-3.408-3.408v-81.105
						c0-1.882,1.526-3.408,3.408-3.408h163.485c1.882,0,3.408,1.526,3.408,3.408v81.105
						C239.771,394.321,238.246,395.846,236.363,395.846z"/>
					<path style="fill:#E1F1FD;" d="M230.007,342.084H79.235c-1.28,0-2.317-1.037-2.317-2.317v-22.455
						c0-1.28,1.037-2.317,2.317-2.317h150.772c1.28,0,2.317,1.037,2.317,2.317v22.455
						C232.324,341.047,231.287,342.084,230.007,342.084z"/>
					<path style="fill:#C2DFFD;" d="M175.035,330.738h-40.827c-1.214,0-2.198-0.984-2.198-2.198l0,0
						c0-1.214,0.984-2.198,2.198-2.198h40.827c1.214,0,2.198,0.984,2.198,2.198l0,0
						C177.233,329.754,176.249,330.738,175.035,330.738z"/>
					<path style="fill:#97BBF1;" d="M230.085,388.955H79.157c-1.236,0-2.239-1.002-2.239-2.239v-37.048
						c0-1.236,1.002-2.239,2.239-2.239h150.929c1.236,0,2.239,1.002,2.239,2.239v37.048
						C232.324,387.953,231.322,388.955,230.085,388.955z"/>
				</g>
				<g>
					<linearGradient id="SVGID_1_" gradientUnits="userSpaceOnUse" x1="98.795" y1="412.4204" x2="95.9435" y2="356.8163">
						<stop  offset="0" style="stop-color:#5D9E93"/>
						<stop  offset="1" style="stop-color:#D6FF8C"/>
					</linearGradient>
					<path style="fill:url(#SVGID_1_);" d="M91.435,381.827c-3.208-5.703-1.545-14.08-1.188-13.634
						c0.356,0.446,2.733,8.882,2.733,8.882s0.356-11.881,1.901-14.614c1.545-2.733,2.139,13.307,2.139,13.307
						s2.614-6.832,3.564-7.574c0.951-0.742-0.832,8.763-0.832,8.763s3.683-4.871,4.277-4.158c0.594,0.713-2.97,10.099-4.752,11.347"
						/>
					<polygon style="fill:#FFFFFF;" points="106.54,379.332 87.054,379.332 90.324,388.955 103.27,388.955 					"/>
				</g>
				<path style="fill:#E1F1FD;" d="M213.233,349.391h8.911c0.984,0,1.782,0.798,1.782,1.782v36c0,0.984-0.798,1.782-1.782,1.782
					h-8.911c-0.984,0-1.782-0.798-1.782-1.782v-36C211.451,350.189,212.248,349.391,213.233,349.391z"/>
				<path style="fill:#E1F1FD;" d="M199.032,349.391h8.911c0.984,0,1.782,0.798,1.782,1.782v36c0,0.984-0.798,1.782-1.782,1.782
					h-8.911c-0.984,0-1.782-0.798-1.782-1.782v-36C197.25,350.189,198.048,349.391,199.032,349.391z"/>
				<path style="fill:#E1F1FD;" d="M187.69,349.87l7.856,4.206c0.868,0.465,1.195,1.545,0.73,2.412l-16.992,31.737
					c-0.465,0.868-1.545,1.195-2.412,0.73l-7.856-4.206c-0.868-0.465-1.195-1.545-0.73-2.412l16.993-31.737
					C185.742,349.732,186.822,349.405,187.69,349.87z"/>
			</g>
			<g>
				<path style="fill:#97BBF1;" d="M77.652,411.945L77.652,411.945c-2.294,0-3.415-2.798-1.755-4.382l12.279-11.717h7.366
					l-16.134,15.396C78.934,411.694,78.306,411.945,77.652,411.945z"/>
				<path style="fill:#97BBF1;" d="M231.59,411.945L231.59,411.945c2.294,0,3.415-2.798,1.755-4.382l-12.279-11.717H213.7
					l16.134,15.396C230.307,411.694,230.936,411.945,231.59,411.945z"/>
			</g>
		</g>
		<g>
			<path style="fill:#6E9AE6;" d="M240.96,259.505H150.9c-0.722,0-1.307-0.585-1.307-1.307v-16.396c0-0.722,0.585-1.307,1.307-1.307
				h90.059c0.722,0,1.307,0.585,1.307,1.307v16.396C242.267,258.92,241.681,259.505,240.96,259.505z"/>
			<g>
				<rect x="158.207" y="246.911" style="fill:#FFFFFF;" width="1.782" height="6.178"/>
				<rect x="162.544" y="246.911" style="fill:#FFFFFF;" width="1.782" height="6.178"/>
			</g>
			<path style="fill:#FFFFFF;" d="M231.395,250.832h-60.297c-0.459,0-0.832-0.372-0.832-0.832l0,0c0-0.459,0.372-0.832,0.832-0.832
				h60.297c0.459,0,0.832,0.372,0.832,0.832l0,0C232.227,250.459,231.855,250.832,231.395,250.832z"/>
			<path style="fill:#C2DFFD;" d="M231.395,250.832H199.91c-0.459,0-0.832-0.372-0.832-0.832l0,0c0-0.459,0.372-0.832,0.832-0.832
				h31.485c0.459,0,0.832,0.372,0.832,0.832l0,0C232.227,250.459,231.855,250.832,231.395,250.832z"/>
			<circle style="fill:#FFFFFF;" cx="200.861" cy="250" r="2.733"/>
		</g>
	</g>
	<g>
		<g>
			<polygon style="fill:#332D5F;" points="327.43,303.765 294.2,303.765 286.66,277.035 285.31,303.765 257.055,303.765 
				255.41,240.32 280.055,226.46 318.205,240.32 			"/>
			<polygon style="fill:#ECB4C8;" points="257.055,303.765 285.31,303.765 280.89,391.095 259.32,391.095 			"/>
			<polygon style="fill:#ECB4C8;" points="340.125,391.095 318.825,391.095 294.2,303.765 327.43,303.765 			"/>
			<path style="fill:#FFFFFF;" d="M259.32,391.095l-26.516,17.767c-1.383,0.926-0.727,3.083,0.938,3.083h46.505
				c0.966,0,1.734-0.811,1.682-1.776l-1.038-19.075H259.32z"/>
			<path style="fill:#FFFFFF;" d="M340.439,391.095l26.516,17.767c1.383,0.926,0.727,3.083-0.938,3.083h-46.505
				c-0.966,0-1.734-0.811-1.682-1.776l1.038-19.075H340.439z"/>
			<polygon style="fill:#1D1A45;" points="286.66,277.035 285.31,303.765 283.14,303.765 273.738,272.045 			"/>
		</g>
		<g>
			<path style="fill:#ECB4C8;" d="M211.153,215.808h18.178l8.968-21.718l14.97,8.331l-10.091,23.885
				c-1.019,2.484-3.583,3.969-6.245,3.617l-29.138-3.858"/>
			<path style="fill:#D07C9E;" d="M207.797,214.658c0,0-9.267,1.744-10.515,3.431c-1.248,1.686,13.316,3.639,14.477,1.352
				C212.921,217.154,213.01,214.747,207.797,214.658z"/>
			
				<linearGradient id="SVGID_00000168798683037275991900000011220411137040545712_" gradientUnits="userSpaceOnUse" x1="280.4368" y1="91.5315" x2="281.5059" y2="294.1653">
				<stop  offset="0" style="stop-color:#F3D67C"/>
				<stop  offset="1" style="stop-color:#E38435"/>
			</linearGradient>
			<path style="fill:url(#SVGID_00000168798683037275991900000011220411137040545712_);" d="M323.485,161.725l-5.28,17.645v60.95
				H255.41v-42.295l-2.14,4.395l-2.96-1.645l-12.01-6.685l11.005-21.81c2.08-4.13,5.735-7.25,10.14-8.665l20.375-6.545h15.29
				L323.485,161.725z"/>
			
				<linearGradient id="SVGID_00000069396005092559756630000010726961598869902490_" gradientUnits="userSpaceOnUse" x1="298.3277" y1="128.2001" x2="298.6376" y2="194.2066">
				<stop  offset="0" style="stop-color:#F3D67C"/>
				<stop  offset="1" style="stop-color:#E38435"/>
			</linearGradient>
			<polygon style="fill:url(#SVGID_00000069396005092559756630000010726961598869902490_);" points="318.205,199.155 
				318.205,240.32 279.31,240.32 309.67,175.255 305.78,188.77 			"/>
			<rect x="255.41" y="202.42" style="opacity:0.25;fill:#FFFFFF;" width="62.795" height="7.15"/>
			<rect x="255.425" y="229.425" style="opacity:0.25;fill:#FFFFFF;" width="62.795" height="7.145"/>
			<path style="fill:#ECB4C8;" d="M323.535,194.09l-9.58,28.985c-1.065,3.23-4.18,5.33-7.575,5.105l-40.575-2.65l3.565-11.765
				l29.935-2.495l6.475-22.5L323.535,194.09z"/>
			
				<line style="fill:none;stroke:#D07C9E;stroke-width:0.4416;stroke-linecap:round;stroke-linejoin:round;stroke-miterlimit:10;" x1="299.305" y1="211.27" x2="305.78" y2="210.738"/>
			
				<linearGradient id="SVGID_00000111876990297646184680000001590554140313544595_" gradientUnits="userSpaceOnUse" x1="317.7394" y1="91.3349" x2="318.8085" y2="293.9681">
				<stop  offset="0" style="stop-color:#F3D67C"/>
				<stop  offset="1" style="stop-color:#E38435"/>
			</linearGradient>
			<path style="fill:url(#SVGID_00000111876990297646184680000001590554140313544595_);" d="M330.14,174.11l-6.605,19.98
				l-17.755-5.32l5.865-20.375c1.22-4.24,5.09-7.01,9.305-7.01c0.835,0,1.69,0.11,2.535,0.34
				C328.845,163.18,331.885,168.835,330.14,174.11z"/>
			<polyline style="fill:#ECB4C8;" points="263.361,226.461 270.856,223.985 273.234,215.808 257.278,217.514 			"/>
			<g>
				<g>
					<ellipse style="fill:#4F4996;" cx="168.73" cy="220.005" rx="10.604" ry="18.267"/>
					<ellipse style="fill:#332D5F;" cx="173.438" cy="220.005" rx="10.604" ry="18.267"/>
					<ellipse style="fill:#4F4996;" cx="173.438" cy="220.005" rx="5.017" ry="8.644"/>
				</g>
				<path style="fill:#332D5F;" d="M319.451,221.787H174.381c-0.984,0-1.782-0.798-1.782-1.782v0c0-0.984,0.798-1.782,1.782-1.782
					h145.069c0.984,0,1.782,0.798,1.782,1.782v0C321.233,220.989,320.435,221.787,319.451,221.787z"/>
				<g>
					<ellipse style="fill:#4F4996;" cx="318.827" cy="219.292" rx="10.604" ry="18.267"/>
					<ellipse style="fill:#332D5F;" cx="323.535" cy="219.292" rx="10.604" ry="18.267"/>
				</g>
			</g>
			<g>
				<path style="fill:#ECB4C8;" d="M263.845,226.06c-1.245,1.84-12.415,1.425-15.68-1.13c0,0-2.555-6.235-1.25-7.78
					c1.27-1.495,3.875,3.645,4.035,3.965c-0.065-0.205-0.795-2.57,0.835-4.24c0.45-0.46,0.96-0.335,1.465,0.095
					c0.94,0.795,1.875,2.66,2.395,3.82c0.225,0.5,0.37,0.87,0.41,0.965c-0.025-0.085-0.135-0.415-0.255-0.87
					c-0.335-1.26-0.78-3.49-0.035-4.3c1.035-1.125,3.575,4.8,3.74,5.175c-0.055-0.285-0.645-3.46,0.72-4.255
					c0.78-0.455,2.165,1.595,3.055,3.85C264.015,223.22,264.41,225.225,263.845,226.06z"/>
				<path style="fill:#D07C9E;" d="M255.645,220.79c-1.51-0.89-2.455-2.26-2.395-3.82C254.19,217.765,255.125,219.63,255.645,220.79
					z"/>
				<path style="fill:#D07C9E;" d="M263.28,221.355c-0.095,0.035-0.195,0.07-0.3,0.1c-2.685,0.815-5.33,0.465-7.18-0.57
					c-0.335-1.26-0.78-3.49-0.035-4.3c1.035-1.125,3.575,4.8,3.74,5.175c-0.055-0.285-0.645-3.46,0.72-4.255
					C261.005,217.05,262.39,219.1,263.28,221.355z"/>
				
					<path style="fill:none;stroke:#D07C9E;stroke-width:0.4416;stroke-linecap:round;stroke-linejoin:round;stroke-miterlimit:10;" d="
					M250.955,221.134c0.713,2.436,1.901,4.455,1.901,4.455"/>
				
					<path style="fill:none;stroke:#D07C9E;stroke-width:0.4416;stroke-linecap:round;stroke-linejoin:round;stroke-miterlimit:10;" d="
					M255.329,220.114c1.241,4.495,3.082,6.347,3.082,6.347"/>
				
					<path style="fill:none;stroke:#D07C9E;stroke-width:0.4416;stroke-linecap:round;stroke-linejoin:round;stroke-miterlimit:10;" d="
					M259.385,220.935c0.273,2.693,1.907,5.396,1.907,5.396"/>
			</g>
			<g>
				<path style="fill:#ECB4C8;" d="M213.231,226.06c-1.245,1.84-12.415,1.425-15.68-1.13c0,0-2.555-6.235-1.25-7.78
					c1.27-1.495,3.875,3.645,4.035,3.965c-0.065-0.205-0.795-2.57,0.835-4.24c0.45-0.46,0.96-0.335,1.465,0.095
					c0.94,0.795,1.875,2.66,2.395,3.82c0.225,0.5,0.37,0.87,0.41,0.965c-0.025-0.085-0.135-0.415-0.255-0.87
					c-0.335-1.26-0.78-3.49-0.035-4.3c1.035-1.125,3.575,4.8,3.74,5.175c-0.055-0.285-0.645-3.46,0.72-4.255
					c0.78-0.455,2.165,1.595,3.055,3.85C213.401,223.22,213.796,225.225,213.231,226.06z"/>
				
					<path style="fill:none;stroke:#D07C9E;stroke-width:0.4416;stroke-linecap:round;stroke-linejoin:round;stroke-miterlimit:10;" d="
					M200.342,221.134c0.713,2.436,1.901,4.455,1.901,4.455"/>
				
					<path style="fill:none;stroke:#D07C9E;stroke-width:0.4416;stroke-linecap:round;stroke-linejoin:round;stroke-miterlimit:10;" d="
					M204.715,220.114c1.241,4.495,3.082,6.347,3.082,6.347"/>
				
					<path style="fill:none;stroke:#D07C9E;stroke-width:0.4416;stroke-linecap:round;stroke-linejoin:round;stroke-miterlimit:10;" d="
					M208.771,220.935c0.273,2.693,1.907,5.396,1.907,5.396"/>
			</g>
			<path style="fill:#ECB4C8;" d="M273.474,213.564c0,0-7.424-3.327-8.85-2.761c-1.426,0.565-12.247,6.625-10.52,8.288
				c1.728,1.663,10.401-1.069,10.401-1.069h10.812l2.376-2.839"/>
			
				<linearGradient id="SVGID_00000139254799235684986260000015963275363483751070_" gradientUnits="userSpaceOnUse" x1="254.0243" y1="108.9761" x2="252.5985" y2="219.7088">
				<stop  offset="0" style="stop-color:#F3D67C"/>
				<stop  offset="1" style="stop-color:#E38435"/>
			</linearGradient>
			<polygon style="fill:url(#SVGID_00000139254799235684986260000015963275363483751070_);" points="255.41,180.795 255.41,198.025 
				253.27,202.42 250.31,200.775 			"/>
		</g>
		<g>
			<path style="fill:#332D5F;" d="M268.859,128.552c-8.376-3.564-5.168-13.723-3.564-16.307c1.604-2.584,4.812,2.139,4.812,2.139
				s2.465-7.663,5.376-8.822c2.911-1.158,3.053,5.614,3.053,5.614s13.67,0,18.66,2.05c4.99,2.049,2.584,9.059,2.584,9.059
				s5.525,0.832,5.436,4.396c-0.089,3.564-6.592,20.853-9.445,21.297c-2.853,0.444-6.772,0-6.772,0"/>
			<g>
				<path style="fill:#D07C9E;" d="M278.536,152.79l1.871,7.396c0,0,1.871,1.96,8.287,0.802c6.416-1.158,6.416-3.916,6.416-3.916
					l-2.495-12.035"/>
				<path style="fill:#ECB4C8;" d="M267.582,122.285c0.653,0.594,3.564,2.733,9.921,2.673c6.357-0.059,15.505,0,15.505,0
					l1.901,13.129c0,0,0.535-3.743,3.03-6.297c2.495-2.554,6.832-0.594,5.822,3.921c-1.01,4.515-7.663,6-7.663,6
					s-3.03,13.01-15.148,13.01s-13.366-10.277-13.366-15.386C267.582,134.225,267.582,122.285,267.582,122.285z"/>
				
					<path style="fill:none;stroke:#D07C9E;stroke-width:0.4416;stroke-linecap:round;stroke-linejoin:round;stroke-miterlimit:10;" d="
					M279.285,134.166l-2.392,6.306c-0.288,0.758,0.172,1.594,0.967,1.757l2.405,0.492"/>
				
					<path style="fill:none;stroke:#D07C9E;stroke-width:0.4416;stroke-linecap:round;stroke-linejoin:round;stroke-miterlimit:10;" d="
					M298.029,137.99c0.238-2.673,2.555-3.564,2.555-3.564"/>
				<g>
					<path style="fill:#332D5F;" d="M287.104,137.686c0,0.8-0.499,1.448-1.114,1.448c-0.615,0-1.114-0.648-1.114-1.448
						c0-0.8,0.499-1.448,1.114-1.448C286.605,136.238,287.104,136.886,287.104,137.686z"/>
					<path style="fill:#332D5F;" d="M273.337,137.686c0,0.8-0.499,1.448-1.114,1.448c-0.615,0-1.114-0.648-1.114-1.448
						c0-0.8,0.499-1.448,1.114-1.448C272.838,136.238,273.337,136.886,273.337,137.686z"/>
				</g>
				<path style="fill:none;stroke:#332D5F;stroke-linecap:round;stroke-linejoin:round;stroke-miterlimit:10;" d="M270.493,133.215
					c0,0,2.317-1.842,4.99-0.475"/>
				<path style="fill:none;stroke:#332D5F;stroke-linecap:round;stroke-linejoin:round;stroke-miterlimit:10;" d="M288.485,133.215
					c0,0-2.317-1.842-4.99-0.475"/>
				
					<path style="fill:none;stroke:#D07C9E;stroke-width:0.4416;stroke-linecap:round;stroke-linejoin:round;stroke-miterlimit:10;" d="
					M282.374,147.116c0,0,3.03,1.545,5.049-1.247"/>
			</g>
		</g>
	</g>
	<g>
		
			<linearGradient id="SVGID_00000016070967505885874360000010797137926416516250_" gradientUnits="userSpaceOnUse" x1="386.3741" y1="429.2784" x2="392.79" y2="130.9423">
			<stop  offset="0" style="stop-color:#5D9E93"/>
			<stop  offset="1" style="stop-color:#D6FF8C"/>
		</linearGradient>
		<path style="fill:url(#SVGID_00000016070967505885874360000010797137926416516250_);" d="M381.485,335.134
			c-31.01-24.951-33.861-84.832-30.653-91.248c3.208-6.416,33.505,91.604,32.436,89.465s-9.624-124.044,7.842-152.556
			c17.465-28.513-3.743,152.556-3.743,152.556s12.654-42.772,18-70.574c5.347-27.802,16.396,1.069,7.485,26.733
			c-8.911,25.663-20.317,45.624-20.317,45.624s22.812-36.357,34.931-36.713c12.119-0.356-33.148,41.346-33.148,41.346"/>
		<path style="fill:#FFFFFF;" d="M412.658,333.352h-45.98v56.228c0,12.353,10.014,22.366,22.366,22.366h1.247
			c12.353,0,22.366-10.014,22.366-22.366V333.352z"/>
	</g>
</g>
</svg>
