<?xml version="1.0" encoding="utf-8"?>
<!-- Generator: Adobe Illustrator 27.5.0, SVG Export Plug-In . SVG Version: 6.00 Build 0)  -->
<svg version="1.1" xmlns="http://www.w3.org/2000/svg" xmlns:xlink="http://www.w3.org/1999/xlink" x="0px" y="0px"
	 viewBox="0 0 500 500" style="enable-background:new 0 0 500 500;" xml:space="preserve">
<g id="BACKGROUND">
	<g>
		<rect style="fill:#3A9FA3;" width="500" height="500"/>
	</g>
</g>
<g id="OBJECTS">
	<rect y="381.16" style="fill:#2A7275;" width="500" height="118.84"/>
	<g>
		<ellipse style="fill:#225E61;" cx="360.675" cy="433.491" rx="40.594" ry="7.643"/>
		<ellipse style="fill:#225E61;" cx="137.801" cy="432.221" rx="40.594" ry="7.643"/>
		<ellipse style="fill:#225E61;" cx="247.271" cy="439.865" rx="59.335" ry="10.014"/>
	</g>
	<g style="opacity:0.72;">
		<g>
			<path style="fill:#2C797D;" d="M124.394,383.068L124.394,383.068c-1.958,0-3.545-1.587-3.545-3.545V259.647
				c0-1.958,1.587-3.545,3.545-3.545l0,0c1.958,0,3.545,1.587,3.545,3.545v119.877C127.938,381.481,126.351,383.068,124.394,383.068
				z"/>
			<path style="fill:#2C797D;" d="M375.606,383.068L375.606,383.068c-1.958,0-3.545-1.587-3.545-3.545V259.647
				c0-1.958,1.587-3.545,3.545-3.545l0,0c1.958,0,3.545,1.587,3.545,3.545v119.877C379.151,381.481,377.564,383.068,375.606,383.068
				z"/>
			<rect x="124.394" y="342.058" style="fill:#2C797D;" width="243.181" height="4.381"/>
			<rect x="124.394" y="299.711" style="fill:#2C797D;" width="252.161" height="4.381"/>
			
				<ellipse transform="matrix(0.987 -0.1606 0.1606 0.987 -49.3985 61.9113)" style="fill:#2C797D;" cx="358.256" cy="336.512" rx="8.706" ry="8.706"/>
			
				<ellipse transform="matrix(0.973 -0.231 0.231 0.973 -68.9414 85.6336)" style="fill:#2C797D;" cx="331.241" cy="337.242" rx="12.506" ry="12.506"/>
			<circle style="fill:#2C797D;" cx="298.142" cy="337.972" r="15.67"/>
			<circle style="fill:#2C797D;" cx="258.603" cy="338.702" r="18.104"/>
			
				<ellipse transform="matrix(0.9228 -0.3853 0.3853 0.9228 -114.2423 108.6863)" style="fill:#2C797D;" cx="214.104" cy="339.433" rx="21.959" ry="21.959"/>
			<g>
				<circle style="fill:#2C797D;" cx="298.142" cy="337.972" r="15.67"/>
				<path style="fill:#2C797D;" d="M291.761,337.972c0,3.524,2.857,6.381,6.381,6.381c3.524,0,6.381-2.857,6.381-6.381
					c0-3.524-2.857-6.381-6.381-6.381C294.618,331.591,291.761,334.448,291.761,337.972z"/>
			</g>
			<g>
				<circle style="fill:#2C797D;" cx="258.603" cy="338.702" r="18.104"/>
				<circle style="fill:#2C797D;" cx="258.603" cy="338.702" r="6.381"/>
			</g>
			<g>
				
					<ellipse transform="matrix(0.9228 -0.3853 0.3853 0.9228 -114.2423 108.6863)" style="fill:#2C797D;" cx="214.104" cy="339.433" rx="21.959" ry="21.959"/>
				<path style="fill:#2C797D;" d="M207.722,339.433c0,3.524,2.857,6.381,6.381,6.381c3.524,0,6.381-2.857,6.381-6.381
					c0-3.524-2.857-6.381-6.381-6.381C210.579,333.052,207.722,335.908,207.722,339.433z"/>
			</g>
			<g>
				
					<ellipse transform="matrix(0.9726 -0.2324 0.2324 0.9726 -74.6204 46.8314)" style="fill:#2C797D;" cx="161.479" cy="340.163" rx="26.229" ry="26.229"/>
				<path style="fill:#2C797D;" d="M155.098,340.031c0,3.524,2.857,6.381,6.381,6.381c3.524,0,6.381-2.857,6.381-6.381
					c0-3.524-2.857-6.381-6.381-6.381C157.955,333.65,155.098,336.507,155.098,340.031z"/>
			</g>
			<g>
				
					<ellipse transform="matrix(0.973 -0.231 0.231 0.973 -68.9414 85.6336)" style="fill:#2C797D;" cx="331.241" cy="337.242" rx="12.506" ry="12.506"/>
				<path style="fill:#2C797D;" d="M326.32,337.242c0,2.718,2.203,4.921,4.921,4.921c2.718,0,4.921-2.203,4.921-4.921
					c0-2.718-2.203-4.921-4.921-4.921C328.523,332.321,326.32,334.525,326.32,337.242z"/>
			</g>
			<g>
				
					<ellipse transform="matrix(0.987 -0.1606 0.1606 0.987 -49.3985 61.9113)" style="fill:#2C797D;" cx="358.256" cy="336.512" rx="8.706" ry="8.706"/>
				<path style="fill:#2C797D;" d="M354.065,336.512c0,2.314,1.876,4.191,4.191,4.191c2.314,0,4.191-1.876,4.191-4.191
					c0-2.314-1.876-4.191-4.191-4.191C355.941,332.321,354.065,334.198,354.065,336.512z"/>
			</g>
			<circle style="fill:#2C797D;" cx="142.85" cy="294.791" r="8.706"/>
			<circle style="fill:#2C797D;" cx="169.865" cy="294.061" r="12.506"/>
			
				<ellipse transform="matrix(0.9729 -0.2313 0.2313 0.9729 -62.3446 54.901)" style="fill:#2C797D;" cx="202.963" cy="293.331" rx="15.67" ry="15.67"/>
			
				<ellipse transform="matrix(0.3785 -0.9256 0.9256 0.3785 -120.1154 406.3152)" style="fill:#2C797D;" cx="242.503" cy="292.601" rx="18.104" ry="18.103"/>
			<circle style="fill:#2C797D;" cx="287.002" cy="291.871" r="21.959"/>
			<g>
				
					<ellipse transform="matrix(0.9729 -0.2313 0.2313 0.9729 -62.3446 54.901)" style="fill:#2C797D;" cx="202.963" cy="293.331" rx="15.67" ry="15.67"/>
				<path style="fill:#2C797D;" d="M209.344,293.331c0-3.524-2.857-6.381-6.381-6.381c-3.524,0-6.381,2.857-6.381,6.381
					c0,3.524,2.857,6.381,6.381,6.381C206.487,299.712,209.344,296.855,209.344,293.331z"/>
			</g>
			<g>
				
					<ellipse transform="matrix(0.3785 -0.9256 0.9256 0.3785 -120.1154 406.3152)" style="fill:#2C797D;" cx="242.503" cy="292.601" rx="18.104" ry="18.103"/>
				<path style="fill:#2C797D;" d="M248.884,292.601c0-3.524-2.857-6.381-6.381-6.381c-3.524,0-6.381,2.857-6.381,6.381
					c0,3.524,2.857,6.381,6.381,6.381C246.027,298.982,248.884,296.125,248.884,292.601z"/>
			</g>
			<g>
				<circle style="fill:#2C797D;" cx="287.002" cy="291.871" r="21.959"/>
				<path style="fill:#2C797D;" d="M293.383,291.871c0-3.524-2.857-6.381-6.381-6.381s-6.381,2.857-6.381,6.381
					c0,3.524,2.857,6.381,6.381,6.381S293.383,295.395,293.383,291.871z"/>
			</g>
			<g>
				
					<ellipse transform="matrix(0.9726 -0.2324 0.2324 0.9726 -58.3537 86.8841)" style="fill:#2C797D;" cx="339.627" cy="291.141" rx="26.229" ry="26.229"/>
				<path style="fill:#2C797D;" d="M346.008,291.273c0-3.524-2.857-6.381-6.381-6.381s-6.381,2.857-6.381,6.381
					c0,3.524,2.857,6.381,6.381,6.381S346.008,294.797,346.008,291.273z"/>
			</g>
			<g>
				<circle style="fill:#2C797D;" cx="169.865" cy="294.061" r="12.506"/>
				<circle style="fill:#2C797D;" cx="169.865" cy="294.061" r="4.921"/>
			</g>
			<g>
				<circle style="fill:#2C797D;" cx="142.85" cy="294.791" r="8.706"/>
				<circle style="fill:#2C797D;" cx="142.85" cy="294.791" r="4.191"/>
			</g>
		</g>
		<g style="opacity:0.58;">
			<path style="fill:#2C797D;" d="M124.394,383.068L124.394,383.068c-1.958,0-3.545-1.587-3.545-3.545V259.647
				c0-1.958,1.587-3.545,3.545-3.545l0,0c1.958,0,3.545,1.587,3.545,3.545v119.877C127.938,381.481,126.351,383.068,124.394,383.068
				z"/>
			<path style="fill:#2C797D;" d="M375.606,383.068L375.606,383.068c-1.958,0-3.545-1.587-3.545-3.545V259.647
				c0-1.958,1.587-3.545,3.545-3.545l0,0c1.958,0,3.545,1.587,3.545,3.545v119.877C379.151,381.481,377.564,383.068,375.606,383.068
				z"/>
			<rect x="124.394" y="342.058" style="fill:#2C797D;" width="243.181" height="4.381"/>
			<rect x="124.394" y="299.711" style="fill:#2C797D;" width="252.161" height="4.381"/>
			
				<ellipse transform="matrix(0.987 -0.1606 0.1606 0.987 -49.3985 61.9113)" style="fill:#2C797D;" cx="358.256" cy="336.512" rx="8.706" ry="8.706"/>
			
				<ellipse transform="matrix(0.973 -0.231 0.231 0.973 -68.9414 85.6336)" style="fill:#2C797D;" cx="331.241" cy="337.242" rx="12.506" ry="12.506"/>
			<circle style="fill:#2C797D;" cx="298.142" cy="337.972" r="15.67"/>
			<circle style="fill:#2C797D;" cx="258.603" cy="338.702" r="18.104"/>
			
				<ellipse transform="matrix(0.9228 -0.3853 0.3853 0.9228 -114.2423 108.6863)" style="fill:#2C797D;" cx="214.104" cy="339.433" rx="21.959" ry="21.959"/>
			<g>
				<circle style="fill:#2C797D;" cx="298.142" cy="337.972" r="15.67"/>
				<path style="fill:#369399;" d="M291.761,337.972c0,3.524,2.857,6.381,6.381,6.381c3.524,0,6.381-2.857,6.381-6.381
					c0-3.524-2.857-6.381-6.381-6.381C294.618,331.591,291.761,334.448,291.761,337.972z"/>
			</g>
			<g>
				<circle style="fill:#2C797D;" cx="258.603" cy="338.702" r="18.104"/>
				<circle style="fill:#369399;" cx="258.603" cy="338.702" r="6.381"/>
			</g>
			<g>
				
					<ellipse transform="matrix(0.9228 -0.3853 0.3853 0.9228 -114.2423 108.6863)" style="fill:#2C797D;" cx="214.104" cy="339.433" rx="21.959" ry="21.959"/>
				<path style="fill:#369399;" d="M207.722,339.433c0,3.524,2.857,6.381,6.381,6.381c3.524,0,6.381-2.857,6.381-6.381
					c0-3.524-2.857-6.381-6.381-6.381C210.579,333.052,207.722,335.908,207.722,339.433z"/>
			</g>
			<g>
				
					<ellipse transform="matrix(0.9726 -0.2324 0.2324 0.9726 -74.6204 46.8314)" style="fill:#2C797D;" cx="161.479" cy="340.163" rx="26.229" ry="26.229"/>
				<path style="fill:#369399;" d="M155.098,340.031c0,3.524,2.857,6.381,6.381,6.381c3.524,0,6.381-2.857,6.381-6.381
					c0-3.524-2.857-6.381-6.381-6.381C157.955,333.65,155.098,336.507,155.098,340.031z"/>
			</g>
			<g>
				
					<ellipse transform="matrix(0.973 -0.231 0.231 0.973 -68.9414 85.6336)" style="fill:#2C797D;" cx="331.241" cy="337.242" rx="12.506" ry="12.506"/>
				<path style="fill:#2C797D;" d="M326.32,337.242c0,2.718,2.203,4.921,4.921,4.921c2.718,0,4.921-2.203,4.921-4.921
					c0-2.718-2.203-4.921-4.921-4.921C328.523,332.321,326.32,334.525,326.32,337.242z"/>
			</g>
			<g>
				
					<ellipse transform="matrix(0.987 -0.1606 0.1606 0.987 -49.3985 61.9113)" style="fill:#2C797D;" cx="358.256" cy="336.512" rx="8.706" ry="8.706"/>
				<path style="fill:#2C797D;" d="M354.065,336.512c0,2.314,1.876,4.191,4.191,4.191c2.314,0,4.191-1.876,4.191-4.191
					c0-2.314-1.876-4.191-4.191-4.191C355.941,332.321,354.065,334.198,354.065,336.512z"/>
			</g>
			<circle style="fill:#2C797D;" cx="142.85" cy="294.791" r="8.706"/>
			<circle style="fill:#2C797D;" cx="169.865" cy="294.061" r="12.506"/>
			
				<ellipse transform="matrix(0.9729 -0.2313 0.2313 0.9729 -62.3446 54.901)" style="fill:#2C797D;" cx="202.963" cy="293.331" rx="15.67" ry="15.67"/>
			
				<ellipse transform="matrix(0.3785 -0.9256 0.9256 0.3785 -120.1154 406.3152)" style="fill:#2C797D;" cx="242.503" cy="292.601" rx="18.104" ry="18.103"/>
			<circle style="fill:#2C797D;" cx="287.002" cy="291.871" r="21.959"/>
			<g>
				
					<ellipse transform="matrix(0.9729 -0.2313 0.2313 0.9729 -62.3446 54.901)" style="fill:#2C797D;" cx="202.963" cy="293.331" rx="15.67" ry="15.67"/>
				<path style="fill:#369399;" d="M209.344,293.331c0-3.524-2.857-6.381-6.381-6.381c-3.524,0-6.381,2.857-6.381,6.381
					c0,3.524,2.857,6.381,6.381,6.381C206.487,299.712,209.344,296.855,209.344,293.331z"/>
			</g>
			<g>
				
					<ellipse transform="matrix(0.3785 -0.9256 0.9256 0.3785 -120.1154 406.3152)" style="fill:#2C797D;" cx="242.503" cy="292.601" rx="18.104" ry="18.103"/>
				<path style="fill:#369399;" d="M248.884,292.601c0-3.524-2.857-6.381-6.381-6.381c-3.524,0-6.381,2.857-6.381,6.381
					c0,3.524,2.857,6.381,6.381,6.381C246.027,298.982,248.884,296.125,248.884,292.601z"/>
			</g>
			<g>
				<circle style="fill:#2C797D;" cx="287.002" cy="291.871" r="21.959"/>
				<path style="fill:#369399;" d="M293.383,291.871c0-3.524-2.857-6.381-6.381-6.381s-6.381,2.857-6.381,6.381
					c0,3.524,2.857,6.381,6.381,6.381S293.383,295.395,293.383,291.871z"/>
			</g>
			<g>
				
					<ellipse transform="matrix(0.9726 -0.2324 0.2324 0.9726 -58.3537 86.8841)" style="fill:#2C797D;" cx="339.627" cy="291.141" rx="26.229" ry="26.229"/>
				<path style="fill:#369399;" d="M346.008,291.273c0-3.524-2.857-6.381-6.381-6.381s-6.381,2.857-6.381,6.381
					c0,3.524,2.857,6.381,6.381,6.381S346.008,294.797,346.008,291.273z"/>
			</g>
			<g>
				<circle style="fill:#2C797D;" cx="169.865" cy="294.061" r="12.506"/>
				<circle style="fill:#369399;" cx="169.865" cy="294.061" r="4.921"/>
			</g>
			<g>
				<circle style="fill:#2C797D;" cx="142.85" cy="294.791" r="8.706"/>
				<circle style="fill:#369399;" cx="142.85" cy="294.791" r="4.191"/>
			</g>
		</g>
	</g>
	<g>
		<rect x="139.305" y="71.55" style="fill:#001B26;" width="227.609" height="7.509"/>
		<rect x="139.305" y="71.55" style="fill:#002534;" width="227.609" height="3.754"/>
		<g>
			<path style="fill:#002534;" d="M366.913,411.209h-12.436V67.799c0-3.434,2.784-6.218,6.218-6.218l0,0
				c3.434,0,6.218,2.784,6.218,6.218V411.209z"/>
			<rect x="354.477" y="74.94" style="fill:#001B26;" width="3.911" height="336.269"/>
			<rect x="363.003" y="74.94" style="fill:#001B26;" width="3.911" height="336.269"/>
			<path style="fill:#8791A1;" d="M364.146,169.528c0-1.906-1.545-3.451-3.451-3.451c-1.906,0-3.451,1.545-3.451,3.451
				c0,1.906,1.545,3.451,3.451,3.451C362.601,172.979,364.146,171.434,364.146,169.528z"/>
			<path style="fill:#8791A1;" d="M364.146,193.462c0-1.906-1.545-3.451-3.451-3.451c-1.906,0-3.451,1.545-3.451,3.451
				c0,1.906,1.545,3.451,3.451,3.451C362.601,196.913,364.146,195.368,364.146,193.462z"/>
			<path style="fill:#8791A1;" d="M364.146,217.397c0-1.906-1.545-3.451-3.451-3.451c-1.906,0-3.451,1.545-3.451,3.451
				c0,1.906,1.545,3.451,3.451,3.451C362.601,220.847,364.146,219.303,364.146,217.397z"/>
			<circle style="fill:#8791A1;" cx="360.695" cy="241.331" r="3.451"/>
			<circle style="fill:#8791A1;" cx="360.695" cy="265.265" r="3.451"/>
			<path style="fill:#8791A1;" d="M364.146,289.199c0-1.906-1.545-3.451-3.451-3.451c-1.906,0-3.451,1.545-3.451,3.451
				s1.545,3.451,3.451,3.451C362.601,292.65,364.146,291.105,364.146,289.199z"/>
			<g>
				<path style="fill:#BAC0C9;" d="M361.047,387.597L361.047,387.597c-10.627,0-19.241,8.615-19.241,19.241v14.224h38.482v-14.224
					C380.288,396.211,371.674,387.597,361.047,387.597z"/>
				<path style="fill:#9EA3AB;" d="M345.091,410.354c0-10.627,8.615-19.241,19.241-19.241c4.652,0,8.918,1.651,12.245,4.399
					c-3.5-4.79-9.143-7.915-15.53-7.915c-10.627,0-19.241,8.615-19.241,19.241v14.224h3.285V410.354z"/>
			</g>
			<path style="fill:#8791A1;" d="M364.146,313.133c0-1.906-1.545-3.451-3.451-3.451c-1.906,0-3.451,1.545-3.451,3.451
				c0,1.906,1.545,3.451,3.451,3.451C362.601,316.584,364.146,315.039,364.146,313.133z"/>
			<path style="fill:#8791A1;" d="M364.146,337.067c0-1.906-1.545-3.451-3.451-3.451c-1.906,0-3.451,1.545-3.451,3.451
				c0,1.906,1.545,3.451,3.451,3.451C362.601,340.518,364.146,338.973,364.146,337.067z"/>
			<path style="fill:#676F7A;" d="M362.634,166.675c0.246,0.474,0.398,1.005,0.398,1.576c0,1.906-1.545,3.451-3.451,3.451
				c-0.719,0-1.386-0.221-1.939-0.597c0.574,1.109,1.719,1.874,3.053,1.874c1.906,0,3.451-1.545,3.451-3.451
				C364.146,168.342,363.546,167.296,362.634,166.675z"/>
			<path style="fill:#676F7A;" d="M362.634,190.609c0.246,0.474,0.398,1.005,0.398,1.576c0,1.906-1.545,3.451-3.451,3.451
				c-0.719,0-1.386-0.221-1.939-0.597c0.574,1.109,1.719,1.874,3.053,1.874c1.906,0,3.451-1.545,3.451-3.451
				C364.146,192.276,363.546,191.23,362.634,190.609z"/>
			<path style="fill:#676F7A;" d="M362.634,214.543c0.246,0.474,0.398,1.005,0.398,1.576c0,1.906-1.545,3.451-3.451,3.451
				c-0.719,0-1.386-0.221-1.939-0.597c0.574,1.109,1.719,1.874,3.053,1.874c1.906,0,3.451-1.545,3.451-3.451
				C364.146,216.21,363.546,215.164,362.634,214.543z"/>
			<path style="fill:#676F7A;" d="M362.634,238.477c0.246,0.475,0.398,1.005,0.398,1.576c0,1.906-1.545,3.451-3.451,3.451
				c-0.719,0-1.386-0.221-1.939-0.597c0.574,1.109,1.719,1.874,3.053,1.874c1.906,0,3.451-1.545,3.451-3.451
				C364.146,240.144,363.546,239.098,362.634,238.477z"/>
			<path style="fill:#676F7A;" d="M362.634,262.411c0.246,0.474,0.398,1.005,0.398,1.576c0,1.906-1.545,3.451-3.451,3.451
				c-0.719,0-1.386-0.221-1.939-0.597c0.574,1.109,1.719,1.874,3.053,1.874c1.906,0,3.451-1.545,3.451-3.451
				C364.146,264.078,363.546,263.032,362.634,262.411z"/>
			<path style="fill:#676F7A;" d="M362.634,286.345c0.246,0.475,0.398,1.005,0.398,1.576c0,1.906-1.545,3.451-3.451,3.451
				c-0.719,0-1.386-0.221-1.939-0.597c0.574,1.109,1.719,1.875,3.053,1.875c1.906,0,3.451-1.545,3.451-3.451
				C364.146,288.012,363.546,286.966,362.634,286.345z"/>
			<path style="fill:#676F7A;" d="M362.634,310.279c0.246,0.474,0.398,1.005,0.398,1.576c0,1.906-1.545,3.451-3.451,3.451
				c-0.719,0-1.386-0.221-1.939-0.597c0.574,1.109,1.719,1.874,3.053,1.874c1.906,0,3.451-1.545,3.451-3.451
				C364.146,311.946,363.546,310.9,362.634,310.279z"/>
			<path style="fill:#676F7A;" d="M362.634,334.213c0.246,0.474,0.398,1.005,0.398,1.576c0,1.906-1.545,3.451-3.451,3.451
				c-0.719,0-1.386-0.221-1.939-0.597c0.574,1.109,1.719,1.875,3.053,1.875c1.906,0,3.451-1.545,3.451-3.451
				C364.146,335.88,363.546,334.834,362.634,334.213z"/>
			<path style="fill:#BAC0C9;" d="M389.267,433.491h-57.144c-1.845,0-3.34-1.495-3.34-3.34l0,0c0-8,6.486-14.486,14.486-14.486
				h34.853c8,0,14.486,6.486,14.486,14.486l0,0C392.607,431.996,391.112,433.491,389.267,433.491z"/>
			<path style="fill:#9EA3AB;" d="M343.621,418.168h34.853c6.863,0,12.598,4.778,14.094,11.185
				c-0.416-7.627-6.715-13.688-14.446-13.688h-34.853c-8,0-14.486,6.486-14.486,14.486l0,0c0,0.564,0.153,1.087,0.4,1.553
				C329.674,424.149,335.941,418.168,343.621,418.168z"/>
			<path style="fill:#9EA3AB;" d="M361.047,398.415L361.047,398.415c-2.981,0-5.397,2.416-5.397,5.397l0,0
				c0,2.981,2.416,5.397,5.397,5.397l0,0c2.981,0,5.397-2.416,5.397-5.397l0,0C366.444,400.831,364.028,398.415,361.047,398.415z"/>
			<path style="fill:#80848A;" d="M357,405.396c0-2.981,2.416-5.397,5.397-5.397c1.27,0,2.435,0.441,3.357,1.175
				c-0.924-1.646-2.684-2.759-4.706-2.759c-2.981,0-5.397,2.416-5.397,5.397c0,1.711,0.798,3.233,2.04,4.221
				C357.252,407.253,357,406.354,357,405.396z"/>
			<path style="fill:#001B26;" d="M360.695,61.581L360.695,61.581c-3.434,0-6.218,2.784-6.218,6.218v7.141h12.436v-7.141
				C366.913,64.365,364.129,61.581,360.695,61.581z"/>
		</g>
		<g>
			<path style="fill:#002534;" d="M145.523,411.209h-12.436V67.799c0-3.434,2.784-6.218,6.218-6.218l0,0
				c3.434,0,6.218,2.784,6.218,6.218V411.209z"/>
			<rect x="133.087" y="74.94" style="fill:#001B26;" width="3.911" height="336.269"/>
			<rect x="141.612" y="74.94" style="fill:#001B26;" width="3.911" height="336.269"/>
			<path style="fill:#8791A1;" d="M142.755,169.528c0-1.906-1.545-3.451-3.451-3.451c-1.906,0-3.451,1.545-3.451,3.451
				c0,1.906,1.545,3.451,3.451,3.451C141.21,172.979,142.755,171.434,142.755,169.528z"/>
			<path style="fill:#8791A1;" d="M142.755,193.462c0-1.906-1.545-3.451-3.451-3.451c-1.906,0-3.451,1.545-3.451,3.451
				c0,1.906,1.545,3.451,3.451,3.451C141.21,196.913,142.755,195.368,142.755,193.462z"/>
			<path style="fill:#8791A1;" d="M142.755,217.397c0-1.906-1.545-3.451-3.451-3.451c-1.906,0-3.451,1.545-3.451,3.451
				c0,1.906,1.545,3.451,3.451,3.451C141.21,220.847,142.755,219.303,142.755,217.397z"/>
			<circle style="fill:#8791A1;" cx="139.305" cy="241.331" r="3.451"/>
			<circle style="fill:#8791A1;" cx="139.305" cy="265.265" r="3.451"/>
			<path style="fill:#8791A1;" d="M142.755,289.199c0-1.906-1.545-3.451-3.451-3.451c-1.906,0-3.451,1.545-3.451,3.451
				s1.545,3.451,3.451,3.451C141.21,292.65,142.755,291.105,142.755,289.199z"/>
			<g>
				<path style="fill:#BAC0C9;" d="M139.657,387.597L139.657,387.597c-10.627,0-19.241,8.615-19.241,19.241v14.224h38.482v-14.224
					C158.898,396.211,150.283,387.597,139.657,387.597z"/>
				<path style="fill:#9EA3AB;" d="M123.701,410.354c0-10.627,8.615-19.241,19.241-19.241c4.652,0,8.919,1.651,12.245,4.399
					c-3.5-4.79-9.143-7.915-15.531-7.915c-10.627,0-19.241,8.615-19.241,19.241v14.224h3.285V410.354z"/>
			</g>
			<path style="fill:#8791A1;" d="M142.755,313.133c0-1.906-1.545-3.451-3.451-3.451c-1.906,0-3.451,1.545-3.451,3.451
				c0,1.906,1.545,3.451,3.451,3.451C141.21,316.584,142.755,315.039,142.755,313.133z"/>
			<path style="fill:#8791A1;" d="M142.755,337.067c0-1.906-1.545-3.451-3.451-3.451c-1.906,0-3.451,1.545-3.451,3.451
				c0,1.906,1.545,3.451,3.451,3.451C141.21,340.518,142.755,338.973,142.755,337.067z"/>
			<path style="fill:#676F7A;" d="M141.243,166.675c0.246,0.474,0.398,1.005,0.398,1.576c0,1.906-1.545,3.451-3.451,3.451
				c-0.719,0-1.386-0.221-1.938-0.597c0.574,1.109,1.718,1.874,3.053,1.874c1.906,0,3.451-1.545,3.451-3.451
				C142.755,168.342,142.156,167.296,141.243,166.675z"/>
			<path style="fill:#676F7A;" d="M141.243,190.609c0.246,0.474,0.398,1.005,0.398,1.576c0,1.906-1.545,3.451-3.451,3.451
				c-0.719,0-1.386-0.221-1.938-0.597c0.574,1.109,1.718,1.874,3.053,1.874c1.906,0,3.451-1.545,3.451-3.451
				C142.755,192.276,142.156,191.23,141.243,190.609z"/>
			<path style="fill:#676F7A;" d="M141.243,214.543c0.246,0.474,0.398,1.005,0.398,1.576c0,1.906-1.545,3.451-3.451,3.451
				c-0.719,0-1.386-0.221-1.938-0.597c0.574,1.109,1.718,1.874,3.053,1.874c1.906,0,3.451-1.545,3.451-3.451
				C142.755,216.21,142.156,215.164,141.243,214.543z"/>
			<path style="fill:#676F7A;" d="M141.243,238.477c0.246,0.475,0.398,1.005,0.398,1.576c0,1.906-1.545,3.451-3.451,3.451
				c-0.719,0-1.386-0.221-1.938-0.597c0.574,1.109,1.718,1.874,3.053,1.874c1.906,0,3.451-1.545,3.451-3.451
				C142.755,240.144,142.156,239.098,141.243,238.477z"/>
			<path style="fill:#676F7A;" d="M141.243,262.411c0.246,0.474,0.398,1.005,0.398,1.576c0,1.906-1.545,3.451-3.451,3.451
				c-0.719,0-1.386-0.221-1.938-0.597c0.574,1.109,1.718,1.874,3.053,1.874c1.906,0,3.451-1.545,3.451-3.451
				C142.755,264.078,142.156,263.032,141.243,262.411z"/>
			<path style="fill:#676F7A;" d="M141.243,286.345c0.246,0.475,0.398,1.005,0.398,1.576c0,1.906-1.545,3.451-3.451,3.451
				c-0.719,0-1.386-0.221-1.938-0.597c0.574,1.109,1.718,1.875,3.053,1.875c1.906,0,3.451-1.545,3.451-3.451
				C142.755,288.012,142.156,286.966,141.243,286.345z"/>
			<path style="fill:#676F7A;" d="M141.243,310.279c0.246,0.474,0.398,1.005,0.398,1.576c0,1.906-1.545,3.451-3.451,3.451
				c-0.719,0-1.386-0.221-1.938-0.597c0.574,1.109,1.718,1.874,3.053,1.874c1.906,0,3.451-1.545,3.451-3.451
				C142.755,311.946,142.156,310.9,141.243,310.279z"/>
			<path style="fill:#676F7A;" d="M141.243,334.213c0.246,0.474,0.398,1.005,0.398,1.576c0,1.906-1.545,3.451-3.451,3.451
				c-0.719,0-1.386-0.221-1.938-0.597c0.574,1.109,1.718,1.875,3.053,1.875c1.906,0,3.451-1.545,3.451-3.451
				C142.755,335.88,142.156,334.834,141.243,334.213z"/>
			<path style="fill:#BAC0C9;" d="M167.877,433.491h-57.144c-1.845,0-3.34-1.495-3.34-3.34l0,0c0-8,6.486-14.486,14.486-14.486
				h34.853c8,0,14.486,6.486,14.486,14.486l0,0C171.217,431.996,169.721,433.491,167.877,433.491z"/>
			<path style="fill:#9EA3AB;" d="M122.23,418.168h34.853c6.863,0,12.598,4.778,14.094,11.185
				c-0.416-7.627-6.714-13.688-14.446-13.688h-34.853c-8,0-14.486,6.486-14.486,14.486l0,0c0,0.564,0.153,1.087,0.4,1.553
				C108.284,424.149,114.551,418.168,122.23,418.168z"/>
			<path style="fill:#9EA3AB;" d="M139.657,398.415L139.657,398.415c-2.981,0-5.397,2.416-5.397,5.397l0,0
				c0,2.981,2.416,5.397,5.397,5.397l0,0c2.981,0,5.397-2.416,5.397-5.397l0,0C145.054,400.831,142.637,398.415,139.657,398.415z"/>
			<path style="fill:#80848A;" d="M135.609,405.396c0-2.981,2.416-5.397,5.397-5.397c1.27,0,2.435,0.441,3.357,1.175
				c-0.924-1.646-2.684-2.759-4.706-2.759c-2.981,0-5.397,2.416-5.397,5.397c0,1.711,0.798,3.233,2.04,4.221
				C135.861,407.253,135.609,406.354,135.609,405.396z"/>
			<path style="fill:#001B26;" d="M139.305,61.581L139.305,61.581c-3.434,0-6.218,2.784-6.218,6.218v7.141h12.436v-7.141
				C145.523,64.365,142.739,61.581,139.305,61.581z"/>
		</g>
	</g>
	<g>
		<g>
			<g>
				<rect x="20.266" y="58.687" style="fill:#3EA9AD;" width="84.805" height="302.627"/>
				<path style="fill:#2C797D;" d="M103.257,60.5v299H22.079v-299H103.257 M106.884,56.873h-3.627H22.079h-3.627V60.5v299v3.627
					h3.627h81.178h3.627V359.5v-299V56.873L106.884,56.873z"/>
			</g>
			<g style="opacity:0.23;">
				<polygon style="fill:#FFFFFF;" points="22.079,315.677 60.572,359.5 68.593,359.5 22.079,306.544 				"/>
				<polygon style="fill:#FFFFFF;" points="22.079,228.06 103.257,320.481 103.257,311.348 22.079,218.928 				"/>
				<polygon style="fill:#FFFFFF;" points="22.079,286.292 86.382,359.5 103.257,359.5 103.257,334.327 22.079,241.906 				"/>
				<polygon style="fill:#FFFFFF;" points="22.079,204.192 103.257,296.612 103.257,270.372 22.079,177.951 				"/>
				<polygon style="fill:#FFFFFF;" points="22.079,154.775 103.257,247.196 103.257,238.063 22.079,145.642 				"/>
				<polygon style="fill:#FFFFFF;" points="24.252,60.5 22.079,60.5 22.079,67.159 103.257,159.579 103.257,150.447 				"/>
				<polygon style="fill:#FFFFFF;" points="22.079,125.39 103.257,217.811 103.257,173.425 22.079,81.004 				"/>
				<polygon style="fill:#FFFFFF;" points="103.257,109.47 60.244,60.5 37.195,60.5 103.257,135.711 				"/>
			</g>
		</g>
		<g>
			<g>
				<rect x="394.93" y="58.687" style="fill:#3EA9AD;" width="84.805" height="302.627"/>
				<path style="fill:#2C797D;" d="M477.921,60.5v299h-81.178v-299H477.921 M481.548,56.873h-3.627h-81.178h-3.627V60.5v299v3.627
					h3.627h81.178h3.627V359.5v-299V56.873L481.548,56.873z"/>
			</g>
			<g style="opacity:0.23;">
				<polygon style="fill:#FFFFFF;" points="396.743,315.677 435.235,359.5 443.257,359.5 396.743,306.544 				"/>
				<polygon style="fill:#FFFFFF;" points="396.743,228.06 477.921,320.481 477.921,311.348 396.743,218.928 				"/>
				<polygon style="fill:#FFFFFF;" points="396.743,286.292 461.046,359.5 477.921,359.5 477.921,334.327 396.743,241.906 				"/>
				<polygon style="fill:#FFFFFF;" points="396.743,204.192 477.921,296.612 477.921,270.372 396.743,177.951 				"/>
				<polygon style="fill:#FFFFFF;" points="396.743,154.775 477.921,247.196 477.921,238.063 396.743,145.642 				"/>
				<polygon style="fill:#FFFFFF;" points="398.916,60.5 396.743,60.5 396.743,67.159 477.921,159.579 477.921,150.447 				"/>
				<polygon style="fill:#FFFFFF;" points="396.743,125.39 477.921,217.811 477.921,173.425 396.743,81.004 				"/>
				<polygon style="fill:#FFFFFF;" points="477.921,109.47 434.908,60.5 411.859,60.5 477.921,135.711 				"/>
			</g>
		</g>
	</g>
	<g>
		<g>
			<path style="fill:#D17900;" d="M268.196,242.131h-36.635l-4.693-45.73c0-10.378,8.413-18.79,18.79-18.79h8.441
				c8.971,0,16.474,6.287,18.343,14.696c0.446,2.008,0.448,4.09,0.115,6.12L268.196,242.131z"/>
			<path style="fill:#B86B00;" d="M230.32,230.038l1.241,12.093h36.635l1.011-10.133C256.935,236.151,242.3,234.563,230.32,230.038z
				"/>
			<path style="fill:#E9B680;" d="M249.83,181.224L249.83,181.224c-3.094,0-5.601-2.508-5.601-5.602v1.76
				c0,3.094,2.508,5.601,5.601,5.601h0c3.094,0,5.601-2.508,5.601-5.601v-1.76C255.432,178.716,252.924,181.224,249.83,181.224z"/>
			<path style="fill:#E9C6A1;" d="M240.035,320.063c4.429-14.595,6.355-30.3,6.592-46.754l-18.98-3.332
				c-7.427,11.944-10.618,28.869-10.076,50.603c0.088,3.534,1.073,6.991,2.895,10.021l26.721,44.416
				c7.305,1.21,10.494-1.248,10.827-6.251C253.537,345.851,247.964,327.766,240.035,320.063z"/>
			<path style="fill:#E9BA87;" d="M240.035,320.063c4.429-14.595,6.355-30.3,6.592-46.754l-18.98-3.332
				c-0.398,0.639-0.777,1.3-1.151,1.968l16.42,2.883c-0.237,16.454-2.163,32.158-6.592,46.754
				c7.929,7.703,13.502,25.788,17.979,48.702c-0.142,2.136-0.811,3.804-2.093,4.925c3.783-0.5,5.56-2.789,5.804-6.444
				C253.537,345.851,247.964,327.766,240.035,320.063z"/>
			<path style="fill:#FFD8B0;" d="M250.472,373.921l-26.721-44.416c-1.822-3.029-2.807-6.486-2.895-10.02
				c-0.52-20.838,2.403-37.242,9.19-49.087l-2.399-0.421c-7.427,11.944-10.618,28.869-10.076,50.603
				c0.088,3.534,1.073,6.991,2.895,10.02l26.721,44.416c3.736,0.619,6.389,0.273,8.141-0.877
				C253.968,374.297,252.36,374.234,250.472,373.921z"/>
			<g>
				<path style="fill:#1C2930;" d="M260.747,393.677c1.614-4.676,4.923-8.916,9.097-11.591c1.399-2.615,0.914-5.867-1.181-7.96
					l-9.904-9.891c-0.811-1.054-2.427-0.798-2.925,0.444c-2.063,5.145-5.506,7.997-10.68,7.972c-0.747-0.004-1.185,0.844-0.725,1.44
					l4.282,5.56c1.057,1.373,1.194,3.261,0.347,4.781l-1.761,3.158c-3.824,6.858-1.927,15.399,4.125,19.978
					C252.513,402.072,256.047,396.88,260.747,393.677z"/>
				<path style="fill:#3A5363;" d="M255.827,398.266c-2.994-1.005-6.076-1.646-9.229-1.71c-0.754-0.015-1.347,0.653-1.214,1.395
					c0.68,3.814,2.76,7.341,6.011,9.734C252.046,404.305,253.622,401.036,255.827,398.266z"/>
				<path style="fill:#4982A6;" d="M250.154,389.267c0.048-0.676-0.461-1.264-1.137-1.313c-0.676-0.048-1.264,0.461-1.313,1.137
					c-0.049,0.677,0.461,1.264,1.137,1.313C249.518,390.453,250.106,389.944,250.154,389.267z"/>
				<path style="fill:#FFFFFF;" d="M247.916,390.057l-1.275-0.091c-0.522-0.037-0.915-0.491-0.878-1.013l0,0
					c0.037-0.522,0.491-0.915,1.013-0.878l1.275,0.091c0.522,0.038,0.915,0.491,0.878,1.013l0,0
					C248.892,389.702,248.438,390.095,247.916,390.057z"/>
				<path style="fill:#4982A6;" d="M252.032,385.272c0.048-0.677-0.461-1.264-1.137-1.313c-0.676-0.048-1.264,0.461-1.313,1.137
					c-0.048,0.676,0.461,1.264,1.137,1.313C251.395,386.457,251.983,385.948,252.032,385.272z"/>
				<path style="fill:#FFFFFF;" d="M249.793,386.062l-1.275-0.091c-0.522-0.037-0.915-0.491-0.878-1.013l0,0
					c0.037-0.522,0.491-0.915,1.013-0.878l1.275,0.091c0.522,0.037,0.915,0.491,0.878,1.013l0,0
					C250.769,385.706,250.316,386.099,249.793,386.062z"/>
				<g>
					<path style="fill:#4982A6;" d="M252.352,381.313c0.048-0.676-0.461-1.264-1.137-1.313c-0.676-0.048-1.264,0.461-1.313,1.137
						c-0.049,0.676,0.461,1.264,1.137,1.313S252.304,381.989,252.352,381.313z"/>
					<path style="fill:#FFFFFF;" d="M250.114,382.103l-1.275-0.091c-0.522-0.037-0.915-0.491-0.878-1.013l0,0
						c0.037-0.522,0.491-0.915,1.013-0.878l1.275,0.091c0.522,0.037,0.915,0.491,0.878,1.013l0,0
						C251.09,381.747,250.636,382.14,250.114,382.103z"/>
				</g>
				<g>
					<path style="fill:#4982A6;" d="M249.902,376.81c-0.016-0.678-0.579-1.215-1.257-1.198c-0.678,0.016-1.215,0.579-1.198,1.257
						c0.016,0.678,0.579,1.215,1.257,1.198C249.381,378.051,249.918,377.488,249.902,376.81z"/>
					<path style="fill:#FFFFFF;" d="M247.749,377.81l-1.278,0.031c-0.523,0.013-0.958-0.402-0.97-0.925l0,0
						c-0.013-0.523,0.402-0.958,0.925-0.97l1.278-0.031c0.523-0.012,0.958,0.402,0.97,0.925l0,0
						C248.686,377.363,248.272,377.797,247.749,377.81z"/>
				</g>
				<path style="fill:#D4D4D4;" d="M250.033,407.578L250.033,407.578c-2.711-1.49-2.881-6.068-0.358-9.616l5.292-7.442
					c0.796-1.119,1.466-2.338,1.985-3.61l3.448-8.456c1.643-4.031,5.6-6.34,8.311-4.85l0,0c2.711,1.49,2.881,6.068,0.358,9.616
					l-5.292,7.442c-0.796,1.119-1.466,2.338-1.985,3.61l-3.447,8.456C256.7,406.759,252.743,409.068,250.033,407.578z"/>
				<path style="fill:#BABABA;" d="M251.002,405.814L251.002,405.814c-2.429-1.335-2.582-5.438-0.321-8.618l4.743-6.669
					c0.714-1.003,1.314-2.095,1.779-3.235l3.09-7.578c1.473-3.612,5.019-5.682,7.448-4.346l0,0c2.429,1.335,2.582,5.438,0.321,8.618
					l-4.743,6.669c-0.713,1.003-1.314,2.096-1.779,3.236l-3.09,7.578C256.978,405.081,253.431,407.15,251.002,405.814z"/>
			</g>
			<path style="fill:#E9C6A1;" d="M259.695,320.007c-4.429-14.595-6.355-30.3-6.592-46.754l18.98-3.332
				c7.427,11.944,10.618,28.869,10.076,50.603c-0.088,3.534-1.073,6.991-2.895,10.021l-26.721,44.416
				c-7.305,1.21-10.494-1.248-10.827-6.251C246.193,345.795,251.766,327.71,259.695,320.007z"/>
			<path style="fill:#E9BA87;" d="M259.695,320.007c-4.429-14.595-6.355-30.3-6.592-46.754l18.98-3.332
				c0.398,0.639,0.777,1.3,1.151,1.968l-16.42,2.883c0.237,16.454,2.163,32.159,6.592,46.754
				c-7.93,7.703-13.502,25.788-17.979,48.702c0.142,2.137,0.811,3.804,2.093,4.925c-3.783-0.5-5.56-2.788-5.804-6.443
				C246.193,345.795,251.766,327.71,259.695,320.007z"/>
			<path style="fill:#FFD8B0;" d="M249.258,373.865l26.721-44.416c1.823-3.029,2.807-6.486,2.895-10.02
				c0.52-20.838-2.403-37.242-9.19-49.087l2.399-0.421c7.427,11.944,10.618,28.869,10.076,50.603
				c-0.088,3.534-1.073,6.991-2.895,10.02l-26.721,44.416c-3.736,0.619-6.389,0.273-8.141-0.877
				C245.762,374.241,247.37,374.178,249.258,373.865z"/>
			<path style="fill:#E9C6A1;" d="M239.651,97.787l-11.29,0.738L216.231,134.3c-0.668,1.97-1.055,4.025-1.15,6.103
				c-2.389,7.325-2.748,15.794-2.073,24.846l17.743,0.639c0.2-9.756-0.181-18.805-1.602-26.583L239.651,97.787z"/>
			<path style="fill:#E9BA87;" d="M239.651,97.787l-2.267,0.148l-10.464,41.37c1.417,7.757,1.799,16.778,1.603,26.503l2.228,0.08
				c0.2-9.757-0.181-18.805-1.602-26.583L239.651,97.787z"/>
			<path style="fill:#FFD8B0;" d="M217.153,140.403c0.095-2.078,0.482-4.133,1.15-6.103l11.685-34.465
				c-0.205,0.059-0.425,0.101-0.676,0.101c-0.441,0-0.817-0.109-1.141-0.281c-0.074-0.014-0.148-0.027-0.218-0.046
				c0.01,0.011,0.017,0.024,0.027,0.034L216.231,134.3c-0.668,1.97-1.055,4.025-1.15,6.103c-2.389,7.325-2.748,15.794-2.073,24.846
				l17.743,0.639c0.001-0.025,0-0.049,0.001-0.075l-15.672-0.564C214.405,156.198,214.764,147.729,217.153,140.403z"/>
			<path style="fill:#D17900;" d="M241.999,185.538c0-6.144-4.305-11.275-10.061-12.563l-1.024-11.938
				c0-1.168-0.947-2.115-2.115-2.115h-14.27c-1.168,0-2.115,0.947-2.115,2.115l0.939,17.825c0,8.011,2.262,13.05,6.57,19.804
				c2.196,3.443,7.347,8.946,10.09,12.236l-1.453-12.51c0.186,0.008,0.368,0.028,0.556,0.028
				C236.232,198.421,241.999,192.653,241.999,185.538z"/>
			<g>
				<path style="fill:#324957;" d="M238.921,393.8c-1.614-4.676-4.923-8.916-9.097-11.591c-1.398-2.615-0.914-5.867,1.182-7.96
					l9.904-9.891c0.812-1.054,2.427-0.798,2.925,0.444c2.063,5.145,5.506,7.997,10.68,7.971c0.747-0.004,1.185,0.844,0.725,1.441
					l-4.281,5.56c-1.058,1.373-1.194,3.261-0.347,4.781l1.761,3.158c3.824,6.858,1.927,15.4-4.125,19.978
					C247.154,402.195,243.621,397.004,238.921,393.8z"/>
				<path style="fill:#4C6D82;" d="M243.841,398.389c2.994-1.005,6.076-1.646,9.229-1.71c0.753-0.015,1.346,0.652,1.214,1.395
					c-0.679,3.814-2.759,7.34-6.011,9.734C247.622,404.428,246.046,401.159,243.841,398.389z"/>
				<path style="fill:#4982A6;" d="M249.514,389.391c-0.049-0.676,0.461-1.264,1.137-1.313s1.264,0.461,1.313,1.137
					c0.048,0.677-0.461,1.264-1.137,1.313C250.15,390.576,249.562,390.067,249.514,389.391z"/>
				<path style="fill:#FFFFFF;" d="M251.752,390.181l1.275-0.091c0.522-0.037,0.915-0.491,0.878-1.013l0,0
					c-0.038-0.522-0.491-0.915-1.013-0.878l-1.275,0.091c-0.522,0.037-0.915,0.491-0.878,1.013l0,0
					C250.776,389.825,251.23,390.218,251.752,390.181z"/>
				<path style="fill:#4982A6;" d="M247.636,385.395c-0.048-0.677,0.461-1.264,1.137-1.313c0.676-0.049,1.264,0.461,1.313,1.137
					c0.048,0.677-0.461,1.264-1.137,1.313C248.272,386.581,247.685,386.072,247.636,385.395z"/>
				<path style="fill:#FFFFFF;" d="M249.874,386.185l1.275-0.091c0.522-0.037,0.915-0.491,0.878-1.013l0,0
					c-0.037-0.522-0.491-0.915-1.013-0.878l-1.275,0.091c-0.522,0.037-0.915,0.491-0.878,1.013l0,0
					C248.898,385.83,249.352,386.223,249.874,386.185z"/>
				<g>
					<path style="fill:#4982A6;" d="M247.315,381.436c-0.049-0.677,0.461-1.264,1.137-1.313c0.676-0.048,1.264,0.461,1.313,1.137
						c0.048,0.676-0.461,1.264-1.137,1.313C247.952,382.621,247.364,382.112,247.315,381.436z"/>
					<path style="fill:#FFFFFF;" d="M249.553,382.226l1.275-0.091c0.522-0.037,0.915-0.491,0.878-1.013l0,0
						c-0.037-0.522-0.491-0.915-1.013-0.878l-1.275,0.091c-0.522,0.037-0.915,0.491-0.878,1.013l0,0
						C248.578,381.87,249.031,382.263,249.553,382.226z"/>
				</g>
				<g>
					<path style="fill:#4982A6;" d="M249.766,376.933c0.016-0.678,0.579-1.214,1.257-1.198c0.678,0.016,1.214,0.579,1.198,1.257
						c-0.016,0.678-0.579,1.215-1.257,1.198C250.286,378.174,249.75,377.611,249.766,376.933z"/>
					<path style="fill:#FFFFFF;" d="M251.919,377.933l1.278,0.031c0.523,0.013,0.958-0.402,0.97-0.925l0,0
						c0.013-0.523-0.402-0.958-0.925-0.97l-1.278-0.031c-0.523-0.013-0.958,0.401-0.97,0.925l0,0
						C250.981,377.486,251.395,377.921,251.919,377.933z"/>
				</g>
				<path style="fill:#FFFFFF;" d="M249.635,407.701L249.635,407.701c2.711-1.49,2.881-6.068,0.359-9.616l-5.292-7.442
					c-0.796-1.119-1.466-2.338-1.985-3.61l-3.448-8.456c-1.644-4.031-5.6-6.34-8.311-4.85v0c-2.711,1.49-2.881,6.068-0.359,9.616
					l5.292,7.442c0.796,1.119,1.466,2.338,1.985,3.61l3.448,8.456C242.967,406.882,246.924,409.191,249.635,407.701z"/>
				<path style="fill:#EDEDED;" d="M248.666,405.938L248.666,405.938c2.429-1.336,2.582-5.438,0.321-8.618l-4.743-6.669
					c-0.713-1.003-1.314-2.096-1.779-3.235l-3.09-7.578c-1.473-3.612-5.019-5.682-7.448-4.346l0,0
					c-2.429,1.335-2.582,5.438-0.321,8.618l4.743,6.669c0.713,1.003,1.314,2.095,1.779,3.235l3.09,7.578
					C242.69,405.204,246.236,407.273,248.666,405.938z"/>
			</g>
			<g>
				<path style="fill:#D17900;" d="M243.437,201.55c3.162,7.575,1.436,15.507-3.856,17.716c-5.292,2.209-12.145-2.141-15.307-9.716
					c-3.162-7.575-1.436-15.507,3.856-17.716C233.422,189.625,240.275,193.975,243.437,201.55z"/>
				<path style="fill:#D17900;" d="M255.373,201.55c-3.162,7.575-1.436,15.507,3.856,17.716c5.292,2.209,12.145-2.141,15.307-9.716
					c3.162-7.575,1.436-15.507-3.856-17.716C265.388,189.625,258.535,193.975,255.373,201.55z"/>
			</g>
			<path style="fill:#B86B00;" d="M234.377,240.439l-2.593-25.266c-1.886-1.744-3.538-4.076-4.694-6.846
				c-1.078-2.583-1.575-5.203-1.569-7.628c-1.108-1.357-2.091-2.643-2.781-3.726c-4.308-6.754-6.57-11.793-6.57-19.804
				l-0.939-17.825c0-0.145,0.015-0.286,0.043-0.423h-0.743c-1.168,0-2.115,0.947-2.115,2.115l0.939,17.825
				c0,8.011,2.262,13.05,6.57,19.804c0.691,1.083,1.673,2.369,2.781,3.726c-0.006,2.425,0.491,5.045,1.569,7.628
				c1.156,2.769,2.808,5.101,4.695,6.846l2.593,25.266h36.635l0.169-1.692H234.377z"/>
			<path style="fill:#E9C6A1;" d="M260.349,97.824l11.29,0.738l12.129,35.775c0.668,1.97,1.055,4.025,1.15,6.103
				c2.389,7.325,2.748,15.794,2.073,24.846l-17.743,0.639c-0.2-9.757,0.181-18.805,1.602-26.583L260.349,97.824z"/>
			<path style="fill:#E9BA87;" d="M260.349,97.824l2.267,0.148l10.464,41.37c-1.417,7.757-1.799,16.778-1.603,26.503l-2.228,0.08
				c-0.2-9.757,0.181-18.805,1.602-26.583L260.349,97.824z"/>
			<path style="fill:#FFD8B0;" d="M282.847,140.441c-0.095-2.078-0.482-4.133-1.15-6.103l-11.685-34.465
				c0.205,0.059,0.424,0.101,0.676,0.101c0.441,0,0.817-0.109,1.141-0.28c0.074-0.014,0.148-0.027,0.218-0.046
				c-0.01,0.01-0.017,0.023-0.027,0.034l11.749,34.656c0.668,1.97,1.055,4.025,1.15,6.103c2.389,7.326,2.748,15.794,2.073,24.846
				l-17.743,0.639c-0.001-0.025,0-0.049-0.001-0.075l15.672-0.564C285.595,156.235,285.236,147.766,282.847,140.441z"/>
			<path style="fill:#D17900;" d="M258,185.575c0-6.144,4.305-11.275,10.061-12.563l1.024-11.938c0-1.168,0.947-2.115,2.115-2.115
				h14.27c1.168,0,2.115,0.947,2.115,2.115l-0.939,17.825c0,8.011-2.262,13.05-6.57,19.804c-2.196,3.443-7.347,8.946-10.09,12.236
				l1.453-12.51c-0.186,0.008-0.368,0.028-0.556,0.028C263.768,198.458,258,192.69,258,185.575z"/>
			<path style="fill:#F28C00;" d="M214.53,162.697h14.27c1.168,0,2.115,0.947,2.115,2.115l1.024,11.938
				c3.326,0.744,6.161,2.777,7.968,5.542c1.814-0.583,3.744-0.905,5.752-0.905h8.441c2.089,0,4.093,0.353,5.97,0.983
				c1.805-2.785,4.651-4.834,7.993-5.582l1.024-11.938c0-1.168,0.947-2.115,2.115-2.115h14.27c0.887,0,1.644,0.547,1.958,1.321
				l0.157-2.982c0-1.168-0.947-2.115-2.115-2.115H271.2c-1.168,0-2.115,0.947-2.115,2.115l-1.024,11.938
				c-3.342,0.748-6.188,2.797-7.993,5.582c-1.877-0.629-3.881-0.983-5.97-0.983h-8.441c-2.008,0-3.938,0.322-5.752,0.905
				c-1.806-2.765-4.641-4.797-7.968-5.542l-1.024-11.938c0-1.168-0.947-2.115-2.115-2.115h-14.27c-1.168,0-2.115,0.947-2.115,2.115
				l0.157,2.982C212.886,163.244,213.643,162.697,214.53,162.697z"/>
			<path style="fill:#B86B00;" d="M265.623,240.477l2.593-25.266c1.886-1.744,3.538-4.076,4.694-6.845
				c1.078-2.583,1.575-5.203,1.569-7.628c1.108-1.357,2.091-2.643,2.781-3.726c4.308-6.754,6.57-11.793,6.57-19.804l0.939-17.826
				c0-0.145-0.015-0.286-0.043-0.423h0.743c1.168,0,2.115,0.947,2.115,2.115l-0.939,17.825c0,8.011-2.262,13.05-6.57,19.804
				c-0.691,1.083-1.673,2.369-2.781,3.726c0.006,2.425-0.491,5.045-1.569,7.628c-1.156,2.769-2.808,5.101-4.694,6.846l-2.593,25.266
				h-36.635l-0.169-1.692H265.623z"/>
			<path style="fill:#25353F;" d="M280.173,290.703l-6.023-34.306v-2.639c0-6.481-5.254-11.735-11.734-11.735h-25.819
				c-6.481,0-11.734,5.254-11.734,11.735v2.872c0,0.746,0.077,1.473,0.21,2.18l-5.577,31.77c-0.28,1.596,0.786,3.116,2.382,3.397
				l20.233,3.552c1.596,0.28,3.117-0.786,3.397-2.382l3.63-20.678c0.124,0.002,0.245,0.009,0.37,0.009c0.338,0,0.671-0.009,1-0.026
				l3.655,20.817c0.28,1.596,1.801,2.662,3.397,2.382l20.233-3.552C279.387,293.82,280.453,292.299,280.173,290.703z"/>
			<g>
				<path style="fill:#304552;" d="M280.173,290.703l-6.023-34.306v-2.639c0-6.481-5.254-11.735-11.734-11.735h-25.819
					c-0.533,0-1.053,0.048-1.566,0.117h23.514c6.481,0,11.734,5.254,11.734,11.735v2.64l6.023,34.306
					c0.28,1.596-0.786,3.117-2.382,3.397l-18.137,3.184c0.534,0.257,1.147,0.362,1.775,0.252l20.233-3.552
					C279.387,293.82,280.453,292.299,280.173,290.703z"/>
			</g>
			<g>
				<path style="fill:#304552;" d="M225.983,294.094c-1.596-0.28-2.662-1.801-2.382-3.397l5.577-31.77
					c-0.133-0.707-0.21-1.434-0.21-2.18v-2.872c0-6.481,5.254-11.735,11.735-11.735h23.279c-0.514-0.069-1.034-0.117-1.567-0.117
					h-25.819c-6.481,0-11.734,5.254-11.734,11.735v2.872c0,0.746,0.077,1.473,0.21,2.18l-5.577,31.77
					c-0.28,1.596,0.786,3.116,2.382,3.397l20.233,3.552c0.651,0.114,1.284-0.005,1.831-0.283L225.983,294.094z"/>
			</g>
			<g>
				<path style="fill:#25353F;" d="M267.145,244.603h-35.277c-1.688,0-3.057-1.368-3.057-3.057v-0.586
					c0-1.688,1.368-3.057,3.057-3.057h35.277c1.688,0,3.057,1.368,3.057,3.057v0.586
					C270.201,243.235,268.833,244.603,267.145,244.603z"/>
				<path style="fill:#344B59;" d="M267.145,237.904h-35.277c-1.688,0-3.057,1.368-3.057,3.057v0.586
					c0,0.156,0.023,0.305,0.046,0.454c0.221-1.471,1.478-2.602,3.011-2.602h35.277c1.533,0,2.79,1.132,3.011,2.602
					c0.022-0.149,0.046-0.298,0.046-0.454v-0.586C270.201,239.273,268.833,237.904,267.145,237.904z"/>
				<path style="fill:#19252B;" d="M267.145,242.974h-35.277c-1.509,0-2.755-1.096-3.004-2.535c-0.029,0.17-0.053,0.343-0.053,0.522
					v0.586c0,1.688,1.368,3.057,3.057,3.057h35.277c1.688,0,3.057-1.368,3.057-3.057v-0.586c0-0.179-0.023-0.352-0.053-0.522
					C269.9,241.877,268.654,242.974,267.145,242.974z"/>
			</g>
			<path style="fill:#F28C00;" d="M249.896,186.527L249.896,186.527c-3.877,0-7.019-3.143-7.019-7.019v-1.688h14.038v1.688
				C256.915,183.385,253.773,186.527,249.896,186.527z"/>
			<path style="fill:#E9C6A1;" d="M249.83,182.984L249.83,182.984c-3.094,0-5.601-2.508-5.601-5.601v-11.203h11.203v11.203
				C255.432,180.476,252.924,182.984,249.83,182.984z"/>
			<g>
				<path style="fill:#E9C6A1;" d="M267.696,155.019c0,2.499-1.63,4.524-3.641,4.524c-2.011,0-3.641-2.025-3.641-4.524
					c0-2.498,1.63-4.524,3.641-4.524C266.066,150.495,267.696,152.521,267.696,155.019z"/>
				<path style="fill:#E9C6A1;" d="M239.247,155.019c0,2.499-1.63,4.524-3.641,4.524c-2.011,0-3.641-2.025-3.641-4.524
					c0-2.498,1.63-4.524,3.641-4.524C237.617,150.495,239.247,152.521,239.247,155.019z"/>
			</g>
			<path style="fill:#E9BA87;" d="M266.399,155.019c0,1.609-1.05,2.913-2.344,2.913c-1.295,0-2.344-1.304-2.344-2.913
				c0-1.609,1.05-2.913,2.344-2.913C265.35,152.106,266.399,153.411,266.399,155.019z"/>
			<path style="fill:#E9BA87;" d="M238.032,155.019c0,1.665-1.086,3.014-2.426,3.014c-1.34,0-2.426-1.349-2.426-3.014
				c0-1.665,1.086-3.014,2.426-3.014C236.946,152.005,238.032,153.355,238.032,155.019z"/>
			<g>
				<path style="fill:#002534;" d="M249.83,174.021L249.83,174.021c-8.353,0-15.124-6.771-15.124-15.124v-7.282
					c0-8.353,6.771-15.124,15.124-15.124h0c8.353,0,15.124,6.771,15.124,15.124v7.282
					C264.954,167.25,258.183,174.021,249.83,174.021z"/>
				<path style="fill:#002534;" d="M263.321,136.492h-13.587c-7.99,0-14.467,6.477-14.467,14.466v1.778h29.688v-14.611
					C264.954,137.223,264.223,136.492,263.321,136.492z"/>
			</g>
			<path style="fill:#212F38;" d="M245.465,270.751l-7.865,25.986l4.51,0.792c1.596,0.28,3.117-0.786,3.397-2.382l3.63-20.678
				c0.124,0.002,0.245,0.009,0.37,0.009c0.338,0,0.671-0.009,1-0.026l3.655,20.817c0.28,1.596,1.801,2.662,3.397,2.382l5.872-1.031
				l-9.289-26.08C252.662,266.389,246.742,266.532,245.465,270.751z"/>
			<path style="fill:none;stroke:#00384F;stroke-width:1.4079;stroke-linecap:round;stroke-miterlimit:10;" d="M238.613,147.341
				c0,0,1.955-5.632,7.978-7.039c6.023-1.408,13.419-0.626,13.419-0.626"/>
			<path style="fill:#00384F;" d="M263.026,139.676c0-0.402-0.326-0.728-0.728-0.728s-0.728,0.326-0.728,0.728
				c0,0.402,0.326,0.728,0.728,0.728S263.026,140.078,263.026,139.676z"/>
			<path style="fill:#162026;" d="M243.63,299.029l-23.694-4.16c-1.883-0.331-3.141-2.125-2.81-4.007l0,0
				c0.33-1.883,2.125-3.141,4.007-2.811l23.694,4.16c1.883,0.331,3.141,2.125,2.811,4.007l0,0
				C247.307,298.102,245.513,299.36,243.63,299.029z"/>
			<path style="fill:#162026;" d="M279.968,296.556l-23.864,3.037c-1.896,0.241-3.629-1.1-3.87-2.996l0,0
				c-0.241-1.896,1.1-3.629,2.996-3.87l23.864-3.037c1.896-0.241,3.629,1.1,3.87,2.996l0,0
				C283.205,294.582,281.864,296.314,279.968,296.556z"/>
		</g>
		<g>
			<path style="fill:#B86B00;" d="M228.73,214.543c1.248,0.011,2.16-0.012,3.042,0.029c0.869,0.04,1.671,0.104,2.478,0.238
				c0.809,0.126,1.626,0.303,2.503,0.578c0.439,0.149,0.894,0.279,1.372,0.503c0.481,0.216,0.975,0.405,1.525,0.776
				c-0.802,0.973-1.778,1.532-2.811,1.865c-1.036,0.318-2.138,0.403-3.22,0.228c-1.079-0.181-2.141-0.6-3.043-1.29
				C229.699,216.773,228.901,215.823,228.73,214.543z"/>
		</g>
		<g>
			<path style="fill:#B86B00;" d="M270.833,215c-0.064,1.176-0.608,2.072-1.268,2.782c-0.674,0.704-1.525,1.211-2.451,1.483
				c-0.923,0.277-1.923,0.33-2.881,0.09c-0.954-0.224-1.873-0.738-2.567-1.66c0.935-0.729,1.663-1.105,2.349-1.478
				c0.683-0.331,1.306-0.597,1.958-0.786c0.652-0.186,1.327-0.318,2.094-0.402C268.848,214.953,269.678,214.926,270.833,215z"/>
		</g>
		<path style="fill:#B86B00;" d="M277.344,200.277l-0.737-2.17c-0.735,0.406-1.757,0.784-2.694,1.057
			c-0.964,0.278-1.958,0.469-2.97,0.556c-1.012,0.077-2.032,0.017-3.053-0.183c-1.021-0.207-1.994-0.638-2.935-1.203
			c0.717,0.813,1.568,1.577,2.573,2.135c1,0.551,2.099,0.976,3.239,1.243c1.139,0.259,2.312,0.399,3.491,0.432
			c0.509,0.008,1.001,0.003,1.499-0.018C276.087,201.374,276.611,200.723,277.344,200.277z"/>
		<path style="fill:#B86B00;" d="M221.733,200.676l0.738-2.17c0.735,0.406,1.757,0.783,2.694,1.057
			c0.964,0.278,1.958,0.469,2.97,0.556c1.012,0.077,2.032,0.017,3.053-0.183c1.022-0.207,1.994-0.638,2.935-1.203
			c-0.716,0.813-1.568,1.577-2.573,2.135c-1,0.551-2.099,0.976-3.239,1.243c-1.139,0.259-2.312,0.399-3.491,0.432
			c-0.509,0.008-1.001,0.003-1.499-0.018C222.99,201.773,222.466,201.122,221.733,200.676z"/>
	</g>
	<g>
		<path style="fill:#E9C6A1;" d="M237.42,98.778L237.42,98.778c-0.703-0.406-0.943-1.304-0.538-2.007l3.352-5.805
			c0.406-0.703,1.304-0.943,2.007-0.538l0,0c0.703,0.406,0.943,1.304,0.538,2.007l-3.352,5.805
			C239.021,98.943,238.123,99.184,237.42,98.778z"/>
		<path style="fill:#E9C6A1;" d="M262.58,98.816L262.58,98.816c0.703-0.406,0.943-1.304,0.538-2.007l-3.352-5.805
			c-0.406-0.703-1.304-0.943-2.007-0.538l0,0c-0.703,0.406-0.944,1.304-0.538,2.007l3.352,5.805
			C260.979,98.98,261.877,99.221,262.58,98.816z"/>
	</g>
	<g>
		<rect x="206.579" y="76.236" style="fill:#002534;" width="5.28" height="13.337"/>
		<rect x="288.141" y="76.236" style="fill:#002534;" width="5.28" height="13.337"/>
	</g>
	<g>
		<g>
			<rect x="198.281" y="87.594" style="fill:#5C646E;" width="102.071" height="3.914"/>
			<rect x="198.281" y="90.232" style="fill:#4D535C;" width="102.071" height="1.276"/>
			<rect x="198.281" y="87.594" style="fill:#75808C;" width="102.071" height="1.235"/>
		</g>
		<g>
			
				<rect x="296.893" y="94.685" transform="matrix(0.847 0.5316 -0.5316 0.847 99.119 -150.4308)" style="fill:#5C646E;" width="27.995" height="4.581"/>
			
				<rect x="296.072" y="97.537" transform="matrix(0.847 0.5316 -0.5316 0.847 99.6886 -149.7944)" style="fill:#4D535C;" width="27.995" height="1.493"/>
			
				<rect x="297.726" y="94.925" transform="matrix(0.847 0.5316 -0.5316 0.847 98.5407 -151.0769)" style="fill:#75808C;" width="27.995" height="1.446"/>
		</g>
		<g>
			<circle style="fill:#5C646E;" cx="323.24" cy="105.493" r="5.838"/>
			<path style="fill:#4D535C;" d="M328.258,108.465c-0.952,0.673-2.111,1.073-3.365,1.073c-3.224,0-5.838-2.614-5.838-5.838
				c0-1.087,0.302-2.101,0.82-2.972c-1.494,1.057-2.473,2.796-2.473,4.766c0,3.225,2.614,5.838,5.838,5.838
				C325.377,111.331,327.241,110.179,328.258,108.465z"/>
			<path style="fill:#75808C;" d="M323.826,105.035c-1.162-0.935-1.558-2.371-0.885-3.208c0.673-0.837,2.161-0.757,3.323,0.178
				c1.162,0.935,1.558,2.371,0.885,3.208C326.476,106.05,324.988,105.97,323.826,105.035z"/>
		</g>
		<g>
			
				<rect x="173.635" y="94.685" transform="matrix(-0.847 0.5316 -0.5316 -0.847 398.1082 79.3691)" style="fill:#5C646E;" width="27.995" height="4.581"/>
			
				<rect x="174.455" y="97.537" transform="matrix(-0.847 0.5316 -0.5316 -0.847 400.3193 81.3483)" style="fill:#4D535C;" width="27.995" height="1.493"/>
			
				<rect x="172.801" y="94.925" transform="matrix(-0.847 0.5316 -0.5316 -0.847 395.8633 77.3599)" style="fill:#75808C;" width="27.995" height="1.446"/>
		</g>
		<g>
			<circle style="fill:#5C646E;" cx="176.76" cy="105.167" r="5.838"/>
			<path style="fill:#4D535C;" d="M171.742,108.139c0.952,0.673,2.111,1.073,3.365,1.073c3.224,0,5.838-2.614,5.838-5.838
				c0-1.087-0.302-2.101-0.82-2.972c1.494,1.057,2.473,2.796,2.473,4.766c0,3.224-2.614,5.838-5.838,5.838
				C174.623,111.005,172.759,109.853,171.742,108.139z"/>
			<path style="fill:#75808C;" d="M176.173,104.709c1.162-0.935,1.558-2.371,0.885-3.208c-0.673-0.837-2.161-0.757-3.323,0.178
				c-1.162,0.935-1.558,2.371-0.885,3.208S175.011,105.644,176.173,104.709z"/>
		</g>
	</g>
	<g>
		<g>
			<path style="fill:#E9C6A1;" d="M239.927,88.275h-13.368v7.874c0,2.78,2.254,5.034,5.034,5.034h3.3
				c2.78,0,5.034-2.254,5.034-5.034V88.275z"/>
			<path style="fill:#E9C6A1;" d="M228.23,90.41L228.23,90.41c-0.923,0-1.671-0.748-1.671-1.671v-1.146
				c0-0.923,0.748-1.671,1.671-1.671l0,0c0.923,0,1.671,0.748,1.671,1.671v1.146C229.901,89.662,229.153,90.41,228.23,90.41z"/>
			<path style="fill:#E9C6A1;" d="M232.782,89.472h-2.355c-0.29,0-0.526-0.235-0.526-0.526v-2.291c0-0.923,0.748-1.671,1.671-1.671
				l0,0c0.923,0,1.671,0.748,1.671,1.671v2.355C233.243,89.265,233.036,89.472,232.782,89.472z"/>
			<path style="fill:#E9C6A1;" d="M234.914,90.641L234.914,90.641c-0.923,0-1.671-0.748-1.671-1.671v-2.315
				c0-0.923,0.748-1.671,1.671-1.671l0,0c0.923,0,1.671,0.748,1.671,1.671v2.315C236.585,89.893,235.837,90.641,234.914,90.641z"/>
			<path style="fill:#E9C6A1;" d="M238.256,90.41L238.256,90.41c-0.923,0-1.671-0.748-1.671-1.671v-1.146
				c0-0.923,0.748-1.671,1.671-1.671l0,0c0.923,0,1.671,0.748,1.671,1.671v1.146C239.927,89.662,239.179,90.41,238.256,90.41z"/>
			<path style="fill:#FFD8B0;" d="M229.869,88.018c0.01-0.004,0.021-0.007,0.032-0.011v-0.414c0-0.923-0.748-1.671-1.671-1.671
				s-1.671,0.748-1.671,1.671v1.146c0,0.126,0.016,0.247,0.042,0.365v-0.643c0-0.923,0.748-1.671,1.671-1.671
				C229.04,86.79,229.673,87.313,229.869,88.018z"/>
			<path style="fill:#FFD8B0;" d="M231.572,84.984c-0.923,0-1.671,0.748-1.671,1.671v1.353c0.014-0.005,0.028-0.01,0.043-0.014
				v-0.472c0-0.923,0.748-1.671,1.671-1.671c0.797,0,1.462,0.56,1.628,1.307v-0.503C233.243,85.732,232.495,84.984,231.572,84.984z"
				/>
			<path style="fill:#FFD8B0;" d="M234.914,84.984L234.914,84.984c-0.923,0-1.671,0.748-1.671,1.671v0.842
				c0.016,0,0.029,0.004,0.045,0.004c0.011-0.913,0.753-1.651,1.669-1.651c0.797,0,1.462,0.56,1.629,1.307v-0.503
				C236.585,85.732,235.837,84.984,234.914,84.984z"/>
			<path style="fill:#FFD8B0;" d="M238.256,85.923c-0.923,0-1.671,0.748-1.671,1.671v0.781c0.016,0.003,0.035,0.002,0.051,0.005
				c0.043-0.885,0.768-1.59,1.663-1.59c0.798,0,1.462,0.559,1.629,1.307v-0.503C239.927,86.671,239.179,85.923,238.256,85.923z"/>
		</g>
		<g>
			<path style="fill:#E9C6A1;" d="M271.77,90.567L271.77,90.567c0.923,0,1.671-0.748,1.671-1.671v-1.146
				c0-0.923-0.748-1.671-1.671-1.671l0,0c-0.923,0-1.671,0.748-1.671,1.671v1.146C270.099,89.819,270.847,90.567,271.77,90.567z"/>
			<path style="fill:#E9C6A1;" d="M267.218,89.629h2.355c0.29,0,0.526-0.235,0.526-0.526v-2.291c0-0.923-0.748-1.671-1.671-1.671
				l0,0c-0.923,0-1.671,0.748-1.671,1.671v2.355C266.757,89.422,266.964,89.629,267.218,89.629z"/>
			<path style="fill:#E9C6A1;" d="M265.086,90.798L265.086,90.798c0.923,0,1.671-0.748,1.671-1.671v-2.315
				c0-0.923-0.748-1.671-1.671-1.671l0,0c-0.923,0-1.671,0.748-1.671,1.671v2.315C263.415,90.05,264.163,90.798,265.086,90.798z"/>
			<path style="fill:#E9C6A1;" d="M261.744,90.567L261.744,90.567c0.923,0,1.671-0.748,1.671-1.671v-1.146
				c0-0.923-0.748-1.671-1.671-1.671l0,0c-0.923,0-1.671,0.748-1.671,1.671v1.146C260.073,89.819,260.821,90.567,261.744,90.567z"/>
			<path style="fill:#FFD8B0;" d="M270.131,88.175c-0.01-0.004-0.021-0.007-0.032-0.01v-0.414c0-0.923,0.748-1.671,1.671-1.671
				s1.671,0.748,1.671,1.671v1.146c0,0.126-0.016,0.247-0.042,0.364v-0.643c0-0.923-0.748-1.671-1.671-1.671
				C270.96,86.947,270.327,87.47,270.131,88.175z"/>
			<path style="fill:#FFD8B0;" d="M268.428,85.141c0.923,0,1.671,0.748,1.671,1.671v1.353c-0.014-0.005-0.028-0.01-0.043-0.014
				v-0.472c0-0.923-0.748-1.671-1.671-1.671c-0.797,0-1.462,0.56-1.629,1.307v-0.503C266.757,85.889,267.505,85.141,268.428,85.141z
				"/>
			<path style="fill:#FFD8B0;" d="M265.086,85.141L265.086,85.141c0.923,0,1.671,0.748,1.671,1.671v0.842
				c-0.016,0-0.029,0.004-0.045,0.004c-0.011-0.913-0.753-1.651-1.669-1.651c-0.797,0-1.462,0.56-1.629,1.307v-0.503
				C263.415,85.889,264.163,85.141,265.086,85.141z"/>
			<path style="fill:#FFD8B0;" d="M261.744,86.079c0.923,0,1.671,0.748,1.671,1.671v0.781c-0.016,0.003-0.035,0.002-0.051,0.005
				c-0.043-0.885-0.768-1.59-1.663-1.59c-0.797,0-1.462,0.56-1.629,1.307v-0.503C260.073,86.828,260.821,86.079,261.744,86.079z"/>
			<path style="fill:#E9C6A1;" d="M260.073,88.313h13.368v7.874c0,2.78-2.254,5.034-5.034,5.034h-3.3
				c-2.78,0-5.034-2.254-5.034-5.034V88.313z"/>
		</g>
	</g>
</g>
<g id="DESIGNED_BY_FREEPIK.COM">
	<g>
		<g>
			<path style="fill:#42B2B8;" d="M180.308,479.837v-0.161c-0.218,0.249-0.432,0.452-0.644,0.608
				c-0.212,0.157-0.441,0.276-0.689,0.357c-0.247,0.082-0.517,0.122-0.81,0.122c-0.388,0-0.747-0.082-1.078-0.246
				c-0.33-0.164-0.616-0.399-0.857-0.704c-0.242-0.305-0.425-0.662-0.549-1.074c-0.125-0.412-0.187-0.857-0.187-1.335
				c0-1.013,0.247-1.804,0.742-2.369c0.495-0.565,1.146-0.848,1.953-0.848c0.467,0,0.861,0.081,1.181,0.24
				c0.321,0.16,0.633,0.408,0.938,0.739v-2.392c0-0.333,0.066-0.583,0.199-0.754c0.132-0.17,0.321-0.255,0.567-0.255
				c0.245,0,0.434,0.078,0.567,0.234c0.133,0.157,0.199,0.386,0.199,0.692v7.147c0,0.309-0.071,0.54-0.214,0.695
				c-0.143,0.154-0.326,0.231-0.552,0.231c-0.221,0-0.405-0.08-0.549-0.24C180.38,480.362,180.308,480.133,180.308,479.837z
				 M177.12,477.456c0,0.439,0.068,0.813,0.205,1.122c0.137,0.309,0.324,0.541,0.561,0.697c0.238,0.157,0.497,0.236,0.778,0.236
				c0.285,0,0.545-0.074,0.781-0.223c0.235-0.148,0.423-0.376,0.564-0.682c0.141-0.307,0.211-0.691,0.211-1.149
				c0-0.432-0.07-0.803-0.211-1.114c-0.14-0.31-0.33-0.547-0.57-0.712c-0.24-0.164-0.502-0.245-0.786-0.245
				c-0.297,0-0.562,0.084-0.796,0.252c-0.234,0.168-0.415,0.409-0.543,0.724C177.184,476.676,177.12,477.041,177.12,477.456z"/>
			<path style="fill:#42B2B8;" d="M187.454,477.866h-3.17c0.004,0.368,0.078,0.692,0.223,0.973c0.144,0.281,0.336,0.493,0.576,0.635
				c0.24,0.143,0.504,0.213,0.793,0.213c0.194,0,0.371-0.022,0.531-0.067c0.16-0.046,0.316-0.117,0.466-0.214
				c0.151-0.096,0.289-0.201,0.415-0.312c0.126-0.111,0.29-0.262,0.493-0.452c0.083-0.071,0.202-0.107,0.357-0.107
				c0.166,0,0.3,0.046,0.403,0.137c0.103,0.092,0.155,0.219,0.155,0.386c0,0.146-0.058,0.317-0.172,0.513
				c-0.116,0.196-0.289,0.384-0.52,0.564c-0.232,0.18-0.522,0.329-0.873,0.448c-0.35,0.119-0.753,0.178-1.208,0.178
				c-1.04,0-1.85-0.297-2.428-0.891c-0.578-0.593-0.866-1.399-0.866-2.416c0-0.479,0.071-0.923,0.213-1.332
				c0.143-0.41,0.351-0.761,0.623-1.054c0.273-0.293,0.609-0.517,1.01-0.674c0.399-0.156,0.843-0.234,1.33-0.234
				c0.633,0,1.176,0.133,1.629,0.4c0.454,0.267,0.793,0.612,1.019,1.035c0.225,0.424,0.338,0.856,0.338,1.294
				c0,0.408-0.117,0.672-0.35,0.793C188.206,477.806,187.878,477.866,187.454,477.866z M184.284,476.946h2.939
				c-0.039-0.554-0.189-0.969-0.448-1.244c-0.259-0.275-0.6-0.413-1.024-0.413c-0.404,0-0.735,0.139-0.994,0.418
				C184.497,475.987,184.34,476.4,184.284,476.946z"/>
			<path style="fill:#42B2B8;" d="M194.838,478.643c0,0.447-0.108,0.831-0.327,1.149c-0.217,0.319-0.539,0.56-0.965,0.724
				c-0.425,0.164-0.943,0.246-1.552,0.246c-0.582,0-1.08-0.089-1.496-0.267c-0.415-0.178-0.722-0.401-0.92-0.667
				c-0.198-0.268-0.297-0.535-0.297-0.805c0-0.178,0.063-0.33,0.19-0.457c0.126-0.126,0.287-0.19,0.481-0.19
				c0.17,0,0.3,0.042,0.391,0.125c0.091,0.083,0.178,0.2,0.261,0.35c0.166,0.29,0.365,0.504,0.597,0.648
				c0.231,0.142,0.547,0.214,0.947,0.214c0.324,0,0.59-0.073,0.798-0.217c0.207-0.145,0.311-0.31,0.311-0.496
				c0-0.285-0.107-0.492-0.324-0.622c-0.216-0.131-0.571-0.256-1.066-0.375c-0.558-0.138-1.012-0.284-1.362-0.436
				c-0.35-0.151-0.63-0.353-0.84-0.602c-0.21-0.25-0.315-0.557-0.315-0.92c0-0.324,0.097-0.631,0.291-0.92
				c0.194-0.288,0.48-0.519,0.859-0.691c0.377-0.173,0.833-0.259,1.367-0.259c0.42,0,0.797,0.043,1.131,0.131
				c0.335,0.086,0.614,0.204,0.837,0.35c0.224,0.146,0.394,0.308,0.51,0.486c0.117,0.178,0.175,0.352,0.175,0.523
				c0,0.186-0.062,0.338-0.187,0.457c-0.124,0.118-0.301,0.178-0.532,0.178c-0.166,0-0.308-0.048-0.424-0.143
				c-0.117-0.095-0.25-0.237-0.401-0.427c-0.123-0.158-0.266-0.285-0.433-0.38c-0.166-0.095-0.392-0.142-0.677-0.142
				c-0.293,0-0.536,0.062-0.73,0.187c-0.194,0.124-0.291,0.279-0.291,0.465c0,0.171,0.071,0.31,0.213,0.419
				c0.143,0.109,0.334,0.2,0.576,0.27c0.242,0.071,0.573,0.158,0.997,0.261c0.502,0.123,0.913,0.27,1.232,0.439
				c0.318,0.17,0.56,0.371,0.725,0.603C194.756,478.083,194.838,478.346,194.838,478.643z"/>
			<path style="fill:#42B2B8;" d="M196.494,473.42c-0.225,0-0.418-0.07-0.579-0.208c-0.16-0.138-0.24-0.334-0.24-0.588
				c0-0.23,0.082-0.418,0.246-0.567c0.164-0.149,0.355-0.223,0.573-0.223c0.21,0,0.396,0.067,0.558,0.202
				c0.162,0.135,0.244,0.33,0.244,0.588c0,0.25-0.08,0.444-0.238,0.585C196.899,473.349,196.711,473.42,196.494,473.42z
				 M197.295,475.094v4.683c0,0.325-0.077,0.571-0.232,0.737c-0.155,0.166-0.35,0.249-0.588,0.249c-0.238,0-0.431-0.085-0.579-0.255
				c-0.149-0.17-0.222-0.414-0.222-0.73v-4.636c0-0.32,0.074-0.561,0.222-0.724c0.148-0.162,0.341-0.243,0.579-0.243
				c0.238,0,0.433,0.081,0.588,0.243C197.218,474.579,197.295,474.805,197.295,475.094z"/>
			<path style="fill:#42B2B8;" d="M204.395,475.361v4.707c0,0.538-0.058,1.001-0.173,1.39c-0.114,0.387-0.298,0.708-0.552,0.961
				c-0.253,0.253-0.585,0.441-0.994,0.563c-0.41,0.123-0.919,0.184-1.529,0.184c-0.558,0-1.057-0.078-1.496-0.234
				c-0.439-0.157-0.777-0.358-1.015-0.605c-0.237-0.247-0.357-0.502-0.357-0.763c0-0.198,0.068-0.359,0.202-0.483
				c0.134-0.125,0.297-0.187,0.486-0.187c0.237,0,0.445,0.105,0.623,0.314c0.087,0.107,0.177,0.215,0.27,0.324
				c0.093,0.109,0.197,0.202,0.309,0.279c0.113,0.076,0.249,0.134,0.407,0.172c0.158,0.037,0.341,0.056,0.546,0.056
				c0.42,0,0.745-0.058,0.977-0.175c0.232-0.117,0.394-0.28,0.487-0.49c0.093-0.209,0.147-0.433,0.163-0.673
				s0.027-0.624,0.035-1.155c-0.25,0.349-0.537,0.615-0.864,0.796c-0.326,0.182-0.715,0.273-1.166,0.273
				c-0.542,0-1.016-0.138-1.422-0.416c-0.405-0.277-0.717-0.665-0.935-1.163c-0.218-0.499-0.326-1.074-0.326-1.727
				c0-0.487,0.066-0.927,0.198-1.318c0.133-0.392,0.322-0.723,0.567-0.992c0.245-0.269,0.528-0.472,0.849-0.608
				c0.32-0.136,0.673-0.205,1.057-0.205c0.459,0,0.857,0.089,1.193,0.264c0.336,0.177,0.649,0.453,0.938,0.829v-0.22
				c0-0.281,0.069-0.498,0.208-0.653c0.139-0.154,0.317-0.231,0.535-0.231c0.313,0,0.52,0.102,0.623,0.306
				C204.343,474.683,204.395,474.977,204.395,475.361z M199.699,477.415c0,0.657,0.143,1.154,0.43,1.49
				c0.287,0.337,0.658,0.505,1.113,0.505c0.269,0,0.523-0.073,0.762-0.217c0.24-0.145,0.435-0.363,0.585-0.653
				c0.15-0.291,0.225-0.644,0.225-1.06c0-0.66-0.145-1.176-0.436-1.543c-0.291-0.368-0.674-0.552-1.149-0.552
				c-0.463,0-0.834,0.176-1.113,0.529C199.838,476.265,199.699,476.766,199.699,477.415z"/>
			<path style="fill:#42B2B8;" d="M206.97,475.07v0.196c0.285-0.376,0.596-0.652,0.935-0.828c0.338-0.176,0.727-0.264,1.166-0.264
				c0.428,0,0.809,0.093,1.146,0.279c0.336,0.186,0.588,0.449,0.753,0.789c0.108,0.198,0.176,0.413,0.208,0.642
				c0.032,0.23,0.048,0.522,0.048,0.879v3.015c0,0.325-0.074,0.571-0.223,0.737c-0.148,0.166-0.341,0.249-0.579,0.249
				c-0.242,0-0.437-0.085-0.588-0.255c-0.151-0.17-0.226-0.414-0.226-0.73v-2.701c0-0.534-0.074-0.943-0.223-1.226
				c-0.149-0.283-0.444-0.425-0.888-0.425c-0.288,0-0.552,0.086-0.789,0.258c-0.237,0.173-0.412,0.41-0.522,0.71
				c-0.079,0.242-0.119,0.692-0.119,1.353v2.03c0,0.328-0.077,0.576-0.228,0.74c-0.152,0.164-0.349,0.246-0.59,0.246
				c-0.234,0-0.425-0.085-0.576-0.255c-0.15-0.17-0.225-0.414-0.225-0.73v-4.683c0-0.309,0.067-0.54,0.202-0.692
				c0.135-0.152,0.319-0.228,0.552-0.228c0.143,0,0.272,0.034,0.387,0.101c0.114,0.068,0.207,0.169,0.276,0.302
				C206.935,474.712,206.97,474.876,206.97,475.07z"/>
			<path style="fill:#42B2B8;" d="M216.829,477.866h-3.17c0.004,0.368,0.078,0.692,0.223,0.973c0.144,0.281,0.336,0.493,0.576,0.635
				c0.239,0.143,0.503,0.213,0.792,0.213c0.194,0,0.371-0.022,0.532-0.067c0.16-0.046,0.315-0.117,0.466-0.214
				c0.15-0.096,0.288-0.201,0.416-0.312c0.126-0.111,0.29-0.262,0.492-0.452c0.083-0.071,0.202-0.107,0.356-0.107
				c0.166,0,0.301,0.046,0.404,0.137c0.103,0.092,0.154,0.219,0.154,0.386c0,0.146-0.057,0.317-0.172,0.513
				c-0.115,0.196-0.288,0.384-0.52,0.564c-0.232,0.18-0.522,0.329-0.872,0.448c-0.35,0.119-0.753,0.178-1.208,0.178
				c-1.041,0-1.85-0.297-2.428-0.891c-0.577-0.593-0.866-1.399-0.866-2.416c0-0.479,0.071-0.923,0.214-1.332
				c0.143-0.41,0.351-0.761,0.624-1.054c0.273-0.293,0.609-0.517,1.009-0.674c0.399-0.156,0.843-0.234,1.33-0.234
				c0.633,0,1.175,0.133,1.629,0.4c0.454,0.267,0.793,0.612,1.019,1.035c0.225,0.424,0.338,0.856,0.338,1.294
				c0,0.408-0.117,0.672-0.35,0.793C217.581,477.806,217.253,477.866,216.829,477.866z M213.659,476.946h2.938
				c-0.039-0.554-0.189-0.969-0.448-1.244c-0.259-0.275-0.601-0.413-1.024-0.413c-0.404,0-0.736,0.139-0.995,0.418
				C213.871,475.987,213.715,476.4,213.659,476.946z"/>
			<path style="fill:#42B2B8;" d="M223.435,479.837v-0.161c-0.218,0.249-0.432,0.452-0.644,0.608
				c-0.212,0.157-0.441,0.276-0.689,0.357c-0.247,0.082-0.517,0.122-0.81,0.122c-0.389,0-0.747-0.082-1.077-0.246
				c-0.331-0.164-0.617-0.399-0.858-0.704c-0.242-0.305-0.424-0.662-0.549-1.074c-0.125-0.412-0.187-0.857-0.187-1.335
				c0-1.013,0.247-1.804,0.742-2.369c0.495-0.565,1.146-0.848,1.953-0.848c0.467,0,0.861,0.081,1.181,0.24
				c0.321,0.16,0.633,0.408,0.938,0.739v-2.392c0-0.333,0.066-0.583,0.199-0.754c0.132-0.17,0.322-0.255,0.567-0.255
				c0.245,0,0.434,0.078,0.567,0.234c0.132,0.157,0.199,0.386,0.199,0.692v7.147c0,0.309-0.071,0.54-0.214,0.695
				c-0.143,0.154-0.326,0.231-0.552,0.231c-0.222,0-0.405-0.08-0.549-0.24C223.507,480.362,223.435,480.133,223.435,479.837z
				 M220.248,477.456c0,0.439,0.068,0.813,0.205,1.122c0.136,0.309,0.323,0.541,0.561,0.697c0.237,0.157,0.496,0.236,0.777,0.236
				c0.285,0,0.546-0.074,0.781-0.223c0.236-0.148,0.424-0.376,0.564-0.682c0.141-0.307,0.211-0.691,0.211-1.149
				c0-0.432-0.07-0.803-0.211-1.114c-0.14-0.31-0.33-0.547-0.57-0.712c-0.24-0.164-0.502-0.245-0.787-0.245
				c-0.296,0-0.562,0.084-0.795,0.252c-0.233,0.168-0.414,0.409-0.543,0.724C220.312,476.676,220.248,477.041,220.248,477.456z"/>
			<path style="fill:#42B2B8;" d="M230.059,472.69v2.475c0.304-0.316,0.615-0.559,0.932-0.727c0.316-0.168,0.709-0.252,1.175-0.252
				c0.538,0,1.01,0.128,1.416,0.382c0.405,0.256,0.72,0.626,0.944,1.111c0.223,0.484,0.336,1.06,0.336,1.725
				c0,0.491-0.063,0.94-0.187,1.35c-0.125,0.41-0.306,0.765-0.543,1.065c-0.238,0.301-0.525,0.534-0.864,0.698
				c-0.339,0.164-0.712,0.246-1.119,0.246c-0.25,0-0.484-0.029-0.703-0.089c-0.22-0.059-0.407-0.137-0.561-0.234
				c-0.154-0.096-0.286-0.196-0.395-0.3c-0.109-0.103-0.253-0.258-0.431-0.463v0.161c0,0.305-0.073,0.535-0.22,0.692
				c-0.146,0.156-0.332,0.234-0.558,0.234c-0.229,0-0.413-0.078-0.549-0.234c-0.137-0.157-0.205-0.388-0.205-0.692v-7.076
				c0-0.328,0.066-0.577,0.198-0.745c0.133-0.168,0.318-0.252,0.555-0.252c0.25,0,0.441,0.08,0.576,0.24
				C229.992,472.165,230.059,472.392,230.059,472.69z M230.136,477.504c0,0.645,0.148,1.14,0.442,1.486
				c0.295,0.347,0.682,0.521,1.161,0.521c0.407,0,0.759-0.177,1.053-0.532c0.295-0.355,0.442-0.862,0.442-1.523
				c0-0.427-0.061-0.796-0.184-1.104c-0.123-0.309-0.297-0.547-0.522-0.715c-0.226-0.168-0.489-0.252-0.79-0.252
				c-0.309,0-0.584,0.084-0.825,0.252c-0.242,0.168-0.431,0.411-0.57,0.73C230.205,476.685,230.136,477.065,230.136,477.504z"/>
			<path style="fill:#42B2B8;" d="M236.963,480.965l0.148-0.363l-1.995-5.022c-0.122-0.288-0.184-0.499-0.184-0.629
				c0-0.139,0.036-0.267,0.107-0.385c0.071-0.119,0.169-0.214,0.293-0.285c0.125-0.072,0.255-0.107,0.389-0.107
				c0.233,0,0.409,0.074,0.529,0.223c0.119,0.148,0.223,0.361,0.314,0.638l1.372,3.989l1.3-3.71c0.102-0.3,0.195-0.536,0.279-0.706
				c0.083-0.17,0.171-0.285,0.264-0.344c0.093-0.06,0.225-0.09,0.395-0.09c0.123,0,0.24,0.032,0.353,0.098
				c0.113,0.065,0.2,0.153,0.261,0.264c0.061,0.111,0.092,0.227,0.092,0.35c-0.017,0.075-0.042,0.182-0.077,0.321
				c-0.036,0.138-0.079,0.28-0.13,0.421l-2.113,5.533c-0.182,0.486-0.36,0.868-0.535,1.145s-0.404,0.491-0.691,0.638
				c-0.287,0.149-0.674,0.223-1.161,0.223c-0.475,0-0.831-0.051-1.068-0.154c-0.238-0.104-0.356-0.292-0.356-0.565
				c0-0.186,0.056-0.33,0.169-0.43c0.112-0.101,0.28-0.152,0.501-0.152c0.087,0,0.173,0.012,0.256,0.037
				c0.103,0.023,0.192,0.035,0.267,0.035c0.186,0,0.332-0.027,0.44-0.084c0.106-0.055,0.202-0.151,0.288-0.288
				C236.754,481.431,236.852,481.23,236.963,480.965z"/>
		</g>
		<g>
			<path style="fill:#42B2B8;" d="M260.439,474.314h0.386v-0.486c0-0.509,0.062-0.911,0.192-1.211
				c0.128-0.299,0.347-0.516,0.654-0.653c0.306-0.135,0.727-0.204,1.26-0.204c0.95,0,1.42,0.229,1.42,0.697
				c0,0.149-0.049,0.278-0.15,0.384c-0.096,0.106-0.214,0.16-0.349,0.16c-0.062,0-0.174-0.012-0.33-0.037
				c-0.148-0.021-0.283-0.035-0.389-0.035c-0.292,0-0.479,0.088-0.566,0.259c-0.079,0.172-0.122,0.418-0.122,0.74v0.386h0.395
				c0.62,0,0.926,0.186,0.926,0.56c0,0.262-0.079,0.431-0.245,0.503c-0.164,0.071-0.39,0.107-0.681,0.107h-0.395v4.294
				c0,0.319-0.075,0.563-0.231,0.73c-0.151,0.17-0.346,0.254-0.589,0.254c-0.23,0-0.419-0.084-0.574-0.254
				c-0.153-0.167-0.228-0.411-0.228-0.73v-4.294h-0.446c-0.243,0-0.426-0.052-0.558-0.164c-0.131-0.107-0.197-0.25-0.197-0.423
				C259.624,474.506,259.896,474.314,260.439,474.314"/>
			<path style="fill:#42B2B8;" d="M265.745,478.423v1.355c0,0.327-0.083,0.574-0.234,0.737c-0.154,0.166-0.349,0.247-0.586,0.247
				c-0.239,0-0.43-0.082-0.579-0.25c-0.148-0.165-0.225-0.41-0.225-0.734v-4.514c0-0.729,0.262-1.093,0.788-1.093
				c0.271,0,0.464,0.084,0.583,0.255c0.119,0.171,0.184,0.421,0.198,0.755c0.192-0.334,0.39-0.584,0.593-0.755
				c0.208-0.171,0.477-0.255,0.819-0.255c0.343,0,0.67,0.084,0.991,0.255c0.322,0.171,0.482,0.398,0.482,0.678
				c0,0.197-0.069,0.363-0.204,0.488c-0.138,0.131-0.284,0.195-0.441,0.195c-0.062,0-0.207-0.039-0.433-0.112
				c-0.228-0.071-0.43-0.108-0.602-0.108c-0.237,0-0.433,0.064-0.582,0.186c-0.151,0.128-0.269,0.311-0.353,0.554
				c-0.081,0.247-0.137,0.541-0.17,0.878C265.759,477.523,265.745,477.936,265.745,478.423"/>
			<path style="fill:#42B2B8;" d="M273.196,477.865h-3.171c0.005,0.367,0.078,0.694,0.222,0.974
				c0.147,0.279,0.337,0.491,0.578,0.635c0.24,0.142,0.502,0.212,0.793,0.212c0.194,0,0.371-0.021,0.531-0.07
				c0.159-0.043,0.316-0.116,0.466-0.213c0.151-0.095,0.288-0.199,0.415-0.313c0.126-0.109,0.292-0.26,0.494-0.449
				c0.084-0.071,0.203-0.109,0.355-0.109c0.168,0,0.301,0.046,0.406,0.139c0.104,0.092,0.152,0.219,0.152,0.386
				c0,0.147-0.056,0.317-0.167,0.512c-0.117,0.198-0.289,0.385-0.522,0.566c-0.234,0.178-0.524,0.329-0.873,0.446
				c-0.35,0.119-0.754,0.179-1.207,0.179c-1.044,0-1.853-0.296-2.429-0.889c-0.577-0.595-0.87-1.401-0.87-2.418
				c0-0.479,0.073-0.924,0.217-1.334c0.14-0.411,0.349-0.76,0.624-1.055c0.272-0.294,0.606-0.518,1.008-0.674
				c0.399-0.156,0.842-0.234,1.33-0.234c0.632,0,1.176,0.134,1.629,0.404c0.452,0.264,0.796,0.61,1.018,1.034
				c0.226,0.426,0.339,0.855,0.339,1.296c0,0.405-0.118,0.669-0.351,0.791C273.947,477.804,273.619,477.865,273.196,477.865
				 M270.024,476.943h2.938c-0.039-0.553-0.186-0.969-0.446-1.242c-0.261-0.276-0.599-0.413-1.025-0.413
				c-0.403,0-0.736,0.137-0.995,0.418C270.237,475.986,270.079,476.397,270.024,476.943"/>
			<path style="fill:#42B2B8;" d="M279.938,477.865h-3.171c0.004,0.367,0.078,0.694,0.221,0.974
				c0.145,0.279,0.337,0.491,0.576,0.635c0.239,0.142,0.504,0.212,0.795,0.212c0.192,0,0.371-0.021,0.528-0.07
				c0.162-0.043,0.316-0.116,0.469-0.213c0.151-0.095,0.287-0.199,0.415-0.313c0.125-0.109,0.29-0.26,0.493-0.449
				c0.084-0.071,0.204-0.109,0.355-0.109c0.168,0,0.302,0.046,0.406,0.139c0.103,0.092,0.15,0.219,0.15,0.386
				c0,0.147-0.054,0.317-0.171,0.512c-0.111,0.198-0.285,0.385-0.519,0.566c-0.231,0.178-0.525,0.329-0.872,0.446
				c-0.349,0.119-0.755,0.179-1.209,0.179c-1.042,0-1.849-0.296-2.429-0.889c-0.577-0.595-0.868-1.401-0.868-2.418
				c0-0.479,0.073-0.924,0.217-1.334c0.142-0.411,0.349-0.76,0.623-1.055c0.272-0.294,0.608-0.518,1.009-0.674
				c0.398-0.156,0.844-0.234,1.331-0.234c0.63,0,1.174,0.134,1.633,0.404c0.45,0.264,0.791,0.61,1.013,1.034
				c0.225,0.426,0.341,0.855,0.341,1.296c0,0.405-0.12,0.669-0.351,0.791C280.688,477.804,280.36,477.865,279.938,477.865
				 M276.767,476.943h2.938c-0.04-0.553-0.19-0.969-0.447-1.242c-0.263-0.276-0.601-0.413-1.027-0.413
				c-0.403,0-0.735,0.137-0.995,0.418C276.978,475.986,276.819,476.397,276.767,476.943"/>
			<path style="fill:#42B2B8;" d="M283.487,475.082v0.194c0.304-0.375,0.621-0.651,0.953-0.828c0.324-0.178,0.699-0.267,1.114-0.267
				c0.497,0,0.959,0.13,1.379,0.386c0.419,0.259,0.749,0.635,0.993,1.129c0.244,0.497,0.366,1.081,0.366,1.758
				c0,0.497-0.07,0.957-0.21,1.376c-0.14,0.418-0.336,0.767-0.581,1.05c-0.246,0.281-0.535,0.501-0.868,0.654
				c-0.339,0.151-0.694,0.227-1.08,0.227c-0.461,0-0.853-0.093-1.166-0.28c-0.314-0.182-0.614-0.458-0.901-0.816v2.433
				c0,0.71-0.26,1.069-0.777,1.069c-0.306,0-0.505-0.092-0.607-0.275c-0.095-0.187-0.146-0.452-0.146-0.807v-6.996
				c0-0.309,0.067-0.537,0.2-0.692c0.134-0.149,0.32-0.228,0.553-0.228c0.231,0,0.416,0.078,0.56,0.234
				C283.417,474.563,283.487,474.785,283.487,475.082 M286.665,477.437c0-0.428-0.067-0.796-0.197-1.102
				c-0.131-0.308-0.312-0.542-0.541-0.705c-0.23-0.164-0.489-0.248-0.77-0.248c-0.446,0-0.824,0.178-1.13,0.527
				c-0.308,0.354-0.462,0.872-0.462,1.558c0,0.642,0.153,1.146,0.46,1.504c0.305,0.358,0.679,0.536,1.133,0.536
				c0.268,0,0.519-0.079,0.748-0.233c0.232-0.158,0.416-0.392,0.552-0.704C286.595,478.258,286.665,477.879,286.665,477.437"/>
			<path style="fill:#42B2B8;" d="M289.925,473.416c-0.226,0-0.418-0.071-0.577-0.209c-0.162-0.139-0.242-0.333-0.242-0.585
				c0-0.23,0.082-0.419,0.248-0.569c0.164-0.147,0.354-0.222,0.571-0.222c0.212,0,0.397,0.067,0.559,0.2
				c0.162,0.137,0.244,0.334,0.244,0.591c0,0.25-0.079,0.444-0.236,0.585C290.332,473.345,290.145,473.416,289.925,473.416
				 M290.727,475.09v4.689c0,0.322-0.077,0.568-0.231,0.732c-0.156,0.168-0.35,0.25-0.588,0.25c-0.238,0-0.428-0.084-0.58-0.254
				c-0.146-0.173-0.222-0.416-0.222-0.729v-4.642c0-0.319,0.076-0.559,0.222-0.721c0.152-0.165,0.342-0.245,0.58-0.245
				c0.238,0,0.432,0.079,0.588,0.245C290.65,474.577,290.727,474.804,290.727,475.09"/>
			<path style="fill:#42B2B8;" d="M295.952,480.022l-1.428-2.354l-0.88,0.83v1.291c0,0.312-0.083,0.551-0.248,0.718
				c-0.16,0.17-0.354,0.254-0.566,0.254c-0.249,0-0.447-0.082-0.588-0.25c-0.142-0.165-0.215-0.41-0.215-0.734v-6.915
				c0-0.358,0.072-0.632,0.207-0.821c0.139-0.19,0.341-0.283,0.596-0.283c0.25,0,0.446,0.085,0.593,0.257
				c0.146,0.169,0.221,0.421,0.221,0.751v3.933l1.823-1.914c0.227-0.235,0.396-0.4,0.517-0.486c0.118-0.087,0.262-0.13,0.431-0.13
				c0.204,0,0.371,0.065,0.51,0.193c0.132,0.129,0.2,0.291,0.2,0.483c0,0.237-0.221,0.556-0.659,0.951l-0.861,0.789l1.662,2.614
				c0.121,0.196,0.212,0.34,0.265,0.441c0.053,0.099,0.081,0.2,0.081,0.289c0,0.258-0.071,0.459-0.213,0.61
				c-0.14,0.148-0.327,0.221-0.553,0.221c-0.198,0-0.352-0.051-0.458-0.16C296.282,480.493,296.133,480.299,295.952,480.022"/>
			<path style="fill:#42B2B8;" d="M299.474,480.762c-0.245,0-0.455-0.079-0.634-0.238c-0.177-0.156-0.268-0.378-0.268-0.665
				c0-0.241,0.086-0.449,0.256-0.622c0.172-0.174,0.38-0.262,0.63-0.262c0.248,0,0.459,0.087,0.639,0.258
				c0.174,0.172,0.263,0.383,0.263,0.626c0,0.283-0.089,0.505-0.263,0.662C299.919,480.683,299.711,480.762,299.474,480.762"/>
			<path style="fill:#42B2B8;" d="M307.536,478.755c0,0.2-0.061,0.418-0.182,0.646c-0.12,0.231-0.305,0.449-0.554,0.656
				c-0.247,0.207-0.557,0.377-0.934,0.502c-0.375,0.126-0.8,0.192-1.269,0.192c-1.004,0-1.786-0.293-2.349-0.876
				c-0.56-0.585-0.841-1.368-0.841-2.35c0-0.667,0.128-1.254,0.387-1.765c0.254-0.509,0.627-0.905,1.113-1.184
				c0.487-0.28,1.072-0.419,1.746-0.419c0.421,0,0.805,0.061,1.158,0.184c0.35,0.122,0.645,0.282,0.891,0.474
				c0.242,0.197,0.428,0.402,0.556,0.62c0.129,0.22,0.192,0.426,0.192,0.617c0,0.192-0.071,0.357-0.214,0.492
				c-0.147,0.134-0.322,0.203-0.524,0.203c-0.137,0-0.249-0.035-0.338-0.104c-0.09-0.07-0.19-0.181-0.299-0.339
				c-0.198-0.299-0.404-0.526-0.622-0.674c-0.214-0.152-0.488-0.226-0.821-0.226c-0.476,0-0.865,0.186-1.159,0.561
				c-0.292,0.372-0.439,0.888-0.439,1.534c0,0.305,0.039,0.587,0.114,0.842c0.073,0.255,0.182,0.472,0.325,0.652
				c0.144,0.179,0.315,0.316,0.516,0.409c0.203,0.096,0.425,0.141,0.665,0.141c0.326,0,0.604-0.075,0.836-0.225
				c0.235-0.151,0.439-0.38,0.616-0.689c0.099-0.182,0.205-0.324,0.318-0.427c0.114-0.102,0.256-0.156,0.422-0.156
				c0.198,0,0.363,0.077,0.491,0.227C307.469,478.424,307.536,478.586,307.536,478.755"/>
			<path style="fill:#42B2B8;" d="M314.53,477.467c0,0.481-0.076,0.928-0.222,1.337c-0.154,0.408-0.37,0.758-0.656,1.049
				c-0.284,0.293-0.626,0.518-1.02,0.675c-0.4,0.154-0.844,0.234-1.337,0.234c-0.491,0-0.933-0.08-1.326-0.239
				c-0.389-0.156-0.732-0.384-1.016-0.676c-0.288-0.298-0.505-0.646-0.657-1.048c-0.143-0.402-0.219-0.846-0.219-1.332
				c0-0.491,0.077-0.941,0.224-1.349c0.151-0.409,0.368-0.758,0.649-1.046c0.282-0.289,0.621-0.511,1.019-0.669
				c0.402-0.156,0.844-0.234,1.326-0.234c0.49,0,0.936,0.078,1.337,0.239c0.399,0.157,0.739,0.384,1.027,0.674
				c0.286,0.297,0.502,0.643,0.65,1.045C314.455,476.535,314.53,476.978,314.53,477.467 M312.903,477.467
				c0-0.662-0.146-1.176-0.436-1.543c-0.289-0.372-0.681-0.555-1.171-0.555c-0.317,0-0.597,0.082-0.839,0.246
				c-0.242,0.164-0.425,0.406-0.556,0.728c-0.131,0.321-0.197,0.696-0.197,1.124c0,0.424,0.064,0.792,0.193,1.108
				c0.13,0.319,0.314,0.561,0.553,0.729c0.241,0.167,0.522,0.253,0.845,0.253c0.49,0,0.882-0.185,1.171-0.557
				C312.756,478.631,312.903,478.118,312.903,477.467"/>
			<path style="fill:#42B2B8;" d="M320.712,477.586v2.154c0,0.342-0.075,0.595-0.231,0.767c-0.156,0.17-0.357,0.255-0.611,0.255
				c-0.245,0-0.446-0.085-0.594-0.255c-0.155-0.173-0.233-0.425-0.233-0.767v-2.582c0-0.408-0.013-0.726-0.04-0.953
				c-0.029-0.221-0.105-0.41-0.226-0.552c-0.123-0.147-0.318-0.22-0.582-0.22c-0.532,0-0.879,0.181-1.048,0.551
				c-0.167,0.36-0.254,0.883-0.254,1.567v2.189c0,0.336-0.076,0.591-0.226,0.765c-0.156,0.171-0.355,0.258-0.603,0.258
				c-0.247,0-0.448-0.087-0.604-0.258c-0.157-0.173-0.235-0.428-0.235-0.765v-4.637c0-0.306,0.07-0.538,0.209-0.695
				c0.143-0.16,0.329-0.239,0.556-0.239c0.223,0,0.407,0.077,0.557,0.222c0.148,0.149,0.222,0.354,0.222,0.615v0.153
				c0.283-0.334,0.584-0.582,0.903-0.738c0.323-0.162,0.676-0.241,1.071-0.241c0.407,0,0.757,0.082,1.049,0.244
				c0.294,0.163,0.533,0.409,0.725,0.735c0.274-0.33,0.568-0.577,0.881-0.738c0.313-0.161,0.658-0.241,1.039-0.241
				c0.441,0,0.826,0.089,1.146,0.262c0.319,0.174,0.558,0.425,0.717,0.747c0.138,0.295,0.206,0.756,0.206,1.385v3.164
				c0,0.342-0.076,0.595-0.229,0.767c-0.154,0.17-0.36,0.255-0.612,0.255c-0.247,0-0.446-0.087-0.603-0.258
				c-0.156-0.173-0.235-0.428-0.235-0.765v-2.726c0-0.349-0.015-0.627-0.043-0.836c-0.029-0.211-0.11-0.388-0.239-0.529
				c-0.132-0.142-0.331-0.215-0.596-0.215c-0.214,0-0.416,0.066-0.609,0.192c-0.192,0.124-0.342,0.298-0.45,0.508
				C320.774,476.408,320.712,476.892,320.712,477.586"/>
		</g>
		<g>
			<path style="fill:#42B2B8;" d="M245.272,477.075c-0.001-0.003-0.001-0.006-0.001-0.011
				C245.271,477.069,245.271,477.072,245.272,477.075z"/>
			<path style="fill:#42B2B8;" d="M245.354,477.593c0.001,0,0.001,0,0.001,0c-0.031-0.148-0.055-0.294-0.074-0.439
				C245.3,477.3,245.324,477.447,245.354,477.593z"/>
			<path style="fill:#42B2B8;" d="M245.89,479.097c-0.004-0.006-0.007-0.013-0.011-0.021
				C245.883,479.084,245.886,479.091,245.89,479.097z"/>
			<path style="fill:#42B2B8;" d="M245.839,478.997c-0.014-0.027-0.027-0.056-0.041-0.084
				C245.811,478.943,245.825,478.97,245.839,478.997z"/>
			<path style="fill:#42B2B8;" d="M245.504,478.172c0.079,0.25,0.175,0.493,0.286,0.724c-0.113-0.236-0.206-0.479-0.284-0.724
				C245.506,478.172,245.505,478.172,245.504,478.172z"/>
			<path style="fill:#42B2B8;" d="M251.545,470.865c0.313,0,0.544,0.025,0.809,0.07l0.075-0.477c0,0-0.732-0.225-1.694-0.146
				l-0.076-0.259c0.299-0.063,0.524-0.329,0.524-0.646c0-0.364-0.296-0.659-0.661-0.659c-0.364,0-0.66,0.295-0.66,0.659
				c0,0.317,0.224,0.583,0.522,0.646l0.084,0.289c-1.021,0.14-1.834,0.539-1.834,0.539l0.144,0.441
				c0.618-0.206,1.154-0.331,1.64-0.383C250.895,470.887,251.253,470.865,251.545,470.865z"/>
			<path style="fill:#42B2B8;" d="M245.878,473.276l0.004-0.005c0.024-0.031,0.047-0.06,0.071-0.089l-0.196-0.141l-0.305-0.223
				c-0.017,0.024-0.497,0.465-0.876,1.28c-0.016-0.026-0.035-0.051-0.056-0.074c-0.114-0.124-0.272-0.187-0.474-0.184
				c-0.003,0-0.006,0-0.009,0c-0.125,0-0.21-0.042-0.267-0.092c0.056-0.071,0.089-0.16,0.089-0.258c0-0.23-0.187-0.418-0.418-0.418
				c-0.231,0-0.418,0.188-0.418,0.418c0,0.231,0.187,0.418,0.418,0.418c0.036,0,0.071-0.006,0.104-0.013
				c0.103,0.114,0.266,0.214,0.505,0.209c0.123-0.001,0.213,0.03,0.273,0.097c0.069,0.076,0.093,0.185,0.1,0.267
				c-0.001,0.001-0.001,0.003-0.002,0.003c-0.272,0.743-0.194,1.669-0.194,1.669l0.661,0.026c0.013-0.337,0.062-0.927,0.232-1.394
				C245.449,473.866,245.861,473.3,245.878,473.276z"/>
			<path style="fill:#42B2B8;" d="M257.295,471.417c-0.23,0-0.418,0.187-0.418,0.418c0,0.036,0.006,0.07,0.015,0.103
				c-0.115,0.104-0.214,0.267-0.211,0.507c0.002,0.123-0.03,0.212-0.096,0.273c-0.053,0.047-0.12,0.072-0.185,0.088
				c-0.492-0.689-1.097-1.11-1.097-1.11l-0.474,0.508c0.358,0.326,0.725,0.734,1.08,1.244c0.246,0.352,0.499,0.806,0.71,1.259
				l0.64-0.304c0,0-0.293-0.722-0.704-1.37c0.072-0.025,0.144-0.064,0.207-0.12c0.125-0.113,0.187-0.273,0.183-0.474
				c-0.001-0.13,0.042-0.218,0.093-0.276c0.071,0.054,0.16,0.089,0.258,0.089c0.232,0,0.419-0.187,0.419-0.418
				C257.714,471.604,257.527,471.417,257.295,471.417z"/>
			<path style="fill:#42B2B8;" d="M255.634,477.168c-0.881,0.429-2.33,0.996-4.238,1.262c-0.749,0.104-1.474,0.142-2.142,0.142
				c-0.869,0-1.637-0.065-2.227-0.139c-0.673-0.085-1.198-0.189-1.52-0.261c0.077,0.245,0.171,0.488,0.284,0.724
				c0.002,0.006,0.005,0.013,0.008,0.017c0.013,0.027,0.027,0.056,0.041,0.084c0.013,0.028,0.027,0.054,0.041,0.079
				c0.004,0.007,0.007,0.015,0.011,0.021c0.189,0.357,0.416,0.684,0.675,0.968c0.9,0.984,1.817,1.14,1.826,1.141l0.014,0.002
				l0.013,0.005c0.008,0.003,0.821,0.266,2.057,0.266c1.216,0,2.409-0.245,3.546-0.729c0.842-0.431,1.639-1.085,2.034-1.669
				c0.305-0.452,0.526-0.933,0.656-1.434c0.069-0.266,0.124-0.692,0.092-1.141C256.556,476.673,256.164,476.91,255.634,477.168z"/>
			<path style="fill:#42B2B8;" d="M246.161,473.485c-0.025,0.037-0.408,0.578-0.71,1.408c-0.226,0.622-0.216,1.527-0.216,1.537
				v0.002c0,0.212,0.012,0.423,0.035,0.632c0,0.005,0,0.008,0.001,0.011c0.002,0.027,0.007,0.053,0.009,0.079
				c0.019,0.145,0.043,0.291,0.074,0.439c0.438,0.111,3.049,0.72,5.968,0.314c1.829-0.254,3.218-0.795,4.062-1.204
				c0.701-0.34,1.151-0.648,1.325-0.774c-0.173-0.643-0.651-1.65-1.089-2.279c-1.253-1.791-2.604-2.25-3.298-2.365
				c-0.265-0.043-0.477-0.068-0.777-0.068c-0.28,0-0.626,0.022-1.089,0.071c-0.464,0.048-0.982,0.17-1.583,0.372
				c-0.842,0.282-1.605,0.725-2.204,1.28l-0.021,0.019C246.56,473.041,246.374,473.213,246.161,473.485z M253.829,473.068
				c0.6,0,1.089,0.488,1.089,1.09c0,0.601-0.489,1.09-1.089,1.09c-0.601,0-1.089-0.489-1.089-1.09
				C252.74,473.556,253.228,473.068,253.829,473.068z M248.678,473.025c0.973,0,1.76,0.789,1.76,1.761
				c0,0.972-0.787,1.759-1.76,1.759c-0.972,0-1.76-0.787-1.76-1.759C246.918,473.813,247.707,473.025,248.678,473.025z"/>
		</g>
	</g>
</g>
</svg>
