<?xml version="1.0" encoding="utf-8"?>
<!-- Generator: Adobe Illustrator 27.5.0, SVG Export Plug-In . SVG Version: 6.00 Build 0)  -->
<svg version="1.1" id="Capa_1" xmlns="http://www.w3.org/2000/svg" xmlns:xlink="http://www.w3.org/1999/xlink" x="0px" y="0px"
	 viewBox="0 0 2490 1808" style="enable-background:new 0 0 2490 1808;" xml:space="preserve">
<g>
	<path style="fill:#C6C6C6;" d="M2310.785,770.599c-2.474,0-26.266,0-67.027,0v-94.044c0-37.01-30.003-67.014-67.014-67.014h-16.98
		h-54.788c-4.625-34.622-33.151-61.603-68.471-63.854v-0.24h-4.751h-14.969h-267.881h-12.969h-6.753v0.341
		c-37.674,3.415-67.202,35.049-67.202,73.614v151.197c-264.192,0-568.914,0-833.212,0V619.402c0-38.565-29.528-70.199-67.202-73.614
		v-0.341h-6.753h-12.969H473.963h-14.969h-4.752v0.24c-35.32,2.251-63.846,29.232-68.471,63.854h-54.788h-16.98
		c-37.011,0-67.014,30.004-67.014,67.014v94.044c-41.375,0-65.564,0-68.059,0c-33.918,0-33.918,218.577,0,218.577
		c2.494,0,26.684,0,68.059,0v141.703c0,37.011,30.003,67.014,67.014,67.014h16.98h54.788c4.625,34.622,33.151,61.603,68.471,63.854
		v0.24h4.752h14.969h267.881h12.969h6.753v-0.341c37.674-3.416,67.202-35.05,67.202-73.614V989.176c264.298,0,569.02,0,833.212,0
		v198.857c0,38.564,29.528,70.198,67.202,73.614v0.341h6.753h12.969h267.881h14.969h4.751v-0.24
		c35.32-2.251,63.847-29.232,68.471-63.854h54.788h16.98c37.011,0,67.014-30.003,67.014-67.014V989.176c40.761,0,64.553,0,67.027,0
		C2344.703,989.176,2344.703,770.599,2310.785,770.599z"/>
	<path style="fill:#8A8A8A;" d="M2243.758,889.749v99.428c40.76,0,64.553,0,67.027,0c1.029,0,2.025-0.218,2.991-0.609
		c0.326-0.131,0.631-0.39,0.95-0.564c0.627-0.343,1.256-0.676,1.856-1.178c0.362-0.303,0.703-0.724,1.055-1.083
		c0.528-0.538,1.058-1.058,1.563-1.717c0.36-0.47,0.701-1.04,1.05-1.57c0.466-0.708,0.935-1.406,1.381-2.217
		c0.344-0.626,0.672-1.333,1.005-2.018c0.42-0.864,0.838-1.728,1.238-2.681c0.324-0.772,0.633-1.606,0.944-2.434
		c0.377-1.004,0.751-2.018,1.11-3.101c0.301-0.909,0.59-1.866,0.878-2.828c0.336-1.127,0.668-2.271,0.987-3.466
		c0.276-1.035,0.543-2.102,0.805-3.186c0.301-1.24,0.592-2.504,0.874-3.804c0.25-1.148,0.492-2.315,0.728-3.507
		c0.264-1.343,0.519-2.713,0.766-4.108c0.219-1.241,0.436-2.49,0.642-3.769c0.231-1.438,0.449-2.907,0.663-4.391
		c0.192-1.328,0.383-2.657,0.561-4.019c0.197-1.513,0.378-3.058,0.558-4.609c0.162-1.401,0.327-2.796,0.476-4.225
		c0.165-1.587,0.31-3.205,0.457-4.824c0.132-1.455,0.271-2.898,0.389-4.376c0.131-1.641,0.24-3.311,0.355-4.977
		c0.103-1.508,0.215-3.005,0.304-4.531c0.098-1.692,0.173-3.407,0.254-5.117c0.073-1.529,0.157-3.048,0.216-4.59
		c0.069-1.812,0.111-3.642,0.16-5.467c0.04-1.463,0.095-2.917,0.123-4.385c0-0.026,0.002-0.051,0.002-0.076h-0.002H2243.758z"/>
	<path style="fill:#8A8A8A;" d="M153.588,889.749h-0.001c0.001,0.025,0.002,0.05,0.002,0.076c0.027,1.469,0.082,2.922,0.123,4.385
		c0.05,1.825,0.091,3.655,0.16,5.467c0.058,1.524,0.142,3.024,0.214,4.537c0.082,1.734,0.158,3.473,0.258,5.189
		c0.088,1.501,0.198,2.974,0.3,4.458c0.115,1.686,0.226,3.374,0.359,5.033c0.118,1.477,0.256,2.92,0.388,4.374
		c0.148,1.618,0.293,3.237,0.458,4.824c0.148,1.425,0.313,2.815,0.474,4.212c0.181,1.562,0.363,3.116,0.561,4.639
		c0.176,1.35,0.365,2.665,0.555,3.981c0.215,1.492,0.434,2.97,0.667,4.416c0.206,1.276,0.423,2.523,0.642,3.76
		c0.249,1.402,0.504,2.779,0.77,4.127c0.233,1.183,0.474,2.339,0.721,3.478c0.285,1.312,0.579,2.586,0.881,3.835
		c0.26,1.076,0.526,2.134,0.799,3.161c0.32,1.2,0.652,2.348,0.991,3.479c0.288,0.961,0.576,1.917,0.877,2.825
		c0.358,1.083,0.732,2.097,1.11,3.101c0.311,0.828,0.62,1.662,0.944,2.434c0.4,0.953,0.819,1.818,1.238,2.681
		c0.333,0.685,0.66,1.392,1.005,2.018c0.446,0.81,0.914,1.509,1.381,2.217c0.349,0.53,0.69,1.1,1.05,1.57
		c0.505,0.659,1.035,1.179,1.562,1.717c0.353,0.359,0.693,0.781,1.056,1.083c0.601,0.504,1.232,0.837,1.86,1.18
		c0.318,0.173,0.621,0.43,0.946,0.562c0.967,0.391,1.962,0.609,2.992,0.609h0.001c2.494,0,26.684,0,68.059,0v-99.428H153.588z"/>
	<path style="fill:#8A8A8A;" d="M828.768,889.749v99.428c264.298,0,569.02,0,833.212,0v-99.428H828.768z"/>
	<path style="fill:#1D2342;" d="M761.566,545.788v-0.341h-6.753h-12.969H473.963h-14.969h-4.752v0.24
		c-35.32,2.251-63.846,29.232-68.471,63.854h-54.788h-16.98c-37.011,0-67.014,30.004-67.014,67.014v94.044v119.15v99.428v141.703
		c0,37.011,30.003,67.014,67.014,67.014h16.98h54.788c4.625,34.622,33.151,61.603,68.471,63.854v0.24h4.752h14.969h267.881h12.969
		h6.753v-0.341c37.674-3.416,67.202-35.05,67.202-73.614V989.176v-99.428v-119.15V619.402
		C828.768,580.838,799.24,549.203,761.566,545.788z"/>
	<path style="fill:#1D2342;" d="M2176.744,609.541h-16.98h-54.787c-4.625-34.622-33.152-61.603-68.471-63.854v-0.24h-4.752h-14.969
		h-267.881h-12.969h-6.753v0.341c-37.674,3.415-67.202,35.049-67.202,73.614v151.197v119.15v99.428v198.857
		c0,38.564,29.528,70.198,67.202,73.614v0.341h6.753h12.969h267.881h14.969h4.752v-0.24c35.32-2.251,63.846-29.232,68.471-63.854
		h54.787h16.98c37.011,0,67.014-30.003,67.014-67.014V989.176v-99.428v-119.15v-94.044
		C2243.758,639.545,2213.755,609.541,2176.744,609.541z"/>
	<path style="fill:#CFCFCF;" d="M877.428,835.515h717.363c12.203,0,22.186-9.984,22.186-22.187c0-12.203-9.984-22.186-22.186-22.186
		H877.428c-12.202,0-22.186,9.984-22.186,22.186C855.242,825.531,865.226,835.515,877.428,835.515z"/>
	<path style="fill:#101126;" d="M385.038,619.402c0-3.352,0.301-6.627,0.733-9.861h-54.788h-16.98
		c-37.011,0-67.014,30.004-67.014,67.014v94.044v119.15v99.428v141.703c0,37.011,30.003,67.014,67.014,67.014h16.98h54.788
		c-0.432-3.234-0.733-6.509-0.733-9.86V619.402z"/>
	<path style="fill:#252F56;" d="M529.84,609.885v473.445c0,28.781,23.332,52.112,52.112,52.112h159.892v-577.67H581.953
		C553.172,557.773,529.84,581.104,529.84,609.885z"/>
	<path style="fill:#252F56;" d="M803.128,1083.331V609.885c0-25.167-17.84-46.164-41.563-51.042v575.529
		C785.289,1129.495,803.128,1108.497,803.128,1083.331z"/>
	<polygon style="fill:#101126;" points="458.994,545.447 454.242,545.447 454.242,545.687 454.242,1261.748 454.242,1261.988 
		458.994,1261.988 473.964,1261.988 473.964,545.447 	"/>
	<polygon style="fill:#101126;" points="761.566,558.844 761.566,545.788 761.566,545.447 754.813,545.447 741.844,545.447 
		741.844,557.773 741.844,1135.443 741.844,1261.988 754.813,1261.988 761.566,1261.988 761.566,1261.647 761.566,1134.372 	"/>
	<path style="fill:#101126;" d="M2176.744,609.541h-16.98h-54.787c0.432,3.234,0.732,6.509,0.732,9.861v568.631
		c0,3.352-0.301,6.627-0.732,9.86h54.787h16.98c37.011,0,67.014-30.003,67.014-67.014V989.176v-99.428v-119.15v-94.044
		C2243.758,639.545,2213.755,609.541,2176.744,609.541z"/>
	<path style="fill:#252F56;" d="M1800.221,610.347v472.521c0,29.036,23.538,52.575,52.574,52.575h163.989v-577.67h-163.989
		C1823.759,557.773,1800.221,581.311,1800.221,610.347z"/>
	<path style="fill:#252F56;" d="M2078.383,1082.868V610.347c0-25.37-17.972-46.538-41.878-51.48v575.481
		C2060.412,1129.406,2078.383,1108.238,2078.383,1082.868z"/>
	<polygon style="fill:#101126;" points="2036.506,558.867 2036.506,545.687 2036.506,545.447 2031.755,545.447 2016.785,545.447 
		2016.785,557.773 2016.785,1135.443 2016.785,1261.988 2031.755,1261.988 2036.506,1261.988 2036.506,1261.748 2036.506,1134.349 	
		"/>
	<polygon style="fill:#101126;" points="1735.935,545.447 1729.182,545.447 1729.182,545.788 1729.182,1261.647 1729.182,1261.988 
		1735.935,1261.988 1748.903,1261.988 1748.903,545.447 	"/>
	<path style="fill:#060415;" d="M385.038,619.402c0-3.352,0.301-6.627,0.733-9.861h-54.788v588.353h54.788
		c-0.432-3.234-0.733-6.509-0.733-9.86V619.402z"/>
	<path style="fill:#060415;" d="M2104.977,609.541c0.432,3.234,0.732,6.509,0.732,9.861v568.631c0,3.352-0.3,6.627-0.732,9.86
		h54.787V609.541H2104.977z"/>
</g>
</svg>
