<?xml version="1.0" encoding="utf-8"?>
<!-- Generator: Adobe Illustrator 27.5.0, SVG Export Plug-In . SVG Version: 6.00 Build 0)  -->
<svg version="1.1" id="Capa_2" xmlns="http://www.w3.org/2000/svg" xmlns:xlink="http://www.w3.org/1999/xlink" x="0px" y="0px"
	 viewBox="0 0 2122 2122" style="enable-background:new 0 0 2122 2122;" xml:space="preserve">
<g>
	<path style="fill:#29235C;" d="M1869.686,1001.836h-29.849V774.037c0-20.009-16.221-36.23-36.231-36.23h-359.083
		c-20.01,0-36.231,16.22-36.231,36.23v227.8H713.028v-227.8c0-20.009-16.222-36.23-36.232-36.23H317.714
		c-20.01,0-36.23,16.221-36.23,36.23v227.8h-29.85c-10.787,0-19.532,8.745-19.532,19.532v78.584
		c0,10.788,8.745,19.532,19.532,19.532h29.85v227.799c0,20.01,16.22,36.23,36.23,36.23h359.083c20.01,0,36.232-16.22,36.232-36.23
		v-227.799h695.264v227.799c0,20.009,16.221,36.23,36.231,36.23h359.083c20.01,0,36.231-16.221,36.231-36.23v-227.8h29.849
		c10.787,0,19.531-8.745,19.531-19.531v-78.584C1889.217,1010.581,1880.473,1001.836,1869.686,1001.836z"/>
	<g>
		<path style="fill:#4C62AB;" d="M676.797,737.807H317.714c-20.01,0-36.23,16.221-36.23,36.23v179.006h431.544V774.037
			C713.028,754.028,696.806,737.807,676.797,737.807z"/>
		<rect x="281.484" y="953.043" style="fill:#22ABE3;" width="431.544" height="215.236"/>
		<path style="fill:#FFFFFF;" d="M339.248,831.202c0-8.025-12.473-8.039-12.473,0v458.919c0,8.026,12.473,8.039,12.473,0V831.202z"
			/>
		<path style="fill:#4C62AB;" d="M1803.606,737.807h-359.083c-20.009,0-36.23,16.221-36.23,36.23v179.005h431.545V774.037
			C1839.837,754.028,1823.616,737.807,1803.606,737.807z"/>
		<rect x="1408.292" y="953.042" style="fill:#22ABE3;" width="431.545" height="215.236"/>
		<path style="fill:#FFFFFF;" d="M1793.294,831.201c0-8.025-12.473-8.039-12.473,0v458.919c0,8.025,12.473,8.039,12.473,0V831.201z"
			/>
		<path style="fill:#FFFFFF;" d="M1379.668,1038.557H985.695c-8.025,0-8.038,12.473,0,12.473h393.973
			C1387.694,1051.029,1387.706,1038.557,1379.668,1038.557z"/>
	</g>
</g>
</svg>
