<?xml version="1.0" encoding="utf-8"?>
<!-- Generator: Adobe Illustrator 27.5.0, SVG Export Plug-In . SVG Version: 6.00 Build 0)  -->
<svg version="1.1" xmlns="http://www.w3.org/2000/svg" xmlns:xlink="http://www.w3.org/1999/xlink" x="0px" y="0px"
	 viewBox="0 0 500 500" style="enable-background:new 0 0 500 500;" xml:space="preserve">
<g id="BACKGROUND">
	<g>
		<defs>
			<rect id="SVGID_1_" width="500" height="500"/>
		</defs>
		<clipPath id="SVGID_00000015344190855794736950000016654071273722648735_">
			<use xlink:href="#SVGID_1_"  style="overflow:visible;"/>
		</clipPath>
		<g style="clip-path:url(#SVGID_00000015344190855794736950000016654071273722648735_);">
			<path style="fill:#C6A47B;" d="M-9.868,356.346c2.551,0,521.291,0,521.291,0v150.52H-9.868V356.346z"/>
			<g>
				<g>
					<g>
						<rect x="35.273" y="33.794" style="fill:#9EA4C3;" width="123.179" height="222.247"/>
						<g>
							<g>
								<path style="fill:#B6BFEF;" d="M44.223,248.501h105.279V41.335H44.223V248.501z"/>
							</g>
						</g>
						<g>
							<polygon style="opacity:0.2;fill:#FFFFFF;" points="44.223,73.349 44.223,112.138 126.595,41.335 81.469,41.335 							"/>
							<polygon style="opacity:0.2;fill:#FFFFFF;" points="44.223,146.947 44.223,175.293 149.502,84.8 149.502,56.455 							"/>
							<polygon style="opacity:0.2;fill:#FFFFFF;" points="44.223,42.518 44.223,60.42 66.427,41.335 45.599,41.335 							"/>
							<polygon style="opacity:0.2;fill:#FFFFFF;" points="44.223,134.018 149.502,43.526 149.502,41.335 141.637,41.335 
								44.223,125.067 							"/>
							<polygon style="opacity:0.2;fill:#FFFFFF;" points="149.502,139.011 44.223,229.503 44.223,248.501 67.247,248.501 
								149.502,177.799 							"/>
							<polygon style="opacity:0.2;fill:#FFFFFF;" points="149.502,240.954 149.502,212.609 107.745,248.501 140.721,248.501 
															"/>
							<polygon style="opacity:0.2;fill:#FFFFFF;" points="44.223,216.574 149.502,126.081 149.502,108.179 44.223,198.671 							
								"/>
							<polygon style="opacity:0.2;fill:#FFFFFF;" points="149.502,199.679 149.502,190.728 82.289,248.501 92.703,248.501 							
								"/>
						</g>
					</g>
					
						<rect x="92.919" y="87.086" transform="matrix(6.123234e-17 -1 1 6.123234e-17 -48.6753 242.3998)" style="fill:#9EA4C3;" width="7.886" height="116.903"/>
					<rect x="92.919" y="38.657" style="fill:#9EA4C3;" width="7.886" height="213.762"/>
				</g>
				<g>
					<g>
						<rect x="343.732" y="33.794" style="fill:#9EA4C3;" width="123.179" height="222.247"/>
						<g>
							<g>
								<path style="fill:#B6BFEF;" d="M352.682,248.501H457.96V41.335H352.682V248.501z"/>
							</g>
						</g>
						<g>
							<polygon style="opacity:0.2;fill:#FFFFFF;" points="352.682,73.349 352.682,112.138 435.054,41.335 389.928,41.335 							
								"/>
							<polygon style="opacity:0.2;fill:#FFFFFF;" points="352.682,146.947 352.682,175.293 457.96,84.8 457.96,56.455 							"/>
							<polygon style="opacity:0.2;fill:#FFFFFF;" points="352.682,42.518 352.682,60.42 374.886,41.335 354.058,41.335 							"/>
							<polygon style="opacity:0.2;fill:#FFFFFF;" points="352.682,134.018 457.96,43.526 457.96,41.335 450.096,41.335 
								352.682,125.067 							"/>
							<polygon style="opacity:0.2;fill:#FFFFFF;" points="457.96,139.011 352.682,229.503 352.682,248.501 375.706,248.501 
								457.96,177.799 							"/>
							<polygon style="opacity:0.2;fill:#FFFFFF;" points="457.96,240.954 457.96,212.609 416.204,248.501 449.18,248.501 							
								"/>
							<polygon style="opacity:0.2;fill:#FFFFFF;" points="352.682,216.574 457.96,126.081 457.96,108.179 352.682,198.671 							
								"/>
							<polygon style="opacity:0.2;fill:#FFFFFF;" points="457.96,199.679 457.96,190.728 390.748,248.501 401.162,248.501 							
								"/>
						</g>
					</g>
					
						<rect x="401.378" y="87.086" transform="matrix(6.123234e-17 -1 1 6.123234e-17 259.7836 550.8588)" style="fill:#9EA4C3;" width="7.886" height="116.903"/>
					<rect x="401.378" y="38.657" style="fill:#9EA4C3;" width="7.886" height="213.762"/>
				</g>
			</g>
			<g>
				<g>
					<g>
						<g>
							<path style="fill:#90D39E;" d="M253.921,285.038c0.378-0.422-15.388-21.85-5.561-30.56
								c10.251-9.566,11.594-8.603,14.741-13.14c3.122-4.921-8.458-15.18-0.694-22.241c7.888-7.176,23.426-14.822,24.124-21.113
								c1.861-6.614-12.467-33.742,11.761-37.68c26.533-3.813,16.838,34.115,22.917,43.077c7.712,9.556,19.152,17.362,12.293,28.189
								c-7.01,10.965-27.959,16.86-29.061,22.692c-1.146,5.889,5.113,16.265-6.735,25.756
								C285.818,289.872,258.795,296.908,253.921,285.038z"/>
						</g>
					</g>
					<g>
						<path style="fill:#729A7A;" d="M297.623,173.518c2.507,19.048,0.257,38.076-5.757,56.23
							c-6.043,18.261-16.067,35.696-29.811,51.464c-7.726,8.865-16.627,17.201-26.632,24.848c-1.31,0.995,0.298,2.288,1.631,1.274
							c17.922-13.693,32.324-29.564,42.864-46.733c10.577-17.226,17.292-35.753,19.857-54.784
							c1.442-10.689,1.603-21.551,0.179-32.41C299.763,171.986,297.432,172.107,297.623,173.518L297.623,173.518z"/>
					</g>
					<g>
						<path style="fill:#729A7A;" d="M309.004,175.955c-1.833,7.518-5.388,14.405-10.251,20.301
							c-0.922,1.113,0.984,2.332,1.918,1.216c5.046-6.073,8.723-13.219,10.631-20.992
							C311.652,175.037,309.346,174.528,309.004,175.955L309.004,175.955z"/>
					</g>
					<g>
						<path style="fill:#729A7A;" d="M287.826,181.769c2.646,4.57,6.869,8.576,10.984,12.187c1.08,0.954,2.857-0.496,1.755-1.458
							c-4.019-3.493-8.146-7.333-10.744-11.79C289.111,179.501,287.135,180.582,287.826,181.769L287.826,181.769z"/>
					</g>
					<g>
						<path style="fill:#729A7A;" d="M284.938,211.336c3.36,3.759,6.345,7.848,8.863,12.208c0.68,1.189,2.751,0.004,2.059-1.185
							c-2.561-4.374-5.586-8.473-8.983-12.238C285.956,209.11,284.028,210.324,284.938,211.336
							C284.937,211.336,284.937,211.336,284.938,211.336z"/>
					</g>
					<g>
						<path style="fill:#729A7A;" d="M315.713,227.359c-8.678,6.647-18.142,12.068-27.992,16.266
							c-1.443,0.612-0.625,2.503,0.829,1.898c9.921-4.171,19.467-9.571,28.24-16.203
							C318.069,228.35,316.984,226.379,315.713,227.359L315.713,227.359z"/>
					</g>
					<g>
						<path style="fill:#729A7A;" d="M269.553,221.923c5.647,7.543,10.996,15.513,16,23.792c0.676,1.131,2.945,0.186,2.25-0.958
							c-5.076-8.293-10.497-16.28-16.213-23.841C270.801,219.883,268.777,220.893,269.553,221.923L269.553,221.923z"/>
					</g>
					<g>
						<path style="fill:#729A7A;" d="M292.813,264.83c-1.308,0.241-2.68,1.157-3.86,1.788c-2.278,1.222-4.541,2.463-6.825,3.654
							c-4.877,2.547-9.844,5.059-14.991,6.879c-1.522,0.536-1.291,2.534,0.264,1.997c5.112-1.781,10.055-4.185,14.914-6.68
							c2.32-1.19,4.62-2.429,6.925-3.666c0.839-0.45,1.677-0.906,2.529-1.333c0.303-0.152,0.304-0.144,0.661-0.313
							c0.238-0.112,0.533-0.168,0.249-0.118C294.275,266.756,294.408,264.533,292.813,264.83L292.813,264.83z"/>
					</g>
					<g>
						<path style="fill:#729A7A;" d="M255.42,260.523c1.037,3.338,3.143,6.519,4.973,9.603c1.595,2.687,3.163,5.438,4.947,8.052
							c0.72,1.066,3.023-0.074,2.282-1.139c-1.775-2.545-3.341-5.224-4.934-7.843c-1.823-2.998-3.928-6.075-4.965-9.34
							C257.341,258.678,255.052,259.353,255.42,260.523L255.42,260.523z"/>
					</g>
				</g>
				<g>
					<path style="fill:#BDD496;" d="M251.479,277.371c0,0-31.77-13.166-28.081-29.314c3.689-16.148,6.001-15.283,6.582-21.977
						c0.58-6.694-15.947-16.225-10.162-27.884c5.786-11.658,20.835-23.13,20.915-30.581c0.08-7.452-13.094-42.301,14.437-43.726
						s13.582,37.391,23.213,46.693c9.631,9.302,23.304,14.844,19.533,26.259c-3.771,11.415-22.093,22.873-20.104,29.174
						c1.989,6.302,13.743,13.548,9.161,26.369C282.391,265.207,265.673,285.123,251.479,277.371z"/>
					<g>
						<g>
							<path style="fill:#729A7A;" d="M252.462,138.638c0.825,21.742,1.134,43.508,1.625,65.259
								c0.494,21.889,0.992,43.778,1.357,65.67c0.205,12.274,0.367,24.549,0.466,36.824c0.013,1.608,2.513,1.612,2.5,0
								c-0.176-21.897-0.557-43.791-1.012-65.684c-0.454-21.83-0.965-43.66-1.458-65.489c-0.275-12.194-0.515-24.391-0.978-36.58
								C254.901,137.035,252.401,137.027,252.462,138.638L252.462,138.638z"/>
						</g>
						<g>
							<path style="fill:#729A7A;" d="M264.42,141.766c-2.51,8.105-6.151,15.793-10.809,22.885
								c-0.886,1.349,1.278,2.602,2.159,1.262c4.771-7.265,8.49-15.18,11.061-23.482
								C267.308,140.891,264.895,140.232,264.42,141.766L264.42,141.766z"/>
						</g>
						<g>
							<path style="fill:#729A7A;" d="M241.462,148.002c1.257,2.581,3.012,4.909,4.882,7.074c2.174,2.517,4.59,4.82,7.142,6.95
								c0.518,0.432,1.26,0.508,1.768,0c0.445-0.445,0.521-1.333,0-1.768c-4.504-3.76-9.032-8.177-11.633-13.518
								c-0.296-0.607-1.159-0.771-1.71-0.449C241.291,146.654,241.165,147.393,241.462,148.002L241.462,148.002z"/>
						</g>
						<g>
							<path style="fill:#729A7A;" d="M241.321,183.945c4.408,3.981,8.639,8.183,12.65,12.565c1.089,1.189,2.853-0.582,1.768-1.768
								c-4.011-4.382-8.241-8.584-12.65-12.565C241.898,181.101,240.124,182.864,241.321,183.945L241.321,183.945z"/>
						</g>
						<g>
							<path style="fill:#729A7A;" d="M278.02,196.143c-6.94,8.495-14.375,16.573-22.266,24.193c-1.16,1.12,0.609,2.886,1.768,1.768
								c7.891-7.62,15.326-15.698,22.266-24.193C280.798,196.675,279.039,194.896,278.02,196.143L278.02,196.143z"/>
						</g>
						<g>
							<path style="fill:#729A7A;" d="M228.2,200.094c8.437,8.127,17.266,15.879,26.416,23.193c1.245,0.995,3.025-0.763,1.768-1.768
								c-9.15-7.314-17.98-15.066-26.416-23.192C228.809,197.21,227.038,198.976,228.2,200.094L228.2,200.094z"/>
						</g>
						<g>
							<path style="fill:#729A7A;" d="M272.404,240.283c-1.122,0.719-1.892,2.178-2.62,3.253c-1.392,2.057-2.721,4.156-4.057,6.249
								c-2.868,4.49-5.631,9.128-8.895,13.346c-0.973,1.257,0.784,3.039,1.768,1.768c3.228-4.171,5.997-8.701,8.832-13.141
								c1.361-2.131,2.714-4.268,4.117-6.372c0.491-0.736,0.986-1.47,1.511-2.182c0.207-0.28,0.164-0.252,0.425-0.54
								c0.169-0.187,0.456-0.398,0.182-0.222C275.016,241.576,273.764,239.411,272.404,240.283L272.404,240.283z"/>
						</g>
						<g>
							<path style="fill:#729A7A;" d="M234.066,251.552c3.255,3.208,7.457,5.573,11.385,7.843c3.424,1.978,6.909,3.933,10.514,5.566
								c1.454,0.659,2.727-1.495,1.262-2.159c-3.52-1.594-6.923-3.5-10.27-5.425c-3.826-2.202-7.956-4.47-11.124-7.593
								C234.687,248.654,232.918,250.421,234.066,251.552L234.066,251.552z"/>
						</g>
					</g>
				</g>
				<g>
					<path style="fill:#90D39E;" d="M251.093,286.957c0,0-34.098,4.465-38.97-11.366c-4.871-15.831-2.436-16.237-5.277-22.326
						c-2.842-6.089-21.92-6.089-22.732-19.079c-0.812-12.99,6.495-30.445,2.841-36.94c-3.653-6.495-32.475-30.104-9.337-45.091
						c23.138-14.987,30.445,25.606,43.435,28.854c12.99,3.247,27.604,1.218,30.039,12.99c2.436,11.772-7.713,30.851-2.841,35.316
						s18.673,4.871,21.109,18.267C271.795,260.977,267.261,286.581,251.093,286.957z"/>
					<g>
						<g>
							<path style="fill:#729A7A;" d="M182.643,166.29c11.576,18.423,22.717,37.123,34.008,55.721
								c11.351,18.696,22.705,37.391,33.946,56.153c6.321,10.55,12.605,21.121,18.834,31.725c0.814,1.386,2.976,0.13,2.159-1.262
								c-11.037-18.788-22.248-37.474-33.523-56.12c-11.311-18.706-22.671-37.382-34.016-56.068
								c-6.373-10.497-12.715-21.013-19.249-31.412C183.948,163.669,181.784,164.922,182.643,166.29L182.643,166.29z"/>
						</g>
					</g>
					<g>
						<g>
							<path style="fill:#729A7A;" d="M194.566,163.038c1.871,8.273,2.553,16.746,2.064,25.213c-0.093,1.607,2.408,1.602,2.5,0
								c0.502-8.684-0.235-17.395-2.153-25.878C196.622,160.804,194.211,161.468,194.566,163.038L194.566,163.038z"/>
						</g>
					</g>
					<g>
						<g>
							<path style="fill:#729A7A;" d="M177.777,179.883c5.094,3.434,11.445,5.102,17.425,6.147c1.573,0.275,2.249-2.134,0.665-2.411
								c-5.782-1.011-11.9-2.573-16.827-5.895C177.702,176.823,176.449,178.988,177.777,179.883L177.777,179.883z"/>
						</g>
					</g>
					<g>
						<g>
							<path style="fill:#729A7A;" d="M195.614,211.096c5.808,1.248,11.571,2.775,17.235,4.565c1.538,0.486,2.196-1.927,0.665-2.411
								c-5.664-1.791-11.427-3.317-17.235-4.565C194.71,208.348,194.039,210.757,195.614,211.096L195.614,211.096z"/>
						</g>
					</g>
					<g>
						<g>
							<path style="fill:#729A7A;" d="M233.509,203.323c-1.769,10.826-4.174,21.538-7.203,32.081
								c-0.445,1.549,1.967,2.211,2.411,0.665c3.029-10.543,5.434-21.255,7.203-32.081
								C236.177,202.414,233.769,201.737,233.509,203.323L233.509,203.323z"/>
						</g>
					</g>
					<g>
						<g>
							<path style="fill:#729A7A;" d="M192.315,231.64c11.368,2.826,22.889,5.13,34.47,6.895c1.574,0.24,2.252-2.169,0.665-2.411
								c-11.581-1.765-23.102-4.069-34.47-6.895C191.418,228.842,190.752,231.252,192.315,231.64L192.315,231.64z"/>
						</g>
					</g>
					<g>
						<g>
							<path style="fill:#729A7A;" d="M250.699,244.363c-0.605,1.18-0.551,2.774-0.645,4.063c-0.182,2.49-0.284,4.987-0.397,7.481
								c-0.242,5.331-0.318,10.737-1.039,16.031c-0.214,1.573,2.194,2.254,2.411,0.665c0.71-5.218,0.849-10.515,1.086-15.77
								c0.113-2.507,0.217-5.015,0.379-7.52c0.059-0.911,0.119-1.825,0.224-2.732c0.037-0.323,0.046-0.32,0.102-0.695
								c0.037-0.25,0.17-0.517,0.039-0.261C253.59,244.196,251.433,242.93,250.699,244.363L250.699,244.363z"/>
						</g>
					</g>
					<g>
						<g>
							<path style="fill:#729A7A;" d="M223.102,273.287c4.423,1.149,9.239,1.104,13.776,1.108c3.961,0.004,7.964-0.045,11.91-0.43
								c1.587-0.155,1.603-2.657,0-2.5c-3.839,0.375-7.732,0.426-11.586,0.43c-4.418,0.005-9.126,0.1-13.435-1.019
								C222.208,270.471,221.544,272.882,223.102,273.287L223.102,273.287z"/>
						</g>
					</g>
				</g>
				<path style="fill:#B6BFEF;" d="M206.581,284.598c0,0,45.126,0,103.333-2.616c0,0-5.275,85.675-8.971,86.656
					c-3.696,0.981-75.686,7.642-81.601-0.981C215.911,362.654,209.524,312.066,206.581,284.598z"/>
				<path style="fill:#9EA4C3;" d="M302.877,294.589c0,0-5.793,67.273-9.539,67.935c-3.746,0.663-64.626,5.774-67.087,1.447
					c-2.461-4.327,52.812-12.409,53.774-17.732C280.988,340.916,303.001,268.509,302.877,294.589z"/>
			</g>
		</g>
	</g>
</g>
<g id="OBJECTS">
	<g>
		<defs>
			<rect id="SVGID_00000116210215607620745700000005011617070532588166_" width="500" height="500"/>
		</defs>
		<clipPath id="SVGID_00000155832670729123875680000011489288812187378597_">
			<use xlink:href="#SVGID_00000116210215607620745700000005011617070532588166_"  style="overflow:visible;"/>
		</clipPath>
		<g style="clip-path:url(#SVGID_00000155832670729123875680000011489288812187378597_);">
			<path style="opacity:0.2;fill:#646466;" d="M122.759,379.904c0,3.292-20.646,5.961-46.113,5.961
				c-25.468,0-46.113-2.669-46.113-5.961s20.646-5.961,46.113-5.961C102.113,373.943,122.759,376.612,122.759,379.904z"/>
			<g>
				<rect x="29.235" y="352.848" style="fill:#646466;" width="94.821" height="5.333"/>
				<g>
					<rect x="50.808" y="330.266" style="fill:#383838;" width="13.936" height="50.496"/>
					<rect x="35.995" y="337.086" style="fill:#494949;" width="13.936" height="36.857"/>
					<polygon style="fill:#E64C56;" points="31.83,350.444 32.911,360.607 34.641,360.607 34.641,350.984 					"/>
				</g>
				<g>
					
						<rect x="87.648" y="330.266" transform="matrix(-1 -1.224647e-16 1.224647e-16 -1 189.2327 711.0288)" style="fill:#383838;" width="13.936" height="50.496"/>
					
						<rect x="102.461" y="337.086" transform="matrix(-1 -1.224647e-16 1.224647e-16 -1 218.8578 711.0289)" style="fill:#494949;" width="13.936" height="36.857"/>
					<polygon style="fill:#E64C56;" points="120.563,360.585 119.481,350.422 117.752,350.422 117.752,360.044 					"/>
				</g>
			</g>
		</g>
		<polygon style="clip-path:url(#SVGID_00000155832670729123875680000011489288812187378597_);fill:#B6BFEF;" points="
			-4.923,385.011 376.053,385.011 465.344,486.031 -10.026,486.031 		"/>
		<g style="clip-path:url(#SVGID_00000155832670729123875680000011489288812187378597_);">
			<g>
				<g>
					<path style="fill:#383838;" d="M394.365,360.558c-3.189-2.82-1.843-7.958,0.939-10.574c3.79-3.564,9.754-3.741,14.64-3.934
						c11.645-0.459,23.43-0.179,34.874,2.201c10.486,2.181,20.66,6.141,29.197,12.708c7.565,5.819,13.96,13.591,17.318,22.592
						c1.716,4.599,2.71,9.538,2.571,14.46c-0.151,5.337-2.357,9.943-6.768,13.018c-3.97,2.767-8.706,4.173-13.442,4.92
						c-3.084,0.487-6.21,0.704-9.33,0.788c-2.737,0.073-5.589,0.218-8.307-0.187c-1.819-0.271-3.863-0.776-5.288-2.008
						c-1.645-1.422-1.617-3.626-0.185-5.217c1.913-2.125,4.934-2.31,7.608-2.241c2.634,0.068,5.307,0.23,7.905,0.684
						c2.496,0.436,4.963,1.147,7.131,2.49c2.124,1.316,3.703,3.226,4.985,5.345c2.564,4.239,4.152,8.985,7.436,12.779
						c6.572,7.593,17.147,10.077,26.667,11.386c6.314,0.868,12.671,1.369,19.044,1.452c5.337,0.07,10.947,0.061,16.039-1.749
						c2.318-0.824,4.417-2.006,6.284-3.611c1.42-1.221-0.642-3.267-2.054-2.054c-4.243,3.647-10.106,4.347-15.492,4.49
						c-6.837,0.182-13.713-0.208-20.503-1.008c-10.176-1.198-22.572-3.309-28.967-12.275c-3.134-4.394-4.614-9.755-8.108-13.922
						c-3.621-4.32-9.032-5.901-14.44-6.513c-5.261-0.595-12.37-1.489-16.05,3.251c-1.501,1.934-1.949,4.487-0.886,6.737
						c0.912,1.931,2.774,3.137,4.702,3.892c2.092,0.82,4.384,1.127,6.619,1.188c3.413,0.093,6.844,0.035,10.248-0.23
						c5.602-0.435,11.208-1.401,16.314-3.84c4.44-2.121,8.373-5.487,10.286-10.108c2.205-5.326,1.68-11.605,0.445-17.113
						c-2.26-10.084-8.19-19.118-15.726-26.07c-8.29-7.647-18.479-12.695-29.323-15.612c-12.028-3.235-24.617-3.942-37.02-3.65
						c-5.632,0.133-11.707,0.055-16.908,2.513c-4.296,2.03-7.477,6.392-7.194,11.285c0.128,2.221,1.003,4.303,2.685,5.79
						C393.707,363.846,395.769,361.799,394.365,360.558L394.365,360.558z"/>
				</g>
			</g>
			<g>
				<g>
					<polygon style="fill:#494949;" points="422.787,300.239 408.354,354.585 462.132,383.687 481.182,317.935 					"/>
					<polygon style="fill:#FFFFFF;" points="424.314,304.169 411.685,352.612 459.939,378.483 476.338,320.857 					"/>
					<g>
						<defs>
							<polygon id="SVGID_00000111888230869532885790000004693046684729498272_" points="424.314,304.169 411.685,352.612 
								459.939,378.483 476.338,320.857 							"/>
						</defs>
						<clipPath id="SVGID_00000141414544500130383680000010068290896122694545_">
							<use xlink:href="#SVGID_00000111888230869532885790000004693046684729498272_"  style="overflow:visible;"/>
						</clipPath>
						<g style="clip-path:url(#SVGID_00000141414544500130383680000010068290896122694545_);">
							<path style="fill:#B6BFEF;" d="M413.451,342.52c0,0,15.539-1.556,29.112,3.691c13.573,5.246,22.386,17.798,22.386,17.798
								l-4.354,16.789l-50.699-27.41L413.451,342.52z"/>
							<g>
								<g>
									<path style="opacity:0.2;fill:#646466;" d="M452.864,362.687c-0.19,1.582-7.531-0.092-16.397-3.739
										c-8.866-3.647-15.9-7.885-15.711-9.467c0.189-1.582,7.531,0.092,16.397,3.739
										C446.02,356.867,453.054,361.105,452.864,362.687z"/>
									<g>
										<g>
											<polygon style="fill:#EFB5A8;" points="426.053,345.465 424.885,345.581 424.694,346.689 425.557,347.325 
												426.524,347.465 427.59,347.331 											"/>
											<path style="fill:#B2293A;" d="M436.407,339.062c-0.109-0.054-3.677,5.034-4.158,4.845
												c-0.481-0.189-6.308,1.513-6.308,1.513s0.891,2.118,1.044,2.197c0.231,0.12,6.02,0.608,6.257,0.38
												c0.237-0.228,6.169-2.075,6.169-2.075L436.407,339.062z"/>
											<g>
												<path style="fill:#2A3F83;" d="M425.1,345.323l-1.371,0.594c0,0,0.134,1.26,0.434,1.722s0.621,1.504,0.75,2.609
													c0.09,0.771,2.11,1.833,2.276,1.44c0.241-0.569-0.515-1.368-0.515-1.368s-0.401-2.446-0.468-2.628
													c-0.068-0.182,0.544-0.02,0.437-0.193c-0.108-0.174-1.129-0.818-1.14-1.072
													C425.491,346.173,425.404,345.191,425.1,345.323z"/>
												<path style="fill:#F5F5FF;" d="M424.23,346.099c0.119,0.155,0.21,0.358,0.223,0.561
													c0.012,0.194-0.047,0.366-0.087,0.542c-0.041,0.176-0.062,0.382,0.017,0.562c0.063,0.145,0.181,0.248,0.238,0.396
													c0.045,0.116,0.046,0.244,0.053,0.366c0.034,0.6,0.388,1.572,0.388,1.572c0.407,0.264,0.9,1.032,1.355,1.212
													c0.143,0.057,0.294,0.094,0.427,0.047c0.177-0.063,0.091-0.303,0.284-0.255c0.042,0.01,0.085,0.035,0.114,0.08
													c0.039,0.063,0.033,0.397,0.021,0.535c-0.005,0.066-0.012,0.135-0.042,0.184c-0.063,0.104-0.194,0.079-0.304,0.042
													c-0.796-0.265-1.353-0.579-2.123-1.023c-0.119-0.069-0.246-0.145-0.325-0.285c-0.131-0.233-0.075-0.523-0.037-0.776
													c0.075-0.508,0.019-1.129-0.297-1.539c-0.099-0.128-0.221-0.232-0.293-0.386c-0.063-0.133-0.079-0.285-0.104-0.432
													c-0.054-0.317-0.216-1.047-0.247-1.364c-0.025-0.262,0.154-0.237,0.326-0.373
													C423.964,345.648,424.116,345.95,424.23,346.099z"/>
												<path style="fill:#F5F5FF;" d="M426.2,347.607c0,0-0.866,0.049-0.886,0.227c-0.02,0.178,0.148,0.702,0.262,0.796
													c0.114,0.094,0.712-0.047,0.812-0.003C426.488,348.671,426.342,347.657,426.2,347.607z"/>
											</g>
											<g>
												<path style="fill:#FFFFFF;" d="M436.253,342.379c-0.528,0.55-1.057,1.1-1.585,1.65
													c-0.266,0.277-0.533,0.555-0.799,0.832c-0.245,0.255-0.484,0.524-0.744,0.754c-0.253,0.223-0.531,0.374-0.847,0.439
													c-0.319,0.065-0.651,0.065-0.98,0.075c-0.726,0.022-1.452,0.04-2.178,0.054c-0.815,0.016-1.631,0.027-2.447,0.033
													c-0.119,0.001-0.11,0.249,0.011,0.249c1.476-0.012,2.95-0.039,4.421-0.081c0.654-0.019,1.349,0.022,1.906-0.367
													c0.275-0.193,0.514-0.454,0.755-0.705c0.266-0.277,0.533-0.555,0.799-0.832c0.609-0.635,1.219-1.269,1.829-1.904
													C436.482,342.484,436.341,342.288,436.253,342.379L436.253,342.379z"/>
											</g>
										</g>
										<g>
											<polygon style="fill:#EFB5A8;" points="431.803,350.717 430.991,351.982 432.565,353.388 433.612,352.341 											"/>
											<g>
												<path style="fill:#2A3F83;" d="M431.04,351.416c0,0-0.849,1.281-0.813,1.469s0.168,0.628,0.168,0.628
													s-0.028,0.53,0.089,0.724c0.117,0.194,1.331,1.497,2.953,1.654c0,0,0.311-0.189-0.323-1.567
													c-0.634-1.378-0.535-1.635-0.535-1.635s-0.179-0.701-0.928-0.544c0,0-0.224-0.09-0.345-0.29
													C431.153,351.602,431.329,351.405,431.04,351.416z"/>
												<path style="fill:#F5F5FF;" d="M433.231,356.197c0.215,0.031,0.381-0.178,0.359-0.461
													c-0.008-0.103-0.021-0.194-0.042-0.239c-0.065-0.144-0.477-0.134-0.574-0.284c-0.097-0.15-0.402-0.828-0.895-0.188
													c-0.106,0.138-1.197-0.49-1.351-0.941c-0.154-0.45-0.378-0.722-0.305-0.917c0.019-0.051,0.126-0.953-0.002-0.812
													c-0.049,0.054-0.114,0.171-0.175,0.294c-0.12,0.241-0.118,0.571,0.002,0.863l0.014,0.035c0,0-0.087,0.501-0.063,0.683
													C430.221,354.404,430.898,355.859,433.231,356.197z"/>
												<path style="fill:#F5F5FF;" d="M432.592,352.906c0,0-0.592-0.763-1.37-0.315c0,0-0.161,0.176,0.135,0.596
													c0,0,0.964,0.01,1.475,0.479C432.832,353.665,432.949,353.255,432.592,352.906z"/>
											</g>
										</g>
										<path style="fill:#FDC9BB;" d="M449.119,339.361c0,0-3.217-10.793-3.272-11.131c0,0,1.006-2.276,0.959-2.526
											c-0.048-0.25-0.507,0.57-0.507,0.57s0.638-1.722,0.522-1.837c-0.116-0.114-0.831,1.259-0.831,1.259
											s0.595-1.999,0.365-2.112s-0.787,1.535-0.787,1.535s0.126-1.778-0.049-1.949c-0.175-0.171-1.02,2.355-1.02,2.355
											s-0.507-1.27-0.629-1.217c-0.123,0.053-0.215,1.507-0.084,1.798c0.131,0.291,0.491,1.489,0.491,1.489l1.674,11.841
											L449.119,339.361z"/>
										<path style="fill:#FDC9BB;" d="M450.309,360.437c0,0,0.067-11.215-0.292-11.713c-0.359-0.497-2.625,1.647-2.625,1.647
											s0.982,9.244,1.578,10.334c0,0,0.523,0.883,0.88,1.412c0.325,0.483,0.563,0.827,0.687,0.725
											c0.081-0.066-0.054-0.571-0.303-0.918c-0.044-0.062-0.099-0.16-0.145-0.248c0.964,0.546,2.152,0.889,2.225,0.923
											C453.462,363.14,452.876,361.728,450.309,360.437z"/>
										<path style="fill:#494949;" d="M440.055,347.73c0,0-0.937-1.224,6.304,0.102c0,0,0.27,3.24,0.501,3.502
											c0.231,0.262,3.834,0.911,4.051,0.575c0.216-0.337-0.129-6.571-0.129-6.571s-1.836-8.353-2.218-8.887
											c-0.382-0.534-2.915-1.196-3.442,0.022l0.512,2.755c0,0-4.075-0.475-4.907-0.69c-0.832-0.215-1.169,3.563-1.169,3.563
											L440.055,347.73z"/>
										<path style="fill:#E64C56;" d="M440.727,338.537c0,0-2.761-1.859-4.43-0.664c-1.669,1.195,0.154,6.88,0.154,6.88
											s-4.531,5.634-4.866,5.968c-0.334,0.334,1.09,1.926,1.563,2.16s7.492-3.787,8.054-6.122
											c0.201-0.833,0.253-2.034,0.218-3.264C441.357,341.276,441.009,338.962,440.727,338.537z"/>
										<g>
											<path style="fill:#EFB5A8;" d="M450,341.781l-1.278-0.009c0,0-0.511,0.223-0.179,1.439
												c0.331,1.216,1.38,1.954,3.234,1.641C453.629,344.541,450,341.781,450,341.781z"/>
											<path style="fill:#FDC9BB;" d="M454.457,340.804c0,0-3.091-2.207-4.534-0.096c-1.443,2.112,1.433,4.983,3.15,4.861
												c1.717-0.122,2.136-3.67,2.136-3.67L454.457,340.804z"/>
										</g>
										<g>
											<g>
												<path style="fill:#383838;" d="M446.377,338.971c-1.231,1.313-2.29,2.885-3.139,4.658
													c-0.239,0.499-0.46,1.014-0.665,1.543c-0.051,0.133,0.117,0.284,0.169,0.151c0.72-1.862,1.656-3.545,2.777-4.986
													c0.319-0.41,0.652-0.799,0.999-1.169C446.604,339.075,446.464,338.879,446.377,338.971L446.377,338.971z"/>
											</g>
										</g>
										<g>
											<g>
												<path style="fill:#383838;" d="M444.119,340.118c-0.154,0.214-0.34,0.386-0.502,0.59c-0.159,0.2-0.308,0.414-0.447,0.64
													c-0.282,0.458-0.519,0.963-0.709,1.507c-0.047,0.135,0.122,0.287,0.169,0.151c0.186-0.534,0.417-1.034,0.695-1.484
													c0.137-0.223,0.286-0.433,0.443-0.631c0.159-0.199,0.34-0.368,0.49-0.576
													C444.337,340.208,444.197,340.011,444.119,340.118L444.119,340.118z"/>
											</g>
										</g>
										<g>
											<path style="fill:#383838;" d="M445.937,338.78c0.551-0.666,1.382-0.922,2.201-0.659c0.12,0.039,0.162-0.193,0.04-0.232
												c-0.888-0.285-1.781-0.031-2.382,0.694C445.713,338.683,445.854,338.879,445.937,338.78L445.937,338.78z"/>
										</g>
										<g>
											<g>
												<path style="fill:#383838;" d="M445.852,336.894c0.632,0.018,1.273,0.143,1.908,0.377
													c0.121,0.044,0.162-0.187,0.04-0.232c-0.652-0.24-1.309-0.374-1.959-0.393
													C445.721,336.642,445.73,336.891,445.852,336.894L445.852,336.894z"/>
											</g>
										</g>
										<g>
											<g>
												<path style="fill:#383838;" d="M445.183,346.847c0.363,0.137,0.773,0.289,1.037,0.712
													c0.122,0.197,0.173,0.431,0.22,0.66c0.054,0.268,0.102,0.537,0.145,0.806c0.025,0.161,0.206,0.122,0.181-0.038
													c-0.046-0.289-0.097-0.578-0.157-0.866c-0.053-0.255-0.124-0.5-0.26-0.717c-0.289-0.46-0.728-0.641-1.126-0.79
													C445.103,346.569,445.061,346.801,445.183,346.847L445.183,346.847z"/>
											</g>
										</g>
										<g>
											<path style="fill:#383838;" d="M450.335,347.129c-0.122,1.451-0.88,2.634-1.939,2.989
												c-0.112,0.038-0.054,0.285,0.059,0.247c1.118-0.375,1.936-1.605,2.066-3.144
												C450.534,347.067,450.348,346.974,450.335,347.129L450.335,347.129z"/>
										</g>
										<g>
											<g>
												<path style="fill:#383838;" d="M449.104,348.519c-0.338,0.314-0.765,0.48-1.211,0.474
													c-0.051-0.001-0.093,0.039-0.09,0.111c0.003,0.062,0.049,0.137,0.101,0.138c0.499,0.007,0.962-0.175,1.34-0.526
													c0.039-0.036,0.029-0.126-0.006-0.175C449.197,348.482,449.143,348.483,449.104,348.519L449.104,348.519z"/>
											</g>
										</g>
										<g>
											<g>
												<g>
													<g>
														<path style="fill:#B2293A;" d="M436.069,344.166c0.413,0.815,1.122,1.117,1.77,1.341
															c0.121,0.042,0.162-0.19,0.04-0.232c-0.588-0.203-1.272-0.461-1.65-1.207
															C436.157,343.924,435.997,344.022,436.069,344.166L436.069,344.166z"/>
													</g>
												</g>
												<g>
													<g>
														<path style="fill:#B2293A;" d="M436.159,344.803c0.411,0.528,0.845,1.195,1.4,1.402
															c0.121,0.045,0.162-0.187,0.04-0.232c-0.259-0.097-0.489-0.306-0.697-0.548c-0.212-0.247-0.411-0.515-0.614-0.775
															C436.193,344.528,436.064,344.682,436.159,344.803L436.159,344.803z"/>
													</g>
												</g>
											</g>
										</g>
										<g>
											<path style="fill:#FFFFFF;" d="M440.371,339.195c-0.437-0.052-0.876-0.214-1.314-0.254
												c-0.445-0.041-0.975-0.011-1.211,0.488c-0.313,0.663-0.197,1.511,0.002,2.306c0.1,0.4,0.219,0.796,0.307,1.199
												c0.095,0.436,0.132,0.878,0.21,1.317c0.082,0.459,0.177,0.957,0.067,1.381c-0.027,0.105-0.068,0.202-0.119,0.287
												c0.012-0.02-0.005,0.008-0.009,0.014c-0.007,0.01-0.014,0.021-0.021,0.031c-0.018,0.027-0.037,0.053-0.056,0.079
												c-0.217,0.294-0.464,0.552-0.708,0.808c-0.762,0.798-1.56,1.542-2.363,2.274c-0.787,0.718-1.582,1.425-2.397,2.096
												c-0.075,0.061-0.149,0.122-0.224,0.183c-0.096,0.077,0.007,0.307,0.103,0.229c0.779-0.627,1.536-1.297,2.287-1.974
												c0.828-0.747,1.649-1.508,2.443-2.311c0.287-0.291,0.573-0.585,0.84-0.906c0.084-0.1,0.167-0.203,0.24-0.317
												c0.134-0.208,0.207-0.47,0.221-0.761c0.023-0.459-0.087-0.939-0.167-1.403c-0.072-0.419-0.107-0.83-0.208-1.247
												c-0.186-0.776-0.482-1.58-0.455-2.368c0.012-0.339,0.094-0.725,0.285-0.932c0.157-0.171,0.384-0.218,0.597-0.233
												c0.465-0.031,0.948,0.112,1.421,0.218c0.08,0.018,0.16,0.035,0.239,0.044
												C440.504,339.458,440.493,339.21,440.371,339.195L440.371,339.195z"/>
										</g>
										<g>
											<g>
												<path style="fill:#B2293A;" d="M439.98,340.497c0.196,0.461,0.361,0.937,0.531,1.411c0.155,0.432,0.303,0.86,0.41,1.309
													c0.204,0.853,0.297,1.734,0.253,2.575c-0.024,0.459-0.095,0.905-0.213,1.319c-0.04,0.141,0.146,0.232,0.186,0.092
													c0.44-1.54,0.223-3.48-0.38-5.127c-0.205-0.561-0.395-1.13-0.628-1.677C440.077,340.248,439.917,340.347,439.98,340.497
													L439.98,340.497z"/>
											</g>
											<g>
												<g>
													<path style="fill:#B2293A;" d="M439.883,339.905c0.308,0.298,0.534,0.734,0.63,1.199
														c0.033,0.16,0.214,0.122,0.181-0.038c-0.108-0.529-0.373-1.022-0.722-1.361c-0.044-0.043-0.106-0.028-0.129,0.025
														C439.818,339.786,439.838,339.862,439.883,339.905L439.883,339.905z"/>
												</g>
											</g>
											<g>
												<path style="fill:#B2293A;" d="M440.492,339.916c0.044,0.064,0.061,0.151,0.081,0.228
													c0.026,0.098,0.05,0.196,0.073,0.295c0.046,0.2,0.086,0.402,0.12,0.603c0.011,0.067,0.075,0.114,0.12,0.105
													c0.053-0.011,0.072-0.075,0.061-0.143c-0.036-0.215-0.079-0.429-0.129-0.642c-0.025-0.105-0.051-0.209-0.079-0.313
													c-0.028-0.103-0.06-0.202-0.118-0.288C440.533,339.632,440.404,339.786,440.492,339.916L440.492,339.916z"/>
											</g>
										</g>
										<g>
											<g>
												<g>
													<path style="fill:#B28B83;" d="M453.147,341.585c-0.237-0.166-0.474-0.333-0.71-0.499
														c-0.113-0.079-0.225-0.158-0.341-0.231c-0.106-0.066-0.219-0.139-0.341-0.171c-0.106-0.028-0.224-0.02-0.308,0.059
														c-0.079,0.075-0.107,0.186-0.112,0.292c-0.012,0.258,0.129,0.481,0.22,0.713c0.05,0.129,0.26,0.073,0.209-0.058
														c-0.075-0.191-0.2-0.383-0.212-0.593c-0.003-0.059-0.007-0.177,0.061-0.207c0.077-0.034,0.195,0.047,0.258,0.083
														c0.196,0.111,0.378,0.245,0.562,0.374c0.202,0.142,0.403,0.283,0.605,0.425
														C453.152,341.853,453.26,341.665,453.147,341.585L453.147,341.585z"/>
												</g>
											</g>
											<path style="fill:#2A3F83;" d="M452.988,343.045c-0.163,0.01-0.309-0.071-0.326-0.181c-0.017-0.11,0.1-0.206,0.263-0.216
												c0.163-0.01,0.309,0.071,0.326,0.181C453.269,342.938,453.151,343.035,452.988,343.045z"/>
											<path style="fill:#2A3F83;" d="M452.576,340.743c-0.163,0.01-0.309-0.071-0.326-0.181s0.1-0.206,0.263-0.216
												c0.163-0.01,0.309,0.071,0.326,0.181C452.856,340.637,452.738,340.733,452.576,340.743z"/>
											<path style="fill:#FFFFFF;" d="M450.634,341.098c0.248-0.044,0.162,0.451,0.361,1.006
												c0.199,0.556,0.609,0.963,0.361,1.006c-0.248,0.044-0.611-0.371-0.81-0.927
												C450.347,341.627,450.386,341.141,450.634,341.098z"/>
											<path style="fill:#C89B55;" d="M453.488,342.577c0,0,0.002,0.813-0.159,0.918c0,0,0.206,0.284,0.344-0.582
												C453.768,342.316,453.488,342.577,453.488,342.577z"/>
											<path style="fill:#C89B55;" d="M453.281,340.951c0,0-0.119-0.824-0.297-0.96c0,0,0.167-0.25,0.435,0.653
												C453.603,341.267,453.281,340.951,453.281,340.951z"/>
										</g>
									</g>
								</g>
								<path style="fill:#FBDB5B;" d="M453.535,341.34c0.229-0.044,0.459-0.087,0.688-0.131c-0.151,0.474-0.221,0.974-0.206,1.471
									c0.145-0.008,0.289-0.016,0.434-0.024c-0.13,0.36-0.277,0.714-0.441,1.061c-0.09,0.189-0.186,0.377-0.328,0.53
									c-0.498,0.538-1.352,0.468-2.077,0.357c0.15,0.07,0.282,0.179,0.38,0.313c-0.247,0.015-0.495,0.031-0.742,0.046
									c0.719,0.625,1.775,0.834,2.678,0.531c0.121-0.041,0.24-0.09,0.365-0.114c0.258-0.05,0.526,0.009,0.787-0.021
									c0.633-0.073,1.1-0.656,1.293-1.263c0.193-0.607,0.184-1.258,0.284-1.888c0.1-0.629,0.345-1.288,0.883-1.63
									c-0.525-0.053-1.071,0.172-1.406,0.58c-0.074-0.587-0.004-1.192,0.202-1.746c-0.63,0.111-1.224,0.423-1.674,0.878
									c-0.06,0.061-0.119-0.132-0.267-0.2c-0.245-0.114-0.361-0.07-0.572,0.058C453.602,340.275,453.527,341.129,453.535,341.34z"
									/>
							</g>
						</g>
					</g>
					<polygon style="fill:#494949;" points="354.655,362.692 354.655,368.823 403.391,409.161 462.132,387.673 462.132,383.687 
											"/>
					<polygon style="fill:#383838;" points="354.655,362.692 408.354,354.585 462.132,383.687 404.171,402.381 					"/>
				</g>
				<g>
					<polygon style="fill:#494949;" points="405.769,358.231 450.277,383.924 442.144,385.735 399.7,359.055 					"/>
					<polygon style="fill:#494949;" points="395.747,359.549 438.733,387.244 429.84,388.865 388.169,361.031 					"/>
					<polygon style="fill:#494949;" points="384.219,361.525 427.534,391.17 420.123,393.147 377.466,362.678 					"/>
					<polygon style="fill:#494949;" points="373.706,364.009 417.323,394.464 409.06,396.111 366.431,364.009 					"/>
				</g>
			</g>
		</g>
		<g style="clip-path:url(#SVGID_00000155832670729123875680000011489288812187378597_);">
			
				<line style="fill:none;stroke:#383838;stroke-width:3;stroke-miterlimit:10;" x1="252.159" y1="-9.427" x2="252.159" y2="47.279"/>
			
				<ellipse transform="matrix(0.9736 -0.2284 0.2284 0.9736 -12.4641 60.0988)" style="fill:#FBDB5B;" cx="253.456" cy="83.907" rx="14.14" ry="14.14"/>
			<path style="fill:#E64C56;" d="M301.708,88.821h-96.504c0-26.649,21.603-48.252,48.252-48.252
				C280.105,40.569,301.708,62.172,301.708,88.821z"/>
			<path style="fill:#B2293A;" d="M242.985,34.886v7.484c0,0,8.421,3.528,20.523-0.75v-6.734H242.985z"/>
		</g>
	</g>
	<g style="opacity:0.2;">
		<path style="fill:#9EA4C3;" d="M441.988,486.031c1.161-2.639,1.798-5.481,1.614-8.427c-0.182-2.922-1.05-5.849-2.784-8.234
			c-1.85-2.546-4.399-4.214-7.279-5.395c-4.904-2.011-10.835-2.124-15.141-5.467c-2.052-1.594-2.897-3.76-3.006-6.312
			c-0.131-3.058,0.132-6.053-0.523-9.076c-0.578-2.666-1.84-5.392-3.945-7.193c-2.209-1.89-4.9-2.56-7.687-3.095
			c-2.068-0.397-4.626-0.829-5.825-2.543c-1.1-1.572-1.218-3.572-1.289-5.564c-0.169-4.757,0.232-10.203-3.491-13.823
			c-2.105-2.047-4.937-2.878-7.666-3.728c-2.461-0.767-4.58-1.798-6.346-3.724c-1.932-2.106-2.957-4.833-3.051-7.672
			c-0.116-3.515,0.544-7.108-0.518-10.543c-0.024-0.078-0.057-0.148-0.082-0.225h-5.484c0.369,0.59,0.669,1.236,0.861,1.963
			c0.751,2.845,0.126,5.904,0.223,8.805c0.095,2.848,0.791,5.598,2.211,8.08c1.348,2.356,3.28,4.372,5.552,5.85
			c2.274,1.48,4.909,2.105,7.447,2.961c1.962,0.662,3.75,1.709,4.479,3.461c0.833,2.004,0.781,4.129,0.818,6.317
			c0.081,4.803,0.294,10.021,4.633,13.034c2.146,1.491,4.762,1.875,7.262,2.377c2.178,0.437,4.297,0.985,5.619,2.914
			c3.281,4.784,0.684,10.991,2.631,16.161c1.987,5.278,7.242,7.902,12.37,9.341c5.2,1.459,11.963,2.23,14.245,7.961
			c1.618,4.063,0.633,8.221-1.476,11.796H441.988z"/>
		<path style="fill:#9E9BD0;" d="M415.366,486.031c1.161-2.639,1.798-5.481,1.614-8.427c-0.182-2.922-1.051-5.849-2.784-8.234
			c-1.85-2.546-4.399-4.214-7.279-5.395c-4.904-2.011-10.835-2.124-15.141-5.467c-2.052-1.594-2.897-3.76-3.006-6.312
			c-0.131-3.058,0.132-6.053-0.523-9.076c-0.578-2.666-1.84-5.392-3.945-7.193c-2.209-1.89-4.9-2.56-7.687-3.095
			c-2.068-0.397-4.626-0.829-5.825-2.543c-1.1-1.572-1.218-3.572-1.289-5.564c-0.169-4.757,0.233-10.203-3.491-13.823
			c-2.105-2.047-4.937-2.878-7.666-3.728c-2.461-0.767-4.58-1.798-6.346-3.724c-1.932-2.106-2.957-4.833-3.051-7.672
			c-0.116-3.515,0.544-7.108-0.518-10.543c-0.024-0.078-0.057-0.148-0.082-0.225h-5.484c0.369,0.59,0.669,1.236,0.861,1.963
			c0.751,2.845,0.126,5.904,0.223,8.805c0.095,2.848,0.791,5.598,2.211,8.08c1.348,2.356,3.28,4.372,5.552,5.85
			c2.274,1.48,4.909,2.105,7.447,2.961c1.962,0.662,3.75,1.709,4.479,3.461c0.833,2.004,0.781,4.129,0.818,6.317
			c0.081,4.803,0.294,10.021,4.633,13.034c2.147,1.491,4.762,1.875,7.262,2.377c2.178,0.437,4.297,0.985,5.619,2.914
			c3.281,4.784,0.684,10.991,2.631,16.161c1.987,5.278,7.242,7.902,12.37,9.341c5.2,1.459,11.963,2.23,14.245,7.961
			c1.618,4.063,0.633,8.221-1.476,11.796H415.366z"/>
		<path style="fill:#9EA4C3;" d="M388.744,486.031c1.161-2.639,1.798-5.481,1.614-8.427c-0.182-2.922-1.051-5.849-2.784-8.234
			c-1.85-2.546-4.399-4.214-7.279-5.395c-4.904-2.011-10.835-2.124-15.141-5.467c-2.052-1.594-2.897-3.76-3.006-6.312
			c-0.131-3.058,0.132-6.053-0.523-9.076c-0.578-2.666-1.84-5.392-3.945-7.193c-2.209-1.89-4.9-2.56-7.687-3.095
			c-2.068-0.397-4.626-0.829-5.825-2.543c-1.1-1.572-1.218-3.572-1.289-5.564c-0.17-4.757,0.233-10.203-3.491-13.823
			c-2.105-2.047-4.937-2.878-7.666-3.728c-2.461-0.767-4.58-1.798-6.346-3.724c-1.932-2.106-2.957-4.833-3.051-7.672
			c-0.116-3.515,0.544-7.108-0.518-10.543c-0.024-0.078-0.057-0.148-0.082-0.225h-5.484c0.369,0.59,0.669,1.236,0.861,1.963
			c0.751,2.845,0.126,5.904,0.223,8.805c0.096,2.848,0.791,5.598,2.211,8.08c1.348,2.356,3.28,4.372,5.552,5.85
			c2.274,1.48,4.909,2.105,7.447,2.961c1.962,0.662,3.75,1.709,4.479,3.461c0.833,2.004,0.781,4.129,0.818,6.317
			c0.081,4.803,0.294,10.021,4.633,13.034c2.146,1.491,4.762,1.875,7.262,2.377c2.178,0.437,4.296,0.985,5.619,2.914
			c3.281,4.784,0.684,10.991,2.631,16.161c1.987,5.278,7.242,7.902,12.37,9.341c5.2,1.459,11.963,2.23,14.245,7.961
			c1.618,4.063,0.633,8.221-1.476,11.796H388.744z"/>
		<path style="fill:#9E9BD0;" d="M362.122,486.031c1.161-2.639,1.798-5.481,1.614-8.427c-0.182-2.922-1.051-5.849-2.784-8.234
			c-1.85-2.546-4.4-4.214-7.279-5.395c-4.904-2.011-10.835-2.124-15.141-5.467c-2.052-1.594-2.897-3.76-3.006-6.312
			c-0.131-3.058,0.132-6.053-0.523-9.076c-0.578-2.666-1.84-5.392-3.945-7.193c-2.209-1.89-4.9-2.56-7.687-3.095
			c-2.068-0.397-4.626-0.829-5.825-2.543c-1.1-1.572-1.218-3.572-1.289-5.564c-0.169-4.757,0.233-10.203-3.491-13.823
			c-2.105-2.047-4.936-2.878-7.666-3.728c-2.461-0.767-4.58-1.798-6.346-3.724c-1.932-2.106-2.957-4.833-3.051-7.672
			c-0.116-3.515,0.544-7.108-0.518-10.543c-0.024-0.078-0.057-0.148-0.082-0.225h-5.484c0.369,0.59,0.669,1.236,0.861,1.963
			c0.751,2.845,0.126,5.904,0.223,8.805c0.095,2.848,0.791,5.598,2.211,8.08c1.348,2.356,3.28,4.372,5.552,5.85
			c2.274,1.48,4.909,2.105,7.447,2.961c1.962,0.662,3.75,1.709,4.478,3.461c0.833,2.004,0.781,4.129,0.818,6.317
			c0.081,4.803,0.294,10.021,4.633,13.034c2.146,1.491,4.762,1.875,7.262,2.377c2.178,0.437,4.297,0.985,5.619,2.914
			c3.281,4.784,0.684,10.991,2.631,16.161c1.987,5.278,7.242,7.902,12.37,9.341c5.2,1.459,11.963,2.23,14.246,7.961
			c1.618,4.063,0.633,8.221-1.476,11.796H362.122z"/>
		<path style="fill:#9EA4C3;" d="M335.5,486.031c1.161-2.639,1.798-5.481,1.614-8.427c-0.182-2.922-1.05-5.849-2.784-8.234
			c-1.85-2.546-4.399-4.214-7.279-5.395c-4.904-2.011-10.835-2.124-15.141-5.467c-2.052-1.594-2.897-3.76-3.006-6.312
			c-0.131-3.058,0.132-6.053-0.523-9.076c-0.578-2.666-1.84-5.392-3.945-7.193c-2.209-1.89-4.9-2.56-7.687-3.095
			c-2.068-0.397-4.626-0.829-5.825-2.543c-1.1-1.572-1.218-3.572-1.289-5.564c-0.169-4.757,0.232-10.203-3.491-13.823
			c-2.105-2.047-4.936-2.878-7.666-3.728c-2.461-0.767-4.58-1.798-6.346-3.724c-1.932-2.106-2.957-4.833-3.051-7.672
			c-0.116-3.515,0.544-7.108-0.518-10.543c-0.024-0.078-0.057-0.148-0.082-0.225h-5.484c0.369,0.59,0.669,1.236,0.861,1.963
			c0.751,2.845,0.126,5.904,0.223,8.805c0.095,2.848,0.791,5.598,2.211,8.08c1.348,2.356,3.28,4.372,5.552,5.85
			c2.274,1.48,4.909,2.105,7.447,2.961c1.962,0.662,3.75,1.709,4.479,3.461c0.833,2.004,0.781,4.129,0.818,6.317
			c0.081,4.803,0.294,10.021,4.633,13.034c2.146,1.491,4.762,1.875,7.262,2.377c2.178,0.437,4.297,0.985,5.619,2.914
			c3.281,4.784,0.684,10.991,2.631,16.161c1.987,5.278,7.242,7.902,12.37,9.341c5.2,1.459,11.963,2.23,14.245,7.961
			c1.618,4.063,0.633,8.221-1.476,11.796H335.5z"/>
		<path style="fill:#9E9BD0;" d="M308.878,486.031c1.161-2.639,1.798-5.481,1.614-8.427c-0.182-2.922-1.05-5.849-2.784-8.234
			c-1.85-2.546-4.399-4.214-7.279-5.395c-4.904-2.011-10.835-2.124-15.141-5.467c-2.052-1.594-2.897-3.76-3.006-6.312
			c-0.131-3.058,0.132-6.053-0.523-9.076c-0.578-2.666-1.84-5.392-3.945-7.193c-2.209-1.89-4.9-2.56-7.687-3.095
			c-2.068-0.397-4.626-0.829-5.825-2.543c-1.1-1.572-1.218-3.572-1.289-5.564c-0.169-4.757,0.233-10.203-3.491-13.823
			c-2.105-2.047-4.937-2.878-7.666-3.728c-2.461-0.767-4.58-1.798-6.346-3.724c-1.932-2.106-2.957-4.833-3.051-7.672
			c-0.116-3.515,0.544-7.108-0.518-10.543c-0.024-0.078-0.057-0.148-0.082-0.225h-5.484c0.369,0.59,0.669,1.236,0.861,1.963
			c0.751,2.845,0.126,5.904,0.223,8.805c0.095,2.848,0.791,5.598,2.211,8.08c1.348,2.356,3.28,4.372,5.552,5.85
			c2.274,1.48,4.909,2.105,7.447,2.961c1.962,0.662,3.75,1.709,4.479,3.461c0.833,2.004,0.781,4.129,0.818,6.317
			c0.081,4.803,0.294,10.021,4.633,13.034c2.146,1.491,4.762,1.875,7.262,2.377c2.178,0.437,4.297,0.985,5.619,2.914
			c3.281,4.784,0.684,10.991,2.631,16.161c1.987,5.278,7.242,7.902,12.37,9.341c5.2,1.459,11.963,2.23,14.246,7.961
			c1.618,4.063,0.633,8.221-1.476,11.796H308.878z"/>
		<path style="fill:#9EA4C3;" d="M282.256,486.031c1.161-2.639,1.798-5.481,1.614-8.427c-0.182-2.922-1.05-5.849-2.783-8.234
			c-1.85-2.546-4.399-4.214-7.279-5.395c-4.904-2.011-10.835-2.124-15.141-5.467c-2.052-1.594-2.897-3.76-3.006-6.312
			c-0.131-3.058,0.132-6.053-0.522-9.076c-0.578-2.666-1.84-5.392-3.945-7.193c-2.209-1.89-4.9-2.56-7.687-3.095
			c-2.068-0.397-4.626-0.829-5.825-2.543c-1.1-1.572-1.218-3.572-1.289-5.564c-0.169-4.757,0.232-10.203-3.491-13.823
			c-2.105-2.047-4.937-2.878-7.666-3.728c-2.461-0.767-4.58-1.798-6.346-3.724c-1.932-2.106-2.957-4.833-3.051-7.672
			c-0.116-3.515,0.544-7.108-0.518-10.543c-0.024-0.078-0.057-0.148-0.082-0.225h-5.484c0.369,0.59,0.669,1.236,0.861,1.963
			c0.751,2.845,0.126,5.904,0.223,8.805c0.095,2.848,0.791,5.598,2.211,8.08c1.348,2.356,3.28,4.372,5.552,5.85
			c2.274,1.48,4.909,2.105,7.447,2.961c1.962,0.662,3.75,1.709,4.479,3.461c0.833,2.004,0.781,4.129,0.818,6.317
			c0.081,4.803,0.294,10.021,4.633,13.034c2.146,1.491,4.762,1.875,7.262,2.377c2.178,0.437,4.296,0.985,5.619,2.914
			c3.281,4.784,0.684,10.991,2.631,16.161c1.987,5.278,7.242,7.902,12.37,9.341c5.2,1.459,11.963,2.23,14.245,7.961
			c1.618,4.063,0.633,8.221-1.476,11.796H282.256z"/>
		<path style="fill:#9E9BD0;" d="M255.634,486.031c1.161-2.639,1.798-5.481,1.614-8.427c-0.182-2.922-1.051-5.849-2.784-8.234
			c-1.85-2.546-4.399-4.214-7.279-5.395c-4.904-2.011-10.835-2.124-15.141-5.467c-2.052-1.594-2.897-3.76-3.006-6.312
			c-0.131-3.058,0.132-6.053-0.523-9.076c-0.578-2.666-1.84-5.392-3.945-7.193c-2.209-1.89-4.9-2.56-7.687-3.095
			c-2.068-0.397-4.626-0.829-5.825-2.543c-1.1-1.572-1.218-3.572-1.289-5.564c-0.17-4.757,0.233-10.203-3.491-13.823
			c-2.105-2.047-4.937-2.878-7.666-3.728c-2.461-0.767-4.58-1.798-6.346-3.724c-1.932-2.106-2.957-4.833-3.051-7.672
			c-0.116-3.515,0.544-7.108-0.518-10.543c-0.024-0.078-0.057-0.148-0.082-0.225h-5.484c0.369,0.59,0.669,1.236,0.861,1.963
			c0.751,2.845,0.126,5.904,0.223,8.805c0.096,2.848,0.791,5.598,2.211,8.08c1.348,2.356,3.28,4.372,5.552,5.85
			c2.274,1.48,4.909,2.105,7.447,2.961c1.962,0.662,3.75,1.709,4.479,3.461c0.833,2.004,0.781,4.129,0.818,6.317
			c0.08,4.803,0.294,10.021,4.633,13.034c2.146,1.491,4.762,1.875,7.262,2.377c2.178,0.437,4.297,0.985,5.619,2.914
			c3.281,4.784,0.684,10.991,2.631,16.161c1.987,5.278,7.242,7.902,12.37,9.341c5.2,1.459,11.963,2.23,14.245,7.961
			c1.618,4.063,0.633,8.221-1.476,11.796H255.634z"/>
		<path style="fill:#9EA4C3;" d="M229.013,486.031c1.161-2.639,1.798-5.481,1.614-8.427c-0.182-2.922-1.05-5.849-2.783-8.234
			c-1.85-2.546-4.399-4.214-7.279-5.395c-4.904-2.011-10.835-2.124-15.141-5.467c-2.052-1.594-2.897-3.76-3.006-6.312
			c-0.131-3.058,0.132-6.053-0.523-9.076c-0.578-2.666-1.84-5.392-3.945-7.193c-2.209-1.89-4.9-2.56-7.687-3.095
			c-2.068-0.397-4.626-0.829-5.825-2.543c-1.1-1.572-1.218-3.572-1.289-5.564c-0.169-4.757,0.233-10.203-3.491-13.823
			c-2.105-2.047-4.937-2.878-7.666-3.728c-2.461-0.767-4.58-1.798-6.346-3.724c-1.932-2.106-2.957-4.833-3.051-7.672
			c-0.116-3.515,0.544-7.108-0.518-10.543c-0.024-0.078-0.057-0.148-0.082-0.225h-5.484c0.369,0.59,0.669,1.236,0.861,1.963
			c0.751,2.845,0.126,5.904,0.223,8.805c0.095,2.848,0.791,5.598,2.211,8.08c1.348,2.356,3.28,4.372,5.552,5.85
			c2.274,1.48,4.909,2.105,7.447,2.961c1.962,0.662,3.75,1.709,4.479,3.461c0.833,2.004,0.781,4.129,0.818,6.317
			c0.081,4.803,0.294,10.021,4.633,13.034c2.146,1.491,4.762,1.875,7.262,2.377c2.178,0.437,4.297,0.985,5.619,2.914
			c3.281,4.784,0.684,10.991,2.631,16.161c1.987,5.278,7.242,7.902,12.37,9.341c5.2,1.459,11.963,2.23,14.245,7.961
			c1.618,4.063,0.633,8.221-1.476,11.796H229.013z"/>
		<path style="fill:#9E9BD0;" d="M202.391,486.031c1.161-2.639,1.798-5.481,1.614-8.427c-0.182-2.922-1.05-5.849-2.784-8.234
			c-1.85-2.546-4.399-4.214-7.279-5.395c-4.904-2.011-10.835-2.124-15.141-5.467c-2.052-1.594-2.897-3.76-3.006-6.312
			c-0.131-3.058,0.132-6.053-0.523-9.076c-0.578-2.666-1.84-5.392-3.945-7.193c-2.209-1.89-4.9-2.56-7.687-3.095
			c-2.068-0.397-4.626-0.829-5.825-2.543c-1.1-1.572-1.218-3.572-1.289-5.564c-0.169-4.757,0.232-10.203-3.491-13.823
			c-2.105-2.047-4.937-2.878-7.666-3.728c-2.461-0.767-4.58-1.798-6.346-3.724c-1.932-2.106-2.957-4.833-3.051-7.672
			c-0.116-3.515,0.544-7.108-0.518-10.543c-0.024-0.078-0.057-0.148-0.082-0.225h-5.484c0.369,0.59,0.669,1.236,0.861,1.963
			c0.751,2.845,0.126,5.904,0.223,8.805c0.095,2.848,0.791,5.598,2.211,8.08c1.348,2.356,3.28,4.372,5.552,5.85
			c2.274,1.48,4.909,2.105,7.447,2.961c1.962,0.662,3.75,1.709,4.479,3.461c0.833,2.004,0.781,4.129,0.818,6.317
			c0.081,4.803,0.294,10.021,4.633,13.034c2.146,1.491,4.762,1.875,7.262,2.377c2.178,0.437,4.296,0.985,5.619,2.914
			c3.281,4.784,0.684,10.991,2.631,16.161c1.987,5.278,7.242,7.902,12.37,9.341c5.2,1.459,11.963,2.23,14.245,7.961
			c1.618,4.063,0.633,8.221-1.476,11.796H202.391z"/>
		<path style="fill:#9EA4C3;" d="M175.769,486.031c1.161-2.639,1.798-5.481,1.614-8.427c-0.182-2.922-1.05-5.849-2.784-8.234
			c-1.85-2.546-4.399-4.214-7.279-5.395c-4.904-2.011-10.835-2.124-15.141-5.467c-2.052-1.594-2.897-3.76-3.006-6.312
			c-0.131-3.058,0.132-6.053-0.523-9.076c-0.578-2.666-1.84-5.392-3.945-7.193c-2.209-1.89-4.9-2.56-7.687-3.095
			c-2.068-0.397-4.626-0.829-5.825-2.543c-1.1-1.572-1.218-3.572-1.289-5.564c-0.17-4.757,0.233-10.203-3.491-13.823
			c-2.105-2.047-4.936-2.878-7.666-3.728c-2.461-0.767-4.58-1.798-6.346-3.724c-1.932-2.106-2.957-4.833-3.051-7.672
			c-0.116-3.515,0.544-7.108-0.518-10.543c-0.024-0.078-0.057-0.148-0.082-0.225h-5.484c0.369,0.59,0.669,1.236,0.861,1.963
			c0.751,2.845,0.126,5.904,0.223,8.805c0.096,2.848,0.791,5.598,2.211,8.08c1.348,2.356,3.28,4.372,5.552,5.85
			c2.274,1.48,4.909,2.105,7.447,2.961c1.962,0.662,3.75,1.709,4.479,3.461c0.833,2.004,0.781,4.129,0.818,6.317
			c0.081,4.803,0.294,10.021,4.633,13.034c2.146,1.491,4.762,1.875,7.262,2.377c2.178,0.437,4.296,0.985,5.619,2.914
			c3.281,4.784,0.684,10.991,2.631,16.161c1.987,5.278,7.242,7.902,12.37,9.341c5.2,1.459,11.963,2.23,14.245,7.961
			c1.618,4.063,0.633,8.221-1.476,11.796H175.769z"/>
		<path style="fill:#9E9BD0;" d="M149.147,486.031c1.161-2.639,1.798-5.481,1.614-8.427c-0.182-2.922-1.051-5.849-2.784-8.234
			c-1.85-2.546-4.399-4.214-7.279-5.395c-4.904-2.011-10.835-2.124-15.141-5.467c-2.052-1.594-2.897-3.76-3.006-6.312
			c-0.131-3.058,0.132-6.053-0.523-9.076c-0.578-2.666-1.84-5.392-3.945-7.193c-2.209-1.89-4.899-2.56-7.687-3.095
			c-2.068-0.397-4.626-0.829-5.825-2.543c-1.1-1.572-1.218-3.572-1.289-5.564c-0.17-4.757,0.233-10.203-3.491-13.823
			c-2.105-2.047-4.937-2.878-7.666-3.728c-2.461-0.767-4.58-1.798-6.346-3.724c-1.932-2.106-2.957-4.833-3.051-7.672
			c-0.116-3.515,0.544-7.108-0.518-10.543c-0.024-0.078-0.057-0.148-0.082-0.225h-5.484c0.369,0.59,0.669,1.236,0.861,1.963
			c0.751,2.845,0.126,5.904,0.223,8.805c0.095,2.848,0.791,5.598,2.211,8.08c1.348,2.356,3.28,4.372,5.552,5.85
			c2.274,1.48,4.909,2.105,7.447,2.961c1.962,0.662,3.75,1.709,4.479,3.461c0.833,2.004,0.781,4.129,0.817,6.317
			c0.081,4.803,0.295,10.021,4.633,13.034c2.146,1.491,4.762,1.875,7.262,2.377c2.178,0.437,4.297,0.985,5.619,2.914
			c3.281,4.784,0.684,10.991,2.631,16.161c1.987,5.278,7.242,7.902,12.37,9.341c5.2,1.459,11.963,2.23,14.245,7.961
			c1.618,4.063,0.633,8.221-1.476,11.796H149.147z"/>
		<path style="fill:#9EA4C3;" d="M122.525,486.031c1.161-2.639,1.798-5.481,1.614-8.427c-0.183-2.922-1.051-5.849-2.784-8.234
			c-1.85-2.546-4.399-4.214-7.279-5.395c-4.904-2.011-10.835-2.124-15.141-5.467c-2.052-1.594-2.897-3.76-3.006-6.312
			c-0.131-3.058,0.132-6.053-0.523-9.076c-0.578-2.666-1.84-5.392-3.945-7.193c-2.209-1.89-4.899-2.56-7.687-3.095
			c-2.068-0.397-4.626-0.829-5.825-2.543c-1.1-1.572-1.218-3.572-1.289-5.564c-0.169-4.757,0.233-10.203-3.491-13.823
			c-2.105-2.047-4.937-2.878-7.666-3.728c-2.461-0.767-4.579-1.798-6.346-3.724c-1.932-2.106-2.957-4.833-3.051-7.672
			c-0.116-3.515,0.544-7.108-0.518-10.543c-0.024-0.078-0.057-0.148-0.082-0.225h-5.484c0.369,0.59,0.669,1.236,0.861,1.963
			c0.751,2.845,0.126,5.904,0.223,8.805c0.095,2.848,0.791,5.598,2.211,8.08c1.348,2.356,3.28,4.372,5.552,5.85
			c2.274,1.48,4.909,2.105,7.447,2.961c1.962,0.662,3.75,1.709,4.479,3.461c0.833,2.004,0.781,4.129,0.817,6.317
			c0.081,4.803,0.295,10.021,4.633,13.034c2.146,1.491,4.762,1.875,7.262,2.377c2.178,0.437,4.297,0.985,5.619,2.914
			c3.281,4.784,0.684,10.991,2.631,16.161c1.987,5.278,7.242,7.902,12.37,9.341c5.2,1.459,11.963,2.23,14.245,7.961
			c1.618,4.063,0.633,8.221-1.476,11.796H122.525z"/>
		<path style="fill:#9E9BD0;" d="M95.903,486.031c1.161-2.639,1.798-5.481,1.614-8.427c-0.182-2.922-1.05-5.849-2.784-8.234
			c-1.85-2.546-4.399-4.214-7.279-5.395c-4.904-2.011-10.835-2.124-15.141-5.467c-2.052-1.594-2.897-3.76-3.006-6.312
			c-0.131-3.058,0.132-6.053-0.523-9.076c-0.578-2.666-1.84-5.392-3.945-7.193c-2.209-1.89-4.9-2.56-7.687-3.095
			c-2.068-0.397-4.626-0.829-5.825-2.543c-1.1-1.572-1.218-3.572-1.289-5.564c-0.17-4.757,0.233-10.203-3.491-13.823
			c-2.105-2.047-4.937-2.878-7.666-3.728c-2.461-0.767-4.58-1.798-6.346-3.724c-1.932-2.106-2.957-4.833-3.051-7.672
			c-0.116-3.515,0.544-7.108-0.518-10.543c-0.024-0.078-0.057-0.148-0.082-0.225h-5.484c0.369,0.59,0.669,1.236,0.861,1.963
			c0.751,2.845,0.126,5.904,0.223,8.805c0.095,2.848,0.791,5.598,2.211,8.08c1.348,2.356,3.28,4.372,5.552,5.85
			c2.274,1.48,4.909,2.105,7.447,2.961c1.962,0.662,3.75,1.709,4.479,3.461c0.833,2.004,0.781,4.129,0.817,6.317
			c0.081,4.803,0.294,10.021,4.633,13.034c2.146,1.491,4.762,1.875,7.262,2.377c2.178,0.437,4.296,0.985,5.619,2.914
			c3.281,4.784,0.684,10.991,2.631,16.161c1.987,5.278,7.242,7.902,12.37,9.341c5.2,1.459,11.963,2.23,14.245,7.961
			c1.618,4.063,0.633,8.221-1.476,11.796H95.903z"/>
		<path style="fill:#9EA4C3;" d="M69.281,486.031c1.161-2.639,1.798-5.481,1.614-8.427c-0.182-2.922-1.05-5.849-2.784-8.234
			c-1.85-2.546-4.399-4.214-7.279-5.395c-4.904-2.011-10.835-2.124-15.141-5.467c-2.052-1.594-2.897-3.76-3.006-6.312
			c-0.131-3.058,0.132-6.053-0.523-9.076c-0.578-2.666-1.84-5.392-3.945-7.193c-2.209-1.89-4.9-2.56-7.687-3.095
			c-2.068-0.397-4.626-0.829-5.825-2.543c-1.1-1.572-1.218-3.572-1.289-5.564c-0.17-4.757,0.233-10.203-3.491-13.823
			c-2.105-2.047-4.936-2.878-7.666-3.728c-2.461-0.767-4.58-1.798-6.346-3.724c-1.932-2.106-2.957-4.833-3.051-7.672
			c-0.116-3.515,0.544-7.108-0.518-10.543c-0.024-0.078-0.057-0.148-0.082-0.225H-3.22c0.369,0.59,0.669,1.236,0.861,1.963
			c0.751,2.845,0.126,5.904,0.223,8.805c0.095,2.848,0.791,5.598,2.211,8.08c1.348,2.356,3.28,4.372,5.552,5.85
			c2.274,1.48,4.909,2.105,7.447,2.961c1.962,0.662,3.75,1.709,4.479,3.461c0.833,2.004,0.781,4.129,0.818,6.317
			c0.081,4.803,0.294,10.021,4.633,13.034c2.146,1.491,4.762,1.875,7.262,2.377c2.178,0.437,4.297,0.985,5.619,2.914
			c3.281,4.784,0.684,10.991,2.631,16.161c1.987,5.278,7.242,7.902,12.37,9.341c5.2,1.459,11.963,2.23,14.245,7.961
			c1.618,4.063,0.633,8.221-1.476,11.796H69.281z"/>
		<path style="fill:#9E9BD0;" d="M42.659,486.031c1.161-2.639,1.798-5.481,1.614-8.427c-0.182-2.922-1.05-5.849-2.784-8.234
			c-1.85-2.546-4.399-4.214-7.279-5.395c-4.904-2.011-10.835-2.124-15.141-5.467c-2.052-1.594-2.897-3.76-3.006-6.312
			c-0.131-3.058,0.132-6.053-0.523-9.076c-0.578-2.666-1.84-5.392-3.945-7.193c-2.209-1.89-4.9-2.56-7.687-3.095
			c-2.068-0.397-4.626-0.829-5.825-2.543c-1.1-1.572-1.218-3.572-1.289-5.564c-0.162-4.555,0.189-9.739-3.05-13.349l-0.972,19.241
			c0.659,1.887,1.756,3.578,3.609,4.865c2.146,1.491,4.762,1.875,7.262,2.377c2.178,0.437,4.297,0.985,5.619,2.914
			c3.281,4.784,0.684,10.991,2.631,16.161c1.987,5.278,7.242,7.902,12.37,9.341c5.2,1.459,11.963,2.23,14.245,7.961
			c1.618,4.063,0.633,8.221-1.476,11.796H42.659z"/>
	</g>
	<g>
		<ellipse style="opacity:0.2;fill:#646466;" cx="196.527" cy="436.214" rx="175.601" ry="24.838"/>
		<g>
			<path style="fill:#B2293A;" d="M348.425,244.883c-2.93-0.931-6.208-0.712-8.989,0.599c-1.203,0.567-2.363,1.388-2.927,2.592
				c-0.759,1.619-0.16,3.753,1.332,4.739c0.897,0.593,1.999,0.775,3.068,0.895c4.099,0.461,15.502,1.211,17.238-3.965
				c0.847-2.526-1.946-4.96-3.702-6.317C352.747,242.114,347.949,241.157,348.425,244.883z"/>
			<g>
				<polygon style="fill:#EFB5A8;" points="71.134,385.011 59.103,389.939 58.489,399.754 68.286,402.074 78.538,399.942 
					89.485,395.211 				"/>
				<path style="fill:#2A3F83;" d="M171.066,296.904c-1.206-0.075-32.037,54.098-37.288,54.173
					c-5.251,0.075-63.872,33.946-63.872,33.946s11.934,14.476,13.623,14.61c2.561,0.204,63.516-15.439,65.702-18.128
					c2.186-2.688,61.711-38.117,61.711-38.117L171.066,296.904z"/>
				<g>
					<path style="fill:#E64C56;" d="M61.018,387.078l-13.544,9.568c0,0,2.969,9.961,6.677,12.758
						c3.708,2.797,8.354,10.32,11.075,19.012c1.9,6.07,24.284,7.973,25.528,4.161c1.801-5.522-7.082-9.556-7.082-9.556
						s-7.234-18.851-8.166-20.126c-0.931-1.275,5.65-2.012,4.309-3.081c-1.34-1.069-12.791-2.924-13.224-4.982
						C66.158,392.775,64.02,384.957,61.018,387.078z"/>
					<path style="fill:#F5F5FF;" d="M52.923,396.455c1.436,0.88,2.638,2.243,3.022,3.883c0.366,1.562-0.027,3.185-0.233,4.776
						c-0.205,1.591-0.167,3.366,0.874,4.587c0.839,0.984,2.193,1.432,2.976,2.461c0.615,0.808,0.788,1.855,1.013,2.846
						c1.099,4.847,6.01,11.673,6.01,11.673c4.569,0.797,10.67,5.467,15.64,5.407c1.564-0.019,3.186-0.226,4.506-1.064
						c1.767-1.122,0.569-2.811,2.645-3.075c0.447-0.057,0.932-0.002,1.286,0.276c0.491,0.385,0.836,3.172,0.892,4.346
						c0.027,0.565,0.041,1.156-0.207,1.664c-0.524,1.074-1.926,1.311-3.119,1.382c-8.625,0.515-14.83-0.19-23.406-1.236
						c-1.328-0.162-2.746-0.363-3.745-1.253c-1.658-1.477-1.434-4.063-1.36-6.283c0.147-4.452-1.208-9.4-5.018-11.709
						c-1.193-0.723-2.594-1.168-3.541-2.193c-0.82-0.888-1.185-2.089-1.628-3.214c-0.958-2.433-3.564-7.918-4.278-10.434
						c-0.591-2.081,1.307-2.478,2.929-4.192C49.578,393.627,51.539,395.607,52.923,396.455z"/>
					<path style="fill:#F5F5FF;" d="M75.34,402.219c0,0-8.965,3.352-8.948,4.891c0.016,1.539,2.417,5.299,3.722,5.686
						c1.305,0.387,7.359-2.809,8.46-2.786C79.674,410.031,76.882,402.147,75.34,402.219z"/>
				</g>
				<g>
					<path style="fill:#FFFFFF;" d="M173.601,324.842c-4.82,6.341-9.64,12.682-14.46,19.023c-2.431,3.197-4.861,6.395-7.292,9.593
						c-2.235,2.94-4.391,5.974-6.818,8.762c-2.354,2.705-5.067,4.9-8.279,6.507c-3.241,1.623-6.708,2.753-10.12,3.952
						c-7.536,2.647-15.084,5.264-22.641,7.851c-8.476,2.902-16.966,5.766-25.467,8.593c-1.243,0.413-0.838,2.437,0.423,2.018
						c15.371-5.112,30.701-10.345,45.989-15.7c6.792-2.379,14.085-4.401,19.407-9.513c2.632-2.527,4.792-5.5,6.993-8.395
						c2.431-3.198,4.861-6.395,7.292-9.593c5.562-7.316,11.124-14.633,16.685-21.949
						C176.118,324.933,174.401,323.79,173.601,324.842L173.601,324.842z"/>
				</g>
			</g>
			<g>
				<polygon style="fill:#EFB5A8;" points="137.631,408.879 130.747,422.087 148.915,428.362 158.517,416.15 				"/>
				<g>
					<path style="fill:#E64C56;" d="M130.553,417.242c0,0-7.247,13.472-6.641,14.902c0.607,1.43,2.54,4.615,2.54,4.615
						s0.373,4.479,1.829,5.684c1.456,1.205,15.741,7.847,32.854,3.626c0,0,3.01-2.624-5.325-11.854
						c-8.335-9.23-7.624-11.693-7.624-11.693s-2.739-5.184-10.36-1.344c0,0-2.452,0.018-3.962-1.222
						C131.964,418.395,133.544,416.176,130.553,417.242z"/>
					<path style="fill:#F5F5FF;" d="M159.36,449.314c2.286-0.474,3.747-2.77,3.164-5.031c-0.212-0.823-0.46-1.529-0.731-1.834
						c-0.86-0.968-5.138,0.514-6.335-0.396c-1.196-0.91-5.227-5.479-9.562,1.491c-0.934,1.502-13.09,0.017-15.258-3.182
						c-2.167-3.199-4.844-4.682-4.326-6.536c0.135-0.483,0.125-8.306-1.035-6.708c-0.448,0.616-0.978,1.801-1.46,3.024
						c-0.945,2.397-0.515,5.119,1.098,7.128l0.193,0.24c0,0-0.277,4.439,0.191,5.86C125.745,444.723,134.616,454.449,159.36,449.314
						z"/>
					<path style="fill:#F5F5FF;" d="M148.59,424.285c0,0-7.129-4.293-14.674,2.049c0,0-1.458,2.004,2.149,4.467
						c0,0,10.065-3.199,15.973-1.059C152.038,429.742,152.747,425.959,148.59,424.285z"/>
				</g>
			</g>
			<path style="fill:#FDC9BB;" d="M303.953,256.162c0,0-47.02-78.258-48.016-80.869c0,0,7.647-22.233,6.839-24.138
				c-0.808-1.904-4.574,6.435-4.574,6.435s4.502-16.404,3.145-16.953c-1.356-0.548-7.084,13.23-7.084,13.23
				s3.708-18.54,1.169-18.699c-2.539-0.159-6.291,15.366-6.291,15.366s-0.909-15.12-2.943-15.943
				c-2.034-0.822-7.69,22.926-7.69,22.926s-6.868-8.772-8.08-7.921c-1.212,0.851-0.361,13.187,1.37,15.149
				c1.731,1.962,6.983,10.633,6.983,10.633l32.246,92.166L303.953,256.162z"/>
			<path style="fill:#FDC9BB;" d="M342.678,426.305c0,0-13.31-92.917-17.676-95.805c-4.366-2.888-25.309,22.531-25.309,22.531
				s21.786,73.058,29.36,80.042c0,0,6.553,5.518,10.933,8.681c3.992,2.884,6.899,4.924,8.07,3.654
				c0.76-0.824-1.279-4.533-4.304-6.56c-0.539-0.361-1.227-0.988-1.816-1.562c10.736,1.231,23.543,0.03,24.343,0.066
				C378.93,437.918,371.057,428.242,342.678,426.305z"/>
			<path style="fill:#FBDB5B;" d="M219.924,356.137c0,0-11.295-6.928,65.839-20.584c0,0,6.859,25.855,9.598,27.237
				c2.739,1.382,41.107-5.502,42.942-9.02c1.834-3.518-9.548-53.872-9.548-53.872s-29.574-62.792-34.222-65.907
				c-4.648-3.116-31.886,0.025-35.856,11.885l8.775,21.03c0,0-43.068,9.921-52.013,10.977c-8.945,1.055-7.739,33.418-7.739,33.418
				L219.924,356.137z"/>
			<path style="fill:#5A6CEA;" d="M215.439,277.883c0,0-31.107-5.98-47.012,9.573c-15.905,15.553,10.201,56.334,10.201,56.334
				s-40.197,61.963-43.265,65.857c-3.069,3.894,13.766,12.211,18.992,12.538c5.226,0.327,73.37-56.761,76.31-77.967
				c1.049-7.565,0.099-17.67-1.802-27.719C225.436,298.378,218.914,280.437,215.439,277.883z"/>
			<g>
				<path style="fill:#EFB5A8;" d="M316.155,273.178l-13.336,4.273c0,0-5.045,3.58-0.07,12.505
					c4.975,8.925,16.829,11.453,35.758,2.573C357.437,283.648,316.155,273.178,316.155,273.178z"/>
				<path style="fill:#FDC9BB;" d="M361.402,249.945c0,0-34.979-7.736-47.381,14.622c-12.402,22.357,21.164,36.305,38.905,29.462
					c17.741-6.843,17.678-37.591,17.678-37.591L361.402,249.945z"/>
			</g>
			<g>
				<g>
					<g>
						<path style="fill:#C89B55;" d="M274.876,262.268c-11.191,15.036-20.272,31.632-26.899,49.165
							c-1.866,4.936-3.531,9.946-5.004,15.014c-0.369,1.271,1.579,1.946,1.95,0.671c5.183-17.836,12.83-34.923,22.717-50.648
							c2.809-4.468,5.797-8.82,8.948-13.053C277.382,262.35,275.666,261.207,274.876,262.268L274.876,262.268z"/>
					</g>
				</g>
			</g>
			<g>
				<g>
					<g>
						<path style="fill:#C89B55;" d="M252.78,279.416c-1.341,2.289-3.059,4.348-4.491,6.583c-1.408,2.196-2.691,4.47-3.855,6.804
							c-2.366,4.744-4.212,9.721-5.505,14.863c-0.322,1.279,1.626,1.958,1.95,0.671c1.27-5.047,3.058-9.966,5.387-14.623
							c1.154-2.307,2.437-4.551,3.834-6.719c1.405-2.18,3.082-4.192,4.392-6.429C255.16,279.423,253.451,278.27,252.78,279.416
							L252.78,279.416z"/>
					</g>
				</g>
			</g>
			<g>
				<g>
					<g>
						<path style="fill:#C89B55;" d="M270.051,262.181c4.915-7.378,13.252-12.312,22.118-12.926c1.304-0.09,1.45-2.149,0.129-2.057
							c-9.614,0.666-18.603,5.794-23.958,13.833C267.602,262.137,269.315,263.285,270.051,262.181L270.051,262.181z"/>
					</g>
				</g>
			</g>
			<g>
				<g>
					<g>
						<path style="fill:#C89B55;" d="M266.81,246.886c6.613-1.996,13.454-3.146,20.359-3.37c1.314-0.043,1.456-2.1,0.129-2.057
							c-7.093,0.23-14.115,1.358-20.911,3.41C265.128,245.248,265.536,247.27,266.81,246.886L266.81,246.886z"/>
					</g>
				</g>
			</g>
			<g>
				<g>
					<g>
						<path style="fill:#C89B55;" d="M272.275,331.412c3.96-0.103,8.418-0.242,11.7,2.361c1.522,1.207,2.344,2.975,3.115,4.709
							c0.903,2.031,1.739,4.091,2.518,6.172c0.464,1.24,2.303,0.306,1.841-0.927c-0.836-2.236-1.734-4.45-2.72-6.625
							c-0.874-1.928-1.918-3.714-3.604-5.04c-3.587-2.822-8.387-2.82-12.721-2.707C271.087,329.389,270.947,331.447,272.275,331.412
							L272.275,331.412z"/>
					</g>
				</g>
			</g>
			<g>
				<g>
					<g>
						<path style="fill:#C89B55;" d="M326.326,316.23c0.537,12.405-5.882,24.755-16.478,31.289c-1.12,0.691-0.205,2.539,0.927,1.841
							c11.184-6.896,18.177-19.843,17.608-33.002C328.327,315.047,326.269,314.904,326.326,316.23L326.326,316.23z"/>
					</g>
				</g>
			</g>
			<g>
				<g>
					<g>
						<path style="fill:#C89B55;" d="M315.236,331.902c-3.134,3.74-7.372,6.568-12.027,8.032c-0.531,0.167-0.919,0.637-0.798,1.22
							c0.105,0.504,0.687,0.965,1.22,0.798c5.212-1.639,9.806-4.713,13.315-8.901c0.358-0.427,0.146-1.143-0.281-1.43
							C316.163,331.283,315.595,331.474,315.236,331.902L315.236,331.902z"/>
					</g>
				</g>
			</g>
			<g>
				<g>
					<g>
						<path style="fill:#2A3F83;" d="M173.921,340.233c5.322,5.334,13.09,5.418,20.126,5.063c1.31-0.066,1.453-2.124,0.129-2.057
							c-6.385,0.322-13.834,0.515-18.709-4.37C174.533,337.933,172.982,339.291,173.921,340.233L173.921,340.233z"/>
					</g>
					<g>
						<path style="fill:#2A3F83;" d="M175.648,345.198c4.944,2.967,10.3,7.003,16.344,6.827c1.315-0.038,1.456-2.096,0.129-2.057
							c-2.825,0.082-5.479-0.867-7.955-2.16c-2.521-1.317-4.931-2.858-7.369-4.321C175.661,342.805,174.509,344.514,175.648,345.198
							L175.648,345.198z"/>
					</g>
				</g>
			</g>
			<g>
				<path style="fill:#FFFFFF;" d="M212.55,284.535c-4.619,1.058-9.396,1.212-14.01,2.363c-4.689,1.17-10.183,3.224-12.012,8.147
					c-2.432,6.547-0.169,13.162,2.899,19.051c1.544,2.965,3.275,5.834,4.695,8.863c1.538,3.279,2.47,6.812,3.837,10.168
					c1.431,3.511,3.043,7.309,2.422,11.185c-0.154,0.963-0.453,1.901-0.882,2.776c0.102-0.208-0.046,0.087-0.076,0.142
					c-0.058,0.109-0.117,0.218-0.176,0.326c-0.158,0.286-0.322,0.568-0.49,0.849c-1.897,3.169-4.143,6.141-6.369,9.083
					c-6.951,9.186-14.341,18.047-21.792,26.828c-7.309,8.614-14.716,17.156-22.368,25.468c-0.701,0.761-1.405,1.52-2.112,2.275
					c-0.9,0.961,0.456,2.515,1.364,1.546c7.337-7.832,14.389-15.937,21.371-24.085c7.7-8.986,15.309-18.066,22.578-27.406
					c2.628-3.376,5.238-6.783,7.62-10.338c0.747-1.115,1.482-2.246,2.106-3.435c1.141-2.176,1.565-4.589,1.356-7.039
					c-0.33-3.873-2.079-7.462-3.491-11.027c-1.273-3.216-2.156-6.498-3.721-9.601c-2.914-5.778-7.003-11.414-7.701-18.021
					c-0.3-2.841,0.078-6.31,1.812-8.676c1.425-1.946,3.73-3.109,5.93-3.951c4.807-1.84,10.027-2.296,15.082-3.025
					c0.854-0.123,1.708-0.253,2.55-0.446C214.263,286.257,213.848,284.237,212.55,284.535L212.55,284.535z"/>
			</g>
			<g>
				<g>
					<path style="fill:#2A3F83;" d="M210.105,296.616c2.62,3.144,4.93,6.521,7.295,9.855c2.16,3.045,4.229,6.078,5.91,9.421
						c3.196,6.357,5.259,13.321,5.854,20.42c0.325,3.875,0.146,7.798-0.571,11.62c-0.244,1.301,1.815,1.418,2.057,0.129
						c2.667-14.225-2.028-29.514-10.363-41.082c-2.838-3.938-5.526-7.993-8.637-11.727
						C210.8,294.231,209.256,295.597,210.105,296.616L210.105,296.616z"/>
				</g>
				<g>
					<path style="fill:#2A3F83;" d="M208.352,292.059c3.585,1.419,6.489,4.253,8.06,7.766c0.542,1.211,2.383,0.284,1.841-0.927
						c-1.789-4-5.163-7.178-9.23-8.788c-0.517-0.205-1.135,0.13-1.31,0.639C207.525,291.297,207.833,291.853,208.352,292.059
						L208.352,292.059z"/>
				</g>
				<g>
					<path style="fill:#2A3F83;" d="M214.716,290.075c0.535,0.383,0.824,1.044,1.128,1.608c0.39,0.722,0.765,1.451,1.124,2.188
						c0.731,1.498,1.397,3.027,2.003,4.58c0.202,0.519,0.921,0.691,1.384,0.457c0.536-0.27,0.66-0.864,0.457-1.384
						c-0.644-1.652-1.357-3.276-2.143-4.865c-0.387-0.782-0.79-1.557-1.212-2.321c-0.417-0.755-0.881-1.465-1.592-1.974
						C214.784,287.589,213.639,289.304,214.716,290.075L214.716,290.075z"/>
				</g>
			</g>
			<path style="fill:#E64C56;" d="M340.206,291.54c-1.663-0.301-1.926-2.847-0.759-4.068c1.168-1.221,3.007-1.444,4.689-1.596
				c1.742-0.156,3.485-0.313,5.227-0.47c-1.008-2.348,0.915-5.415,3.467-5.531c1.82-0.083,4.018,0.958,5.242-0.391
				c0.529-0.583,0.631-1.424,0.709-2.206c0.266-2.675,0.532-5.35,0.797-8.024c0.087-0.874,0.19-1.792,0.703-2.505
				c0.513-0.712,1.583-1.104,2.294-0.588c-1.092-3.654-2.848-7.109-5.154-10.147c-0.644-0.848-1.345-2.035-0.685-2.871
				c0.511,0.03,1.022,0.061,1.533,0.091c-4.728-1.683-7.271-7.804-5.13-12.342c0.814-1.725,2.569-3.306,4.431-2.892
				c2.121,0.472,2.892,3.039,3.275,5.178c0.813-2.781,1.682-5.662,3.618-7.817c1.758-1.957,4.341-3.148,6.971-3.216
				c1.386-0.036,2.854,0.266,3.87,1.208c1.59,1.473,1.597,3.958,1.311,6.106c-0.282,2.111-0.734,4.198-1.352,6.236
				c0.804-1.912,3.204-2.862,5.206-2.32c2.002,0.543,3.518,2.334,4.076,4.332c0.557,1.998,0.257,4.159-0.472,6.101
				c-0.611,1.63-1.518,3.147-2.665,4.457c-1.192,1.362-2.646,2.511-3.609,4.044c-1.542,2.454-1.614,5.556-1.22,8.426
				c0.394,2.871,1.205,5.695,1.259,8.593c0.054,2.897-0.804,6.015-3.101,7.783c-2.337,1.799-5.546,1.801-8.494,1.724
				c0.107,1.928,0.181,3.995-0.84,5.634c-0.876,1.405-2.421,2.252-3.974,2.825c-2.373,0.876-4.926,1.258-7.451,1.114
				c-4.316-0.246-8.336-1.967-12.535-2.819c-1.279-0.26-4.408,0.027-4.772-1.591C336.272,292.228,338.843,291.215,340.206,291.54z"
				/>
			<g>
				<g>
					<g>
						<path style="fill:#B28B83;" d="M348.538,260.823c-2.676-0.57-5.351-1.141-8.027-1.71c-2.429-0.517-5.132-1.293-7.634-1.031
							c-2.121,0.222-3.807,1.691-3.65,3.949c0.169,2.423,2.027,3.927,3.413,5.721c0.81,1.048,2.259-0.42,1.457-1.458
							c-1.015-1.314-2.732-2.599-2.819-4.391c-0.101-2.059,2.348-1.861,3.751-1.7c2.169,0.25,4.306,0.764,6.439,1.218
							c2.174,0.463,4.348,0.926,6.522,1.389C349.284,263.086,349.837,261.1,348.538,260.823L348.538,260.823z"/>
					</g>
				</g>
				<path style="fill:#2A3F83;" d="M348.887,273.458c-1.684,0.633-3.306,0.46-3.625-0.387c-0.318-0.847,0.788-2.046,2.472-2.679
					c1.683-0.633,3.306-0.46,3.625,0.387C351.677,271.625,350.571,272.825,348.887,273.458z"/>
				<path style="fill:#2A3F83;" d="M341.713,255.839c-1.684,0.633-3.306,0.46-3.625-0.387c-0.318-0.847,0.788-2.046,2.472-2.679
					s3.306-0.46,3.625,0.387C344.503,254.006,343.396,255.206,341.713,255.839z"/>
				<path style="fill:#FFFFFF;" d="M326.169,282.272c-2.643,0.633-0.92-3.841-2.056-8.58c-1.135-4.738-4.698-7.947-2.056-8.58
					c2.643-0.633,5.706,2.695,6.841,7.433C330.034,277.284,328.812,281.639,326.169,282.272z"/>
				<path style="fill:#B2293A;" d="M353.513,267.898c0,0,1.031,6.715-0.508,8.13c0,0,2.506,1.647,2.858-5.982
					C356.105,264.787,353.513,267.898,353.513,267.898z"/>
				<path style="fill:#B2293A;" d="M349.318,255.16c0,0-2.268-6.404-4.293-6.922c0,0,1.429-2.637,5.347,3.918
					C353.074,256.675,349.318,255.16,349.318,255.16z"/>
			</g>
		</g>
	</g>
	<g>
		<path style="fill:#2A3F83;" d="M341.815,475.803c-0.354-3.257-2.274-6.568-5.135-8.858c-3.003-2.403-6.689-4.147-10.416-5.017
			c0.336-2.667,0.004-5.408-1.03-7.822c-1.888-4.399-6.281-7.671-12.056-8.977c-4.819-1.091-10.41-1.191-17.088-0.306
			c-3.486,0.463-5.933,1.495-7.624,3.229c-13.531-0.188-26.924,0.963-39.496,2.268c-3.682,0.382-7.36,0.785-11.039,1.19
			c-0.398,0.044-0.732,0.289-0.895,0.656c-0.163,0.372-0.124,0.809,0.1,1.113c0.205,0.279,0.536,0.416,0.904,0.376
			c13.987-1.536,28.451-3.125,42.777-3.422c2.079-0.042,4.129-0.06,6.124-0.044c-1.049,2.112-1.012,4.435,0.188,6.268
			c1.477,2.26,4.285,3.554,7.631,3.52c1.853-0.031,3.716-0.446,5.316-0.832c1.4-0.338,2.852-0.761,3.862-1.879
			c0.738-0.815,1.093-1.861,1.025-3.023c-0.082-1.417-0.819-2.899-1.925-3.867c-2.191-1.921-5.289-2.031-8.021-2.129l-0.827-0.032
			c-0.714-0.03-1.428-0.057-2.141-0.08c1.12-0.543,2.483-0.927,4.102-1.156c2.402-0.342,5.036-0.508,8.289-0.525
			c3.041-0.017,5.564,0.201,7.847,0.683c5.566,1.176,9.639,4.206,11.172,8.313c0.718,1.922,0.937,4.03,0.695,6.082
			c-1.428-0.204-2.842-0.273-4.213-0.194c-3.005,0.171-5.703,1.115-7.802,2.729c-2.318,1.783-3.84,4.765-2.01,7.406
			c1.907,2.752,5.4,2.91,8.013,1.844c2.31-0.94,4.394-2.732,5.869-5.046c0.817-1.283,1.429-2.7,1.826-4.178
			c0.991,0.245,1.847,0.52,2.493,0.75c3.426,1.224,11.396,4.838,11.417,11.949c0.014,4.63-3.88,7.813-11.573,9.458
			c-6.432,1.378-13.168,1.072-19.483-0.88l-0.248-0.077c-1.37-0.422-2.787-0.857-3.837-1.718c-1.045-0.853-1.54-2.193-2.018-3.49
			l-0.084-0.228c-0.882-2.372-2.001-5.142-3.623-7.695c-1.619-2.548-3.54-4.527-5.712-5.884c-2.33-1.457-5.131-2.379-8.909-2.915
			c-0.189-0.026-0.382-0.054-0.577-0.081c-2.139-4.372-7.194-5.988-11.242-6.038c-0.068-0.001-0.135-0.001-0.202-0.001
			c-5.526,0-10.238,2.892-14.51,6.023c-0.723,0.53-1.439,1.069-2.156,1.609c-1.624,1.222-3.304,2.485-5.028,3.612
			c-0.332,0.217-0.511,0.564-0.49,0.954c0.022,0.401,0.261,0.773,0.607,0.949c0.32,0.161,0.69,0.136,1.011-0.071
			c1.689-1.104,3.342-2.361,4.94-3.577c3.397-2.585,6.911-5.259,10.98-6.611c3.978-1.321,9.747-1.124,13.015,2.431
			c0.112,0.121,0.22,0.248,0.324,0.379c-4.52-0.447-9.762-0.284-12.434,3.725c-1.244,1.868-1.786,4.709-0.19,6.846
			c1.768,2.366,4.916,2.604,7.081,2.091c1.67-0.398,3.16-1.232,4.398-1.995l0.387-0.236c1.107-0.675,2.251-1.372,3.091-2.398
			c1.326-1.619,1.523-3.636,1.175-5.436c0.71,0.121,1.413,0.261,2.105,0.419c3.365,0.77,6.096,2.209,8.115,4.275
			c1.791,1.832,3.292,4.239,4.726,7.576c0.265,0.616,0.498,1.271,0.734,1.935c0.773,2.165,1.57,4.403,3.515,5.785
			c1.283,0.911,2.801,1.388,4.302,1.858c1.651,0.52,3.354,0.934,5.064,1.231c2.379,0.417,4.774,0.626,7.154,0.626
			c1.08,0,2.157-0.043,3.228-0.13c3.538-0.283,6.768-0.946,9.598-1.971c3.088-1.117,5.324-2.572,6.838-4.45
			C341.402,480.727,342.092,478.345,341.815,475.803z M321.298,468.352c-1.568,1.874-4.35,3.889-7.034,3.406
			c-1.243-0.225-2.325-1.09-2.693-2.152c-0.494-1.428,0.627-2.737,1.339-3.392c2.299-2.109,5.19-2.773,7.921-2.773
			c1.001,0,1.98,0.089,2.901,0.229C323.246,465.39,322.426,467.003,321.298,468.352z M288.899,451.058
			c0.155-0.295,0.332-0.573,0.53-0.838c0.704,0.014,1.401,0.03,2.09,0.051c1.547,0.045,3.344,0.104,5.093,0.221
			c1.392,0.094,2.987,0.256,4.306,1.008c1.067,0.608,1.797,1.662,1.902,2.751c0.14,1.42-1.017,2.123-2.011,2.462
			c-1.474,0.503-3.175,0.863-4.921,1.042c-1.875,0.19-3.39,0.006-4.632-0.564c-1.327-0.61-2.281-1.607-2.688-2.806
			C288.203,453.308,288.318,452.157,288.899,451.058z M281.51,469.718c-0.93,1.036-2.373,1.831-3.647,2.532l-0.249,0.137
			c-1.706,0.943-3.114,1.336-4.446,1.295c-1.464-0.067-2.701-0.706-3.309-1.71c-0.534-0.884-0.539-2.124-0.012-3.318
			c1.281-2.909,4.564-3.597,7.091-3.661c0.314-0.008,0.63-0.012,0.947-0.012c1.412,0,2.844,0.079,4.264,0.234
			C282.665,466.808,282.582,468.523,281.51,469.718z"/>
		<g>
			<path style="fill:#E64C56;" d="M249.744,465.238l-24.735,15.967c0,0-3.941,5.54,3.88,8.146l25.294-17.596
				C254.183,471.756,258.542,463.935,249.744,465.238z"/>
			<g>
				<g>
					<path style="fill:#B2293A;" d="M228.058,482.181c0.579,0.491,1.04,1.12,1.298,1.808c0.268,0.714,0.376,1.484,0.268,2.198
						c-0.046,0.307,0.077,0.619,0.402,0.708c0.272,0.075,0.662-0.093,0.708-0.402c0.285-1.894-0.387-3.876-1.863-5.127
						c-0.237-0.201-0.582-0.233-0.814,0C227.852,481.572,227.82,481.978,228.058,482.181L228.058,482.181z"/>
				</g>
			</g>
			<path style="fill:#E64C56;" d="M199.28,459.491l41.985-2.826c0,0,3.31-5.349-1.625-8.982l-41.167,1.918
				C198.473,449.6,192.72,454.142,199.28,459.491z"/>
			<g>
				<g>
					<path style="fill:#B2293A;" d="M199.306,451.787c0.358,0.23,0.521,0.675,0.661,1.059c0.184,0.504,0.327,1.024,0.428,1.551
						c0.196,1.024,0.219,2.098,0.067,3.129c-0.045,0.307,0.077,0.619,0.402,0.708c0.271,0.075,0.663-0.093,0.708-0.402
						c0.19-1.288,0.171-2.577-0.089-3.854c-0.227-1.113-0.583-2.533-1.596-3.185C199.263,450.39,198.685,451.386,199.306,451.787
						L199.306,451.787z"/>
				</g>
			</g>
		</g>
	</g>
</g>
</svg>
