<?xml version="1.0" encoding="utf-8"?>
<!-- Generator: Adobe Illustrator 27.5.0, SVG Export Plug-In . SVG Version: 6.00 Build 0)  -->
<svg version="1.1" id="Capa_2" xmlns="http://www.w3.org/2000/svg" xmlns:xlink="http://www.w3.org/1999/xlink" x="0px" y="0px"
	 viewBox="0 0 2122 2122" style="enable-background:new 0 0 2122 2122;" xml:space="preserve">
<g>
	<path style="fill:#F6B9BE;" d="M1799.854,765.306h-34.785V695.06c0-8.676-7.034-15.71-15.71-15.71h-31.42
		c-8.677,0-15.71,7.034-15.71,15.71v-94.302c0-8.676-7.034-15.71-15.71-15.71h-31.421c-8.676,0-15.709,7.034-15.709,15.71
		c0-8.676-7.033-15.71-15.71-15.71h-31.42c-8.676,0-15.71,7.034-15.71,15.71v164.548h-53.434
		c-0.069-16.518-6.125-29.862-13.586-29.862c-3.655,0-6.972,3.203-9.414,8.411c-2.098-12.699-6.884-21.574-12.453-21.574
		c-5.362,0-9.997,8.225-12.207,20.17c-2.211-11.944-6.846-20.17-12.207-20.17c-5.722,0-10.617,9.367-12.62,22.626
		c-2.477-5.826-5.989-9.464-9.884-9.464c-7.461,0-13.517,13.344-13.586,29.862h-323.661l-6.835-35.917l0.444-0.599
		c3.734-4.41,29.191-35.626,32.348-70.748c2.924-0.416,5.632-1.505,7.959-3.107c7.593,15.189,21.383,25.165,41.142,25.165
		c31.727,0,66.827-25.72,66.827-57.448c0-31.727-13.729-56.19-45.457-56.19c-31.202,0-68.192,23.661-69.407,54.622
		c-1.204-0.243-2.451-0.371-3.726-0.371c-1.338,0-2.642,0.141-3.9,0.407c-5.148-10.289-13.524-20.232-26.242-29.252
		c0,0-55.077-39.471-102.201,23.4c-2.191,2.597-4.298,5.324-6.31,8.174l-35.751,48.598c-4.206,5.717-3.206,13.725,2.276,18.233
		l10.537,8.666c1.323,29.42,14.914,54.511,38.398,65.024c1.083,0.485,2.176,0.932,3.276,1.344H697.036
		c-0.069-16.518-6.124-29.862-13.586-29.862c-3.655,0-6.973,3.203-9.414,8.411c-2.098-12.7-6.884-21.574-12.453-21.574
		c-5.361,0-9.997,8.225-12.207,20.17c-2.211-11.945-6.846-20.17-12.207-20.17c-5.722,0-10.617,9.367-12.62,22.627
		c-2.478-5.827-5.989-9.465-9.884-9.465c-7.461,0-13.517,13.344-13.586,29.862h-56.307V600.758c0-8.676-7.034-15.71-15.71-15.71
		h-31.421c-8.676,0-15.709,7.034-15.709,15.71c0-8.676-7.034-15.71-15.711-15.71h-31.42c-8.676,0-15.711,7.034-15.711,15.71v86.153
		c0-8.676-7.034-15.71-15.71-15.71h-31.421c-8.676,0-15.71,7.034-15.71,15.71v78.396h-34.784c-7.522,0-13.62,6.098-13.62,13.62
		v17.31c0,7.522,6.098,13.62,13.62,13.62h34.784v70.247c0,8.676,7.034,15.71,15.71,15.71h31.421c8.676,0,15.71-7.034,15.71-15.71
		v94.302c0,8.677,7.034,15.71,15.711,15.71h31.42c8.677,0,15.711-7.034,15.711-15.71c0,8.677,7.034,15.71,15.709,15.71h31.421
		c8.676,0,15.71-7.034,15.71-15.71V809.857h56.817c-0.06,40.258-1.276,80.545,0.266,120.788c0.739,19.298,1.784,38.687,3.86,57.891
		c1.802,16.662,4.241,34.257,11.251,49.767c-2.121,6.127-3.289,12.712-3.289,19.618v287.878h12.473v46.016h-16.378v41.026
		c0,3.181-0.685,6.202-1.915,8.924l-0.457,0.948c-0.479,0.935-1.023,1.83-1.628,2.681c-0.504,0.709-1.05,1.386-1.632,2.028
		c-0.467,0.513-0.957,1.004-1.471,1.471c-3.85,3.5-8.966,5.633-14.579,5.633l-1.284,0.009l-0.281,0.005l-0.988,0.019l-0.692,0.021
		l-0.539,0.017l-0.963,0.041l-0.279,0.013l-1.12,0.062l-0.105,0.006c-0.381,0.024-0.762,0.049-1.142,0.077
		c-0.355,0.026-0.71,0.054-1.065,0.084c-0.024,0.002-0.049,0.004-0.074,0.006c-51.42,4.331-91.804,47.436-91.804,99.976h250.574
		v-163.046h-12.397v-46.016h12.473v-176.889c5.715,3.481,11.431,6.961,17.147,10.441c53.922,32.835,107.845,65.67,161.768,98.505
		c14.016,58.081,49.762,77.432,91.646,77.432c22.115,0,42.517-5.396,58.914-19.036c16.397,13.641,36.798,19.036,58.913,19.036
		c41.353,0,76.722-18.864,91.101-75.241c55.123-33.565,110.245-67.13,165.368-100.696c5.715-3.48,11.431-6.961,17.147-10.441
		v176.889h12.473v46.016h-12.397v163.046h250.574c0-52.54-40.383-95.645-91.804-99.976c-0.025-0.002-0.049-0.003-0.073-0.006
		c-0.355-0.03-0.71-0.058-1.066-0.084c-0.38-0.028-0.76-0.054-1.141-0.077l-0.106-0.006l-1.12-0.062l-0.278-0.013l-0.963-0.041
		l-0.539-0.017l-0.691-0.021l-0.989-0.019l-0.28-0.005l-1.284-0.009c-5.614,0-10.729-2.133-14.579-5.633
		c-0.513-0.467-1.004-0.957-1.471-1.471c-0.583-0.642-1.129-1.319-1.632-2.028c-0.605-0.85-1.149-1.746-1.628-2.681l-0.456-0.948
		c-1.231-2.721-1.915-5.743-1.915-8.924v-41.026h-16.378v-46.016h12.473V1057.92c0-14.545-5.18-27.665-13.539-38.081
		c3.876-14.742,5.524-29.817,6.772-45.578c1.501-18.959,2.552-37.951,3.023-56.964c0.886-35.804-0.1-71.631-0.155-107.44h55.313
		v164.548c0,8.677,7.034,15.71,15.71,15.71h31.42c8.677,0,15.71-7.034,15.71-15.71c0,8.677,7.033,15.71,15.709,15.71h31.421
		c8.676,0,15.71-7.034,15.71-15.71v-86.153c0,8.677,7.034,15.711,15.71,15.711h31.42c8.676,0,15.71-7.034,15.71-15.711v-78.396
		h34.785c7.522,0,13.619-6.098,13.619-13.62v-17.31C1813.473,771.404,1807.375,765.306,1799.854,765.306z M977.974,809.857
		c-1.214,0.354-2.419,0.727-3.616,1.12c-51.67,7.148-134.87,47.942-203.528,103.678l-0.019,0.013l-0.015,0.014l-0.424,0.343
		l0.021,0.026c-4.491,4.536-1.165,17.491,7.739,33.957c-8.552,6.052-17.171,12.01-25.88,17.834
		c-16.398,10.966-33.371,23.03-51.316,31.713c-0.927,0.31-1.857,0.601-2.793,0.873c-0.922-0.359-1.846-0.692-2.774-1.001
		c-1.072-3.836-1.897-7.735-2.561-11.674c-6.658-58.619-3.999-118.043-3.909-176.897H977.974z M783.758,1050.497
		c16.712-10.77,33.032-22.096,49.135-33.731c14.826,12.742,27.348,19.058,32.849,15.489l0.021,0.025l0.417-0.341l0.022-0.016
		l0.022-0.02c5.594-4.557,11.142-9.192,16.623-13.886c-1.93,26.787-3.055,56.912-3.317,90.797
		C847.607,1089.376,815.682,1069.937,783.758,1050.497z M1257.286,1110.03c-0.253-29.409-1.283-55.999-3.03-80.041
		c0.781,0.641,1.563,1.28,2.347,1.918l0.019,0.017l0.019,0.014l0.421,0.343l0.021-0.025c5.5,3.568,18.019-2.745,32.843-15.484
		c18.611,13.438,37.508,26.504,56.939,38.712C1317.005,1073.666,1287.145,1091.848,1257.286,1110.03z M1430.017,986.752
		c-0.759,4.498-1.727,8.945-3.033,13.304c-1.715-0.438-3.411-0.938-5.095-1.501c-17.946-8.683-34.919-20.747-51.316-31.713
		c-8.71-5.824-17.328-11.782-25.881-17.834c8.903-16.467,12.229-29.422,7.738-33.957l0.021-0.025l-0.422-0.341l-0.018-0.016
		l-0.022-0.016c-67.297-54.629-148.561-94.903-200.414-103.209c-1.786-0.567-3.586-1.095-5.401-1.586h287.75
		C1434.016,868.71,1436.674,928.133,1430.017,986.752z"/>
	<path style="fill:#EF7C59;" d="M1511.593,1019.838c-18.435-22.969-52.34-32.792-80.299-15.767
		c-13.38,8.148-26.76,16.295-40.14,24.443l-44.289,26.969c-29.859,18.182-59.719,36.364-89.578,54.547
		c-0.253-29.41-1.283-55.999-3.03-80.041c0.781,0.641,1.563,1.28,2.347,1.918c0.007,0.005,0.012,0.011,0.019,0.017
		c0.006,0.005,0.013,0.009,0.019,0.014c0.14,0.114,0.28,0.229,0.421,0.343l0.021-0.026c5.5,3.568,18.019-2.745,32.843-15.484
		c9.378-8.059,19.678-18.687,29.708-31.016c10.449-12.845,19.032-25.6,25.059-36.748c8.903-16.467,12.229-29.422,7.738-33.957
		l0.021-0.025c-0.14-0.114-0.281-0.227-0.421-0.341c-0.006-0.005-0.012-0.011-0.019-0.016c-0.007-0.006-0.015-0.01-0.022-0.016
		c-67.297-54.629-148.561-94.902-200.414-103.209c-1.786-0.567-3.586-1.095-5.401-1.585c-11.261-3.044-23.064-4.672-35.255-5.538
		l6.412,33.692c0.384,1.118,0.65,2.253,0.65,3.415c0,13.323-26.062,24.122-58.211,24.122c-32.149,0-58.211-10.8-58.211-24.122
		c0-1.356,0.336-2.678,0.856-3.974l-0.055-0.002l6.335-32.936c-10.747,0.907-21.013,2.513-30.721,5.342
		c-1.214,0.354-2.419,0.727-3.616,1.12c-51.67,7.147-134.87,47.942-203.528,103.677c-0.006,0.005-0.013,0.009-0.019,0.014
		c-0.005,0.004-0.01,0.01-0.015,0.014c-0.141,0.114-0.283,0.228-0.424,0.343l0.021,0.026c-4.491,4.536-1.165,17.491,7.739,33.957
		c6.028,11.148,14.61,23.903,25.059,36.748c10.027,12.326,20.325,22.953,29.702,31.011c14.826,12.742,27.348,19.057,32.849,15.489
		l0.021,0.026c0.139-0.113,0.278-0.227,0.417-0.341c0.007-0.006,0.015-0.01,0.022-0.016c0.008-0.006,0.015-0.014,0.022-0.02
		c5.594-4.557,11.142-9.192,16.623-13.885c-1.93,26.787-3.055,56.912-3.317,90.797c-31.924-19.44-63.849-38.879-95.772-58.319
		l-36.102-21.983c-13.38-8.147-26.76-16.295-40.14-24.443c-3.062-1.865-6.197-3.405-9.374-4.644
		c-0.921-0.359-1.846-0.692-2.774-1.001c-32.042-10.652-67.596,8.665-78.402,39.875c-2.121,6.127-3.289,12.712-3.289,19.618v287.878
		h124.726v-176.889c5.715,3.481,11.431,6.961,17.147,10.441c53.922,32.835,107.845,65.67,161.768,98.505
		c14.016,58.081,49.762,77.432,91.646,77.432c22.115,0,42.517-5.396,58.914-19.036c16.397,13.64,36.798,19.036,58.913,19.036
		c41.354,0,76.722-18.864,91.102-75.241c55.122-33.565,110.245-67.13,165.367-100.696c5.715-3.48,11.431-6.961,17.147-10.441
		v176.889h124.726V1057.92C1525.132,1043.375,1519.953,1030.255,1511.593,1019.838z"/>
	<g>
		<path style="fill:#A770A9;" d="M1559.252,1454.884c-0.025-0.002-0.049-0.004-0.073-0.006c-0.355-0.03-0.71-0.058-1.066-0.084
			c-0.38-0.027-0.76-0.054-1.141-0.077c-0.035-0.002-0.071-0.003-0.106-0.006c-0.373-0.023-0.746-0.043-1.12-0.062
			c-0.092-0.005-0.186-0.009-0.278-0.013c-0.321-0.015-0.642-0.029-0.963-0.041c-0.18-0.007-0.359-0.011-0.539-0.017
			c-0.23-0.008-0.46-0.016-0.691-0.021c-0.329-0.009-0.659-0.014-0.988-0.019c-0.094-0.001-0.187-0.004-0.281-0.005
			c-0.427-0.005-0.856-0.009-1.284-0.009c-5.614,0-10.729-2.133-14.579-5.633c-0.513-0.467-1.004-0.958-1.471-1.471
			c-0.583-0.642-1.129-1.319-1.632-2.027c-0.605-0.85-1.149-1.746-1.628-2.681c-0.16-0.312-0.312-0.628-0.456-0.948
			c-1.231-2.722-1.915-5.743-1.915-8.924v-41.026h-128.556v163.046h250.575C1651.057,1502.32,1610.673,1459.214,1559.252,1454.884z"
			/>
		<path style="fill:#A770A9;" d="M609.772,1391.814v41.026c0,3.181-0.685,6.202-1.915,8.924c-0.145,0.32-0.297,0.636-0.457,0.948
			c-0.479,0.934-1.023,1.83-1.628,2.681c-0.504,0.708-1.049,1.385-1.632,2.027c-0.467,0.513-0.957,1.004-1.471,1.471
			c-3.85,3.5-8.966,5.633-14.579,5.633c-0.429,0-0.857,0.003-1.284,0.009c-0.094,0.001-0.187,0.004-0.281,0.005
			c-0.33,0.005-0.659,0.01-0.988,0.019c-0.231,0.005-0.461,0.014-0.692,0.021c-0.18,0.005-0.36,0.01-0.539,0.017
			c-0.322,0.012-0.643,0.026-0.963,0.041c-0.093,0.004-0.186,0.008-0.279,0.013c-0.374,0.018-0.746,0.039-1.119,0.062
			c-0.035,0.003-0.071,0.004-0.106,0.006c-0.381,0.024-0.762,0.05-1.141,0.077c-0.356,0.026-0.711,0.055-1.066,0.084
			c-0.024,0.002-0.049,0.004-0.074,0.006c-51.42,4.33-91.804,47.436-91.804,99.976h250.574v-163.046H609.772z"/>
	</g>
	<g>
		<path style="fill:#29235C;" d="M1799.854,765.306h-34.785V695.06c0-8.676-7.034-15.71-15.71-15.71h-31.42
			c-8.677,0-15.71,7.034-15.71,15.71v-94.302c0-8.676-7.034-15.71-15.71-15.71h-31.42c-8.677,0-15.71,7.034-15.71,15.71
			c0-8.676-7.033-15.71-15.71-15.71h-31.42c-8.676,0-15.71,7.034-15.71,15.71v164.548h-53.434c0,0.095,0.001,0.189,0.001,0.284
			c0,16.649-6.083,30.146-13.587,30.146c-4.856,0-9.116-5.653-11.519-14.153c-2.492,7.75-6.203,12.667-10.348,12.667
			c-5.361,0-9.997-8.225-12.207-20.17c-2.211,11.945-6.846,20.17-12.208,20.17c-4.337,0-8.201-5.384-10.688-13.766
			c-2.338,9.109-6.753,15.252-11.815,15.252c-7.504,0-13.587-13.497-13.587-30.146c0-0.095,0.001-0.19,0.002-0.284h-323.661
			l7.424,39.012c12.191,0.866,23.994,2.493,35.255,5.538h430.372v164.548c0,8.677,7.034,15.71,15.71,15.71h31.42
			c8.677,0,15.71-7.034,15.71-15.71c0,8.677,7.033,15.71,15.71,15.71h31.42c8.676,0,15.71-7.034,15.71-15.71v-86.153
			c0,8.677,7.034,15.711,15.71,15.711h31.42c8.676,0,15.71-7.034,15.71-15.711v-78.396h34.785c7.522,0,13.619-6.098,13.619-13.62
			v-17.31C1813.473,771.404,1807.375,765.306,1799.854,765.306z"/>
		<path style="fill:#29235C;" d="M1006.872,765.306H697.036c0,0.095,0.001,0.189,0.001,0.284c0,16.649-6.083,30.146-13.587,30.146
			c-4.856,0-9.117-5.654-11.519-14.154c-2.492,7.751-6.203,12.668-10.348,12.668c-5.361,0-9.997-8.225-12.207-20.169
			c-2.211,11.944-6.846,20.169-12.207,20.169c-4.338,0-8.201-5.384-10.689-13.767c-2.337,9.109-6.753,15.253-11.815,15.253
			c-7.504,0-13.587-13.497-13.587-30.146c0-0.095,0.001-0.19,0.001-0.284h-56.307V600.758c0-8.676-7.034-15.71-15.71-15.71h-31.42
			c-8.676,0-15.71,7.034-15.71,15.71c0-8.676-7.034-15.71-15.711-15.71h-31.42c-8.676,0-15.711,7.034-15.711,15.71v86.153
			c0-8.676-7.034-15.71-15.71-15.71h-31.421c-8.676,0-15.71,7.034-15.71,15.71v78.396h-34.784c-7.522,0-13.62,6.098-13.62,13.62
			v17.31c0,7.522,6.098,13.62,13.62,13.62h34.784v70.247c0,8.676,7.034,15.71,15.71,15.71h31.421c8.676,0,15.71-7.034,15.71-15.71
			v94.302c0,8.677,7.034,15.71,15.711,15.71h31.42c8.677,0,15.711-7.034,15.711-15.71c0,8.677,7.034,15.71,15.71,15.71h31.42
			c8.676,0,15.71-7.034,15.71-15.71V809.857h433.201c9.709-2.829,19.974-4.434,30.721-5.342l0.3-1.562
			c-0.001,0-0.003-0.001-0.004-0.001l6.755-35.118C1012.742,767.236,1009.778,766.396,1006.872,765.306z"/>
	</g>
	<g>
		<path style="fill:#702819;" d="M1145.549,639.472c0,6.417-3.223,12.08-8.137,15.463c7.593,15.189,21.383,25.165,41.142,25.165
			c31.727,0,66.827-25.72,66.827-57.448c0-31.727-13.729-56.19-45.457-56.19c-31.202,0-68.192,23.661-69.407,54.622
			C1139.092,622.812,1145.549,630.387,1145.549,639.472z"/>
		<path style="fill:#A770A9;" d="M1129.453,658.042c2.924-0.416,5.632-1.505,7.959-3.107c4.914-3.383,8.137-9.046,8.137-15.463
			c0-9.085-6.458-16.659-15.032-18.388c-1.204-0.243-2.451-0.371-3.726-0.371c-1.338,0-2.642,0.141-3.9,0.407
			C1128.966,633.262,1130.546,645.886,1129.453,658.042z"/>
		<path style="fill:#EF868C;" d="M1022.005,804.88c24.855,0,45.003-20.149,45.003-45.003c0-0.984-0.032-1.962-0.094-2.931
			c-16.388,10.07-34.409,14.228-51.167,10.888l-6.755,35.117c0.001,0,0.003,0.001,0.004,0.001
			C1013.117,804.197,1017.479,804.88,1022.005,804.88z"/>
		<path style="fill:#4C190D;" d="M1000.006,659.09c1.716,0,3.106-2.251,3.106-5.03c-0.001-2.777-1.391-5.029-3.106-5.029
			c-1.716,0-3.106,2.252-3.106,5.03C996.9,656.839,998.291,659.091,1000.006,659.09z"/>
		<path style="fill:#A770A9;" d="M1431.294,1004.071c-13.38,8.148-26.76,16.295-40.14,24.443l-44.289,26.969
			c-29.859,18.182-59.719,36.364-89.578,54.546c-14.245,8.674-28.49,17.348-42.734,26.022c-4.736,2.884-9.472,5.768-14.208,8.652
			c-34.052,4.981-80.603,8.051-131.935,8.051c-50.037,0-95.528-2.916-129.331-7.678l-14.821-9.025
			c-14.909-9.078-29.819-18.157-44.727-27.236c-31.924-19.439-63.849-38.879-95.773-58.318l-36.101-21.983
			c-13.38-8.147-26.76-16.295-40.14-24.443c-3.062-1.865-6.197-3.405-9.374-4.644c-0.922-0.359-1.846-0.692-2.774-1.001
			c-32.042-10.653-67.596,8.664-78.402,39.875c-2.121,6.127-3.289,12.712-3.289,19.618v287.878h124.726v-176.889
			c5.715,3.481,11.431,6.961,17.147,10.441c53.922,32.835,107.845,65.67,161.768,98.505c14.016,58.081,49.762,77.432,91.646,77.432
			c22.115,0,42.517-5.396,58.914-19.036c16.397,13.641,36.798,19.036,58.913,19.036c41.353,0,76.722-18.864,91.101-75.241
			c55.123-33.565,110.245-67.13,165.368-100.696c5.715-3.48,11.431-6.961,17.147-10.441v176.889h124.726V1057.92
			c0-14.545-5.18-27.665-13.539-38.081C1493.158,996.869,1459.253,987.047,1431.294,1004.071z"/>
		<path style="fill:#EF7C59;" d="M1500.77,1446.428c0,19.786,16.04,35.825,35.825,35.825h83.249
			c-16.592-15.801-38.537-26.031-62.872-27.536c-0.035-0.002-0.071-0.004-0.106-0.006c-0.373-0.023-0.746-0.044-1.12-0.062
			c-0.092-0.005-0.186-0.008-0.278-0.013c-0.321-0.015-0.642-0.029-0.963-0.041c-0.18-0.006-0.36-0.011-0.539-0.017
			c-0.23-0.008-0.46-0.015-0.691-0.021c-0.329-0.008-0.659-0.014-0.989-0.019c-0.094-0.001-0.187-0.004-0.28-0.005
			c-0.427-0.005-0.856-0.009-1.284-0.009c-5.614,0-10.729-2.133-14.579-5.633c-0.513-0.467-1.004-0.957-1.471-1.471
			c-0.583-0.642-1.129-1.319-1.632-2.028c-0.605-0.85-1.149-1.746-1.628-2.681c-0.16-0.312-0.312-0.628-0.456-0.948
			c-1.231-2.721-1.915-5.743-1.915-8.924v-41.026h-28.268V1446.428z"/>
		<path style="fill:#FFEAC5;" d="M1450.853,1497.22c-8.925,0-16.162,7.236-16.162,16.161c0,8.925,7.237,16.161,16.162,16.161
			c8.926,0,16.161-7.236,16.161-16.161C1467.015,1504.456,1459.779,1497.22,1450.853,1497.22z"/>
		<path style="fill:#EF7C59;" d="M602.214,1482.253c19.786,0,35.826-16.039,35.826-35.825v-54.614h-28.268v41.026
			c0,3.181-0.685,6.202-1.915,8.924c-0.145,0.32-0.297,0.636-0.457,0.948c-0.479,0.935-1.023,1.83-1.628,2.681
			c-0.504,0.709-1.05,1.386-1.632,2.028c-0.467,0.513-0.957,1.004-1.471,1.471c-3.85,3.5-8.966,5.633-14.579,5.633
			c-0.429,0-0.857,0.003-1.284,0.009c-0.094,0.001-0.187,0.004-0.281,0.005c-0.33,0.005-0.659,0.011-0.988,0.019
			c-0.231,0.006-0.461,0.014-0.692,0.021c-0.18,0.005-0.36,0.01-0.539,0.017c-0.322,0.012-0.643,0.026-0.963,0.041
			c-0.093,0.005-0.186,0.008-0.279,0.013c-0.374,0.018-0.746,0.039-1.12,0.062c-0.035,0.002-0.07,0.004-0.105,0.006
			c-24.335,1.505-46.281,11.736-62.873,27.536H602.214z"/>
		<path style="fill:#FFEAC5;" d="M687.957,1497.22c-8.926,0-16.161,7.236-16.161,16.161c0,8.925,7.236,16.161,16.161,16.161
			c8.925,0,16.161-7.236,16.161-16.161C704.118,1504.456,696.882,1497.22,687.957,1497.22z"/>
		<path style="fill:#4C62AB;" d="M1655.097,990.115h31.421c8.676,0,15.71-7.034,15.71-15.71V600.758
			c0-8.676-7.034-15.71-15.71-15.71h-31.421c-8.676,0-15.709,7.034-15.709,15.71v373.647
			C1639.388,983.082,1646.421,990.115,1655.097,990.115z"/>
		<path style="fill:#22ABE3;" d="M1717.939,903.963h31.42c8.676,0,15.71-7.034,15.71-15.711V695.06c0-8.676-7.034-15.71-15.71-15.71
			h-31.42c-8.677,0-15.71,7.034-15.71,15.71v193.192C1702.228,896.929,1709.262,903.963,1717.939,903.963z"/>
		<path style="fill:#29235C;" d="M321.467,809.857h34.784v-44.55h-34.784c-7.522,0-13.62,6.098-13.62,13.62v17.31
			C307.847,803.759,313.945,809.857,321.467,809.857z"/>
		<path style="fill:#4C62AB;" d="M419.092,974.405c0,8.677,7.034,15.71,15.711,15.71h31.42c8.677,0,15.711-7.034,15.711-15.71
			V600.758c0-8.676-7.034-15.71-15.711-15.71h-31.42c-8.676,0-15.711,7.034-15.711,15.71V974.405z"/>
		<path style="fill:#22ABE3;" d="M356.251,880.103c0,8.676,7.034,15.71,15.71,15.71h31.421c8.676,0,15.71-7.034,15.71-15.71V686.911
			c0-8.676-7.034-15.71-15.71-15.71h-31.421c-8.676,0-15.71,7.034-15.71,15.71V880.103z"/>
		<path style="fill:#702819;" d="M1056.871,658.232c1.835-1.737,3.959-3.332,6.338-4.705c11.471-6.622,24.474-5.575,29.044,2.341
			c4.57,7.915-1.024,19.701-12.495,26.323c-4.497,2.596-9.228,4.013-13.595,4.3c7.392,33.956,30.486,42.832,30.486,42.832
			s0.16-0.182,0.457-0.532c3.734-4.41,29.191-35.626,32.348-70.748c1.093-12.156-0.487-24.78-6.563-36.922
			c-5.148-10.289-13.524-20.232-26.242-29.252c0,0-55.077-39.471-102.201,23.4c-0.003,0.004-0.005,0.008-0.009,0.012
			C994.438,615.279,1012.41,652.978,1056.871,658.232z"/>
		<path style="fill:#702819;" d="M1064.015,661.415c-3.961,2.808-7.258,6.571-9.457,11.053c-0.742,1.511-0.409,3.373,1.119,4.267
			c1.374,0.803,3.521,0.399,4.266-1.119c1.687-3.438,4.084-6.341,6.966-8.57l0.07,0.026l0.146,0.058l0.748,0.346l0.875,0.456
			c0.626,0.344,1.234,0.718,1.827,1.117l0.784,0.547l0.356,0.264c1.773,1.411,3.389,3.022,4.81,4.785
			c0.47,0.583,1.491,0.913,2.205,0.913c0.765,0,1.679-0.34,2.205-0.913c0.545-0.594,0.95-1.374,0.913-2.205
			c-0.039-0.876-0.366-1.526-0.913-2.205c-2.086-2.589-4.626-4.947-7.479-6.769c2.797-0.998,5.813-1.487,8.932-1.384
			c4.014,0.133,4.009-6.103,0-6.236c-6.214-0.206-12.273,1.574-17.35,4.872C1064.656,660.885,1064.305,661.121,1064.015,661.415z"/>
		<path style="fill:#FFFFFF;" d="M1018.466,718.656c0.351-2.328-1.676-4.313-3.986-3.857c-4.641,0.917-12.935,2.181-23.324,2.168
			c-2.66-0.003-4.349,2.933-2.911,5.171c2.5,3.888,7.131,8.481,15.038,8.397C1014.671,730.412,1017.731,723.536,1018.466,718.656z"
			/>
	</g>
</g>
</svg>
