<?xml version="1.0" encoding="utf-8"?>
<!-- Generator: Adobe Illustrator 27.5.0, SVG Export Plug-In . SVG Version: 6.00 Build 0)  -->
<svg version="1.1" xmlns="http://www.w3.org/2000/svg" xmlns:xlink="http://www.w3.org/1999/xlink" x="0px" y="0px"
	 viewBox="0 0 500 500" style="enable-background:new 0 0 500 500;" xml:space="preserve">
<g id="BACKGROUND">
</g>
<g id="OBJECTS">
	<g>
		
			<rect x="53.587" y="97.344" transform="matrix(-1 -1.224647e-16 1.224647e-16 -1 252.485 356.9744)" style="fill:#3A9FD1;" width="145.311" height="162.286"/>
		<g>
			<polygon style="fill:#80D5FF;" points="194.048,137.122 194.048,102.617 165.226,102.617 163.602,102.617 163.602,137.122 
				165.226,137.122 			"/>
			<polygon style="fill:#80D5FF;" points="128.399,102.617 128.399,137.122 130.022,137.122 158.844,137.122 158.844,102.617 
				130.022,102.617 			"/>
			<polygon style="fill:#80D5FF;" points="123.64,102.617 93.195,102.617 93.195,137.122 123.64,137.122 123.64,137.12 
				123.643,137.12 123.643,102.618 123.64,102.618 			"/>
			<rect x="57.991" y="102.617" style="fill:#80D5FF;" width="30.446" height="34.505"/>
			<polygon style="fill:#80D5FF;" points="194.048,141.615 194.048,141.612 163.602,141.612 163.602,176.118 194.048,176.118 
				194.048,176.116 194.051,176.116 194.051,141.615 			"/>
			<polygon style="fill:#80D5FF;" points="128.399,141.612 128.399,176.118 130.022,176.118 158.844,176.118 158.844,141.612 
				130.022,141.612 			"/>
			<polygon style="fill:#80D5FF;" points="123.64,141.612 93.195,141.612 93.195,176.118 123.64,176.118 123.64,176.116 
				123.643,176.116 123.643,141.615 123.64,141.615 			"/>
			<rect x="57.991" y="141.612" style="fill:#80D5FF;" width="30.446" height="34.505"/>
			<polygon style="fill:#80D5FF;" points="165.229,180.607 163.602,180.607 163.602,215.112 165.229,215.112 165.229,215.113 
				194.051,215.113 194.051,180.603 165.229,180.603 			"/>
			<polygon style="fill:#80D5FF;" points="128.399,180.607 128.399,215.112 130.022,215.112 158.844,215.112 158.844,180.607 
				130.022,180.607 			"/>
			<polygon style="fill:#80D5FF;" points="93.195,180.607 93.195,215.112 94.819,215.112 123.64,215.112 123.64,180.607 
				94.819,180.607 			"/>
			<polygon style="fill:#80D5FF;" points="88.435,180.603 59.613,180.603 59.613,180.607 57.991,180.607 57.991,215.112 
				59.613,215.112 59.613,215.113 88.435,215.113 88.435,215.112 88.437,215.112 88.437,180.607 88.435,180.607 			"/>
			<polygon style="fill:#80D5FF;" points="165.229,219.602 163.602,219.602 163.602,254.107 165.229,254.107 165.229,254.109 
				194.051,254.109 194.051,219.6 165.229,219.6 			"/>
			<polygon style="fill:#80D5FF;" points="158.843,219.6 130.021,219.6 130.021,219.602 128.399,219.602 128.399,254.107 
				130.021,254.107 130.021,254.109 158.843,254.109 158.843,254.107 158.844,254.107 158.844,219.602 158.843,219.602 			"/>
			<polygon style="fill:#80D5FF;" points="93.195,219.602 93.195,254.107 94.819,254.107 123.64,254.107 123.64,219.602 
				94.819,219.602 			"/>
			<polygon style="fill:#80D5FF;" points="88.435,219.6 59.613,219.6 59.613,219.602 57.991,219.602 57.991,254.107 59.613,254.107 
				59.613,254.109 88.435,254.109 88.435,254.107 88.437,254.107 88.437,219.602 88.435,219.602 			"/>
		</g>
	</g>
	<g>
		<g>
			<path style="fill:#B72E48;" d="M415.1,359.682c0,0-1.481-5.266-5.146-1.418c-3.665,3.848,1.904,8.728,1.904,8.728
				s6.217-4.07,5.609-6.298C416.86,358.467,415.1,359.682,415.1,359.682z"/>
			<path style="fill:#B72E48;" d="M433.703,402.394c0,0,5.115-1.941,0.957-5.251c-4.158-3.31-8.526,2.668-8.526,2.668
				s4.604,5.832,6.769,5.03C435.069,404.04,433.703,402.394,433.703,402.394z"/>
			<path style="fill:#B72E48;" d="M422.119,371.818c-0.308-0.466-0.176-1.078-0.108-1.632c0.05-0.403,0.059-0.811,0.029-1.215
				c-0.02-0.266-0.069-0.554-0.266-0.735c-0.282-0.26-0.735-0.183-1.083-0.024c-0.349,0.159-0.687,0.389-1.07,0.393
				c-0.337,0.003-0.669-0.189-0.834-0.484c-0.095-0.17-0.137-0.368-0.244-0.531c-0.323-0.494-1.117-0.445-1.561-0.056
				s-0.627,0.989-0.791,1.557c-0.362,1.257-0.727,2.571-0.482,3.856c0.165,0.864,0.597,1.653,0.85,2.495l0.197-0.322
				c0.688,0.051,1.376,0.101,2.065,0.152c0.26,0.019,0.525,0.038,0.779-0.023c0.465-0.111,0.822-0.468,1.207-0.751
				c0.423-0.31,0.906-0.544,1.264-0.927c0.358-0.383,0.559-0.987,0.285-1.433C422.287,372.024,422.193,371.929,422.119,371.818z"/>
			<path style="fill:#B72E48;" d="M408.339,372.208c0.094-0.273,0.165-0.576,0.385-0.762c0.263-0.222,0.648-0.204,0.974-0.314
				c0.529-0.179,0.88-0.704,1.007-1.248c0.127-0.544,0.066-1.112,0.005-1.667c-0.012-0.112-0.029-0.235-0.11-0.314
				c-0.082-0.08-0.207-0.093-0.322-0.095c-0.676-0.009-1.352,0.245-1.855,0.697c-0.103,0.093-0.208,0.198-0.345,0.224
				c-0.287,0.055-0.506-0.265-0.56-0.553c-0.07-0.371-0.009-0.756-0.076-1.128c-0.068-0.371-0.334-0.758-0.711-0.763
				c-0.419-0.006-0.692,0.447-0.779,0.857c-0.087,0.41-0.092,0.865-0.357,1.191c-0.056,0.069-0.124,0.131-0.208,0.159
				c-0.297,0.1-0.537-0.237-0.787-0.426c-0.43-0.326-1.092-0.207-1.473,0.175c-0.382,0.382-0.514,0.958-0.473,1.496
				c0.041,0.538,0.234,1.051,0.426,1.556c0.359,0.946,0.717,1.891,1.076,2.837l-0.212,0.244
				C405.661,374.953,407.75,373.923,408.339,372.208z"/>
			<path style="fill:#B72E48;" d="M395.681,379.962c-0.439-0.41-0.282-1.255-0.789-1.577c-0.222-0.141-0.507-0.129-0.765-0.077
				c-0.665,0.135-1.335,0.609-1.396,1.284c-0.065,0.724,0.57,1.488,0.21,2.119c-0.141,0.247-0.402,0.395-0.625,0.571
				c-0.495,0.392-0.839,1.017-0.764,1.643c0.074,0.627,0.647,1.194,1.276,1.142c0.162-0.013,0.326-0.064,0.484-0.022
				c0.605,0.159,0.32,1.291,0.892,1.543c0.246,0.108,0.527-0.015,0.767-0.135c0.9-0.453,1.797-0.912,2.692-1.376l-0.163,0.069
				c0.341-0.217,0.448-0.658,0.514-1.056c0.12-0.724,0.198-1.454,0.236-2.187c0.029-0.573-0.022-1.254-0.512-1.553
				C397.128,379.979,396.202,380.449,395.681,379.962z"/>
			<path style="fill:#B72E48;" d="M413.89,391.184c-0.439-0.41-0.282-1.255-0.789-1.577c-0.222-0.141-0.507-0.129-0.765-0.077
				c-0.665,0.135-1.335,0.609-1.396,1.284c-0.066,0.724,0.57,1.488,0.21,2.119c-0.141,0.247-0.402,0.395-0.625,0.571
				c-0.495,0.392-0.839,1.017-0.764,1.643c0.074,0.627,0.647,1.194,1.276,1.142c0.162-0.013,0.326-0.064,0.484-0.022
				c0.605,0.159,0.32,1.291,0.892,1.543c0.246,0.108,0.527-0.015,0.768-0.136c0.9-0.453,1.797-0.912,2.692-1.376l-0.163,0.068
				c0.341-0.217,0.448-0.658,0.513-1.056c0.12-0.724,0.198-1.454,0.236-2.187c0.029-0.573-0.022-1.254-0.512-1.553
				C415.337,391.201,414.412,391.671,413.89,391.184z"/>
			<path style="fill:#B72E48;" d="M431.578,372.007c0.216-0.537,0.935-0.709,1.204-1.222c0.198-0.377,0.087-0.869-0.204-1.18
				c-0.291-0.311-0.73-0.454-1.155-0.457c-0.452-0.004-0.968,0.117-1.307-0.182c-0.174-0.153-0.254-0.383-0.339-0.599
				c-0.213-0.536-0.502-1.041-0.857-1.496c-0.09-0.115-0.193-0.233-0.334-0.271c-0.181-0.049-0.367,0.046-0.53,0.139
				c-0.804,0.455-1.656,0.961-2.045,1.799c-0.212,0.457-0.263,0.969-0.311,1.47c-0.055,0.574-0.11,1.148-0.165,1.722
				c-0.037,0.382-0.072,0.777,0.053,1.14l-0.614-0.293c0.047,0.542,0.564,1,1.108,0.981c0.158-0.005,0.314-0.046,0.472-0.055
				c0.397-0.023,0.776,0.15,1.136,0.318c0.527,0.247,1.054,0.494,1.581,0.741c0.456,0.213,0.93,0.431,1.433,0.433
				c0.503,0.001,1.045-0.278,1.178-0.763C432.085,373.494,431.293,372.716,431.578,372.007z"/>
			<path style="fill:#B72E48;" d="M433.574,389.846c-0.169-0.108-0.368-0.158-0.565-0.193c-0.333-0.059-0.676-0.081-0.991-0.203
				c-0.315-0.122-0.609-0.372-0.664-0.705c-0.069-0.413,0.22-0.907-0.059-1.219c-0.091-0.102-0.227-0.155-0.363-0.165
				c-0.379-0.029-0.708,0.239-0.993,0.49c-0.442,0.39-0.883,0.78-1.325,1.171c-0.18,0.159-0.367,0.329-0.438,0.558
				c-0.077,0.248-0.002,0.514,0.042,0.77c0.137,0.81-0.06,1.672-0.536,2.341l0.171,0.387c0.264-0.057,0.52,0.096,0.761,0.217
				c1.179,0.593,2.68,0.48,3.757-0.282c0.134-0.095,0.268-0.207,0.324-0.362c0.116-0.322-0.12-0.761,0.14-0.982
				c0.117-0.1,0.286-0.099,0.436-0.132c0.357-0.077,0.653-0.384,0.718-0.744C434.053,390.434,433.882,390.043,433.574,389.846z"/>
			<path style="fill:#B72E48;" d="M424.192,384.972c-0.169-0.108-0.368-0.158-0.565-0.193c-0.333-0.059-0.676-0.081-0.991-0.203
				c-0.315-0.122-0.608-0.372-0.664-0.705c-0.069-0.413,0.22-0.907-0.059-1.219c-0.091-0.102-0.227-0.155-0.363-0.165
				c-0.379-0.029-0.708,0.239-0.993,0.49c-0.442,0.39-0.883,0.78-1.325,1.171c-0.18,0.159-0.367,0.329-0.438,0.559
				c-0.077,0.248-0.002,0.514,0.042,0.77c0.138,0.81-0.06,1.672-0.536,2.341l0.171,0.387c0.263-0.057,0.52,0.096,0.761,0.217
				c1.178,0.593,2.68,0.48,3.757-0.282c0.134-0.095,0.268-0.207,0.324-0.362c0.116-0.321-0.12-0.761,0.14-0.982
				c0.117-0.1,0.286-0.099,0.436-0.132c0.357-0.077,0.653-0.384,0.718-0.744C424.671,385.559,424.5,385.168,424.192,384.972z"/>
			<path style="fill:#B72E48;" d="M398.799,377.719c0.012,0.2,0.089,0.39,0.177,0.57c0.148,0.304,0.333,0.594,0.42,0.92
				c0.087,0.326,0.058,0.711-0.179,0.952c-0.293,0.299-0.862,0.356-0.951,0.765c-0.029,0.133,0.009,0.275,0.08,0.391
				c0.199,0.323,0.61,0.432,0.98,0.514c0.576,0.127,1.151,0.255,1.727,0.382c0.234,0.052,0.483,0.103,0.709,0.025
				c0.246-0.084,0.416-0.301,0.598-0.487c0.574-0.588,1.386-0.936,2.208-0.945l0.212-0.366c-0.201-0.179-0.229-0.477-0.273-0.743
				c-0.215-1.302-1.19-2.449-2.44-2.871c-0.156-0.053-0.325-0.095-0.483-0.048c-0.328,0.096-0.544,0.545-0.876,0.465
				c-0.15-0.036-0.249-0.172-0.363-0.275c-0.273-0.243-0.695-0.302-1.024-0.142S398.776,377.355,398.799,377.719z"/>
		</g>
		<path style="fill:#8B383E;" d="M411.428,414.498c-0.419-4.163-1.574-10.21-4.704-15.368c-1.006-1.658-2.278-3.057-3.623-4.537
			c-1.554-1.71-3.161-3.478-4.322-5.679c-0.964-1.828-1.473-3.683-1.964-5.478c-0.244-0.892-0.497-1.814-0.803-2.718
			c-0.512-1.515-1.654-3.059-2.758-4.553c-0.332-0.449-0.656-0.887-0.952-1.31l1.494-1.045c0.288,0.411,0.602,0.836,0.924,1.272
			c1.132,1.532,2.416,3.268,3.019,5.053c0.322,0.954,0.582,1.902,0.834,2.82c0.487,1.778,0.947,3.457,1.818,5.108
			c1.053,1.997,2.513,3.603,4.059,5.304c1.345,1.48,2.736,3.01,3.833,4.818c3.307,5.449,4.523,11.78,4.96,16.13L411.428,414.498z"/>
		<path style="fill:#8B383E;" d="M415.103,413.504c-3.196-5.574-1.906-12.454-0.224-18.449l0.276-0.978
			c1.552-5.489,3.156-11.166,1.507-16.384c-0.169-0.536-0.372-1.063-0.574-1.59c-0.452-1.18-0.92-2.402-1.052-3.736
			c-0.189-1.904,0.342-3.762,0.809-5.402l3.978-13.93l1.753,0.501l-3.978,13.93c-0.443,1.555-0.902,3.162-0.748,4.721
			c0.108,1.091,0.512,2.146,0.94,3.263c0.215,0.561,0.429,1.123,0.609,1.692c1.813,5.738,0.133,11.682-1.492,17.429l-0.275,0.975
			c-1.58,5.63-2.811,12.059,0.05,17.05L415.103,413.504z"/>
		<path style="fill:#8B383E;" d="M420,411.69l-1.767-0.449c0.637-2.507,1.54-4.957,2.683-7.281c0.284-0.578,0.606-1.183,1.13-1.671
			c0.427-0.397,0.921-0.653,1.357-0.877c0.154-0.08,0.309-0.159,0.458-0.246c1.174-0.675,2.054-1.813,2.412-3.12
			c0.26-0.952,0.256-1.982,0.25-3.074c-0.006-1.318-0.013-2.682,0.46-4.011c0.499-1.401,1.463-2.533,2.313-3.532l9.842-11.556
			l1.388,1.183l-9.842,11.555c-0.785,0.922-1.597,1.876-1.984,2.962c-0.366,1.027-0.361,2.175-0.355,3.389
			c0.006,1.166,0.011,2.372-0.315,3.564c-0.484,1.768-1.673,3.306-3.262,4.22c-0.174,0.1-0.352,0.192-0.531,0.284
			c-0.363,0.188-0.707,0.365-0.95,0.592c-0.298,0.277-0.519,0.698-0.737,1.141C421.465,406.975,420.606,409.305,420,411.69z"/>
		<path style="fill:#8B383E;" d="M406.067,411.253c-0.262-4.742-0.532-9.646,0.569-14.431c0.078-0.342,0.164-0.687,0.249-1.034
			c0.492-1.992,1-4.051,0.23-5.717c-0.212-0.459-0.523-0.892-0.853-1.351c-0.115-0.159-0.229-0.318-0.34-0.479
			c-2.306-3.344-3.195-7.551-2.44-11.542c0.187-0.989,0.471-1.949,0.745-2.878c0.275-0.931,0.535-1.811,0.705-2.716
			c0.266-1.411,0.363-3.401-0.682-4.865l1.484-1.058c1.418,1.986,1.321,4.501,0.99,6.261c-0.187,0.995-0.473,1.96-0.748,2.895
			c-0.273,0.926-0.532,1.801-0.702,2.7c-0.665,3.516,0.119,7.222,2.15,10.167c0.104,0.152,0.212,0.301,0.319,0.451
			c0.366,0.508,0.743,1.034,1.028,1.65c1.039,2.246,0.426,4.729-0.115,6.919c-0.083,0.338-0.166,0.674-0.243,1.006
			c-1.043,4.533-0.78,9.306-0.525,13.922L406.067,411.253z"/>
		<path style="fill:#8B383E;" d="M423.929,412.775c-6.797-9.001-9.057-19.53-6.045-28.165c1.363-3.906,3.744-7.327,6.046-10.634
			c0.582-0.836,1.163-1.67,1.727-2.512c2.404-3.586,5.154-8.348,5.078-13.381l1.822-0.027c0.084,5.538-2.834,10.617-5.386,14.423
			c-0.57,0.851-1.157,1.695-1.745,2.539c-2.232,3.208-4.54,6.524-5.821,10.194c-2.811,8.058-0.651,17.951,5.778,26.465
			L423.929,412.775z"/>
		<path style="fill:#8B383E;" d="M407.299,413.05c-0.351-7.893-0.748-16.839,1.987-24.951c0.28-0.832,0.593-1.654,0.906-2.475
			c0.561-1.474,1.091-2.866,1.446-4.327c1.274-5.24,0.145-10.525-1.049-16.121c-0.944-4.423-1.92-8.995-1.609-13.568l1.819,0.124
			c-0.294,4.318,0.655,8.764,1.573,13.063c1.185,5.549,2.41,11.288,1.038,16.932c-0.382,1.572-0.958,3.083-1.514,4.545
			c-0.305,0.8-0.609,1.599-0.883,2.41c-2.626,7.788-2.253,16.175-1.893,24.287L407.299,413.05z"/>
		<rect x="394.893" y="408.928" style="fill:#105E99;" width="38.41" height="45.016"/>
		<rect x="396.75" y="408.928" style="fill:#00457A;" width="28.074" height="45.016"/>
		<g>
			<path style="fill:#F24075;" d="M413.107,347.418c0,0-1.481-5.266-5.146-1.418c-3.665,3.848,1.904,8.729,1.904,8.729
				s6.217-4.07,5.609-6.298C414.867,346.202,413.107,347.418,413.107,347.418z"/>
			<path style="fill:#F24075;" d="M424.396,352.725c-0.406-0.384-0.416-1.01-0.475-1.565c-0.043-0.404-0.126-0.803-0.247-1.19
				c-0.08-0.255-0.193-0.524-0.425-0.656c-0.334-0.189-0.757-0.012-1.06,0.222c-0.304,0.234-0.581,0.535-0.953,0.625
				c-0.328,0.079-0.695-0.033-0.922-0.282c-0.132-0.144-0.217-0.327-0.358-0.462c-0.427-0.408-1.188-0.181-1.533,0.299
				c-0.344,0.48-0.387,1.106-0.417,1.695c-0.068,1.306-0.125,2.669,0.405,3.865c0.356,0.804,0.955,1.475,1.393,2.238l0.119-0.358
				c0.682-0.107,1.364-0.213,2.046-0.32c0.258-0.04,0.52-0.082,0.753-0.199c0.427-0.214,0.694-0.642,1.006-1.004
				c0.341-0.397,0.76-0.736,1.021-1.189c0.262-0.454,0.321-1.088-0.047-1.461C424.606,352.887,424.492,352.816,424.396,352.725z"/>
			<path style="fill:#F24075;" d="M413.066,376.231c-0.344-0.115-0.522-0.481-0.709-0.791c-0.136-0.226-0.294-0.438-0.472-0.633
				c-0.117-0.128-0.257-0.256-0.43-0.269c-0.248-0.02-0.449,0.201-0.563,0.422c-0.115,0.221-0.195,0.474-0.39,0.629
				c-0.171,0.137-0.418,0.171-0.62,0.087c-0.117-0.049-0.217-0.133-0.337-0.174c-0.363-0.123-0.749,0.22-0.82,0.596
				c-0.071,0.377,0.075,0.757,0.219,1.112c0.318,0.788,0.658,1.605,1.298,2.164c0.43,0.376,0.967,0.606,1.434,0.935l-0.028-0.244
				c0.372-0.25,0.744-0.499,1.116-0.749c0.141-0.094,0.284-0.191,0.389-0.324c0.193-0.243,0.233-0.568,0.316-0.867
				c0.092-0.327,0.245-0.641,0.275-0.98c0.03-0.339-0.11-0.728-0.428-0.847C413.234,376.269,413.148,376.259,413.066,376.231z"/>
			<path style="fill:#F24075;" d="M421.803,398.897c-0.344-0.114-0.522-0.481-0.709-0.791c-0.136-0.226-0.294-0.438-0.472-0.633
				c-0.117-0.128-0.257-0.256-0.43-0.27c-0.248-0.02-0.449,0.201-0.563,0.422c-0.114,0.221-0.195,0.474-0.39,0.629
				c-0.171,0.137-0.418,0.171-0.62,0.087c-0.117-0.049-0.218-0.133-0.337-0.174c-0.363-0.123-0.749,0.22-0.82,0.596
				c-0.071,0.377,0.075,0.757,0.219,1.112c0.318,0.788,0.658,1.606,1.298,2.164c0.43,0.376,0.967,0.606,1.434,0.935l-0.028-0.244
				c0.372-0.25,0.744-0.5,1.116-0.749c0.141-0.094,0.284-0.191,0.389-0.324c0.193-0.243,0.233-0.568,0.316-0.867
				c0.092-0.327,0.245-0.641,0.275-0.98c0.029-0.339-0.11-0.728-0.428-0.847C421.971,398.934,421.885,398.924,421.803,398.897z"/>
			<path style="fill:#F24075;" d="M424.324,373.345c-0.344-0.115-0.522-0.481-0.709-0.791c-0.136-0.226-0.294-0.438-0.472-0.633
				c-0.117-0.128-0.257-0.256-0.43-0.269c-0.248-0.02-0.449,0.2-0.563,0.421c-0.115,0.221-0.195,0.474-0.39,0.629
				c-0.171,0.137-0.418,0.171-0.62,0.087c-0.117-0.049-0.217-0.133-0.337-0.174c-0.363-0.123-0.749,0.22-0.82,0.596
				c-0.071,0.377,0.076,0.757,0.219,1.112c0.318,0.787,0.658,1.605,1.298,2.164c0.43,0.376,0.967,0.606,1.434,0.935l-0.028-0.244
				c0.372-0.25,0.744-0.5,1.116-0.749c0.141-0.094,0.284-0.191,0.389-0.324c0.193-0.243,0.232-0.569,0.316-0.867
				c0.092-0.327,0.245-0.641,0.275-0.98c0.03-0.339-0.11-0.728-0.428-0.847C424.492,373.383,424.405,373.372,424.324,373.345z"/>
			<path style="fill:#F24075;" d="M417.356,366.038c-0.344-0.115-0.522-0.481-0.709-0.791c-0.136-0.226-0.294-0.438-0.472-0.633
				c-0.117-0.128-0.257-0.256-0.43-0.269c-0.248-0.02-0.449,0.201-0.563,0.422c-0.115,0.221-0.195,0.474-0.39,0.629
				c-0.171,0.137-0.418,0.171-0.62,0.087c-0.117-0.049-0.217-0.133-0.337-0.174c-0.363-0.123-0.749,0.22-0.82,0.596
				s0.075,0.757,0.219,1.112c0.318,0.787,0.658,1.606,1.298,2.164c0.43,0.376,0.967,0.606,1.434,0.935l-0.028-0.243
				c0.372-0.25,0.744-0.5,1.116-0.749c0.141-0.094,0.284-0.191,0.389-0.323c0.193-0.243,0.232-0.569,0.316-0.867
				c0.092-0.327,0.245-0.641,0.275-0.98c0.03-0.339-0.11-0.728-0.428-0.847C417.524,366.076,417.438,366.065,417.356,366.038z"/>
			<path style="fill:#F24075;" d="M405.271,363.083c-0.229-0.176-0.493-0.34-0.599-0.609c-0.127-0.321,0.014-0.679,0.014-1.024
				c-0.001-0.558-0.386-1.059-0.86-1.353c-0.475-0.294-1.032-0.418-1.577-0.538c-0.111-0.024-0.232-0.047-0.333,0.004
				c-0.102,0.052-0.155,0.167-0.193,0.275c-0.224,0.638-0.2,1.36,0.067,1.981c0.055,0.128,0.121,0.261,0.102,0.398
				c-0.04,0.29-0.413,0.395-0.703,0.354c-0.374-0.053-0.72-0.234-1.093-0.288c-0.373-0.055-0.825,0.073-0.951,0.429
				c-0.139,0.395,0.202,0.799,0.563,1.012c0.361,0.214,0.79,0.364,1.014,0.719c0.047,0.075,0.084,0.16,0.084,0.248
				c0,0.314-0.396,0.433-0.656,0.609c-0.447,0.303-0.546,0.968-0.306,1.452c0.24,0.484,0.743,0.794,1.266,0.927
				c0.523,0.134,1.071,0.115,1.61,0.095c1.011-0.037,2.021-0.075,3.032-0.112l0.164,0.279
				C407.014,366.498,406.707,364.189,405.271,363.083z"/>
			<path style="fill:#F24075;" d="M431.751,370.882c0.234-0.107,0.473-0.247,0.729-0.219c0.306,0.033,0.53,0.294,0.802,0.436
				c0.441,0.232,0.996,0.136,1.426-0.116c0.429-0.252,0.759-0.64,1.08-1.021c0.065-0.077,0.134-0.163,0.135-0.264
				c0.001-0.102-0.067-0.191-0.137-0.267c-0.41-0.442-0.99-0.723-1.591-0.771c-0.123-0.01-0.256-0.013-0.357-0.085
				c-0.212-0.152-0.14-0.491,0.013-0.702c0.197-0.273,0.484-0.471,0.682-0.743c0.198-0.272,0.285-0.682,0.057-0.928
				c-0.254-0.274-0.714-0.173-1.033,0.023c-0.319,0.196-0.616,0.472-0.989,0.502c-0.079,0.006-0.161,0-0.231-0.037
				c-0.248-0.131-0.177-0.493-0.208-0.771c-0.054-0.478-0.537-0.833-1.018-0.845c-0.481-0.012-0.935,0.257-1.258,0.614
				c-0.323,0.357-0.536,0.798-0.744,1.232c-0.391,0.813-0.782,1.626-1.172,2.439l-0.288,0.013
				C428.332,370.837,430.281,371.555,431.751,370.882z"/>
			<path style="fill:#F24075;" d="M406.872,401.235c-0.216-0.167-0.466-0.322-0.566-0.576c-0.12-0.303,0.013-0.642,0.013-0.968
				c-0.001-0.528-0.365-1.002-0.814-1.28c-0.449-0.278-0.976-0.396-1.492-0.509c-0.105-0.023-0.219-0.045-0.315,0.004
				c-0.097,0.049-0.146,0.158-0.182,0.26c-0.212,0.603-0.189,1.286,0.063,1.874c0.052,0.121,0.115,0.247,0.097,0.377
				c-0.038,0.274-0.391,0.374-0.665,0.335c-0.353-0.05-0.681-0.221-1.034-0.273c-0.353-0.052-0.78,0.07-0.899,0.406
				c-0.132,0.374,0.191,0.756,0.532,0.958c0.341,0.202,0.747,0.345,0.959,0.68c0.045,0.071,0.08,0.151,0.08,0.235
				c0,0.297-0.375,0.41-0.62,0.576c-0.422,0.287-0.516,0.916-0.289,1.373c0.227,0.457,0.703,0.75,1.198,0.877
				c0.495,0.126,1.013,0.108,1.523,0.09c0.956-0.035,1.912-0.07,2.868-0.106l0.155,0.264
				C408.521,404.466,408.231,402.282,406.872,401.235z"/>
			<path style="fill:#F24075;" d="M393.391,370.452c-0.328-0.503,0.028-1.286-0.387-1.72c-0.182-0.19-0.462-0.247-0.724-0.258
				c-0.678-0.028-1.442,0.271-1.664,0.912c-0.237,0.687,0.196,1.581-0.305,2.108c-0.196,0.206-0.485,0.286-0.744,0.404
				c-0.574,0.262-1.058,0.786-1.137,1.412c-0.079,0.626,0.341,1.315,0.964,1.415c0.16,0.026,0.332,0.016,0.475,0.094
				c0.549,0.3,0,1.33,0.496,1.712c0.213,0.164,0.515,0.112,0.778,0.053c0.983-0.224,1.964-0.454,2.944-0.689l-0.174,0.028
				c0.383-0.129,0.593-0.531,0.752-0.902c0.29-0.674,0.542-1.364,0.754-2.066c0.166-0.549,0.28-1.223-0.124-1.63
				C394.792,370.815,393.781,371.05,393.391,370.452z"/>
			<path style="fill:#F24075;" d="M417.026,384.767c-0.328-0.503,0.028-1.286-0.387-1.72c-0.182-0.19-0.462-0.247-0.724-0.258
				c-0.678-0.028-1.442,0.271-1.664,0.912c-0.237,0.687,0.196,1.581-0.305,2.108c-0.196,0.206-0.485,0.287-0.744,0.404
				c-0.574,0.262-1.058,0.785-1.137,1.412c-0.079,0.626,0.341,1.315,0.964,1.415c0.16,0.026,0.332,0.016,0.475,0.094
				c0.549,0.3,0,1.33,0.496,1.712c0.213,0.164,0.515,0.113,0.778,0.053c0.983-0.224,1.964-0.454,2.944-0.689l-0.174,0.027
				c0.383-0.129,0.592-0.531,0.752-0.902c0.29-0.674,0.542-1.364,0.754-2.066c0.166-0.549,0.28-1.223-0.124-1.63
				C418.427,385.13,417.416,385.365,417.026,384.767z"/>
			<path style="fill:#F24075;" d="M434.082,356.047c-0.318-0.484-0.048-1.172-0.314-1.686c-0.196-0.378-0.664-0.568-1.085-0.507
				c-0.421,0.061-0.79,0.339-1.036,0.687c-0.261,0.369-0.458,0.861-0.896,0.969c-0.225,0.055-0.46-0.011-0.686-0.064
				c-0.561-0.132-1.142-0.183-1.718-0.152c-0.146,0.008-0.301,0.025-0.413,0.119c-0.144,0.121-0.171,0.328-0.189,0.515
				c-0.086,0.92-0.158,1.909,0.308,2.707c0.254,0.435,0.645,0.769,1.029,1.095c0.44,0.373,0.879,0.746,1.319,1.119
				c0.292,0.248,0.597,0.503,0.965,0.608l-0.591,0.337c0.472,0.271,1.143,0.108,1.438-0.349c0.086-0.133,0.142-0.284,0.225-0.419
				c0.208-0.339,0.566-0.551,0.911-0.751c0.504-0.291,1.007-0.583,1.511-0.874c0.436-0.252,0.885-0.516,1.174-0.928
				c0.289-0.412,0.369-1.016,0.047-1.403C435.591,356.482,434.501,356.687,434.082,356.047z"/>
			<path style="fill:#F24075;" d="M402.374,385.523c-0.256-0.484-0.038-1.173-0.254-1.686c-0.158-0.378-0.535-0.568-0.875-0.507
				c-0.34,0.061-0.637,0.339-0.835,0.687c-0.21,0.369-0.369,0.861-0.722,0.969c-0.181,0.055-0.371-0.011-0.553-0.064
				c-0.453-0.132-0.92-0.183-1.385-0.152c-0.118,0.008-0.243,0.025-0.333,0.119c-0.116,0.121-0.138,0.328-0.152,0.515
				c-0.069,0.92-0.127,1.909,0.248,2.707c0.205,0.435,0.52,0.769,0.829,1.095c0.354,0.373,0.709,0.746,1.063,1.119
				c0.236,0.248,0.481,0.503,0.778,0.608l-0.477,0.337c0.38,0.271,0.921,0.108,1.159-0.349c0.069-0.133,0.114-0.284,0.181-0.419
				c0.168-0.339,0.457-0.551,0.734-0.751c0.406-0.291,0.812-0.583,1.218-0.874c0.351-0.252,0.714-0.516,0.947-0.929
				c0.233-0.412,0.297-1.016,0.038-1.403C403.591,385.957,402.712,386.162,402.374,385.523z"/>
			<path style="fill:#F24075;" d="M429.372,390.661c-0.256-0.484-0.038-1.173-0.254-1.686c-0.158-0.378-0.535-0.568-0.875-0.507
				c-0.34,0.061-0.637,0.339-0.835,0.687c-0.21,0.369-0.369,0.861-0.722,0.969c-0.181,0.055-0.371-0.011-0.553-0.064
				c-0.453-0.132-0.92-0.183-1.385-0.152c-0.118,0.008-0.243,0.025-0.333,0.119c-0.116,0.121-0.138,0.328-0.152,0.515
				c-0.069,0.92-0.127,1.909,0.248,2.707c0.204,0.435,0.52,0.769,0.829,1.095c0.354,0.373,0.709,0.746,1.063,1.119
				c0.236,0.248,0.481,0.503,0.778,0.608l-0.477,0.337c0.38,0.271,0.921,0.108,1.159-0.349c0.069-0.133,0.114-0.284,0.181-0.419
				c0.168-0.339,0.457-0.551,0.734-0.751c0.406-0.291,0.812-0.583,1.218-0.874c0.351-0.252,0.714-0.516,0.947-0.929
				c0.233-0.412,0.297-1.016,0.038-1.403C430.589,391.095,429.71,391.3,429.372,390.661z"/>
			<path style="fill:#F24075;" d="M443.878,375.681c-0.169-0.108-0.368-0.158-0.565-0.193c-0.333-0.059-0.676-0.081-0.991-0.203
				c-0.315-0.122-0.609-0.372-0.664-0.705c-0.069-0.413,0.22-0.907-0.059-1.219c-0.091-0.102-0.227-0.155-0.363-0.165
				c-0.379-0.029-0.708,0.238-0.993,0.49c-0.442,0.39-0.883,0.78-1.325,1.171c-0.18,0.159-0.367,0.329-0.438,0.558
				c-0.077,0.248-0.002,0.514,0.042,0.77c0.137,0.81-0.06,1.672-0.536,2.341l0.171,0.387c0.263-0.057,0.52,0.096,0.761,0.217
				c1.179,0.593,2.68,0.48,3.757-0.282c0.134-0.095,0.268-0.207,0.324-0.362c0.116-0.321-0.121-0.761,0.14-0.982
				c0.117-0.1,0.286-0.099,0.436-0.132c0.357-0.077,0.653-0.384,0.718-0.744S444.186,375.877,443.878,375.681z"/>
			<path style="fill:#F24075;" d="M432.433,379.379c-0.194,0.051-0.366,0.163-0.525,0.284c-0.269,0.204-0.518,0.442-0.821,0.591
				c-0.303,0.149-0.686,0.195-0.968,0.01c-0.35-0.23-0.517-0.777-0.936-0.784c-0.136-0.002-0.268,0.062-0.368,0.155
				c-0.278,0.259-0.305,0.682-0.313,1.062c-0.013,0.589-0.025,1.178-0.038,1.768c-0.005,0.24-0.007,0.493,0.113,0.701
				c0.13,0.225,0.376,0.35,0.594,0.492c0.689,0.448,1.188,1.178,1.357,1.982l0.4,0.137c0.137-0.232,0.423-0.317,0.676-0.412
				c1.235-0.464,2.171-1.644,2.341-2.952c0.021-0.163,0.029-0.337-0.046-0.483c-0.158-0.303-0.641-0.427-0.627-0.769
				c0.006-0.154,0.121-0.277,0.199-0.41c0.185-0.315,0.161-0.741-0.06-1.032C433.19,379.425,432.787,379.286,432.433,379.379z"/>
		</g>
	</g>
	<g>
		<polygon style="fill:#3A9FD1;" points="144.277,453.944 140.111,453.944 139.101,388.807 145.287,388.807 		"/>
		<g>
			<polygon style="fill:#105E99;" points="103.486,453.94 108.172,453.94 119.284,388.807 111.567,388.807 			"/>
			<polygon style="fill:#105E99;" points="180.902,453.94 176.216,453.94 165.104,388.807 172.821,388.807 			"/>
		</g>
		<path style="fill:#FFCC66;" d="M175.457,390.572h-66.526v-9.188c0-2.864,2.321-5.185,5.185-5.185h56.156
			c2.864,0,5.185,2.321,5.185,5.185V390.572z"/>
		<path style="fill:#00457A;" d="M176.591,391.633h-68.793c-0.593,0-1.074-0.481-1.074-1.074v-5.996
			c0-0.593,0.481-1.074,1.074-1.074h68.793c0.593,0,1.074,0.481,1.074,1.074v5.996C177.664,391.153,177.184,391.633,176.591,391.633
			z"/>
	</g>
	<g>
		<g>
			<defs>
				<path id="SVGID_1_" d="M467.894,258.836H253.426c-3.49,0-6.32-2.83-6.32-6.32V98.743c0-3.459,2.804-6.263,6.263-6.263h214.525
					c4.957,0,8.975,4.018,8.975,8.975v148.407C476.868,254.818,472.85,258.836,467.894,258.836z"/>
			</defs>
			<use xlink:href="#SVGID_1_"  style="overflow:visible;fill:#FFCC66;"/>
			<clipPath id="SVGID_00000158743809630897293830000013433961653675986602_">
				<use xlink:href="#SVGID_1_"  style="overflow:visible;"/>
			</clipPath>
			
				<rect x="213.986" y="71.937" style="clip-path:url(#SVGID_00000158743809630897293830000013433961653675986602_);fill:#80D5FF;" width="262.882" height="195.759"/>
			<polygon style="clip-path:url(#SVGID_00000158743809630897293830000013433961653675986602_);fill:#3A9FD1;" points="
				477.55,75.508 291.434,282.422 511.216,282.422 511.216,75.508 			"/>
			<path style="clip-path:url(#SVGID_00000158743809630897293830000013433961653675986602_);fill:#3A9FD1;" d="M470.493,94.611
				c2.34,0,4.244,1.904,4.244,4.244v153.606c0,2.34-1.904,4.244-4.244,4.244H253.481c-2.34,0-4.244-1.904-4.244-4.244V98.855
				c0-2.34,1.904-4.244,4.244-4.244H470.493 M470.493,92.48H253.481c-3.521,0-6.375,2.854-6.375,6.375v153.606
				c0,3.521,2.854,6.375,6.375,6.375h217.012c3.521,0,6.376-2.854,6.376-6.375V98.855C476.868,95.334,474.014,92.48,470.493,92.48
				L470.493,92.48z"/>
			<g style="clip-path:url(#SVGID_00000158743809630897293830000013433961653675986602_);">
				<path style="fill:#FF8B66;" d="M410.276,193.955c9.043,2.87,14.371,18.854,14.726,20.275c0.355,1.421,0,6.038,0,6.038
					l14.563,46.578L420.03,271.7c0,0-7.247-20.678-9.754-30.586L401.56,229.6L410.276,193.955z"/>
				<path style="fill:#FF8B66;" d="M330.891,181.445c-12.802-1.314-19.196,15.735-19.196,15.735s-13.296,7.083-22.484,16.549
					c0,0,4.398-24.652,7.758-28.77l-9.025-5.894c0,0-14.61,24.864-18.162,33.033c-3.552,8.169-2.741,15.649-2.741,15.649
					s-3.297,11.843,5.661,12.337c21.556,1.188,46.742-21.736,46.742-21.736l8.594,2.274L330.891,181.445z"/>
				<path style="fill:#105E99;" d="M401.56,322.254c0,0-28.217,4.935-71.465-9.89l0.796-64.11
					c-6.409-21.195-5.141-57.481-0.001-66.808c0,0,5.69,0.448,14.179,1.307c12.29,1.243,30.447,3.36,45.692,6.28
					c7.594,1.442,14.457,3.09,19.514,4.923c0,0-0.192,33.651-12.979,58.022C397.297,251.977,393.745,283.18,401.56,322.254z"/>
				<path style="fill:#FF8B66;" d="M390.762,189.032c-0.554,2.046-1.421,4.681-2.742,7.395
					c-3.694,7.601-10.919,15.799-24.587,13.185c-14.485-2.771-18.108-12.354-18.683-19.578c-0.249-3.104,0.064-5.775,0.32-7.282
					C357.359,183.996,375.517,186.113,390.762,189.032z"/>
				<g>
					<path style="fill:#FF8B66;" d="M202.832,161.057c1.009,1.223,2.594,5.909,2.594,5.909c0.606,3.914,0.961,6.076,2.271,7.905
						c1.295,1.828-1.33,15.956-1.33,15.956s6.412-0.054,10.959-3.271c0,0,0.239-11.203,0.731-12.074
						c0.97-1.743,3.932-2.597,5.044-6.138c1.113-3.556,4.242-7.457,4.242-7.457s-0.8-1.885-2.403-0.801
						c-1.618,1.098-2.708,3.928-3.574,4.192c-0.176,0.053-0.352,0.091-0.526,0.1c0,0-0.014,0-0.044,0.013
						c-0.656,0.067-1.32-0.099-1.714-0.503c-0.029-0.015-0.071-0.046-0.099-0.09c-1.386-1.714-1.569-6.633-1.443-8.824
						c0.181-3.047,0.195-7.262-1.686-6.607c-1.881,0.654-0.234,2.406-1.879,9.085l-0.7,0.066c-0.145,0.475-1.283-4.124-1.456-8.417
						c-0.127-2.955-2.092-1.925-2.542-1.009c-0.464,0.916,0.099,3.869,0.164,6.008c0.058,1.412,0.129,2.882,0.175,3.756
						l-0.827,0.425c-2.776-5.202-1.708-7.291-3.419-7.446c-1.696-0.154-1.219,4.178-0.355,5.847c0.37,0.724,0.702,2.217,0.962,3.678
						c-2.899-3.563-2.509-5.368-3.895-5.193C200.651,156.353,201.823,159.834,202.832,161.057z"/>
					<path style="fill:#EF6E4B;" d="M215.567,169.459c1.103-2.771,4.773-3.937,5.227-4.069c-0.656,0.067-1.32-0.099-1.714-0.503
						C215.473,166.374,215.567,169.459,215.567,169.459z"/>
				</g>
				<path style="fill:#EF6E4B;" d="M390.762,189.032c-0.554,2.046-1.421,4.681-2.742,7.395h-20.822l-4,4.781l-2.152-4.781
					l-16.296-6.394c-0.249-3.104,0.064-5.775,0.32-7.282C357.359,183.996,375.517,186.113,390.762,189.032z"/>
				<path style="fill:#EF6E4B;" d="M355.849,178.424c0,0,4.532,5.426,1.825,8.707c0,0,2.812,5.901,7.866,6.162
					c5.84,0.302,10.355-4.805,10.355-4.805s-3.089-15.447,0-18.338L355.849,178.424z"/>
				<g>
					<path style="fill:#FF8B66;" d="M359.25,182.824c10.138-1.653,21.572-10.755,18.334-30.616
						c-1.67-10.244-7.908-15.678-19.262-13.827c-11.355,1.851-15.113,8.914-13.443,19.159
						C348.359,178.882,348.777,184.532,359.25,182.824z"/>
					<path style="fill:#FF8B66;" d="M346.022,158.493c0,0,0.705,6.532-3.213,10.917l3.815,1.846l0.599,3.672
						c0,0,5.535,0.448,9.63-4.074C360.949,166.331,346.022,158.493,346.022,158.493z"/>
					<g>
						<path style="fill:#662C33;" d="M350.604,155.043c0.122-0.036,0.231-0.116,0.299-0.235c0.142-0.246,0.058-0.56-0.186-0.702
							c-2.178-1.26-4.922-0.385-5.028-0.348c-0.269,0.089-0.416,0.377-0.328,0.647c0.088,0.27,0.388,0.41,0.647,0.329
							c0.017-0.009,2.427-0.764,4.193,0.261C350.33,155.067,350.474,155.081,350.604,155.043z"/>
					</g>
					<path style="fill:#394D6F;" d="M349.906,158.524c-0.7,0.114-1.124,1.083-0.948,2.163c0.176,1.08,0.886,1.864,1.585,1.75
						c0.7-0.114,1.124-1.082,0.948-2.163C351.316,159.193,350.606,158.41,349.906,158.524z"/>
					<path style="fill:#394D6F;" d="M348.349,174.973c0,0,3.783-0.645,5.213-2c0,0-0.652,2.437-4.634,3.345L348.349,174.973z"/>
					<path style="fill:#662C33;" d="M353.153,147.809c0,0,5.009,4.607,8.315,15.712c0,0,1.316-7.453,6.512-5.936
						c5.195,1.517,1.745,10.94-1.45,11.691c0,0,3.004,5.785,7.02,6.972c0,0,11.807-16.02,6.168-29.949
						C374.079,132.369,353.153,147.809,353.153,147.809z"/>
					<path style="fill:#FA666C;" d="M351.875,165.489c0.071,0.975,1.117,1.693,2.337,1.604c1.219-0.089,2.15-0.952,2.079-1.927
						c-0.071-0.975-1.118-1.693-2.337-1.604C352.735,163.651,351.804,164.514,351.875,165.489z"/>
					<path style="fill:#FF8B66;" d="M361.046,164.591c0,0,1.364-8.768,6.414-7.395c5.803,1.577,4.196,12.01-1.04,12.873
						C361.184,170.933,361.046,164.591,361.046,164.591z"/>
					<path style="fill:#662C33;" d="M353.153,147.809c0,0-4.664-0.329-8.295,1.646c0,0-4.541-4.591-0.357-11.431
						c4.184-6.84,3.848,0,3.848,0s9.43-5.938,12.697-5.064c3.267,0.874,1.123,2.731,1.123,2.731s18.923-2.337,17.549,10.608
						C379.718,146.298,366.501,141.88,353.153,147.809z"/>
				</g>
				<g>
					
						<ellipse transform="matrix(0.0275 -0.9996 0.9996 0.0275 123.7165 471.374)" style="fill:#F24075;" cx="304.118" cy="172.104" rx="13.742" ry="13.742"/>
					<path style="fill:#D61B53;" d="M311.863,181.617c-4.331,4.104-11.169,3.92-15.273-0.41c-4.104-4.331-3.92-11.169,0.411-15.273
						c4.331-4.104,11.169-3.92,15.273,0.411C316.378,170.675,316.194,177.513,311.863,181.617z"/>
				</g>
				<path style="fill:#FF8B66;" d="M287.944,179.065c1.892-2.595,8.822-13.855,10.608-13.701c1.786,0.154,9.596,1.063,10.98,2.523
					c0.845,0.892,2.497,7.791,2.05,9.138c-0.447,1.347-3.673,3.481-3.673,3.481s-0.948,1.257-3.111,3.359
					c-2.164,2.102-7.349,2.129-8.692,4.695C294.761,191.128,287.944,179.065,287.944,179.065z"/>
				<path style="fill:#D61B53;" d="M309.259,181.647c0,0-0.669-5.634-1.506-6.842c-0.837-1.208-3.781-2.092-5.384-0.429
					c-1.603,1.663-2.111,7.378-2.111,7.378L309.259,181.647z"/>
				<g>
					
						<ellipse transform="matrix(0.0265 -0.9996 0.9996 0.0265 106.4906 487.5111)" style="fill:#F24075;" cx="303.554" cy="189.079" rx="13.742" ry="13.742"/>
					<path style="fill:#D61B53;" d="M311.299,198.592c-4.331,4.104-11.169,3.92-15.273-0.411c-4.104-4.331-3.92-11.169,0.411-15.273
						c4.331-4.104,11.169-3.92,15.273,0.411C315.814,187.65,315.63,194.488,311.299,198.592z"/>
				</g>
			</g>
		</g>
		<path style="fill:#80D5FF;" d="M309.988,252.591c0,0-0.005,0.053-0.014,0.156c-0.005,0.064-0.011,0.143-0.018,0.238
			c-0.008,0.077-0.018,0.165-0.028,0.265c-0.043,0.399-0.115,0.948-0.224,1.63c-0.217,1.363-0.582,3.252-1.172,5.457
			c-0.58,2.206-1.397,4.726-2.466,7.334c-0.532,1.304-1.135,2.628-1.8,3.942c-0.669,1.313-1.386,2.621-2.179,3.882
			c-0.776,1.268-1.633,2.485-2.499,3.65c-0.453,0.567-0.903,1.129-1.347,1.685c-0.472,0.534-0.921,1.068-1.389,1.57
			c-0.481,0.493-0.937,0.987-1.409,1.445c-0.48,0.447-0.949,0.885-1.406,1.311c-0.475,0.401-0.937,0.791-1.384,1.169
			c-0.454,0.366-0.912,0.696-1.338,1.023c-0.858,0.647-1.693,1.173-2.415,1.646c-0.752,0.438-1.385,0.837-1.933,1.125
			c-1.094,0.564-1.719,0.887-1.719,0.887s0.521-0.467,1.434-1.283c0.451-0.409,0.96-0.952,1.556-1.542
			c0.567-0.626,1.216-1.315,1.855-2.121c0.317-0.406,0.657-0.815,0.985-1.258c0.317-0.449,0.645-0.912,0.983-1.389
			c0.312-0.49,0.631-0.994,0.959-1.509c0.316-0.519,0.609-1.069,0.92-1.612c0.299-0.553,0.573-1.131,0.865-1.702
			c0.262-0.586,0.527-1.18,0.794-1.778c0.49-1.215,0.955-2.451,1.337-3.714c1.581-5.037,2.105-10.275,2.105-14.125
			c0.011-1.927-0.096-3.512-0.202-4.581c-0.053-0.534-0.107-0.942-0.147-1.195c-0.01-0.063-0.019-0.118-0.027-0.166
			c-0.008-0.03-0.015-0.055-0.021-0.076c-0.01-0.028-0.018-0.112-0.018-0.099L309.988,252.591z"/>
		<g>
			<path style="fill:#EFEFEF;" d="M326.667,104.743v29.545c0,2.138-1.733,3.879-3.872,3.879h-55.41c-2.145,0-3.879-1.74-3.879-3.879
				v-29.545c0-2.138,1.733-3.872,3.879-3.872h55.41c1.939,0,3.552,1.428,3.822,3.296
				C326.653,104.352,326.667,104.544,326.667,104.743z"/>
			<path style="fill:#FFFFFF;" d="M326.617,104.168c-11.196,9.199-32.394,23.187-63.111,29.268v-28.693
				c0-2.138,1.733-3.872,3.879-3.872h55.41C324.735,100.872,326.348,102.3,326.617,104.168z"/>
			<path style="fill:#EFEFEF;" d="M299.592,133.191c0,0,0.021,0.034,0.061,0.099c0.024,0.041,0.054,0.092,0.09,0.152
				c0.031,0.048,0.066,0.104,0.106,0.167c0.16,0.251,0.39,0.592,0.687,1.01c0.595,0.835,1.462,1.971,2.582,3.243
				c1.114,1.275,2.49,2.682,4.063,4.064c0.785,0.692,1.623,1.373,2.499,2.027c0.878,0.652,1.788,1.286,2.732,1.862
				c0.935,0.587,1.906,1.113,2.867,1.602c0.489,0.227,0.974,0.453,1.453,0.676c0.49,0.199,0.965,0.406,1.443,0.585
				c0.483,0.169,0.949,0.347,1.414,0.496c0.467,0.139,0.923,0.275,1.368,0.408c0.448,0.11,0.885,0.217,1.307,0.32
				c0.423,0.093,0.837,0.162,1.228,0.238c0.784,0.147,1.514,0.221,2.15,0.297c0.644,0.043,1.198,0.1,1.657,0.11
				c0.914,0.014,1.436,0.022,1.436,0.022s-0.501-0.138-1.377-0.38c-0.435-0.123-0.952-0.316-1.544-0.512
				c-0.584-0.229-1.243-0.473-1.934-0.798c-0.345-0.166-0.706-0.325-1.071-0.511c-0.359-0.194-0.73-0.394-1.112-0.599
				c-0.369-0.223-0.748-0.453-1.136-0.687c-0.382-0.241-0.758-0.51-1.144-0.769c-0.381-0.269-0.755-0.563-1.137-0.846
				c-0.368-0.303-0.74-0.611-1.115-0.92c-0.727-0.646-1.445-1.315-2.116-2.029c-2.715-2.828-4.794-6.139-6.065-8.699
				c-0.644-1.278-1.096-2.367-1.379-3.114c-0.141-0.373-0.24-0.662-0.297-0.844c-0.014-0.045-0.026-0.085-0.037-0.119
				c-0.005-0.023-0.008-0.042-0.011-0.057c-0.003-0.022-0.025-0.08-0.021-0.072L299.592,133.191z"/>
			<g>
				<path style="fill:#3A9FD1;" d="M317.109,110.103h-44.044c-0.588,0-1.066-0.477-1.066-1.066c0-0.589,0.477-1.066,1.066-1.066
					h44.044c0.588,0,1.066,0.477,1.066,1.066C318.174,109.626,317.697,110.103,317.109,110.103z"/>
			</g>
			<g>
				<path style="fill:#3A9FD1;" d="M317.109,117.207h-44.044c-0.588,0-1.066-0.477-1.066-1.066s0.477-1.066,1.066-1.066h44.044
					c0.588,0,1.066,0.477,1.066,1.066S317.697,117.207,317.109,117.207z"/>
			</g>
			<g>
				<path style="fill:#3A9FD1;" d="M317.109,124.31h-44.044c-0.588,0-1.066-0.477-1.066-1.066s0.477-1.066,1.066-1.066h44.044
					c0.588,0,1.066,0.477,1.066,1.066S317.697,124.31,317.109,124.31z"/>
			</g>
			<g>
				<path style="fill:#3A9FD1;" d="M302.893,131.414h-29.828c-0.588,0-1.066-0.477-1.066-1.066c0-0.589,0.477-1.066,1.066-1.066
					h29.828c0.588,0,1.066,0.477,1.066,1.066C303.958,130.937,303.481,131.414,302.893,131.414z"/>
			</g>
		</g>
	</g>
	<g>
		<path style="fill:#EF6E4B;" d="M265.605,312.416c0,0,7.861,3.224,7.659,4.063c-0.203,0.839,0.716,5.191-1.437,5.954
			s-4.004,1.267-4.004,1.267s0.357,2.841-3.809,1.997c-4.166-0.844-8.542-4.375-8.255-7.14
			C256.045,315.792,261.24,312.391,265.605,312.416z"/>
		<path style="fill:#0D527C;" d="M92.852,347.293l1.912-1.841l7.162,1.841c0,0,11.357-1.131,12.114-0.921
			c0.757,0.211,15.143-4.32,15.143-4.32l46.274,3.399c0,0,1.98,10.974,2.207,17.031c0.228,6.057-2.431,14.89-7.916,16.405
			c-5.485,1.514-59.742,2.776-63.025,1.262s-8.964,1.115-10.792,0.684C94.103,380.401,89.077,366.174,92.852,347.293z"/>
		<path style="fill:#ADBEC4;" d="M154.269,260.334c2.016,0.852,7.79,4.182,16.564,2.377c0,0,4.541-0.984,4.998,0.408
			c1.251,3.813-9.551,17.023-19.119,10.916c-9.568-6.107-10.881-10.02-9.311-11.266
			C148.969,261.523,154.269,260.334,154.269,260.334z"/>
		<g>
			<path style="fill:#F24075;" d="M101.664,258.806c-0.894,6.019-6.498,10.173-12.516,9.279c-6.018-0.894-10.173-6.498-9.279-12.516
				c0.894-6.019,6.497-10.173,12.516-9.279S102.558,252.788,101.664,258.806z"/>
			<path style="fill:#D61B53;" d="M100.359,259.36c-0.703,4.732-5.108,7.998-9.84,7.295c-4.732-0.703-7.998-5.108-7.295-9.84
				c0.703-4.732,5.108-7.998,9.84-7.295C97.796,250.223,101.062,254.628,100.359,259.36z"/>
		</g>
		<path style="fill:#FF8B66;" d="M127.802,336.151h52.655c7.218-24.886,16.558-58.599,14.838-60.767
			c-0.804-1.021-2.359-2.263-4.607-3.585c-5.402-3.204-14.808-6.882-27.456-9.065c-10.222-1.768-18.905-1.026-24.468-0.071
			c-4.205,0.734-6.646,1.588-6.646,1.588s-3.029,19.585-1.023,43.242C131.714,314.755,129.867,326.243,127.802,336.151z"/>
		<path style="fill:#EF6E4B;" d="M190.688,271.798c-5.154,1.418-24.579-0.511-27.546-0.875c-3.351-0.411-4.32,4.432-5.734,3.788
			c-1.414-0.645-2.275-5.607-5.706-6.28c-3.422-0.66-12.93-5.756-12.93-5.756l-0.009-0.012c5.564-0.955,14.246-1.698,24.468,0.071
			C175.88,264.916,185.286,268.595,190.688,271.798z"/>
		<path style="fill:#EF6E4B;" d="M163.008,254.195c0,0-4.445,6.008-7.464,8.425c0,0,5.656,8.086,16.291,2.592
			c0,0-2.355-2.082,2.009-10.626L163.008,254.195z"/>
		<path style="fill:#FF8B66;" d="M137.108,262.975c-8.665-1.639-14.435,7.951-16.082,15.385c0,0-7.58,7.142-12.717,12.468
			c-5.137,5.326-11.221,9.714-12.996,16.175c-1.774,6.461,0.714,6.167,8.039,6.229c7.325,0.062,31.573-24.72,31.573-24.72
			L137.108,262.975z"/>
		<path style="fill:#F24075;" d="M184.382,268.678c0,0-6.013,10.583-7.079,23.912c-1.066,13.329,5.479,21.209,7.475,21.66
			c1.752,0.396,2.466-1.671,2.466-1.671c0.239,2.611-2.189,9.558-1.816,10.7c0.374,1.142-0.723,19.703-5.206,28.11
			c0,0,0.96,10.826-2.092,12.247c0,0-33.337-5.523-45.05-6.959c-13.934-1.708-16.919-11.448-17.144-12.877
			c-3.746-23.793,14.478-47.132,15.009-52.757c0.531-5.625,5.293-25.009,10.157-28.981c0,0,7.559-1.514,7.867-0.539
			c0,0-2.095,6.914-0.788,11.165c1.947,6.333,13.02,8.589,18.738,3.462c4.218-3.782,7.394-10.242,8.448-10.706
			c1.06-0.466,2.914,0.798,4.773,1.393C182.115,267.47,184.075,267.483,184.382,268.678z"/>
		<path style="fill:#FF8B66;" d="M105.944,308.582c-0.986-5.554,0.641-9.196-4.638-15.1c-5.28-5.905-7.911-24.766-7.911-24.766
			l-9.213-1.368c0,0,0.973,27.586,0.927,30.337c-0.046,2.75,5.221,14.036,8.95,16.762c3.728,2.727,13.624-2.715,13.624-2.715
			L105.944,308.582z"/>
		<path style="fill:#FF8B66;" d="M84.271,269.921c-0.09-2.573-1.553-13.446-0.35-14.232c1.203-0.786,6.581-4.075,8.176-3.839
			c0.974,0.145,5.429,3.681,5.813,4.752c0.384,1.071-0.596,4.013-0.596,4.013s0.024,1.262-0.302,3.658
			c-0.326,2.396-3.584,4.978-3.162,7.262C94.272,273.819,84.271,269.921,84.271,269.921z"/>
		<path style="fill:#D61B53;" d="M98.731,260.667c0,0-3.209-3.224-4.334-3.572c-1.125-0.348-3.421,0.55-3.609,2.392
			c-0.189,1.842,2.317,5.7,2.317,5.7L98.731,260.667z"/>
		<g>
			
				<ellipse transform="matrix(0.9994 -0.0349 0.0349 0.9994 -9.309 3.6157)" style="fill:#F24075;" cx="98.807" cy="268.178" rx="11.017" ry="11.017"/>
			<path style="fill:#D61B53;" d="M108.399,270.35c-0.703,4.732-5.108,7.998-9.84,7.295c-4.732-0.703-7.998-5.108-7.295-9.84
				c0.703-4.732,5.108-7.998,9.84-7.295C105.836,261.212,109.102,265.618,108.399,270.35z"/>
		</g>
		<path style="fill:#CFD8DC;" d="M170.832,262.712c2.386,1.006-8.927,19.112-9.285,25.922c-0.358,6.81-0.498,6.221,1.595,7.037
			c2.093,0.816,1.579,2.04,2.845,3.568c1.266,1.528,5.046-0.482,5.046-0.482s3.473,0.819,3.085,0.458
			c-0.389-0.361-0.141-10.454,2.922-19.418s4.505-14.883,1.623-15.09c0,0-0.398-2.329-3.289-2.979
			C172.483,261.077,170.832,262.712,170.832,262.712z"/>
		<path style="fill:#CFD8DC;" d="M155.804,260.87c0,0-4.85,0.038-9.756,11.822c-1.727,4.148-3.297,8.376-4.504,12.707
			c-0.355,1.273-0.677,2.555-0.947,3.849c-0.307,1.47-0.374,2.63-0.283,4.143c0.008,0.127,0.012,0.26-0.045,0.374
			c-0.181,0.362-0.723,0.213-1.118,0.305c-0.68,0.159-0.855,1.046-0.797,1.742c0.058,0.696,0.168,1.51-0.339,1.99
			c-0.344,0.326-0.859,0.373-1.333,0.402c-1.961,0.121-4.19,0.145-5.564-1.26c1.362-0.924,2.212-2.558,2.185-4.204
			c-0.007-0.452-0.076-0.901-0.119-1.352c-0.406-4.304,1.149-8.998,2.436-13.072c1.359-4.301,3.105-8.6,5.728-12.297
			c5.273-7.43,8.07-6.13,8.07-6.13S154.102,258.089,155.804,260.87z"/>
		<g>
			<path style="fill:#662C33;" d="M158.728,240.359c-2.48-3.702,1.113-16.179,12.536-14.412c0,0,6.842-2.145,11.152-1.01
				c4.31,1.136,12.26,4.178,10.998,12.563c-1.262,8.385-9.843,6.057-9.843,6.057S162.426,245.88,158.728,240.359z"/>
			<path style="fill:#FF8B66;" d="M162.755,246.424c-2.751,17.322,16.433,23.688,23.1,14.772c4.026-5.385,2.986-11.35,2.986-11.35
				c2.992-6.738,2.517-11.813-0.802-14.058C176.492,227.97,165.505,229.102,162.755,246.424z"/>
			<path style="fill:#1A4850;" d="M177.178,245.373c-0.232,0.947,0.006,1.819,0.532,1.948c0.526,0.129,1.141-0.534,1.373-1.481
				c0.232-0.947-0.006-1.819-0.532-1.948C178.024,243.763,177.41,244.426,177.178,245.373z"/>
			<path style="fill:#1A4850;" d="M185.665,248.214c-0.232,0.947,0.006,1.819,0.532,1.948c0.526,0.129,1.141-0.534,1.373-1.481
				c0.232-0.947-0.006-1.819-0.532-1.948C186.512,246.604,185.897,247.267,185.665,248.214z"/>
			<path style="fill:#DB614D;" d="M172.294,248.904c-0.416,0.685-0.058,1.661,0.798,2.181c0.856,0.52,1.887,0.386,2.303-0.299
				c0.416-0.685,0.059-1.661-0.798-2.181C173.741,248.086,172.71,248.22,172.294,248.904z"/>
			<path style="fill:#DB614D;" d="M188.966,251.699c0,0.787-0.061,1.777-0.262,2.887c-0.03,0-0.05-0.01-0.081-0.01
				c-0.989-0.152-1.696-0.909-1.575-1.706C187.159,252.103,188.018,251.588,188.966,251.699z"/>
			<g>
				<path style="fill:#662C33;" d="M180.952,240.437c-0.075,0-0.151-0.015-0.225-0.045c-0.018-0.007-1.719-0.714-3.062-0.087
					c-0.291,0.133-0.631,0.009-0.765-0.278c-0.135-0.288-0.01-0.631,0.278-0.765c1.815-0.847,3.914,0.034,4.002,0.072
					c0.292,0.124,0.426,0.461,0.302,0.754C181.389,240.306,181.176,240.437,180.952,240.437z"/>
			</g>
			<g>
				<path style="fill:#662C33;" d="M189.744,244.971c-0.034,0-0.069-0.003-0.104-0.01c-0.312-0.057-0.52-0.357-0.462-0.669
					c0.078-0.428-0.891-0.881-1.403-1.018c-0.307-0.082-0.489-0.397-0.407-0.705c0.082-0.308,0.401-0.486,0.705-0.407
					c0.943,0.252,2.476,1.028,2.237,2.337C190.259,244.777,190.017,244.971,189.744,244.971z"/>
			</g>
			<path style="fill:#DB614D;" d="M184.279,254.973c-0.57,0-1.242-0.141-2.013-0.424l0.298-0.81c1.445,0.53,2.151,0.399,2.488,0.195
				c0.216-0.131,0.309-0.313,0.348-0.425c-1.861-3.939-1.16-8.249-1.129-8.432l0.851,0.144c-0.007,0.042-0.698,4.327,1.121,8.047
				l0.053,0.109l-0.011,0.121c-0.007,0.074-0.089,0.735-0.758,1.156C185.19,254.867,184.772,254.973,184.279,254.973z"/>
			<path style="fill:#662C33;" d="M160.104,237.495c-0.131,0.578-0.259-0.14-0.346,0.529c-1.901,14.591,3.25,16.171,3.25,16.171
				s-0.491-8.98,0.848-8.479c1.339,0.502,1.241,3.243,1.241,3.243s2.053-5.241,5.577-6.65c2.453-0.981,4.429-4.246,5.404-6.141
				L160.104,237.495z"/>
			<path style="fill:#FF8B66;" d="M166.439,246.846c0,0-1.979-3.917-5.026-2.554c-3.047,1.363-0.191,8.375,2.633,8.827
				C166.87,253.571,166.439,246.846,166.439,246.846z"/>
			<path style="fill:#662C33;" d="M167.272,245.149c0,0,0.798,5.109,2.722,6.876c1.925,1.767,10.13,2.271,12.421,3.702
				c0,0,2.289,0.168,3.257,0.673c0.968,0.505,2.636,0.01,2.834-0.902c0,0-1.676,9.551-10.376,10.156s-14.035-6.035-13.951-10.252
				c0.084-4.217,2.463-4.677,2.283-9.074L167.272,245.149z"/>
			<path style="fill:#CFD8DC;" d="M158.796,238.066c-0.024,0.311-0.04,0.635-0.036,0.973c-0.01,0.14-0.009,0.281-0.007,0.412
				c-0.003,0.315-0.016,0.617-0.026,0.909c-0.004,0.097-0.018,0.193-0.021,0.29c-0.009,0.064-0.007,0.119-0.004,0.173
				c-0.017,0.334,0.019,0.601,0.088,0.795c0.197,0.573,0.586,0.663,0.586,0.663s4-5.642,13.594-5.576
				c9.584,0.065,16.933,2.743,17.596,5.449c0,0,0.339-0.015,0.585-0.207c0.171-0.127,0.3-0.336,0.242-0.681
				c-0.059-0.335,0.073-0.641,0.206-1.023c0.002-0.01,0.015-0.03,0.018-0.051c0.098-0.29,0.192-0.634,0.214-1.076
				c-0.005-0.403-0.077-0.87-0.282-1.465c0,0-1.36-5.074-13.154-6.5c-12.734-1.533-18.318,4.575-19.075,5.353
				C158.989,236.845,158.861,237.412,158.796,238.066z"/>
			<path style="fill:#D61B53;" d="M182.828,259.7c-0.576,0.876-1.575,1.238-2.229,0.807c-0.655-0.431-0.719-1.49-0.142-2.367
				c0.576-0.876,1.574-1.238,2.229-0.807C183.341,257.764,183.404,258.823,182.828,259.7z"/>
			<path style="fill:#662C33;" d="M185.673,231.158c0,0,0.084,3.687,1.052,4.466c0.968,0.78,0.631-2.375,0.631-2.375
				s3.195,6.036,4.459,5.818c1.265-0.219-0.574-3.849-0.574-3.849S188.297,230.543,185.673,231.158z"/>
			<path style="fill:#662C33;" d="M163.283,232.76c0,0-1.674,4.743-2.427,4.739c-0.753-0.004,0.078-2.37,0.078-2.37
				s-1.354,4.644-2.237,3.613C157.815,237.711,160.068,233.132,163.283,232.76z"/>
		</g>
		<path style="fill:#ADBEC4;" d="M138.368,295.209c-0.071-1.312-0.218-8.742,2.23-15.013c2.448-6.27-3.466,0.048-5.021,8.284
			c-1.555,8.236-0.854,8.018,0.344,8.85C137.118,298.162,138.534,298.279,138.368,295.209z"/>
		<path style="fill:#ADBEC4;" d="M167.258,298.502c0.896,0.736,3.147-0.528,3.147-0.528s-0.021-8.793,0.906-12.802
			c0.927-4.009,3.017-8.591,2.432-9.673s-5.094,6.382-6.56,13.458C165.717,296.034,165.86,297.354,167.258,298.502z"/>
		<path style="fill:#FF8B66;" d="M68.613,349.461c-3.343,2.618-6.632,11.644-5.916,17.376l-10.642,69.097l10.284,1.833
			c0,0,17.713-40.374,19.146-46.464c1.433-6.09,1.009-17.58,2.556-20.259l13.958,3.3c0,0,5.486-17.414-2.068-26.909
			C95.932,347.435,72.973,346.046,68.613,349.461z"/>
		<g>
			<path style="fill:#CFD8DC;" d="M31.007,451.952c0,1.169,0.119,1.993,0.119,1.993H64.93c0-0.668-0.117-1.339-0.048-1.993
				c0.771-7.288-0.752-11.766-0.752-11.766s1.801-2.767,0.985-4.12c-1.138-1.887-7.219-3.039-8.451-2.498
				c-0.684,0.3-1.132,2.767-1.132,2.767s0.223-2.632-0.276-3.288c-0.634-0.835-3.933-1.458-3.933-1.458
				c-1.97-0.358-0.664,7.358-3.015,9.172c-0.62,0.489-1.265,0.895-1.933,1.241c-0.31,0.167-0.62,0.322-0.943,0.465
				c-0.704,0.322-1.432,0.585-2.16,0.799c-2.983,0.907-6.002,1.098-8.114,1.42C31.556,445.246,31.007,449.41,31.007,451.952z"/>
			<path style="fill:#ADBEC4;" d="M31.007,451.952c0,1.169,0.119,1.993,0.119,1.993H64.93c0-0.668-0.012-1.336-0.048-1.993H31.007z"
				/>
			<path style="fill:#ADBEC4;" d="M46.376,442.001l4.689,1.503l0.991-1.718l-3.747-1.026
				C47.688,441.249,47.044,441.655,46.376,442.001z"/>
			<path style="fill:#ADBEC4;" d="M43.273,443.265l3.162,2.1l1.945-0.764l-2.947-2.136
				C44.729,442.788,44.001,443.051,43.273,443.265z"/>
		</g>
		<path style="fill:#105E99;" d="M127.802,373.082c0,0-4.171-16.885,1.129-21.693c5.3-4.807,11.127-8.208,13.009-8.4
			c1.882-0.192,12.087,3.846,14.303,6.117c0,0,15.354-2.6,19.687,0.775c4.333,3.375,3.89,22.9-5.15,28.62
			c-9.04,5.721-18.362,3.919-18.362,3.919S131.217,390.496,127.802,373.082z"/>
		<path style="fill:#FF8B66;" d="M152.023,349.106c-3.746-4.384-14.666-5.127-18.192-0.564c-3.89,5.033-4.326,12.372-3.752,15.083
			c0,0-0.095,4.324-0.189,7.896c-0.094,3.572-2.521,16.183-2.229,19.855c0.85,10.676,2.508,26.028,1.433,44.152l12.628,0.627
			c0,0,9.624-37.829,9.624-45.352c0-7.523,2.58-14.827,3.655-20.559C155.374,368.246,158.921,357.18,152.023,349.106z"/>
		<g>
			<path style="fill:#CFD8DC;" d="M121.315,451.952c0.083,1.145,0.382,1.993,0.382,1.993h22.515
				c0.286-0.656,0.489-1.312,0.632-1.993c1.203-5.838-1.243-4.243-1.601-9.617c-0.171-2.56,1.039-7.59-0.717-8.598
				c-0.388-0.223-1.433,1.612-1.433,1.612s0.179-2.06-1.164-2.687c-2.09-0.975-7.362-1.36-9.224,0
				c-0.375,0.273-0.806,2.418-0.806,2.418s-1.174-2.253-1.612-1.791c-2.192,2.309-0.386,11.181-4.407,13.293
				C121.47,447.847,121.16,450.234,121.315,451.952z"/>
			<path style="fill:#ADBEC4;" d="M144.845,451.952h-23.53c0.083,1.145,0.382,1.993,0.382,1.993h22.515
				C144.499,453.288,144.702,452.632,144.845,451.952z"/>
			<path style="fill:#ADBEC4;" d="M125.985,445.775c0,0,9.486-2.163,13.811,0.638v-1.566
				C139.796,444.846,131.817,440.968,125.985,445.775z"/>
			<path style="fill:#ADBEC4;" d="M127.864,443.368c0,0,6.057-2.769,11.932,0l-0.671-1.579
				C139.125,441.789,132.108,439.135,127.864,443.368z"/>
		</g>
		<path style="fill:#FF8B66;" d="M255.204,313.016c-2.585,0.258-9.845,0.172-11.105,0c-3.884-0.53-21.002-4.459-21.002-4.459
			c-8.105-8.745-18.453-21.494-18.453-21.494c-2.019-6.057-6.309-13.502-13.956-15.265c0,0-3.42,17.671-1.722,23.246
			c2.178,7.15,18.454,23.524,18.454,23.524s3.029,6.262,9.118,6.141c9.141-0.182,39.002-1.683,39.002-1.683l0.673,0.074
			L255.204,313.016z"/>
		<path style="fill:#FF8B66;" d="M255.204,313.016l9.59-1.598c0,0,9.031,2.154,11.94,2.271c1.591,0.064,1.26,1.754-0.815,2.103
			c-1.234,0.208-7.76-0.215-9.106-0.696c-1.346-0.482-5.216,2.042-5.048,3.472c0.168,1.43,0.841,3.449,2.187,4.122
			c1.346,0.673,0.673,3.702-1.178,2.86c-1.851-0.841-4.879-0.336-8.749-3.197C250.156,319.494,252.98,313.387,255.204,313.016z"/>
		<path style="fill:#EF6E4B;" d="M190.845,298.732l-4.228-5.149c0,0-2.41,5.342-5.715,6.229
			C180.902,299.813,184.366,304.133,190.845,298.732z"/>
	</g>
	<g>
		<g>
			<polygon style="fill:#00457A;" points="333.161,344.889 338.202,453.944 334.501,453.944 325.085,344.889 			"/>
			<polygon style="fill:#105E99;" points="229.112,344.889 224.07,453.944 227.772,453.944 237.188,344.889 			"/>
			<polygon style="fill:#00457A;" points="259.416,344.889 257.405,453.944 261.107,453.944 267.492,344.889 			"/>
			<polygon style="fill:#105E99;" points="297.806,344.889 299.817,453.944 296.115,453.944 289.73,344.889 			"/>
			<path style="fill:#00457A;" d="M337.176,347.106v-13.172H224.914v13.172c0,1.437,1.165,2.602,2.602,2.602h107.057
				C336.01,349.709,337.176,348.544,337.176,347.106z"/>
			<path style="fill:#105E99;" d="M291.273,349.709l45.903-6.127v-3.512H224.914v7.036c0,1.437,1.165,2.602,2.602,2.602H291.273z"/>
			<path style="fill:#F4BB56;" d="M339.319,340.074H222.771c-1.192,0-2.158-0.966-2.158-2.158v-3.843
				c0-1.192,0.966-2.158,2.158-2.158h116.548c1.192,0,2.158,0.966,2.158,2.158v3.843
				C341.477,339.108,340.511,340.074,339.319,340.074z"/>
			<path style="fill:#FFCC66;" d="M339.319,337.372H222.771c-1.192,0-2.158-0.966-2.158-2.158v-1.141
				c0-1.192,0.966-2.158,2.158-2.158h116.548c1.192,0,2.158,0.966,2.158,2.158v1.141
				C341.477,336.406,340.511,337.372,339.319,337.372z"/>
		</g>
		<g>
			<path style="fill:#80D5FF;" d="M301.471,328.452h-32.052c-0.906,0-1.47-0.704-1.261-1.573l6.307-26.13
				c0.21-0.869,1.114-1.573,2.02-1.573h32.052c0.906,0,1.47,0.704,1.261,1.573l-6.307,26.13
				C303.282,327.748,302.377,328.452,301.471,328.452z"/>
			<path style="fill:#3A9FD1;" d="M302.481,328.452H270.43c-0.906,0-1.47-0.704-1.261-1.573l6.307-26.13
				c0.21-0.869,1.114-1.573,2.02-1.573h32.052c0.906,0,1.471,0.704,1.261,1.573l-6.307,26.13
				C304.292,327.748,303.387,328.452,302.481,328.452z"/>
			<rect x="264.498" y="324.919" style="fill:#105E99;" width="43.283" height="6.996"/>
			<rect x="247.106" y="324.919" style="fill:#00457A;" width="26.52" height="6.996"/>
			<path style="fill:#80D5FF;" d="M292.377,311.669c0.063-0.197,0.145-0.388,0.243-0.573c-0.171-0.038-0.353-0.058-0.547-0.058
				c-1.533,0-3.172,1.243-3.659,2.776c-0.488,1.533,0.36,2.776,1.893,2.776c1.337,0,2.752-0.945,3.417-2.203
				C292.544,314.126,291.95,313.008,292.377,311.669z"/>
		</g>
	</g>
	<g>
		
			<ellipse transform="matrix(0.9228 -0.3852 0.3852 0.9228 -156.8234 103.1716)" style="fill:#80D5FF;" cx="179.068" cy="442.961" rx="10.983" ry="10.983"/>
		<path style="fill:#3A9FD1;" d="M188.845,442.961c0,4.769-3.866,8.635-8.635,8.635s-8.635-3.866-8.635-8.635
			c0-4.769,3.866-8.635,8.635-8.635S188.845,438.193,188.845,442.961z"/>
		<path style="fill:#105E99;" d="M184.826,442.961c0,1.979-1.604,3.584-3.583,3.584c-1.979,0-3.584-1.604-3.584-3.584
			c0-1.979,1.604-3.583,3.584-3.583C183.222,439.378,184.826,440.982,184.826,442.961z"/>
		<rect x="181.243" y="439.378" style="fill:#105E99;" width="19.967" height="7.167"/>
		
			<ellipse transform="matrix(0.9314 -0.3639 0.3639 0.9314 -147.3463 103.8261)" style="fill:#80D5FF;" cx="201.875" cy="442.961" rx="10.983" ry="10.983"/>
		<path style="fill:#3A9FD1;" d="M211.652,442.961c0,4.769-3.866,8.635-8.635,8.635c-4.769,0-8.635-3.866-8.635-8.635
			c0-4.769,3.866-8.635,8.635-8.635C207.786,434.327,211.652,438.193,211.652,442.961z"/>
	</g>
	<g>
		<ellipse style="fill:#D61B53;" cx="257.522" cy="442.961" rx="6.453" ry="10.983"/>
		<path style="fill:#F24075;" d="M250.797,442.961c0,6.066,2.668,10.983,5.96,10.983c3.292,0,5.96-4.917,5.96-10.983
			s-2.668-10.983-5.96-10.983C253.466,431.978,250.797,436.896,250.797,442.961z"/>
		<path style="fill:#D61B53;" d="M251.452,442.961c0,4.769,2.098,8.635,4.686,8.635c2.588,0,4.686-3.866,4.686-8.635
			c0-4.769-2.098-8.635-4.686-8.635C253.549,434.327,251.452,438.193,251.452,442.961z"/>
		<path style="fill:#BC243E;" d="M253.632,442.961c0,1.979,0.871,3.583,1.945,3.583c1.074,0,1.945-1.604,1.945-3.583
			s-0.871-3.583-1.945-3.583C254.503,439.378,253.632,440.982,253.632,442.961z"/>
		
			<rect x="230.623" y="439.378" transform="matrix(-1 -1.224647e-16 1.224647e-16 -1 486.2002 885.9228)" style="fill:#BC243E;" width="24.954" height="7.167"/>
		<ellipse style="fill:#D61B53;" cx="229.799" cy="442.961" rx="6.453" ry="10.983"/>
		<ellipse style="fill:#F24075;" cx="229.176" cy="442.961" rx="5.96" ry="10.983"/>
		<ellipse style="fill:#D61B53;" cx="228.556" cy="442.961" rx="4.686" ry="8.635"/>
	</g>
	<g>
		<ellipse style="fill:#105E99;" cx="475.393" cy="437.437" rx="10.082" ry="17.16"/>
		<path style="fill:#00457A;" d="M464.887,437.438c0,9.477,4.169,17.16,9.312,17.16c5.143,0,9.312-7.683,9.312-17.16
			c0-9.478-4.169-17.16-9.312-17.16C469.056,420.277,464.887,427.96,464.887,437.438z"/>
		<ellipse style="fill:#105E99;" cx="473.23" cy="437.438" rx="7.321" ry="13.491"/>
		<ellipse style="fill:#105E99;" cx="470.175" cy="437.437" rx="7.236" ry="12.316"/>
		<path style="fill:#00457A;" d="M462.635,437.438c0,6.802,2.992,12.316,6.684,12.316c3.691,0,6.684-5.514,6.684-12.316
			c0-6.802-2.992-12.316-6.684-12.316C465.627,425.121,462.635,430.635,462.635,437.438z"/>
		<path style="fill:#105E99;" d="M463.369,437.438c0,5.348,2.353,9.683,5.254,9.683c2.902,0,5.254-4.335,5.254-9.683
			c0-5.348-2.352-9.683-5.254-9.683C465.721,427.755,463.369,432.09,463.369,437.438z"/>
		<path style="fill:#80D5FF;" d="M465.651,437.437c0,1.649,0.725,2.985,1.62,2.985c0.895,0,1.62-1.337,1.62-2.985
			c0-1.649-0.725-2.985-1.62-2.985C466.376,434.452,465.651,435.789,465.651,437.437z"/>
		
			<rect x="345.923" y="434.452" transform="matrix(-1 -1.224647e-16 1.224647e-16 -1 813.194 874.8748)" style="fill:#80D5FF;" width="121.348" height="5.971"/>
		<ellipse style="fill:#105E99;" cx="354.751" cy="437.437" rx="7.236" ry="12.316"/>
		<path style="fill:#00457A;" d="M347.21,437.438c0,6.802,2.992,12.316,6.684,12.316c3.691,0,6.683-5.514,6.683-12.316
			c0-6.802-2.992-12.316-6.683-12.316C350.202,425.121,347.21,430.635,347.21,437.438z"/>
		<ellipse style="fill:#105E99;" cx="349.008" cy="437.437" rx="10.082" ry="17.16"/>
		<path style="fill:#00457A;" d="M338.722,437.438c0,9.477,4.169,17.16,9.312,17.16c5.143,0,9.312-7.683,9.312-17.16
			c0-9.478-4.169-17.16-9.312-17.16C342.891,420.277,338.722,427.96,338.722,437.438z"/>
		<ellipse style="fill:#105E99;" cx="347.065" cy="437.438" rx="7.321" ry="13.491"/>
	</g>
</g>
</svg>
