<?xml version="1.0" encoding="utf-8"?>
<!-- Generator: Adobe Illustrator 27.5.0, SVG Export Plug-In . SVG Version: 6.00 Build 0)  -->
<svg version="1.1" xmlns="http://www.w3.org/2000/svg" xmlns:xlink="http://www.w3.org/1999/xlink" x="0px" y="0px"
	 viewBox="0 0 500 500" style="enable-background:new 0 0 500 500;" xml:space="preserve">
<g id="BACKGROUND">
	<rect y="352.249" style="fill:#EE8100;" width="500" height="147.751"/>
	<rect x="-0.056" y="0.201" style="fill:#FFF6CC;" width="500.112" height="352.249"/>
</g>
<g id="OBJETOS">
	<g>
		<rect x="346.789" y="129.411" style="fill:#FFFFFF;" width="122.79" height="173.928"/>
		<polygon style="opacity:0.53;fill:#0072CC;" points="363.975,285.349 452.622,285.349 452.622,205.589 460.1,205.589 
			443.486,185.97 443.275,154.842 431.747,154.842 431.672,172.019 409.246,145.538 356.008,205.589 363.819,205.589 		"/>
		<text transform="matrix(1.2049 0 0 1 374.9061 205.42)"><tspan x="0" y="0" style="fill:#004C78; font-family:'Impact'; font-size:28.0228px;">STAY </tspan><tspan x="13.874" y="33.627" style="fill:#004C78; font-family:'Impact'; font-size:28.0228px;">AT </tspan><tspan x="-1.389" y="67.255" style="fill:#004C78; font-family:'Impact'; font-size:28.0228px;">HOME</tspan></text>
		
			<rect x="352.86" y="136.861" style="opacity:0.28;fill:none;stroke:#007396;stroke-width:4.1472;stroke-miterlimit:10;" width="110.5" height="156.845"/>
	</g>
	<g>
		<g>
			<rect x="185.831" y="79.535" style="fill:#EE8100;" width="197.426" height="7.689"/>
			<rect x="196.85" y="87.225" style="fill:#EE8100;" width="4.544" height="17.913"/>
			<rect x="363.044" y="87.225" style="fill:#EE8100;" width="4.253" height="17.913"/>
		</g>
		<g>
			<g>
				<path style="fill:#00885D;" d="M208.941,27.076c-4.254-3.137-10.299-3.635-15.009-1.236c-0.626,0.319-1.25,0.691-1.948,0.776
					c-0.803,0.097-1.594-0.197-2.371-0.42c-8.349-2.393-17.131,3.675-21.284,11.303c-2.573,4.727-3.921,10.114-3.875,15.495
					c0.034,3.971,0.948,8.184,3.771,10.976c4.614,4.565,12.7,3.486,17.793-0.538c5.092-4.024,7.949-10.162,10.753-16.015
					c0.114-0.239,0.234-0.484,0.431-0.66c0.509-0.455,1.293-0.29,1.96-0.146C211.967,49.375,220.206,35.383,208.941,27.076z"/>
				<path style="fill:none;stroke:#2EAA00;stroke-miterlimit:10;" d="M223.36,48.131c-2.19-6.729-8.692-12.112-15.664-13.326
					c-6.972-1.215-14.241,0.818-20.27,4.523c-5.114,3.142-9.842,8.407-9.149,14.369"/>
			</g>
			<g>
				<path style="fill:#00885D;" d="M219.073,35.478c3.898,1.912,8.683,1.906,12.576-0.016c3.587-1.771,4.403-7.234,3.654-11.164
					c-0.748-3.93-4.033-7.252-7.954-8.045c-1.097-0.222-2.249-0.268-3.261-0.745c-0.699-0.329-1.288-0.845-1.921-1.289
					c-3.182-2.234-7.296-2.558-11.184-2.597c-1.898-0.019-3.855,0.023-5.596,0.778c-1.741,0.755-3.229,2.396-3.242,4.294
					c-0.013,1.898,1.933,3.72,3.739,3.139c-0.018,3.672,1.974,7.137,4.674,9.626C213.259,31.947,215.776,33.861,219.073,35.478z"/>
				<path style="fill:none;stroke:#2EAA00;stroke-miterlimit:10;" d="M228.532,48.084c0.854-6.817-0.46-13.89-3.706-19.945
					c-2.305-4.3-6.028-8.345-10.87-8.943"/>
			</g>
			<g>
				<path style="fill:#00885D;" d="M242.99,38.568c-3.159-1.626-4.272-5.695-3.912-9.229c0.477-4.683,2.964-9.049,6.465-12.196
					c3.501-3.147,7.958-5.122,12.569-6.066c4.723-0.966,9.95-0.794,13.956,1.888c4.005,2.683,6.174,8.4,3.778,12.584
					c-0.627,1.095-1.508,2.019-2.38,2.931c-0.939,0.982-1.877,1.963-2.816,2.945c-1.313,1.373-2.651,2.766-4.306,3.696
					c-4.435,2.493-7.868-1-11.787-0.028C250.427,36.117,248.398,41.352,242.99,38.568z"/>
				<path style="fill:none;stroke:#2EAA00;stroke-miterlimit:10;" d="M234.386,48.131c1.383-7.686,7.077-14.447,14.415-17.118"/>
			</g>
			<g>
				<path style="fill:#00885D;" d="M251.836,49.916c-2.184,5.518-1.121,12.189,2.67,16.756c0.951,1.146,2.111,2.195,3.538,2.624
					c1.427,0.429,3.158,0.098,4.05-1.096c2.073,1.585,4.41,3.197,7.017,3.073c2.449-0.116,4.635-1.842,5.757-4.022
					c1.122-2.18,1.301-4.743,1.003-7.176C274.607,49.762,258.028,34.268,251.836,49.916z"/>
				<path style="fill:none;stroke:#2EAA00;stroke-miterlimit:10;" d="M240.772,48.167c0.912-4.065,6.069-6.045,10.029-4.75
					c3.96,1.295,6.733,4.902,8.518,8.667"/>
			</g>
			<g>
				<path style="fill:#00885D;" d="M193.59,67.13c-0.062,1.624-0.055,3.32,0.67,4.774c0.725,1.454,2.383,2.57,3.953,2.15
					c1.292-0.346,2.459-1.641,3.719-1.191c0.564,0.202,0.948,0.714,1.417,1.089c1.509,1.208,3.858,0.829,5.333-0.422
					c1.474-1.251,2.227-3.153,2.684-5.031c1.251-5.143,1.383-16.097-5.371-17.624C196.912,48.821,193.836,60.717,193.59,67.13z"/>
				<path style="fill:none;stroke:#2EAA00;stroke-miterlimit:10;" d="M218.851,48.059c-1.875-5.036-10.962-3.984-13.991,1.398
					c-2.3,4.087-3.751,8.83-3.36,13.503"/>
			</g>
			<polygon style="fill:#994900;" points="218.474,79.535 215.345,48.059 247.676,48.059 243.183,79.535 			"/>
			<g>
				<path style="opacity:0.14;" d="M218.054,20.238c-0.347,2.236,0.278,4.502,0.995,6.649c0.742,2.222,3.852,5.939,1.592,7.128
					c-2.033,1.069-7.392-2.803-8.813-4.013c-3.185-2.711-5.334-6.777-5.204-10.958c-1.019,1.047-2.999,0.569-3.711-0.706
					c-0.712-1.276-0.317-2.958,0.634-4.068c4.279-4.988,14.317-2.65,18.651,1.147C219.969,15.807,218.401,18.002,218.054,20.238z"/>
				<path style="opacity:0.14;" d="M254.86,19.321c-4.393,3.818-7.869,8.57-11.066,13.434c-0.723,1.1-2.219,2.315-3.124,1.359
					c-0.221-0.233-0.327-0.55-0.414-0.86c-1.41-5.005,0.632-10.538,4.233-14.289c3.601-3.75,8.543-5.943,13.554-7.332
					c3.368-0.934,8.921-2.088,11.712,0.429C264.153,13.493,259.3,15.464,254.86,19.321z"/>
				<path style="opacity:0.14;" d="M193.705,40.617c0.638,1.667,1.775,3.149,2.118,4.901c0.501,2.558-0.779,5.101-2.101,7.348
					c-2.466,4.192-5.335,8.323-9.417,10.966c-4.082,2.643-9.635,3.505-13.806,1.004c-3.063-1.836-4.975-5.235-5.605-8.75
					c-0.63-3.516-0.103-7.148,0.843-10.592c1.453-5.291,3.981-10.418,8.032-14.119c4.052-3.701,9.775-5.8,15.147-4.68
					c3.38,0.705,8.036-3.337,7.336,1.582C195.6,32.857,191.673,35.311,193.705,40.617z"/>
				<path style="opacity:0.14;" d="M207.687,68.396c0.239,1.13,0.552,2.283,0.367,3.423c-0.185,1.14-1.043,2.273-2.197,2.327
					c-1.656,0.078-2.911-1.985-4.549-1.729c-0.917,0.143-1.567,0.981-2.437,1.302c-1.332,0.492-2.86-0.394-3.558-1.632
					c-0.697-1.238-0.761-2.722-0.77-4.142c-0.026-4.134,0.317-8.423,2.313-12.043c1.698-3.079,7.994-7.787,10.901-3.296
					c1.182,1.826-0.118,4.511-0.378,6.416C206.953,62.139,207.036,65.315,207.687,68.396z"/>
			</g>
			<path style="opacity:0.14;" d="M233.108,47.926c-5.981,0.005-11.961,0.011-17.942,0.016c0.255,0,2.028,21.029,2.216,22.964
				c0.185,1.906,0.255,3.86,0.545,5.752c0.367,2.391,0.289,2.332,2.78,2.469c4.04,0.222,8.12,0.144,12.166,0.216
				c-1.101-1.292-1.278-3.435-1.717-5.076c-1.626-6.079-2.003-12.489-1.101-18.716C230.429,52.974,231.479,49.958,233.108,47.926z"
				/>
		</g>
		<g>
			<g>
				<rect x="295.035" y="36.908" style="fill:#006E99;" width="8.388" height="42.627"/>
				<g>
					<rect x="296.637" y="42.027" style="fill:#0072CC;" width="5.418" height="32.155"/>
					<g>
						<path style="fill:#0072CC;" d="M295.035,39.375c1.466,0.022,2.832,0.127,4.208,0.139c0.687,0.028,1.369-0.001,2.059-0.016
							c0.694-0.017,1.378-0.094,2.121-0.123c-1.213,0.853-2.74,1.159-4.197,1.139c-0.733-0.024-1.464-0.107-2.171-0.295
							C296.349,40.035,295.657,39.779,295.035,39.375z"/>
					</g>
					<g>
						<path style="fill:#0072CC;" d="M295.006,76.806c1.466,0.022,2.832,0.127,4.208,0.14c0.687,0.028,1.368-0.001,2.059-0.016
							c0.694-0.017,1.378-0.094,2.122-0.123c-1.213,0.853-2.74,1.159-4.197,1.139c-0.734-0.024-1.464-0.107-2.171-0.295
							C296.32,77.467,295.628,77.211,295.006,76.806z"/>
					</g>
				</g>
			</g>
			<g>
				<rect x="304.239" y="36.792" style="fill:#006E99;" width="8.388" height="42.627"/>
				<g>
					<rect x="305.841" y="41.911" style="fill:#0072CC;" width="5.417" height="32.155"/>
					<g>
						<path style="fill:#0072CC;" d="M304.239,39.258c1.466,0.022,2.832,0.127,4.208,0.14c0.687,0.028,1.369-0.001,2.059-0.016
							c0.694-0.017,1.378-0.094,2.122-0.123c-1.213,0.853-2.74,1.159-4.197,1.139c-0.734-0.024-1.464-0.107-2.171-0.295
							C305.553,39.919,304.861,39.663,304.239,39.258z"/>
					</g>
					<g>
						<path style="fill:#0072CC;" d="M304.21,76.689c1.466,0.022,2.832,0.127,4.208,0.14c0.687,0.028,1.369-0.001,2.059-0.016
							c0.694-0.017,1.378-0.094,2.121-0.123c-1.213,0.853-2.74,1.159-4.197,1.139c-0.734-0.024-1.464-0.107-2.171-0.295
							C305.524,77.35,304.831,77.094,304.21,76.689z"/>
					</g>
				</g>
			</g>
			<g>
				<rect x="313.185" y="49.633" style="fill:#006E99;" width="8.388" height="29.903"/>
				<g>
					<rect x="314.787" y="53.224" style="fill:#0072CC;" width="5.417" height="22.557"/>
					<g>
						<path style="fill:#0072CC;" d="M313.185,51.363c1.454-0.102,2.824-0.055,4.203-0.051c0.688,0.023,1.373,0.008,2.065,0.022
							c0.694,0.009,1.384-0.011,2.121,0.029c-1.278,0.726-2.763,0.956-4.198,0.948c-0.721-0.02-1.44-0.083-2.144-0.238
							C314.529,51.923,313.833,51.712,313.185,51.363z"/>
					</g>
					<g>
						<path style="fill:#0072CC;" d="M313.156,77.62c1.454-0.102,2.824-0.055,4.203-0.051c0.688,0.023,1.373,0.008,2.065,0.022
							c0.694,0.009,1.384-0.011,2.12,0.029c-1.278,0.726-2.763,0.956-4.197,0.948c-0.721-0.02-1.44-0.083-2.144-0.238
							C314.5,78.181,313.804,77.97,313.156,77.62z"/>
					</g>
				</g>
			</g>
			<g>
				
					<rect x="339.852" y="53.933" transform="matrix(5.364550e-04 1 -1 5.364550e-04 419.1079 -268.8396)" style="fill:#006E99;" width="8.388" height="42.627"/>
				<g>
					
						<rect x="341.454" y="59.285" transform="matrix(5.353022e-04 1 -1 5.353022e-04 419.3413 -268.8399)" style="fill:#0072CC;" width="5.418" height="32.155"/>
					<g>
						<path style="fill:#0072CC;" d="M362.891,71.042c-0.021,1.466-0.126,2.832-0.137,4.208c-0.028,0.687,0.002,1.369,0.017,2.059
							c0.017,0.694,0.095,1.378,0.124,2.121c-0.854-1.212-1.161-2.739-1.141-4.197c0.023-0.734,0.106-1.464,0.294-2.171
							C362.23,72.357,362.486,71.664,362.891,71.042z"/>
					</g>
					<g>
						<path style="fill:#0072CC;" d="M325.46,71.033c-0.021,1.466-0.126,2.832-0.137,4.208c-0.028,0.687,0.002,1.369,0.017,2.059
							c0.017,0.694,0.095,1.378,0.124,2.121c-0.854-1.212-1.161-2.739-1.141-4.197c0.024-0.733,0.106-1.464,0.294-2.171
							C324.799,72.348,325.055,71.655,325.46,71.033z"/>
					</g>
				</g>
			</g>
			<g>
				<g>
					
						<rect x="322.954" y="60.48" transform="matrix(1 -0.0023 0.0023 1 -0.1496 0.7824)" style="fill:#BB3E00;" width="37.205" height="10.436"/>
				</g>
				<g>
					<g>
						
							<rect x="327.421" y="62.183" transform="matrix(1 -0.0023 0.0023 1 -0.1488 0.7798)" style="fill:#FF7F10;" width="28.065" height="6.74"/>
					</g>
				</g>
			</g>
		</g>
	</g>
	<g>
		<g>
			<rect x="39.234" y="144.812" style="fill:#EE8100;" width="197.426" height="7.689"/>
			<rect x="50.253" y="152.502" style="fill:#EE8100;" width="4.544" height="17.913"/>
			<rect x="216.447" y="152.502" style="fill:#EE8100;" width="4.252" height="17.913"/>
		</g>
		<g>
			<g>
				<polygon style="fill:#994900;" points="54.797,144.812 52.525,124.162 76.001,124.162 72.739,144.812 				"/>
				<path style="fill:#887C00;" d="M56.996,113.05c-2.184,3.801-5.28,1.707-6.18,0.437c-1.217-1.719-1.775-3.773-2.15-5.846
					c-0.54-2.986-0.722-6.036-0.543-9.065c0.09-1.52,0.394-3.243,1.682-4.055c2.01-1.267,4.615,0.763,5.441,2.99
					c0.826,2.227,0.92,3.839,1.707,6.725c-0.743-10.366-2.454-21.334,3.309-29.819c0.89-1.31,2.002-2.567,3.493-3.099
					c2.789-0.995,5.931,0.995,7.259,3.641c1.328,2.646,1.305,5.741,1.252,8.701c-0.106,5.988-0.965,14.417-1.071,20.405
					c0.241-1.248,0.911-4.854,1.66-5.882c0.749-1.028,2.479-1.837,3.662-1.372c1.343,0.528,1.807,2.166,2.031,3.591
					c0.439,2.784,0.313,5.626-0.491,8.328c-1.507,5.063-3.848,5.433-6.606,4.231c-0.17,3.594-1.277,11.201-1.277,11.201H57.884
					C57.884,124.162,57.031,112.99,56.996,113.05z"/>
				<g>
					<g>
						<path style="fill:#375B3E;" d="M50.218,94.31c-0.331,0.775-0.414,1.607-0.392,2.435c0.007,0.832,0.017,1.67,0.045,2.502
							c0.05,1.666,0.125,3.331,0.288,4.988c0.129,1.659,0.327,3.317,0.577,4.961c0.233,1.65,0.599,3.29,0.704,4.966
							c-0.136-0.824-0.356-1.632-0.55-2.445l-0.54-2.453c-0.324-1.65-0.524-3.315-0.689-4.986c-0.125-1.673-0.204-3.351-0.179-5.028
							c0.016-0.84,0.05-1.674,0.092-2.513C49.634,95.902,49.78,95.033,50.218,94.31z"/>
					</g>
					<g>
						<path style="fill:#375B3E;" d="M52.686,94.544c0.563,1.633,0.872,3.356,1.037,5.077c0.142,1.724,0.247,3.435,0.453,5.133
							c0.1,0.853,0.249,1.684,0.447,2.523l0.529,2.532c0.166,0.847,0.324,1.699,0.402,2.563c0.039,0.431,0.066,0.866,0.045,1.301
							c-0.03,0.421-0.069,0.906-0.395,1.212c0.295-0.331,0.282-0.799,0.29-1.214c-0.008-0.427-0.062-0.852-0.129-1.275
							c-0.142-0.845-0.323-1.684-0.523-2.519c-0.394-1.669-0.908-3.327-1.126-5.06c-0.278-1.716-0.305-3.453-0.418-5.163
							C53.22,97.939,53.016,96.24,52.686,94.544z"/>
					</g>
					<g>
						<path style="fill:#375B3E;" d="M63.125,71.595c-2.496,3.707-3.477,8.157-3.872,12.53c-0.358,4.405-0.366,8.844-0.266,13.269
							c0.07,4.43,0.308,8.857,0.462,13.291c0.165,4.432,0.252,8.873,0.117,13.308c-0.049-4.436-0.269-8.863-0.5-13.291
							c-0.235-4.427-0.467-8.858-0.578-13.297c-0.059-4.439-0.058-8.886,0.383-13.318c0.253-2.21,0.622-4.418,1.299-6.544
							C60.834,75.418,61.829,73.396,63.125,71.595z"/>
					</g>
					<g>
						<path style="fill:#375B3E;" d="M66.138,71.08c-0.359,4.402-0.672,8.806-0.946,13.211c-0.267,4.406-0.507,8.813-0.647,13.223
							c-0.181,4.409-0.265,8.822-0.313,13.235c-0.041,4.413-0.035,8.828,0.031,13.244c-0.251-4.41-0.389-8.826-0.416-13.245
							c-0.033-4.418,0.056-8.837,0.198-13.253c0.182-4.415,0.415-8.828,0.764-13.232C65.151,79.859,65.597,75.464,66.138,71.08z"/>
					</g>
					<g>
						<path style="fill:#375B3E;" d="M68.509,72.204c1.41,1.702,1.993,3.932,2.231,6.099c0.225,2.19,0.12,4.392,0.026,6.573
							L70.13,97.978l-0.752,13.096c-0.265,4.364-0.563,8.727-0.886,13.088c0.139-4.371,0.304-8.741,0.502-13.109l0.637-13.102
							l0.753-13.095c0.141-2.18,0.285-4.361,0.115-6.531C70.341,76.174,69.853,73.957,68.509,72.204z"/>
					</g>
					<g>
						<path style="fill:#375B3E;" d="M75.843,96.699c0.659,0.338,1.085,1.007,1.389,1.67c0.288,0.689,0.431,1.409,0.574,2.128
							c0.248,1.447,0.276,2.919,0.203,4.379c-0.114,1.458-0.329,2.913-0.741,4.319c-0.42,1.398-1.008,2.77-1.904,3.92
							c0.723-1.26,1.198-2.625,1.536-4.018c0.322-1.397,0.541-2.82,0.612-4.252c0.101-1.429,0.083-2.87-0.097-4.29
							c-0.095-0.706-0.196-1.426-0.423-2.093C76.77,97.795,76.43,97.135,75.843,96.699z"/>
					</g>
					<g>
						<path style="fill:#375B3E;" d="M74.534,96.933c-0.591,0.442-0.757,1.167-0.859,1.844c-0.089,0.693-0.07,1.399-0.059,2.106
							c0.062,1.414,0.177,2.836,0.254,4.265c0.041,0.711,0.01,1.442,0.065,2.141c0.065,0.711,0.111,1.429,0.123,2.146
							c0.01,0.717-0.01,1.438-0.122,2.15c-0.121,0.684-0.302,1.482-0.937,1.872c0.61-0.421,0.734-1.207,0.833-1.886
							c0.083-0.705,0.075-1.419,0.037-2.129c-0.097-1.412-0.275-2.846-0.424-4.263c-0.13-1.421-0.288-2.846-0.276-4.291
							c-0.008-0.721,0.049-1.45,0.208-2.166C73.526,98.027,73.862,97.253,74.534,96.933z"/>
					</g>
				</g>
			</g>
			<g>
				<path style="fill:#00885D;" d="M103.589,115.568c2.606,2.461,4.62,5.56,6.161,8.776c-1.105-5.267-3.163-10.317-4.645-15.487
					c-0.729-2.541-1.346-5.119-1.687-7.743c-0.328-2.524,0.354-5.548-0.155-7.943c2.329,10.962,7.358,18.965,10.201,29.805
					c-2.328-10.872-0.581-22.771,8.556-29.106c-4.916,8.276-4.535,17.733-4.54,27.359c1.34-3.494,2.173-7.859,4.54-10.757
					c2.367-2.898,4.453-5.922,8.155-6.466c-5.391,4.572-7.906,11.285-9.983,17.812c2.715-4.732,7.735-8.194,13.045-9.302
					c1.747-0.365,3.625-0.481,5.266,0.22c-2.924,0.07-5.705,1.407-7.998,3.223c-2.293,1.816-4.164,4.1-6.015,6.365
					c4.439-2.07,10.365-2.198,12.749,2.786c-2.976-0.954-6.167-1.351-9.249-0.838c-3.083,0.513-6.049,1.979-8.108,4.331
					c-1.281,1.464-1.988,2.232-3.859,2.226c-1.925-0.006-3.997-0.274-5.959-0.342c-2.742-0.096-2.317-0.788-3.831-2.662
					c-1.406-1.739-3.976-2.646-6.113-2.932c-2.739-0.366-5.518,0.112-8.212,0.726c1.73-3.213,5.935-4.843,9.378-3.633
					c-3.601-5.186-9.358-8.825-15.588-9.85c4.476-2.5,10.273-1.774,14.636,0.918C101.51,113.78,102.593,114.627,103.589,115.568z"/>
				<polygon style="fill:#994900;" points="106.551,144.667 104.894,129.055 122.02,129.055 119.64,144.667 				"/>
				<path style="opacity:0.14;" d="M103.684,95.373c1.712,13.095,10.238,24.305,11.834,37.403c0.519,4.263,0.679,11.917-4.93,12.008
					c-0.674,0.011-3.143,0.059-3.603-0.279c-1.058-0.778-1.084-3.732-1.29-5.062c-0.138-0.892-1.474-10.02-0.959-10.146
					c0.906-0.221,1.852-0.279,2.779-0.17c-3.909-4.175-10.233-5.837-15.468-3.533c1.949-3.055,6.044-4.549,9.502-3.466
					c-3.823-5.155-9.449-8.945-15.663-10.551c1.421,0.367,4.946-1.294,6.79-1.196c2.29,0.122,5.154,0.704,7.145,1.898
					c3.934,2.359,7.209,7.91,9.748,11.674c-0.433-3.441-1.743-6.701-3.041-9.917C104.097,108.012,104.499,101.664,103.684,95.373z"
					/>
			</g>
			<g>
				<polygon style="fill:#994900;" points="189.797,144.812 187.525,124.162 211.001,124.162 207.739,144.812 				"/>
				<path style="fill:#178800;" d="M181.462,134.616c-2.249,2.676-4.104,5.67-5.295,9.485c-1.021,3.272-2.042,6.544-3.063,9.816
					c-1.319-3.759-0.792-7.902,0.065-11.792c0.947-4.296,2.36-8.657,5.326-11.907c2.386-2.615,5.616-4.418,8.766-5.953
					c-14.178,4.66-28.415,18.098-31.853,32.901c2.304-16.557,14.875-31.239,30.879-36.066c-3.596-2.242-8.189-2.388-12.296-1.341
					c-4.107,1.047-7.844,3.171-11.524,5.272c5.911-9.095,19.217-12.399,28.696-7.125c-1.276-2.911-12.321-6.55-15.375-7.429
					c4.917-1.472,16.427,0,20.211,8.173c2.802-7.065,9.514-10.977,17.111-11.221c-6.579,1.949-10.995,5.121-12.829,11.733
					c3.55-7.759,11.706-9.438,20.236-9.202c8.53,0.235,16.561,3.936,24.047,8.032c-10.981-5.808-32.95-8.216-39.853,1.57
					c5.434-3.175,13.006-4.748,22.528-2.165c6.045,1.64,13.535,7.932,16.181,19.466c-8.035-15.357-18.358-17.539-35.398-14.369
					c13.941-0.749,27.703,9.383,31.128,22.918c-4.064-11.119-14.533-16.108-24.795-20.049c4.879,2.892,8.314,8.063,10.187,13.33
					c2.058,5.787,2.456,12.045,2.166,18.181c-1.014-7.16-3.281-13.751-7.389-19.672c-1.823-2.627-3.876-5.085-6.257-7.226
					c-2.175-1.956-6.066-3.26-7.869-5.313c5.743,6.539,8.693,15.186,9.546,23.847c0.853,8.661-0.258,17.397-1.84,25.955
					c0.106-8.514,0.151-17.081-1.277-25.474c-1.428-8.394-3.954-16.099-9.34-22.693c4.658,15.49,4.832,31.586,1.373,47.387
					c1.456-16.477-0.171-31.34-4.807-47.218c1.939,14.942,1.939,27.874-5.765,41.965c3.191-14.616,3.631-26.936,2.89-41.877
					c-7.133,15.047-9.732,29.124-9.022,45.761c-0.456-10.672-1.993-20.265,0.001-31.009c0.409-2.206,4.478-16.412,4.478-16.412
					C187.84,128.309,184.331,131.204,181.462,134.616z"/>
				<path style="opacity:0.14;" d="M195.258,126.132c0.02-0.042,0.041-0.085,0.061-0.127c3.25,6.273,0.543,14.022,2.174,20.895
					c0.444-5.591,0.888-11.183,1.331-16.774c0.243-3.065,0.123-6.84-2.588-8.289c1.343,0.213,2.686,0.426,4.029,0.639
					c-5.627-3.594-9.136-9.261-15.973-11.029c3.995,1.138,7.406,4.168,9.008,8c-5.206-2.311-11.159-2.901-16.717-1.656
					c4.28,0.441,8.784,0.965,12.257,3.505c-6.106,2.136-12.464,4.432-16.887,9.152c5.624-2.888,11.358-5.813,17.587-6.897
					c-4.098,2.512-8.045,5.408-11.01,9.191c-2.965,3.783-4.885,8.556-4.508,13.348c2.948-7.715,7.884-14.661,14.2-19.983
					c0.948-0.799,2.387-1.565,3.314-0.743c-2.416,8.687-4.851,17.506-4.848,26.522c0.917-4.613,2.135-9.165,3.64-13.621
					c0.731-2.164,1.53-4.305,2.395-6.419c0.639-1.561,1.442-4.834,2.873-5.67c2.809,4.485,0.922,11.602,1.988,16.638
					c1.94-5.518,0.239-11.578,0.347-17.426c2.537,2.619,3.431,6.381,4.116,9.962c0.538,2.812,1.012,5.635,1.486,8.458
					c0.065-6.486-0.713-12.979-2.308-19.266c1.624,1.455,3.248,2.91,4.871,4.365c-0.531-2.19-1.828-4.186-3.614-5.56
					c1.321-0.373,2.749-0.354,4.06,0.052c-0.886-0.8-2.017-1.325-3.201-1.484c0.513-0.49,1.224-0.767,1.934-0.754
					c-1.506-1.251-3.754,0.069-5.704-0.103c-3.175-0.28-4.79-4.378-7.899-5.079"/>
			</g>
		</g>
	</g>
	<g>
		<path style="fill:#994900;" d="M45.441,332.022l5.583,60.781c0,0,32.598,16.504,57.929,0l8.375-60.781
			C117.329,332.022,77.741,343.418,45.441,332.022z"/>
		<ellipse style="fill:#552E00;" cx="81.385" cy="332.022" rx="35.944" ry="5.318"/>
		<g>
			<g>
				<path style="fill:#2EAA00;" d="M64.876,176.236c4.18,5.168,7.014,11.307,9.263,17.545c2.235,6.266,3.927,12.721,5.205,19.244
					c2.556,13.053,3.936,26.297,4.765,39.547c0.748,13.259,0.958,26.54,0.7,39.808c-0.235,13.274-0.856,26.514-1.974,39.77
					l-2.902-0.124c0.024-10.276,0.414-20.505,0.961-30.743c0.537-10.235,1.423-20.452,2.581-30.639
					c0.589-5.092,1.262-10.176,2.06-15.243c0.79-5.067,1.723-10.116,2.886-15.116c1.168-4.996,2.506-9.962,4.251-14.794
					c1.753-4.805,3.9-9.583,7.211-13.514c-3.109,4.087-4.974,8.914-6.566,13.734c-1.554,4.854-2.701,9.83-3.679,14.832
					c-1.887,10.021-3.212,20.147-4.143,30.311c-0.955,10.162-1.506,20.36-1.976,30.558c-0.441,10.195-0.657,20.421-0.678,30.604
					l-2.902-0.124c0.535-6.558,0.92-13.169,1.23-19.764c0.312-6.599,0.57-13.202,0.712-19.807
					c0.265-13.209,0.267-26.427-0.32-39.619c-0.545-13.188-1.572-26.378-3.803-39.382c-1.154-6.488-2.474-12.964-4.473-19.25
					c-0.992-3.143-2.135-6.241-3.509-9.239C68.405,181.833,66.825,178.917,64.876,176.236z"/>
			</g>
			<g>
				<path style="fill:none;stroke:#2EAA00;stroke-miterlimit:10;" d="M77.741,207.66c-2.651-2.024-6.379-2.222-9.199-0.488"/>
				<path style="fill:#2EAA00;" d="M69.801,202.261c-2.574-1.416-6.512-1.624-9.005-0.681c-2.735,1.035-5.154,2.845-7.703,4.34
					c-2.549,1.495-5.39,2.709-8.27,2.381c0.814,3.605,3.937,6.172,7.245,7.074c3.308,0.902,6.791,0.423,10.149-0.221
					c3.862-0.74,6.864-2.367,9.073-5.934C73.37,205.862,72.156,203.556,69.801,202.261z"/>
			</g>
			<g>
				<path style="fill:none;stroke:#2EAA00;stroke-miterlimit:10;" d="M74.763,197.204c-0.359-3.615-9.507-6.881-4.146-6.111"/>
				<path style="fill:#2EAA00;" d="M71.404,188.525c-0.586-0.982-1.561-1.545-2.581-1.989c-3.988-1.736-8.944-1.881-14.172-0.415
					c2.706,4.369,6.14,8.535,11.705,8.563C69.663,194.7,73.47,191.989,71.404,188.525z"/>
			</g>
			<g>
				<path style="fill:none;stroke:#2EAA00;stroke-miterlimit:10;" d="M79.278,215.049c1.19-4.663,4.524-8.613,8.69-10.3"/>
				<path style="fill:#2EAA00;" d="M83.744,198.461c-1.69,1.751-3.028,3.826-3.722,6.253c-1.157,4.044,1.198,6.191,4.855,6.652
					c2.06,0.259,4.15-0.214,6.096-0.995c4.464-1.791,8.067-5.072,10.317-9.599c1.316-2.648,2.225-5.514,2.669-8.487
					c0.228-1.528-0.478-6.279,0.155-7.331C99.138,193.23,89.949,192.033,83.744,198.461z"/>
			</g>
			<g>
				<path style="fill:none;stroke:#2EAA00;stroke-miterlimit:10;" d="M80.324,225.665c-2.889-4.37-8.748-6.046-13.237-3.786"/>
				<path style="fill:#2EAA00;" d="M47.564,225.064c5.25,5.659,12.357,9.061,19.876,5.4c2.243-1.092,4.372-2.849,5.222-5.36
					c6.215-18.357-26.72-1.355-29.377-5.769C44.507,221.365,45.947,223.322,47.564,225.064z"/>
			</g>
			<g>
				<path style="fill:none;stroke:#2EAA00;stroke-miterlimit:10;" d="M73.141,192.275c-0.548-2.622,1.345-8.407,3.65-8.91"/>
				<path style="fill:#2EAA00;" d="M73.973,181.461c0.034-0.241,0.082-0.48,0.143-0.713c0.437-1.659,1.481-3.066,2.704-4.164
					c2.304-2.07,5.229-3.126,8.16-3.534c2.792-0.389,5.367,0.544,8.178-0.263c-1.883,2.457-3.765,4.915-5.648,7.372
					c-2.201,2.872-3.848,5.789-7.41,6.751c-1.776,0.48-3.852,0.162-5.093-1.303C74.083,184.515,73.766,182.936,73.973,181.461z"/>
			</g>
			<g>
				<path style="fill:none;stroke:#2EAA00;stroke-miterlimit:10;" d="M81.536,243.42c-2.538,2.787-7.148,2.867-9.766,0.169"/>
				<path style="fill:#2EAA00;" d="M73.461,239.518c-1.414-1.693-3.396-3.027-5.481-3.451c-1.795-0.365-3.639-0.148-5.465-0.113
					c-3.486,0.067-7.121-0.604-9.941-2.837c-1.464-1.159-2.81-2.775-4.613-2.945c-0.105,6.11,2.549,12.206,6.961,15.985
					c4.412,3.779,10.478,5.155,15.909,3.607C76.875,248.042,76.381,243.014,73.461,239.518z"/>
			</g>
			<g>
				<path style="fill:none;stroke:#2EAA00;stroke-miterlimit:10;" d="M81.775,254.273c-2.144-1.769-5.003-2.247-7.676-1.922
					c-2.674,0.325-5.221,1.379-7.734,2.423"/>
				<path style="fill:#2EAA00;" d="M43.97,249.55c0.88,3.46,2.82,6.063,5.066,7.756c2.245,1.693,4.795,2.558,7.348,3.266
					c4.075,1.131,8.676,1.891,12.901-0.723c3.507-2.17,5.673-7.876,2.297-11.518c-3.046-3.286-9.805-0.073-13.493,0.811
					C53.346,250.279,48.459,251.341,43.97,249.55z"/>
			</g>
			<g>
				<path style="fill:none;stroke:#2EAA00;stroke-miterlimit:10;" d="M91.297,230.463c-0.173,0.495-0.863,0.297-1.25-0.025
					c-1.969-1.636-3.122-4.371-2.978-7.063"/>
				<path style="fill:#2EAA00;" d="M83.674,226.058c-1.364-1.615-2.193-4.007-2.175-5.953c0.019-2.08,0.706-4.081,1.493-5.977
					c0.706-1.702,1.501-3.36,2.378-4.964c-0.678,1.607-0.29,3.542,0.531,5.068c0.821,1.526,2.026,2.753,3.114,4.065
					c1.088,1.313,2.102,2.801,2.396,4.539c0.599,3.537-2.6,5.903-5.552,4.837C85.038,227.377,84.3,226.799,83.674,226.058z"/>
			</g>
			<g>
				<path style="fill:none;stroke:#2EAA00;stroke-miterlimit:10;" d="M92.937,225.621c2.478,3.151,7.45,3.415,10.197,0.541"/>
				<path style="fill:#2EAA00;" d="M110.479,230.907c2.155-1.795,3.745-4.191,5.866-6.025c2.121-1.834,5.029-3.099,8.211-2.207
					c-3.996-2.25-8.257-3.754-12.442-4.391c-3.011-0.459-6.084-0.449-8.453,0.834c-1.379,0.746-2.459,1.89-3.418,3.115
					c-1.295,1.655-2.434,3.658-2.084,6.064C99.233,235.674,107.705,233.218,110.479,230.907z"/>
			</g>
			<g>
				<path style="fill:none;stroke:#2EAA00;stroke-miterlimit:10;" d="M88.908,242.151c0.67,1.099,2.059,1.316,3.27,1.284
					c3.317-0.088,6.602-1.294,9.29-3.411"/>
				<path style="fill:#2EAA00;" d="M99.56,244.969c5.515-1.714,10.012-5.965,14.312-10.096c-4.709,3.432-10.658,0.7-15.744,2.296
					C93.026,238.771,93.024,247,99.56,244.969z"/>
			</g>
			<g>
				<path style="fill:none;stroke:#2EAA00;stroke-miterlimit:10;" d="M86.346,256.003c3.832-4.367,9.163-7.135,14.692-7.629"/>
				<path style="fill:#2EAA00;" d="M93.653,251.419c0.275,0.478,0.765,0.754,1.248,0.961c1.979,0.849,4.172,0.895,6.291,0.699
					c4.484-0.415,8.883-1.878,12.815-4.259c-0.124-1.473-9.622-2.942-11.426-3.086C100.648,245.58,91.415,247.536,93.653,251.419z"
					/>
			</g>
			<g>
				<path style="fill:none;stroke:#2EAA00;stroke-miterlimit:10;" d="M81.972,273.767c-6.163-5.751-15.133-7.699-22.851-4.963"/>
				<path style="fill:#2EAA00;" d="M73.929,261.442c-4.698-1.204-9.575-1.068-14.113,1.314c-4.538,2.382-8.721,7.131-11.31,13.869
					c2.469-2.16,5.271-3.22,8.049-3.043c3.495,0.221,6.846,2.341,10.303,3.237c3.302,0.856,7.705,0.503,9.99-4.193
					C79.539,267.097,77.746,262.42,73.929,261.442z"/>
			</g>
			<g>
				<path style="fill:none;stroke:#2EAA00;stroke-miterlimit:10;" d="M84.508,268.942c5.725-6.228,13.575-10.087,21.652-10.645"/>
				<path style="fill:#2EAA00;" d="M117.12,251.037c0.56,6.932-4.519,12.759-9.627,15.941c-2.353,1.466-4.923,2.662-7.63,2.827
					c-2.707,0.165-5.578-0.84-7.285-3.134c-2.271-3.051-1.848-7.942,0.69-10.733c3.721-4.092,7.126-1.739,11.315-1.246
					C105.956,254.855,117.289,253.128,117.12,251.037z"/>
			</g>
			<g>
				<path style="fill:none;stroke:#2EAA00;stroke-miterlimit:10;" d="M82.025,289.426c-2.437-3.444-6.927-4.977-10.735-3.665"/>
				<path style="fill:#2EAA00;" d="M76.865,290.133c-1.686,2.11-4.311,2.605-6.683,2.247c-8.118-1.225-15.709-5.977-23.745-1.189
					c2.104-6.106,6.708-11.133,12.311-13.443C65.162,275.105,86.381,278.223,76.865,290.133z"/>
			</g>
			<g>
				<path style="fill:none;stroke:#2EAA00;stroke-miterlimit:10;" d="M83.308,285.112c5.105-5.873,11.638-10.262,18.749-12.597
					c0.969-0.318,1.988-0.601,2.983-0.398"/>
				<path style="fill:#2EAA00;" d="M95.988,268.776c5.394-3.99,9.157-0.402,14.895-0.751c4.971-0.302,9.171-3.133,11.624-7.863
					c-0.565,1.089,0.406,6.52,0.168,8.307c-1.299,9.732-11.32,16.193-19.805,16.343c-2.268,0.04-4.587-0.322-6.597-1.466
					c-2.009-1.144-3.677-3.149-4.161-5.561c-0.658-3.279,1.01-6.742,3.501-8.72C95.739,268.963,95.864,268.867,95.988,268.776z"/>
			</g>
			<g>
				<path style="fill:none;stroke:#2EAA00;stroke-miterlimit:10;" d="M81.354,303.627c-1.75-1.656-3.544-3.341-5.694-4.283
					c-2.151-0.943-4.763-1.022-6.657,0.435"/>
				<path style="fill:#2EAA00;" d="M73.934,304.035c-1.908,2.279-4.805,3.303-7.626,3.641c-2.857,0.343-5.748,0.083-8.615,0.314
					c-2.866,0.231-5.831,1.028-7.958,3.132c0.553-5.711,3.595-11.077,8.038-14.174c3.772-2.63,8.853-3.982,13.232-2.826
					c4.513,1.191,6.541,5.48,3.002,9.825C73.983,303.976,73.958,304.006,73.934,304.035z"/>
			</g>
			<g>
				<path style="fill:none;stroke:#2EAA00;stroke-miterlimit:10;" d="M83.309,297.519c3.8-4.054,8.596-6.99,13.751-8.421"/>
				<path style="fill:#2EAA00;" d="M89.958,294.735c0.117,0.425,0.271,0.846,0.53,1.188c0.44,0.581,1.132,0.865,1.81,1.013
					c3.116,0.68,6.212-0.991,9.045-2.559c3.187-1.765,6.46-3.484,9.982-4.155c-0.421,0.08-5.219-3.921-6.27-4.319
					c-2.2-0.832-4.981-1.569-7.329-1.549C92.838,284.398,88.457,289.264,89.958,294.735z"/>
			</g>
			<g>
				<path style="fill:none;stroke:#2EAA00;stroke-miterlimit:10;" d="M80.511,317.638c-2.344-3.214-6.59-4.608-10.176-3.341"/>
				<path style="fill:#2EAA00;" d="M75.875,316.656c-0.461,1.241-1.67,1.943-2.842,2.347c-4.575,1.576-9.513,0.11-14.119-1.356
					c2.908-3.059,7.083-7.171,11.137-8.202C73.259,308.629,77.256,312.942,75.875,316.656z"/>
			</g>
			<g>
				<path style="fill:none;stroke:#2EAA00;stroke-miterlimit:10;" d="M83.087,312.464c-0.307,0.008-0.236-0.529-0.05-0.795
					c2.397-3.437,5.503-6.285,9.023-8.273c2.062-1.164,4.452-2.047,6.683-1.344"/>
				<path style="fill:#2EAA00;" d="M93.212,297.717c1.504-0.368,3.073-0.305,4.823-0.413c6.162-0.378,14.47-2.13,19.178-6.723
					c0.728,3.51-0.937,7.063-2.838,10.007c-4.27,6.614-10.687,12.349-18.111,12.543c-3.481,0.091-7.372-1.462-8.686-4.971
					c-1.087-2.904-0.002-6.428,2.162-8.498C90.894,298.557,92.033,298.005,93.212,297.717z"/>
			</g>
		</g>
		<g>
			<path style="opacity:0.24;" d="M79.976,326.735c-0.527,0.376-3.319,1.875-3.746,2.227c-0.859,0.708-1.525,1.724-1.566,2.837
				c-0.072,1.955,1.633,2.52,3.138,3.1c0.502,0.193,5.778,2.044,5.748,2.215c-2.82,16.944-1.604,34.534,3.434,50.952
				c0.711,2.319,4.548,9.03,2.798,11.237c-1.666,2.101-8.848,0.584-11.214,0.343c-8.064-0.822-16.391-2.069-23.86-5.221
				c-1.267-0.534-3.684-1.621-3.684-1.621s-0.426-4.143-0.584-5.627c-1.526-14.407-2.109-23.29-3.363-37.723
				c-0.201-2.309-1.006-10.354-1.199-12.664c-0.137-1.639-0.438-4.767-0.438-4.767c0.501-1.792,4.199-2.561,6.003-2.943
				c2.189-0.464,4.464-0.828,6.683-1.112c4.382-0.561,8.312-0.752,12.719-1.031c1.459-0.092,3.5-0.196,4.963-0.169
				C76.375,326.778,79.976,326.735,79.976,326.735z"/>
			<path style="opacity:0.24;" d="M66.736,314.365c2.488-0.846,5.208-1.315,7.739-0.607c0.388,0.108,0.786,0.255,1.051,0.559
				c0.374,0.428,0.391,1.074,0.226,1.618c-0.512,1.692-2.375,2.553-4.089,2.984c-3.089,0.776-9.829,1.312-11.983-1.667
				C61.837,316.087,64.401,315.159,66.736,314.365z"/>
			<path style="opacity:0.24;" d="M69.085,306.701c-3.124,1.046-6.509,0.777-9.803,0.848c-3.294,0.071-6.821,0.603-9.23,2.851
				c1.964-1.833,3.311-4.301,5.409-6.11c2.194-1.892,4.652-3.478,7.278-4.703c2.927-1.366,12.386-5.59,12.047,0.694
				C74.619,303.363,71.839,305.779,69.085,306.701z"/>
			<path style="opacity:0.24;" d="M75.28,290.532c-1.781,1.136-4.056,1.225-6.128,0.817c-2.072-0.408-4.024-1.266-6.033-1.918
				c-2.282-0.741-4.66-1.22-7.059-1.281c-3.166-0.081-6.356,0.577-9.204,1.963c6.171-6.496,15.736-9.571,24.536-7.889
				c1.813,0.347,4.844,1.083,5.866,2.847C78.341,286.94,76.9,289.499,75.28,290.532z"/>
			<path style="opacity:0.24;" d="M72.748,275.744c-2.514,0.972-5.354,0.502-7.924-0.312c-2.57-0.815-5.056-1.965-7.723-2.357
				c-2.667-0.391-5.67,0.131-7.444,2.161c1.224-2.719,3.851-4.51,6.444-5.983c3.211-1.824,6.676-3.415,10.363-3.619
				c3.265-0.181,6.776,0.931,9.029,3.391C77.7,271.433,75.531,274.668,72.748,275.744z"/>
			<path style="opacity:0.24;" d="M67.936,252.982c1.761-0.681,4.044-2.034,4.325,1.097c0.146,1.635-0.712,3.249-1.958,4.318
				c-1.246,1.069-2.837,1.658-4.437,2.025c-7.681,1.762-18.737-1.965-21.117-10.311c1.407,0.43,2.616,1.323,3.898,2.045
				c3.875,2.183,8.527,2.804,12.908,2.351C63.738,254.282,65.886,253.775,67.936,252.982z"/>
			<path style="opacity:0.24;" d="M57.337,237.32c2.516,0.706,5.163,0.757,7.746,1.153c2.583,0.396,5.239,1.216,7.039,3.111
				c1.799,1.895,2.409,5.106,0.764,7.136c-0.151,0.187-0.334,0.37-0.569,0.418c-0.267,0.055-0.533-0.074-0.778-0.191
				c-2.854-1.365-6.213-1.641-9.252-0.761c-0.853,0.247-1.704,0.585-2.591,0.558c-0.995-0.03-1.917-0.516-2.754-1.055
				c-3.338-2.149-5.917-5.395-7.399-9.067c-0.758-1.879-1.258-3.899-1.376-5.925c-0.181-3.096,1.973,0.247,2.955,1.145
				C52.887,235.461,55.03,236.673,57.337,237.32z"/>
			<path style="opacity:0.24;" d="M52.253,223.315c5.426,0.553,10.709-1.624,16.074-2.606c1.111-0.203,2.35-0.331,3.285,0.302
				c1.209,0.818,1.374,2.58,0.938,3.973c-0.539,1.722-1.78,3.158-3.232,4.231c-4.175,3.085-10.075,3.249-14.814,1.13
				c-4.138-1.851-8.55-5.806-10.251-10.089C46.767,221.809,49.266,223.01,52.253,223.315z"/>
			<path style="opacity:0.24;" d="M53.29,211.001c2.919-0.317,5.671-1.493,8.31-2.78c2.622-1.279,5.346-2.718,8.26-2.575
				c0.511,0.025,1.091,0.145,1.348,0.588c0.138,0.239,0.152,0.528,0.144,0.804c-0.076,2.667-1.9,5.058-4.193,6.424
				c-2.292,1.366-4.998,1.855-7.656,2.094c-2.93,0.263-5.959,0.239-8.714-0.791c-1.956-0.731-5.976-3.249-5.683-5.731
				c1.051,0.004,2.573,1.348,3.73,1.658C50.28,211.079,51.806,211.162,53.29,211.001z"/>
			<path style="opacity:0.24;" d="M61.866,187.691c0.698,0.189,1.395,0.378,2.094,0.551c1.83,0.451,6.261,0.407,6.741,2.89
				c0.128,0.659-0.159,1.345-0.602,1.849c-0.699,0.796-1.758,1.209-2.812,1.314c-2.566,0.256-5.546-0.856-7.431-2.592
				c-1.766-1.626-3.006-3.883-4.879-5.364C57.333,186.45,59.601,187.075,61.866,187.691z"/>
			<path style="opacity:0.24;" d="M87.793,174.954c0.664-0.164,1.415-0.283,1.993,0.082c-1.333,2.833-3.16,5.434-5.373,7.65
				c-1.296,1.297-2.772,2.491-4.526,3.025c-1.044,0.318-4.371,0.622-4.881-0.812c-0.425-1.197,2.126-3.516,2.889-4.288
				C80.601,177.878,84.055,175.878,87.793,174.954z"/>
			<path style="opacity:0.24;" d="M91.602,198.431c4.139-2.899,8.572-5.663,11.394-9.855c-0.062,6.205-2.547,12.354-6.815,16.858
				c-1.886,1.991-4.142,3.687-6.727,4.606c-3.242,1.152-9.351,1.632-6.615-3.183C84.841,203.335,88.348,200.71,91.602,198.431z"/>
			<path style="opacity:0.24;" d="M86.996,223.814c0.653,0.769,1.45,1.662,1.205,2.641c-0.218,0.873-1.257,1.348-2.143,1.193
				c-0.886-0.155-1.618-0.784-2.189-1.479c-1.555-1.889-2.24-4.406-2.147-6.851c0.039-1.045,0.782-6.524,2.195-6.271
				C83.746,217.004,84.339,220.686,86.996,223.814z"/>
			<path style="opacity:0.24;" d="M100.725,227.097c3.767-1.553,7.406-3.446,11.306-4.624c3.9-1.178,8.188-1.598,12.004-0.171
				c-1.526-0.442-3.197-0.136-4.626,0.558c-1.429,0.694-2.649,1.751-3.786,2.86c-1.896,1.848-3.63,3.889-5.786,5.425
				c-2.156,1.536-4.874,2.537-7.456,1.953c-1.67-0.378-3.207-1.575-3.934-3.134c-0.219-0.47-0.807-1.963-0.345-2.426
				C98.426,227.214,100.143,227.337,100.725,227.097z"/>
			<path style="opacity:0.24;" d="M96.842,240.946c5.451-1.996,11.549-2.466,16.395-5.663c-3.277,3.092-6.86,5.86-10.678,8.252
				c-1.424,0.892-2.977,1.758-4.656,1.728c-1.166-0.021-2.539-0.666-3.082-1.75C94.053,241.982,95.569,241.412,96.842,240.946z"/>
			<path style="opacity:0.24;" d="M106.282,248.503c2.338,0.116,4.675,0.231,7.013,0.347c-1.179,0.818-2.522,1.361-3.861,1.876
				c-4.596,1.768-9.664,3.296-14.37,1.846c-0.582-0.179-1.179-0.423-1.558-0.9c-1.607-2.023,3.589-2.813,4.746-2.998
				C100.903,248.249,103.612,248.371,106.282,248.503z"/>
			<path style="opacity:0.24;" d="M97.111,258.982c3.49-1.013,7.152-1.29,10.679-2.165c3.527-0.875,7.074-2.486,9.165-5.458
				c-0.473,6.365-4.308,12.383-9.878,15.499c-0.235,0.132-0.478,0.26-0.743,0.312c-0.411,0.08-0.831-0.031-1.242-0.111
				c-2.798-0.547-5.672,0.344-8.299,1.452c-0.359,0.151-0.735,0.31-1.123,0.279c-0.391-0.032-0.738-0.252-1.057-0.48
				c-1.56-1.118-3.774-3.677-3.066-5.819C92.176,260.585,95.368,259.488,97.111,258.982z"/>
			<path style="opacity:0.24;" d="M96.177,269.707c2.38-1.569,5.347-2.083,8.188-1.845c1.794,0.15,3.559,0.583,5.357,0.658
				c4.485,0.188,9-2.025,11.598-5.685c-0.988,2.831-2.276,5.684-4.552,7.636c-3.272,2.806-7.904,3.227-12.209,3.438
				c-4.541,0.223-8.204,0.881-12.284,2.846C91.235,274.423,94.404,270.875,96.177,269.707z"/>
			<path style="opacity:0.24;" d="M99.801,284.768c3.964,0.402,8.496,2.26,10.293,5.692c-3.85-1.282-8.161-1.124-11.906,0.437
				c-1.691,0.705-3.277,1.686-5.051,2.144c-4.845,1.251-3.255-3.623-1.172-5.792c1.475-1.536,3.559-2.472,5.687-2.554
				C98.335,284.669,99.058,284.693,99.801,284.768z"/>
			<path style="opacity:0.24;" d="M89.935,300.391c1.785-1.425,4.067-2.087,6.33-2.397c2.263-0.31,4.559-0.299,6.829-0.553
				c3.115-0.347,6.174-1.194,9.025-2.497c1.595-0.729,3.163-1.632,4.266-2.995c-1.864,3.264-3.87,6.676-7.116,8.572
				c-1.335,0.78-2.819,1.263-4.303,1.696c-3.141,0.918-6.339,1.639-9.569,2.16c-2.792,0.45-5.312,1.124-7.986,1.961
				C86.351,304.489,88.565,301.484,89.935,300.391z"/>
		</g>
		<path style="opacity:0.14;" d="M65.546,145.09c-3.736-0.776-7.18-0.237-10.952,0.334c0.092-7.189-0.662-14.389-2.241-21.404
			c1.775-0.024,3.55-0.048,5.324-0.071c-0.35-3.994-0.7-7.988-1.049-11.981c-0.178,0.295-0.119,0.565-0.298,0.86
			c0.061,2.052-2.946,2.973-4.642,1.816c-1.696-1.157-2.28-3.355-2.649-5.374c-0.764-4.178-1.146-8.507-0.219-12.652
			c0.134-0.598,0.305-1.212,0.699-1.681c0.732-0.872,2.098-1.006,3.134-0.534c1.036,0.472,1.778,1.427,2.291,2.443
			c1.021,2.02,1.279,4.327,1.521,6.578c-0.09-3.787-0.181-7.573-0.271-11.36c-0.101-4.248-0.189-8.594,1.142-12.63
			c1.331-4.035,4.841-7.438,8.984-8.384c-4.024,16.897-4.938,34.529-2.684,51.752c0.115,0.879,0.295,1.108,0.875,1.778
			C62.247,131.262,62.668,138.648,65.546,145.09z"/>
	</g>
	<g>
		<polygon style="fill:#FF6121;" points="408.184,450.676 74.747,450.676 159.329,364.695 333.184,365.335 		"/>
		<g>
			<g>
				<path style="fill:#FFAB87;" d="M264.051,218.687c0.104-3.055,0.943-8.994,4.634-9.553c1.763-0.267,3.57,0.188,5.342-0.015
					c1.553-0.178,2.971-0.874,4.057-1.972c0.512-0.518,1.024-1.142,1.344-1.796c0.382-0.778,0.592-1.547,1.152-2.247
					c0.098-0.123,0.205-0.25,0.231-0.404c0.039-0.234-0.128-0.462-0.337-0.581c-0.21-0.119-0.456-0.153-0.695-0.196
					c-1.861-0.332-3.574-1.357-4.96-2.591c-0.376-0.334-0.872-1.174-1.303-1.373c1.177,0.542,2.535,0.612,3.822,0.422
					c1.286-0.19,2.519-0.626,3.741-1.063c0.132-0.047,0.268-0.097,0.374-0.188c0.207-0.178,0.254-0.47,0.283-0.738
					c0.08-0.753-0.236-2.607,0.344-3.073c0.565-0.454,2.879-0.17,3.623-0.205c0.662-0.031,1.485-0.181,1.659-0.807
					c0.08-0.288-0.015-0.592-0.12-0.871c-0.888-2.35-2.863-4.255-4.129-6.416c-1.414-2.413-1.15-5.269-1.481-7.957
					c-0.459-3.726-2.125-7.294-4.672-10.098c-2.42-2.664-7.142-3.75-10.671-4.018c-7.469-0.567-15.112,3.273-18.99,9.541
					c-3.878,6.268-3.81,14.671,0.17,20.877c2.507,3.91,5.623,7.111,6.804,11.579c0.976,3.693-2.892,7.232-5.498,10.069
					c0.912,3.017,3.423,5.391,6.504,6.297C258.357,222.218,261.588,220.712,264.051,218.687z"/>
				<path style="fill:#693500;" d="M280.37,184.087c0,0.984-0.295,1.781-0.658,1.781c-0.364,0-0.659-0.797-0.659-1.781
					c0-0.984,0.295-1.781,0.659-1.781C280.076,182.306,280.37,183.104,280.37,184.087z"/>
				<g>
					<path style="fill:#693500;" d="M276.046,181.679c0,0-0.048-0.459,0.147-1.126c0.05-0.167,0.115-0.349,0.215-0.53
						c0.087-0.173,0.231-0.394,0.376-0.544c0.331-0.368,0.785-0.642,1.333-0.747c0.279-0.037,0.549-0.034,0.847,0.05
						c0.085,0.02,0.227,0.075,0.365,0.147c0.116,0.067,0.225,0.139,0.322,0.219c0.387,0.326,0.587,0.719,0.704,1.046
						c0.23,0.662,0.19,1.123,0.19,1.123s-0.275-0.335-0.688-0.837c-0.205-0.227-0.449-0.466-0.718-0.616
						c-0.067-0.038-0.136-0.067-0.206-0.093l-0.228-0.06c-0.112-0.025-0.281-0.024-0.426,0.006
						c-0.305,0.037-0.629,0.208-0.883,0.391c-0.15,0.125-0.254,0.208-0.377,0.339c-0.111,0.122-0.22,0.244-0.316,0.365
						c-0.193,0.257-0.353,0.471-0.466,0.621C276.115,181.59,276.046,181.679,276.046,181.679z"/>
				</g>
				<path style="fill:#693500;" d="M260.168,185.703c-1.03-1.293-2.45-2.625-4.113-2.413c-1.385,0.177-2.4,1.41-2.881,2.693
					c-1.103,2.942,0.051,6.541,2.673,8.341c0.758,0.52,1.646,0.905,2.573,0.914c0.926,0.01,1.888-0.407,2.36-1.187
					c-0.117,1.484,0.483,2.807,0.465,4.296c-0.036,2.896-2.403,5.315-4.388,7.216c-1.386,1.328-3.092,2.619-5.029,2.51
					c-0.158-0.009-0.35-0.055-0.387-0.205c-0.019-0.076,0.011-0.156,0.044-0.227c0.234-0.517,0.611-0.956,0.938-1.423
					c0.326-0.467,0.612-0.991,0.622-1.557c0.048-2.702-3.202,1.06-4.03,1.552c-1.127,0.67-2.572,0.992-3.771,0.456
					c1.445-0.329,2.654-1.402,3.286-2.715c0.632-1.313,0.721-2.838,0.417-4.258c-0.318,0.433-0.947,0.618-1.457,0.429
					c0.745-1.566-0.126-3.401-1.155-4.805c-1.029-1.404-2.29-2.813-2.394-4.537c-0.315-5.19-3.229-10.346-1.845-15.366
					c0.623-2.258,1.624-4.396,2.621-6.523c1.138-2.428,2.311-4.907,4.208-6.828c1.59-1.61,3.882-2.046,6.149-2.359
					c2.266-0.313,4.583-0.244,6.827-0.687c4.092-0.807,7.71-3.266,11.826-3.952c2.288-0.381,4.673-0.19,6.867,0.552
					c0.266,0.09,0.563,0.222,0.639,0.487c0.094,0.328-0.206,0.627-0.475,0.842c-0.794,0.636-1.589,1.271-2.383,1.907
					c1.975,2.102,5.437,2.693,8.024,1.371c1.057-0.54,1.947-1.345,2.949-1.978c1.003-0.633,2.212-1.1,3.376-0.844
					c1.164,0.257,2.142,1.482,1.752,2.584c-0.155,0.438-0.492,0.792-0.855,1.09c-1.832,1.499-4.598,1.962-5.794,3.984
					c-0.371,0.627-0.545,1.345-0.848,2.006c-1.009,2.202-3.571,3.618-6.021,3.327c0.354,1.002,0.103,1.606-0.332,2.577
					c-2.561-1.48-6.24-1.854-9.174-1.376c-0.143,0.023-0.299,0.056-0.39,0.167c-0.163,0.2-0.009,0.496,0.175,0.678
					c0.376,0.372,0.871,0.609,1.26,0.968s0.668,0.928,0.442,1.402c-0.302,0.633-1.204,0.639-1.914,0.564
					c-4.78-0.503-9.643-0.237-14.336,0.785c1.982,0.211,3.913,0.864,5.605,1.895c0.765,0.466,1.508,1.04,1.891,1.838
					c0.646,1.347,0.113,2.926-0.424,4.319c-0.284,0.737-0.61,1.524-1.291,1.944C261.787,186.577,260.663,186.324,260.168,185.703z"
					/>
				<g>
					<path style="opacity:0.14;" d="M285.259,188.08c1.406,1.955,3.616,5.034,0.567,5.021c-0.382-0.002-2.162,0.045-3.099-0.102
						c-0.192-0.03-0.387-0.066-0.561-0.152c-0.305-0.15-0.518-0.441-0.635-0.755c-0.549-1.477-0.097-3.106,0.098-4.598
						c0.237-1.812,0.352-3.61,0.462-5.434C282.61,184.997,284.923,187.613,285.259,188.08z"/>
					<path style="opacity:0.14;" d="M254.387,186.364c0.136-0.325,0.469-0.538,0.815-0.633c0.756-0.208,1.586,0.072,2.193,0.56
						c0.607,0.488,1.027,1.159,1.4,1.835c0.663,1.204,1.222,2.494,1.341,3.856c-0.352,0.409-0.888,0.739-1.375,0.982
						c-0.487,0.243-1.108,0.294-1.564-0.002c-0.542-0.352-0.694-1.073-0.631-1.706c0.067-0.674,0.382-1.386,1.012-1.667
						c0.138-0.061,0.304-0.117,0.355-0.256c0.03-0.08,0.012-0.169-0.009-0.252c-0.303-1.199-1.202-2.24-2.361-2.732
						C255.161,186.178,254.718,186.081,254.387,186.364z"/>
				</g>
			</g>
			<g>
				<path style="fill:#FFAB87;" d="M220.381,287.941c-2.881-2.356-5.729-4.749-8.545-7.178c-3.153-2.721-6.305-5.534-8.555-9.008
					c-1.201-1.855-2.126-3.871-3.35-5.712c-4.284-6.445-11.777-11.785-12.702-19.418c6.156-6.411,13.67-11.57,21.927-15.056
					c2.422-1.022,4.937-1.919,7.067-3.441c2.587-1.848,4.447-4.507,6.869-6.559c5.656-4.795,13.611-5.765,21.057-6.527
					c4.316-0.442,5.752,6.026,5.166,10.231c-0.585,4.205-3.168,7.879-5.991,11.102c-4.56,5.208-10.3,9.887-17.193,11.142
					c-1.532,0.279-3.095,0.383-4.619,0.701c-3.273,0.683-6.241,2.32-9.152,3.935c8.415,8.289,8.754,21.361,18.151,28.57
					c0.176,0.135,0.374,0.314,0.334,0.529c-0.041,0.215-0.482,0.184-0.398-0.019C230.584,285.775,225.002,288.421,220.381,287.941z"
					/>
				<path style="fill:#007396;" d="M273.951,227.489c-2.474-4.821-6.126-9.159-10.879-11.896s-10.425-3.922-15.683-2.293
					c-5.717,1.771-10.189,6.326-13.033,11.49c-2.844,5.163-4.259,10.946-5.575,16.667c-1.484,6.458-1.535,12.029-3.562,18.344
					c-0.894,2.785-1.938,5.735-2.493,8.645c-2.067,3.181-3.554,8.947-4.463,11.574c-1.227,3.545-2.209,7.399-1.137,10.991
					c1.127,3.775,4.423,6.662,8.13,8.187c3.707,1.525,7.807,1.857,11.829,1.905c4.598,0.055,9.2-0.238,13.751-0.875
					c1.382-0.193,2.835-0.451,3.898-1.335c1.068-0.888,1.561-2.252,2.009-3.551c2.703-7.834,5.406-15.668,8.109-23.502
					c0.394-0.355,0.788-0.709,1.183-1.07C277.774,260.04,281.159,241.533,273.951,227.489z"/>
				<path style="fill:#FFAB87;" d="M359.396,236.798c-3.573,0.561-7.13,1.605-10.625,2.311c-3.659,0.739-7.354,1.481-11.089,1.428
					c-6.205-0.088-12.225-2.363-18.43-2.372c-11.411-0.015-22.394,5.154-33.851,4.7c-4.846-0.192-9.419-1.922-14.329-1.638
					c-7.745,0.447-14.256,3.911-22.117,1.539c-6.134-1.851-10.298-6.497-10.791-12.842c-0.593-7.644,4.431-15.048,12.606-15.655
					c8.891-0.661,16.379,7.061,25.136,7.63c3.421,0.222,6.53-1.535,10.035-1.849c4.063-0.363,8.163,0.166,12.199,0.667
					c6.789,0.844,12.993,1.739,19.535,3.993c0.619,0.213,1.248,0.429,1.894,0.442c0.86,0.018,1.691-0.322,2.511-0.624
					c7.48-2.753,15.426-2.526,23.124-1.381c8.955,1.332,20.041,6.631,26.616-2.623c0.448-0.631,0.852-1.327,1.504-1.756
					c0.406-0.268,0.883-0.412,1.354-0.542c2.181-0.605,4.424-0.994,6.685-1.161c0.384-0.028,0.782-0.048,1.143,0.084
					c0.503,0.185,0.849,0.634,1.288,0.937c0.974,0.674,2.444,0.668,3.103,1.641c0.983,1.451-0.818,3.253-0.776,4.993
					c0.026,1.088,0.763,2.283,0.123,3.173c-0.308,0.428-0.871,0.643-1.14,1.095c-0.569,0.956,0.504,2.241,0.016,3.238
					c-0.35,0.714-1.375,0.975-1.607,1.733c-0.105,0.345-0.016,0.721-0.097,1.072c-0.181,0.79-1.1,1.158-1.904,1.352
					c-5.501,1.329-11.118,0.26-16.685,0.042C363.017,236.354,361.205,236.514,359.396,236.798z"/>
			</g>
			<g>
				<g>
					<path style="fill:#FFAB87;" d="M122.505,412.377c-1.639-1.445-2.691-3.618-2.9-6.64c-0.389-5.633-0.358-11.293,0.093-16.921
						c0.087-1.086,0.231-2.262,1.011-3.044c0.997-1,2.626-0.979,4.057-0.889c4.477,0.283,9.407,0.566,13.884,0.849
						c4.521-0.489,11.068-0.639,15.167-2.661c3.079-1.518,5.096-4.528,7.896-6.652c7.001-5.31,15.703-8.519,24.587-8.919
						c2.494-0.113,5.133-0.048,7.296-1.258c3.331-1.864,4.333-5.98,5.236-9.61c1.772-7.125,4.345-14.112,7.734-20.666
						c3.296-6.373,7.866-12.359,7.508-19.905c-0.151-3.182-1.254-6.247-1.7-9.403c-0.901-6.375,1.027-13.08,5.199-18.079
						c4.172-4.999,12.343-5.729,18.548-7.987c3.148-1.146,6.842,0.057,9.243,2.342s3.683,5.47,4.387,8.663
						c2.551,11.57-2.133,21.015-6.31,31.417c-4.457,11.099-8.928,21.999-14.75,32.517c-3.163,5.714-6.577,11.296-10.233,16.726
						c-2.493,3.704-5.318,10.423-8.749,13.157c-1.089,0.867-2.486,1.263-3.844,1.624c-18.193,4.836-36.291,5.311-54.762,7.65
						c-6.826,0.864-25.808,2.636-22.42,13.381c0.838,2.654,3.034,4.747,5.535,6.09C129.481,415.165,125.199,414.753,122.505,412.377
						z"/>
					<path style="fill:#FFAB87;" d="M282.76,420.217c-0.298-0.034-0.598-0.068-0.899-0.103c-1.982-0.226-18.216-1.949-18.515-1.389
						c8.185-15.345,20.445-30.132,16.905-49.409c-0.411-2.237-1.07-4.415-1.43-6.662c-0.858-5.358,0.066-11.035,2.564-15.742
						c1.942-3.661,6.189-6.356,10.065-6.467c-15.979-9.54-35.185-9.381-52.723-14.749c-4.786-1.465-9.696-3.522-12.875-7.691
						c-12.334-16.171,6.811-31.833,20.915-30.579c8.506,0.756,16.41,4.898,24.044,9.06c7.449,4.062,14.903,8.26,21.673,13.586
						c5.528,4.349,14.793,11.868,16.849,19.378c0.503,1.836,0.265,3.805-0.009,5.697c-2.559,17.643-8.012,34.782-16.027,50.367
						c-2.996,5.829-5.96,13.35-7.822,19.689c-1.728,5.883,2.191,9.115,7.807,10.923c3.104,0.999,6.62,1.1,9.11,3.353
						C295.619,421.585,289.531,420.987,282.76,420.217z"/>
				</g>
				<path style="fill:#004C78;" d="M291.735,306.232c-6.557-3.391-12.766-7.382-19.279-10.849c-3.088-1.644-6.758-2.74-9.707-4.521
					c-1.153-0.697-2.233-0.615-2.813-2.147c-0.107-0.283-0.119-3.036,0.15-2.845c-6.417-4.534-13.837-6.828-21.748-6.793
					c-4.157,0.018-8.21,0.702-12.272,1.499c-2.124,0.417-4.313,0.366-6.445,0.731c-3.027,0.517-3.113,1.426-4.23,4.197
					c-2.113,5.244-4.176,10.634-4.657,16.297c-0.576,6.783,1.387,13.607,0.053,20.353c-1.398,7.074-7.95,12.176-9.72,19.349
					c5.61,1.882,11.021,4.045,16.096,7.047c4.561,2.698,9.37,5.958,14.672,5.417c6.278-6.987,7.619-17.38,13.754-24.487
					c7.806,1.264,16.387,2.828,23.873,5.335C274.236,323.606,281.858,313.59,291.735,306.232z"/>
				<g>
					<path style="fill:#FFFFFF;" d="M143.587,384.646c0.484,0.114,0.82,0.358,0.873,0.808c0.067,0.576-0.209,1.128-0.391,1.68
						c-0.735,2.228,0.048,4.627,0.721,6.873c0.179,0.597,0.338,1.287-0.016,1.804c-0.27,0.394-0.765,0.57-1.231,0.699
						c-3.187,0.881-6.385,1.118-9.451,2.507c-2.04,0.924-4.137,2.315-4.643,4.457c-0.31,1.311,0.041,2.68,0.477,3.956
						c0.286,0.837,0.616,1.673,1.154,2.381c1.261,1.658,3.418,2.34,5.275,3.326c0.216,0.115,0.443,0.249,0.541,0.47
						c0.255,0.577-0.517,1.061-1.142,1.205c-1.832,0.421-3.732,0.453-5.614,0.483c-3.256,0.052-7.547-1.379-9.435-4.164
						c-1.181-1.742-1.461-3.909-1.625-5.993c-0.45-5.723-0.261-11.493,0.563-17.176c0.109-0.75,0.246-1.538,0.736-2.125
						c0.495-0.592,1.274-0.881,2.039-1.041c3.336-0.698,6.585,0.722,9.906,0.699c2.271-0.016,4.533-0.232,6.791-0.452
						C139.933,384.963,142.291,384.34,143.587,384.646z"/>
					<path style="fill:#FFFFFF;" d="M289.456,394.705c-4.025,1.466-8.878,0.439-11.923-2.524
						c-2.295,6.528-6.101,11.794-10.158,17.443c-1.672,2.328-3.505,4.603-4.531,7.265c-0.194,0.502-0.358,1.051-0.216,1.569
						c0.322,1.17,1.871,1.435,3.109,1.474c11.369,0.361,22.738,0.721,34.107,1.082c1.255,0.04,2.959-0.312,2.963-1.54
						c0.003-0.865-0.922-1.42-1.746-1.733c-2.868-1.091-5.986-1.422-8.876-2.456c-2.89-1.034-5.713-3.053-6.379-5.991
						c-0.432-1.908,0.111-3.883,0.65-5.764C287.269,400.7,288.645,397.535,289.456,394.705z"/>
					<path style="opacity:0.24;" d="M216.2,286.456c-2.841,12.645-0.591,27.316,11.386,34.879c2.891,1.826,5.867,2.326,8.907,3.433
						c3.338,1.216,5.767,3.469,9.478,4.149c-1.088,2.359-3.137,4.218-4.346,6.57c-1.317,2.564-2.287,5.282-3.469,7.905
						c-1.358,3.015-3.016,7.67-5.698,9.817c-4.056,3.246-11.492-2.42-15.077-4.355c-5.055-2.728-10.535-4.891-15.752-7.314
						c-0.167-0.078-0.342-0.161-0.449-0.308c-0.218-0.298-0.076-0.711,0.083-1.043c1.739-3.653,4.604-6.688,6.529-10.25
						c3.781-6.993,3.578-16.029,3.318-23.71c-0.144-4.264,0.267-8.494,1.374-12.627c0.551-2.055,1.258-4.07,2.118-6.021
						c0.713-1.618,1.729-3.406,2.225-5.061C216.453,283.768,216.493,285.152,216.2,286.456z"/>
				</g>
			</g>
			<g>
				<path style="opacity:0.14;" d="M222.446,269.405c-3.798-5.15-5.052-11.956-9.377-16.671c-1.716-1.87,1.287-2.085,2.665-2.607
					c2.394-0.907,4.845-1.661,7.334-2.257c0.891-0.214,1.803-0.407,2.658-0.745c0.691-0.273,1.551-1.042,2.188-1.09
					c0.279,1.348-0.365,3.244-0.612,4.613c-0.273,1.512-0.572,3.019-0.896,4.521c-0.649,3.003-1.401,5.984-2.255,8.936
					c-0.879,3.038-1.864,6.046-2.955,9.015c-0.53,1.442-1.085,2.875-1.664,4.298c-0.2,0.491-1.274,3.923-1.7,3.991
					c3.911-0.618,7.822-1.235,11.733-1.853c0.847-0.134,1.705-0.271,2.487-0.622c1.084-0.487,1.951-1.353,2.714-2.264
					c5.365-6.407,6.506-15.086,8.877-22.825c0.784-2.559,2.389-9.485,5.028-10.789c1.407-0.695,4.671,0.633,6.302,0.708
					c2.286,0.106,4.586-0.104,6.813-0.634c1.796-0.427,3.539-1.056,5.333-1.491c6.156-1.491,12.136,0.251,18.308,0.405
					c6.555,0.164,13.132-0.531,19.508-2.064c3.632-0.873,7.231-2.022,10.958-2.267c5.101-0.336,10.139,1.035,15.208,1.7
					c6.189,0.812,12.514,0.565,18.621-0.725c4.213-0.89,8.323-2.272,12.582-2.909c3.379-0.505,6.829-0.533,10.216-0.082
					c2.188,0.291,4.383,0.781,6.58,0.566c2.197-0.215,4.471-1.309,5.373-3.323c0.277-0.62,0.413-1.325,0.246-1.984
					c-0.31-1.23-1.611-2.001-2.875-2.115c-1.264-0.114-2.511,0.284-3.725,0.653c-10.57,3.219-21.679,4.662-32.722,4.251
					c-8.346-0.311-16.672-1.672-25.009-1.185c-3.294,0.192-6.564,0.672-9.851,0.963c-3.007,0.266-6.026,0.372-9.043,0.479
					c-5.967,0.211-11.934,0.421-17.901,0.632c-9.426,0.333-23.862,3.357-29.194-7.153c-2.284-4.501-0.288-9.366,3.272-12.412
					c-0.213-0.697,0.148-1.015,0.536-1.631c-1.884-1.911-6.549-1.06-8.812-0.483c-2.6,0.663-5.095,1.707-7.715,2.282
					c-1.833,0.402-3.709,0.571-5.559,0.89c-3.664,0.631-8.062,1.747-10.986,4.1c-2.93,2.358-5.378,5.329-8.456,7.501
					c-2.711,1.913-5.888,3.026-8.926,4.36c-7.702,3.382-14.717,8.318-20.501,14.426c1.35,6.26,6.387,10.676,10.146,15.541
					c4.021,5.204,6.173,11.587,11.479,15.836c1.381,1.106,2.902,2.029,4.253,3.171c0.729,0.616,1.258,1.9,2.133,2.299
					c0.892,0.407,0.789,0.159,1.264-0.777c0.375-0.739,0.711-1.501,1.052-2.256c1.404-3.109,2.651-6.288,3.735-9.522
					c0.343-1.024,0.665-1.654,0.308-2.634c-0.271-0.744-0.974-1.385-1.362-2.08c-0.706-1.263-1.411-2.526-2.117-3.789
					c-1.364-2.442-2.729-4.884-4.093-7.326c-0.341-0.61-1.995-2.769-1.731-3.403c0.03-0.072,0.095-0.145,0.188-0.217"/>
				<path style="opacity:0.24;" d="M215.235,347.591c-6.242,7.716-11.442,16.039-14.265,25.554
					c-0.324,1.092-0.678,2.274-1.593,2.952c-0.771,0.572-1.785,0.665-2.741,0.744c-9.342,0.772-18.732,2.144-27.471,5.538
					c-6.453,2.507-12.529,6.105-19.285,7.618c-5.329,1.193-10.868,1.037-16.26,1.9c-5.392,0.863-14.285,7.487-14.745,9.499
					c0.498-0.736-0.382-5.595,0.351-10.051c0.396-2.408-0.334-5.235,2.41-6.322c2.568-1.018,7.689,0.072,11.663,0.472
					c2.133,0.214,6.055-0.68,9.033-0.92c0.836-0.068,1.507,0.15,2.187,0.61c0,0,4.171-0.515,5.844-0.917
					c5.821-1.399,6.507-3.739,11.351-7.849c5.767-4.893,13.398-7.028,19.111-8.404c4.489-1.081,11.841,0.552,14.668-3.32
					c4.38-6,2.866-10.078,5.576-15.721c1.02-2.124,1.784-5.136,2.591-6.574C207.196,344.38,211.619,345.599,215.235,347.591"/>
				<path style="opacity:0.24;" d="M225.115,280.732c-1.553,6.696-1.652,14.209,0.783,20.637c1.675,4.424,4.413,8.65,8.523,10.992
					c2.173,1.239,4.622,1.895,7.039,2.538c4.872,1.297,9.743,2.593,14.615,3.89c4.716,1.255,9.687,2.658,13.045,6.199
					c0.505,0.533,0.986,1.123,1.649,1.437c0.614,0.291,1.315,0.313,1.993,0.354c7.605,0.455,14.976,4.048,20.019,9.759
					c1.311,1.484,2.579,3.182,4.456,3.814c-6.582,4.431-8.976,13.111-9.685,21.014c-0.709,7.903,0.141,15.945-1.345,23.739
					c-0.981,5.147-2.982,10.098-5.853,14.481c-2.105,3.214-4.68,6.142-6.352,9.601c-1.252,2.591-1.965,5.633-1.381,8.497
					c0.289,1.415,1.058,2.274-0.631,2.378c-1.471,0.09-3.031-0.261-4.526-0.221c-1.147,0.031-2.339,0.12-3.399-0.318
					c-1.06-0.438-1.926-1.61-1.58-2.704c0.133-0.419,0.42-0.769,0.702-1.106c1.865-2.232,3.138-4.759,4.85-7.027
					c1.97-2.61,3.699-5.446,5.34-8.275c3.334-5.75,6.086-11.912,7.299-18.481c0.954-5.17-0.098-9.944-0.819-15.152
					c-0.721-5.208-1.342-10.594,0.079-15.656c1.422-5.062,5.39-9.767,10.602-10.454c0.132-1.73-1.546-2.686-3.127-3.402
					c-5.507-2.497-11.453-3.848-17.351-5.182c-0.078,0.89-0.313,1.734-0.796,2.471c-4.801-1.584-10.089-2.979-15.075-3.87
					c-1.379-0.247-2.771-0.427-4.139-0.727c-4.281-0.94-7.773-3.185-11.697-4.959c-3.376-1.525-7.088-2.349-10.404-4.071
					c-6.097-3.166-10.285-9.364-11.971-16.023c-1.687-6.659-1.072-13.736,0.695-20.374c0.243-0.913,0.521-1.847,1.115-2.58
					C217.788,281.949,220.757,280.899,225.115,280.732z"/>
				<path style="opacity:0.14;" d="M258.278,163.132c-0.27,0.262-0.507,0.54-0.681,0.846c-1.046,1.839-0.774,4.974,0.535,6.577
					c1.329,1.628,3.529,2.182,5.393,3.152c6.743,3.507,8.749,12.634,6.752,19.967c-1.161,4.264-3.359,8.143-5.805,11.79
					c-1.263,1.883-2.602,3.713-3.93,5.55c-0.371,0.513-1.044,1.998-1.627,2.25c-0.608,0.263-2.015-0.347-2.721-0.408
					c-1.648-0.142-3.296-0.283-4.944-0.425c1.249-1.489,2.532-3.044,3.032-4.922c0.055-0.207,0.05-0.503-0.159-0.55
					c-0.092-0.02-0.185,0.024-0.269,0.067c-0.407,0.207-1.841,1.261-1.976,0.348c-0.019-0.126,0.86-0.902,0.966-1.101
					c0.414-0.778,0.877-2.972,0.43-3.81c-1.364,1.044-2.729,2.089-4.093,3.133c-0.733,0.561-1.62,1.154-2.506,0.897
					c0.22-0.349,0.613-0.54,0.949-0.78c0.982-0.702,1.515-1.9,1.677-3.096c0.162-1.196-0.004-2.41-0.169-3.605
					c-0.317,0.308-0.741,0.503-1.18,0.544c0.148-1.347-0.535-3.87-1.208-5.019c-0.561-0.957-1.37-1.759-1.865-2.751
					c-0.42-0.84-0.595-1.778-0.766-2.701c-0.378-2.043-0.757-4.087-1.135-6.13c-0.443-2.392-0.886-4.852-0.432-7.242
					c0.358-1.885,1.255-3.618,2.142-5.32c1.46-2.804,2.818-6.48,5.373-8.493c3.579-2.82,8.954-1.475,13.084-3.398
					c-0.895,0.417-1.919,2.131-2.676,2.84C259.83,161.934,258.95,162.48,258.278,163.132z"/>
				<path style="opacity:0.14;" d="M278.96,422.512c-10.693,0.419-21.513,0.214-32.077,0.754
					c-14.505,0.741-29.011,1.463-43.519,2.136c-10.684,0.496-21.37,0.966-32.057,1.4c-9.967,0.404-19.79-0.15-29.484,2.717
					c0.063,0.754,0.62,1.442,1.344,1.662c0.235,0.842-0.896,1.356-1.76,1.487c-41.14,6.256-85.409,5.637-126.506-0.831
					c-3.695-0.582-7.738-1.445-10-4.425c17.602-6.401,37.751-6.003,56.228-8.176c10.068-1.184,20.136-2.368,30.204-3.552
					c5.178-0.609,10.356-1.218,15.533-1.827c3.445-0.405,10.58-2.7,13.807-1.624c4.73,2.365,9.61,3.598,14.895,3.415
					c-4.713,0.163-11.979,1.379-15.907,3.981c1.006,0.259,2.085,0.223,3.175,0.213c57.299-0.494,114.675-2.772,171.863,1.421
					C289.515,421.944,284.253,422.305,278.96,422.512z"/>
			</g>
		</g>
	</g>
	<g>
		<g>
			<rect x="372.749" y="435.377" style="fill:#757575;" width="9.891" height="36.494"/>
			<rect x="362.248" y="443.487" style="fill:#5B5B5B;" width="10.501" height="20.854"/>
			<rect x="382.641" y="448.7" style="fill:#77DDFF;" width="58.667" height="8.11"/>
		</g>
		<g>
			
				<rect x="435.12" y="434.798" transform="matrix(-1 -1.224647e-16 1.224647e-16 -1 879.8354 906.0889)" style="fill:#757575;" width="9.595" height="36.494"/>
			
				<rect x="444.715" y="442.907" transform="matrix(-1 -1.224647e-16 1.224647e-16 -1 899.6176 906.6681)" style="fill:#5B5B5B;" width="10.187" height="20.854"/>
		</g>
		<g>
			<path style="opacity:0.14;" d="M381.008,454.303c0.361,0.377,0.745,0.764,0.902,1.263c0.091,0.289,0.099,0.598,0.106,0.901
				c0.114,4.979,0.228,9.958,0.342,14.937c-3.108-0.496-6.302-0.451-9.396,0.133c-0.029-2.428-0.058-4.856-0.087-7.284
				c-3.277-0.195-6.554-0.39-9.832-0.585c-0.215-0.013-0.451-0.035-0.601-0.189c-0.15-0.153-0.167-0.388-0.176-0.603
				c-0.236-5.816-0.471-11.632-0.707-17.449c-0.023-0.574-0.007-1.24,0.444-1.597c0.279-0.221,0.657-0.26,1.012-0.29
				c3.162-0.259,6.336-0.387,9.509-0.382c0.013-1.653-0.285-3.757,0.506-4.977c1.512,1.97,1.688,6.009,2.847,8.536
				C377.153,449.501,378.884,452.094,381.008,454.303z"/>
			<path style="opacity:0.24;" d="M435.452,452.379c-17.556,1.592-35.265,1.488-52.801-0.309c-0.431,1.82-0.453,2.553-0.138,4.397
				c16.796-0.532,33.612-0.463,50.403,0.209c0.71,0.028,1.546-0.001,1.951-0.585c0.243-0.35,0.253-0.807,0.255-1.233
				C435.125,453.769,435.449,453.468,435.452,452.379z"/>
			<path style="opacity:0.14;" d="M443.634,468.999c0.57,0.476,1.137,1.469,0.471,1.798c-0.155,0.077-0.336,0.076-0.51,0.073
				c-2.68-0.046-5.36-0.092-8.04-0.137c-0.17-3.492-1.258-10.497,0.673-13.285C439.199,460.638,439.741,465.743,443.634,468.999z"/>
			<path style="opacity:0.14;" d="M338.545,477.558c6.608,1.251,13.495,1.484,20.161,1.766c8.231,0.348,16.478,0.318,24.706-0.091
				c1.401-0.07,2.961-0.225,3.88-1.284c0.919-1.059,0.327-3.235-1.068-3.093c12.407-1.062,24.885-1.297,37.323-0.702
				c-2.108,0.81-4.216,1.619-6.324,2.429c8.975,2.833,18.816,2.849,27.8,0.044c1.615-0.504,3.566-1.827,2.938-3.397
				c-0.689-1.721-3.465-1.79-4.959-1.817c-2.355-0.042-4.71-0.086-7.065-0.129c-0.373-0.007-0.848-0.092-0.925-0.457
				c-0.047-0.224,0.093-0.451,0.068-0.678c-0.05-0.451-0.64-0.576-1.093-0.586c-3.863-0.077-7.727-0.124-11.591-0.138
				c-9.66-0.037-19.321,0.123-28.974,0.478c-2.413,0.089-4.826,0.19-7.239,0.303c-0.19,0.009-3.352,0.153-3.352,0.163
				c-0.005,0.331-0.01,0.662-0.015,0.993c-0.001,0.097-0.005,0.199-0.057,0.281c-0.087,0.135-0.27,0.161-0.431,0.171
				c-1.368,0.09-2.745,0.055-4.106-0.107c-4.891-0.581-10.003,0.19-14.887,0.579c-5.391,0.429-10.782,0.858-16.173,1.286
				c-2.701,0.215-5.405,0.43-8.088,0.813c-1.484,0.212-2.998,0.488-4.293,1.244c-0.198,0.116-0.409,0.272-0.435,0.5
				c-0.042,0.372,0.406,0.584,0.769,0.676C336.247,477.091,337.392,477.34,338.545,477.558z"/>
		</g>
	</g>
</g>
</svg>
